<?xml version="1.0" encoding="UTF-8" standalone="no"?>
<svg xmlns:xlink="http://www.w3.org/1999/xlink" height="39.39px" width="30.18px" xmlns="http://www.w3.org/2000/svg">
  <g transform="matrix(0.6, 0.0, 0.0, 0.6, 0.15, 3.6)">
    <use height="42.15" transform="matrix(1.0, 0.0, 0.0, 1.0, 3.25, 6.2)" width="42.2" xlink:href="#shape0"/>
  </g>
  <defs>
    <g id="shape0" transform="matrix(1.0, 0.0, 0.0, 1.0, -0.4, -0.4)">
      <path d="M35.15 7.85 Q31.7 4.45 27.5 3.15 L27.55 3.2 27.05 3.0 21.65 2.3 Q13.7 2.3 8.15 7.85 L6.7 9.55 Q2.55 14.65 2.55 21.35 2.55 29.3 8.15 34.85 9.85 36.6 11.9 37.85 12.9 38.5 14.1 38.95 17.55 40.45 21.65 40.45 29.55 40.45 35.15 34.85 40.7 29.3 40.7 21.35 40.7 14.65 36.65 9.55 L35.15 7.85 M39.1 9.75 L39.1 9.8 Q42.6 14.9 42.6 21.45 42.6 30.2 36.4 36.4 30.2 42.55 21.5 42.55 18.35 42.55 15.5 41.75 L11.6 40.2 Q8.9 38.7 6.6 36.4 2.55 32.35 1.15 27.15 0.4 24.45 0.4 21.45 0.4 18.5 1.15 15.8 2.0 12.6 3.95 9.8 L3.95 9.75 Q5.05 8.1 6.6 6.55 12.75 0.4 21.5 0.4 25.5 0.4 29.05 1.75 L29.85 2.05 Q33.4 3.55 36.4 6.55 L39.1 9.75 M34.2 9.8 Q38.6 14.55 38.6 21.25 38.6 28.35 33.6 33.3 28.6 38.3 21.55 38.3 17.9 38.3 14.85 37.0 L12.45 35.75 Q10.9 34.7 9.5 33.3 4.5 28.35 4.5 21.25 4.5 14.55 8.95 9.8 L9.5 9.2 Q14.5 4.2 21.55 4.2 24.05 4.2 26.35 4.9 L26.4 4.9 Q30.4 6.05 33.6 9.2 L34.2 9.8 M35.2 12.05 L35.1 12.0 Q31.55 10.05 30.45 10.55 L30.25 10.65 30.25 10.7 27.55 14.05 27.5 14.15 27.55 14.3 27.9 14.65 27.95 14.7 28.2 14.95 28.7 15.45 28.85 15.5 29.0 15.5 31.7 13.55 31.65 13.55 Q32.15 13.35 32.5 13.8 32.85 14.15 32.35 14.75 L29.7 16.4 29.6 16.5 29.65 16.65 30.25 17.95 30.35 18.05 30.5 18.05 34.5 16.8 34.55 16.8 Q35.65 16.35 35.2 12.15 L35.2 12.05 M26.9 5.75 L26.85 5.75 25.05 6.1 Q22.6 6.7 22.3 7.55 L22.3 7.45 22.2 7.75 22.2 12.0 22.25 12.15 22.4 12.2 23.95 12.45 24.1 12.45 24.2 12.3 25.1 9.05 Q25.4 8.65 25.9 8.8 L25.95 8.8 Q26.45 8.85 26.4 9.65 L26.4 9.7 25.3 12.7 25.3 12.85 25.4 12.95 26.6 13.6 26.75 13.6 26.9 13.55 29.4 9.95 29.45 9.95 29.5 9.7 Q29.8 8.6 27.0 5.8 L26.9 5.75 M21.25 12.2 L21.35 12.1 21.35 12.0 21.15 7.6 Q20.9 6.45 16.75 5.8 L16.65 5.8 16.55 5.9 Q14.3 8.45 14.1 9.65 L14.1 10.1 14.1 10.05 14.15 10.15 14.2 10.3 16.6 13.45 16.75 13.5 16.85 13.5 17.5 13.1 18.2 12.8 18.3 12.75 18.35 12.65 18.35 12.55 17.25 9.6 Q17.15 9.05 17.7 8.85 18.15 8.6 18.65 9.2 L19.6 12.15 19.7 12.3 19.85 12.3 21.15 12.2 21.25 12.2 M27.8 15.5 Q26.55 14.3 25.15 13.7 23.55 13.0 21.7 13.0 L20.6 13.1 Q17.75 13.4 15.65 15.5 13.15 18.0 13.15 21.55 13.15 24.35 14.8 26.6 L15.65 27.6 Q16.35 28.3 17.15 28.85 L18.8 29.65 21.7 30.15 24.65 29.7 Q26.35 29.0 27.8 27.6 L29.3 25.65 Q30.3 23.8 30.3 21.55 L30.25 20.5 Q29.95 17.9 28.15 15.95 L27.8 15.5 M34.8 17.75 L30.85 18.95 30.75 19.05 30.7 19.15 30.75 19.25 30.75 19.35 30.75 19.4 30.95 20.85 31.05 20.95 31.15 21.0 34.3 20.9 Q34.85 21.05 34.85 21.65 L34.85 21.7 34.8 22.1 34.15 22.35 31.15 22.2 31.05 22.25 30.95 22.4 30.75 23.75 30.8 23.9 30.9 24.0 34.8 25.3 Q35.9 25.55 38.05 21.85 L38.05 21.75 38.05 21.65 Q36.25 18.1 35.1 17.85 L34.95 17.8 34.8 17.75 M13.1 10.65 Q12.15 9.85 8.45 11.8 L8.4 11.85 8.35 11.95 Q7.85 15.95 8.7 16.8 L8.85 16.85 8.9 16.85 12.7 18.1 12.85 18.1 12.95 18.0 13.4 17.0 13.6 16.6 13.65 16.5 13.65 16.4 13.6 16.3 11.05 14.55 Q10.65 14.2 10.95 13.7 11.2 13.2 12.0 13.45 L14.45 15.25 14.55 15.3 14.65 15.3 14.75 15.2 14.9 15.05 15.0 14.95 15.7 14.3 15.75 14.25 15.75 14.15 15.7 14.05 13.1 10.7 13.1 10.65 M5.05 21.5 Q6.85 24.95 8.05 25.2 L8.35 25.2 12.3 23.9 12.45 23.8 12.45 23.65 12.25 22.4 12.25 22.15 12.25 22.05 12.15 22.0 12.05 21.95 8.75 22.05 Q8.2 21.95 8.15 21.45 L8.15 21.4 Q8.05 20.85 8.85 20.6 L12.05 20.7 12.2 20.65 12.25 20.55 12.5 19.2 12.5 19.05 12.35 18.95 8.15 17.7 Q6.9 17.55 5.05 21.3 L5.0 21.4 5.05 21.5 M17.45 29.95 L17.4 29.95 16.45 29.4 16.35 29.35 16.2 29.45 13.65 32.75 Q13.0 33.8 15.9 36.95 L16.0 37.0 16.1 37.0 Q19.95 36.5 20.6 35.5 L20.7 35.2 20.9 31.05 20.9 30.95 20.8 30.9 20.7 30.85 20.0 30.8 19.15 30.6 19.0 30.65 18.9 30.75 17.9 33.75 17.95 33.7 Q17.65 34.15 17.1 34.05 16.55 33.9 16.6 33.1 L17.8 30.35 17.8 30.25 17.75 30.15 17.65 30.05 17.45 29.95 M15.45 28.7 L15.4 28.55 15.0 28.15 14.75 27.9 14.7 27.85 14.65 27.75 14.6 27.7 14.3 27.4 14.2 27.35 14.05 27.4 11.2 29.15 Q10.75 29.35 10.4 28.9 10.1 28.45 10.6 27.9 L13.35 26.4 13.45 26.3 13.45 26.2 13.45 26.1 12.8 24.85 12.7 24.75 12.55 24.7 8.6 25.65 8.6 25.7 Q7.4 26.05 7.6 30.35 L7.65 30.45 7.7 30.55 Q11.1 32.55 12.2 32.2 L12.5 32.0 15.4 28.85 15.45 28.7 M32.25 29.2 L31.3 29.35 29.1 27.55 28.95 27.5 28.8 27.6 28.25 28.15 28.2 28.2 27.8 28.6 27.7 28.75 27.75 28.9 30.05 32.1 Q30.8 32.95 34.7 31.2 L34.75 31.15 34.8 31.05 Q35.45 27.1 34.65 26.2 L34.45 26.05 34.45 26.0 30.7 24.7 30.55 24.75 30.45 24.8 30.35 25.0 30.35 25.05 29.75 26.3 29.7 26.45 29.8 26.6 32.25 28.25 Q32.55 28.7 32.25 29.15 L32.25 29.2 M26.55 29.55 L26.0 29.85 Q25.55 30.05 25.05 30.35 L25.0 30.45 24.95 30.6 25.95 33.4 Q26.0 33.85 25.5 34.05 L25.45 34.1 Q25.0 34.3 24.6 33.7 L23.8 30.9 23.75 30.8 23.6 30.75 23.45 30.75 22.15 30.9 22.0 31.0 21.95 31.1 21.95 35.2 Q22.15 36.35 26.35 37.1 L26.4 37.1 26.5 37.05 Q29.3 34.2 29.15 33.05 L29.1 32.8 26.85 29.6 26.7 29.5 26.55 29.55" fill="#005e00" fill-rule="evenodd" stroke="none"/>
      <path d="M23.4 16.45 L23.3 16.55 22.25 20.45 22.3 20.6 22.35 20.7 22.5 20.7 26.55 19.85 26.65 19.8 26.7 19.7 26.7 19.6 Q26.35 18.55 25.45 17.65 24.55 16.75 23.6 16.4 L23.45 16.4 23.4 16.45 M20.85 20.4 L19.95 16.5 19.9 16.4 19.8 16.35 19.7 16.35 Q19.1 16.55 18.6 16.9 18.05 17.2 17.6 17.65 L17.6 17.7 Q16.85 18.5 16.45 19.45 L16.4 19.55 16.45 19.65 16.55 19.7 20.6 20.65 20.75 20.65 20.85 20.55 20.85 20.4 M22.25 21.75 L22.15 21.85 22.1 22.0 23.25 26.6 23.35 26.7 23.45 26.75 23.55 26.75 25.45 25.45 26.6 23.85 26.6 23.75 26.55 23.65 26.5 23.6 22.4 21.8 22.25 21.75 M21.1 21.9 L21.0 21.8 20.85 21.75 16.5 23.3 16.4 23.4 16.35 23.5 16.4 23.6 Q16.8 24.6 17.6 25.45 L19.05 26.5 19.15 26.5 19.25 26.45 19.3 26.4 21.1 22.05 21.1 21.9 M27.7 21.6 Q27.7 24.1 25.9 25.9 24.1 27.7 21.6 27.7 19.05 27.7 17.25 25.9 16.3 25.0 15.9 23.85 15.45 22.8 15.45 21.6 15.45 19.05 17.25 17.25 18.2 16.25 19.4 15.85 L21.6 15.45 Q24.1 15.45 25.9 17.25 27.7 19.05 27.7 21.6" fill="#b20000" fill-rule="evenodd" stroke="none"/>
    </g>
  </defs>
</svg>
