<?xml version="1.0" encoding="UTF-8" standalone="no"?>
<svg xmlns:xlink="http://www.w3.org/1999/xlink" height="39.39px" width="30.18px" xmlns="http://www.w3.org/2000/svg">
  <g transform="matrix(0.6, 0.0, 0.0, 0.6, 0.15, 3.6)">
    <use height="57.3" transform="matrix(1.0, 0.0, 0.0, 1.0, 11.55, -1.2)" width="26.1" xlink:href="#shape0"/>
  </g>
  <defs>
    <g id="shape0" transform="matrix(1.0, 0.0, 0.0, 1.0, 0.0, -0.4)">
      <path d="M22.0 16.45 Q22.55 14.85 22.55 13.05 22.55 10.75 21.6 8.85 L19.75 6.35 17.75 4.8 Q15.65 3.6 13.1 3.6 9.2 3.6 6.4 6.35 3.65 9.15 3.65 13.05 3.65 14.85 4.25 16.45 4.9 18.25 6.4 19.7 L6.5 19.8 Q8.95 22.2 12.3 22.5 L13.1 22.5 Q17.0 22.5 19.75 19.7 21.3 18.25 22.0 16.45 M21.95 4.1 L23.9 6.45 Q25.7 9.35 25.7 13.05 L25.25 16.45 Q24.4 19.55 21.95 21.95 18.25 25.7 13.05 25.7 L10.85 25.55 Q8.65 25.15 6.85 24.15 5.4 23.25 4.1 21.95 1.7 19.55 0.85 16.45 0.4 14.8 0.4 13.05 0.4 7.8 4.1 4.1 7.85 0.4 13.05 0.4 18.2 0.4 21.9 4.0 L21.95 4.1 M14.8 10.15 Q14.05 9.7 13.15 9.7 11.8 9.7 10.85 10.65 9.9 11.65 9.9 13.0 9.9 14.35 10.85 15.3 L10.9 15.35 Q11.8 16.25 13.1 16.3 L13.25 16.3 Q14.55 16.25 15.45 15.3 16.45 14.35 16.45 13.0 16.45 11.65 15.45 10.65 L14.8 10.15 M13.15 11.2 Q13.9 11.2 14.4 11.7 14.9 12.2 14.9 12.95 14.9 13.7 14.4 14.2 13.9 14.7 13.15 14.7 12.4 14.7 11.9 14.2 11.4 13.7 11.4 12.95 11.4 12.2 11.9 11.7 12.4 11.2 13.15 11.2 M13.15 8.8 Q14.85 8.8 16.05 10.0 L16.1 10.05 Q17.35 11.3 17.35 13.0 L17.25 14.05 Q16.95 15.1 16.1 15.95 L15.7 16.35 15.65 16.35 15.6 16.45 Q14.55 17.15 13.15 17.15 L11.1 16.65 10.7 16.35 10.2 15.95 Q8.95 14.7 8.95 13.0 8.95 11.3 10.2 10.05 11.45 8.8 13.15 8.8 M17.3 8.75 Q16.65 8.1 16.0 7.8 14.75 7.0 13.15 7.0 10.7 7.0 8.95 8.75 7.25 10.5 7.25 12.9 7.25 14.9 8.35 16.4 L8.4 16.4 8.95 17.05 9.05 17.1 Q10.75 18.75 13.15 18.75 L14.4 18.65 Q16.0 18.3 17.3 17.05 L17.9 16.4 Q19.0 14.9 19.0 12.9 L18.95 11.9 Q18.6 10.1 17.3 8.75 M18.35 7.65 Q19.6 8.85 20.2 10.4 L20.15 10.4 Q20.55 11.55 20.55 12.9 20.55 14.85 19.75 16.4 L18.35 18.15 Q16.3 20.2 13.35 20.3 L13.1 20.3 Q11.1 20.3 9.45 19.4 L7.85 18.15 6.55 16.4 Q5.65 14.85 5.65 12.9 5.65 9.8 7.85 7.65 10.05 5.45 13.1 5.45 16.15 5.45 18.3 7.55 L18.35 7.65" fill="#005e00" fill-rule="evenodd" stroke="none"/>
      <path d="M14.4 43.4 L14.4 43.35 Q14.9 43.85 14.9 44.55 14.9 45.3 14.4 45.8 13.9 46.3 13.15 46.3 12.4 46.3 11.9 45.8 11.4 45.3 11.4 44.55 11.4 43.85 11.9 43.35 L11.9 43.4 Q12.4 42.8 13.15 42.8 13.9 42.8 14.4 43.4 M14.8 41.75 Q14.05 41.3 13.15 41.3 11.8 41.3 10.85 42.3 9.9 43.25 9.9 44.6 9.9 45.95 10.85 46.9 L10.9 46.95 Q11.85 47.9 13.15 47.9 14.5 47.9 15.45 46.9 16.45 45.95 16.45 44.6 16.45 43.25 15.45 42.3 L14.8 41.75 M5.25 44.5 Q5.25 41.25 7.55 38.95 9.85 36.7 13.1 36.7 16.35 36.7 18.6 38.9 L18.65 38.95 Q20.95 41.25 20.95 44.5 20.95 47.75 18.65 50.05 16.4 52.3 13.1 52.3 11.0 52.3 9.25 51.35 L7.6 50.05 7.55 50.05 Q5.25 47.75 5.25 44.5 M9.9 47.85 Q8.55 46.55 8.55 44.6 8.55 42.7 9.9 41.35 11.25 40.05 13.15 40.05 15.0 40.05 16.3 41.3 L16.4 41.35 Q17.75 42.7 17.75 44.6 17.75 46.55 16.4 47.85 15.1 49.2 13.15 49.2 11.9 49.2 10.9 48.65 L9.9 47.85 M8.95 48.65 L9.05 48.7 Q10.75 50.4 13.15 50.4 15.55 50.4 17.3 48.65 19.0 46.95 19.0 44.5 19.0 42.1 17.3 40.35 L17.35 40.35 16.0 39.4 Q14.75 38.65 13.15 38.65 10.7 38.65 8.95 40.35 7.25 42.1 7.25 44.5 7.25 46.95 8.95 48.65 M3.8 35.4 Q5.7 33.55 8.0 32.65 10.3 31.6 13.05 31.6 18.4 31.6 22.2 35.3 L22.3 35.45 Q26.1 39.3 26.1 44.65 26.1 50.1 22.25 53.9 18.45 57.7 13.05 57.7 9.5 57.7 6.65 56.1 5.1 55.2 3.8 53.9 L3.45 53.55 Q0.0 49.8 0.0 44.65 0.0 39.25 3.8 35.4 M17.75 36.4 Q15.65 35.2 13.1 35.2 9.45 35.2 6.85 37.6 L6.8 37.65 6.4 37.95 Q3.65 40.75 3.65 44.65 3.65 46.7 4.45 48.5 5.1 50.05 6.4 51.35 L6.5 51.45 Q9.25 54.15 13.1 54.15 17.0 54.15 19.75 51.35 22.55 48.55 22.55 44.65 22.55 40.75 19.75 37.95 L17.75 36.4" fill="#173384" fill-rule="evenodd" stroke="none"/>
    </g>
  </defs>
</svg>
