<?xml version="1.0" encoding="UTF-8" standalone="no"?>
<svg xmlns:xlink="http://www.w3.org/1999/xlink" height="39.39px" width="30.18px" xmlns="http://www.w3.org/2000/svg">
  <g transform="matrix(0.6, 0.0, 0.0, 0.6, 0.15, 3.6)">
    <use height="58.95" transform="matrix(1.0, 0.0, 0.0, 1.0, 5.35, -1.05)" width="43.7" xlink:href="#shape0"/>
  </g>
  <defs>
    <g id="shape0" transform="matrix(1.0, 0.0, 0.0, 1.0, 0.0, 0.0)">
      <path d="M40.8 42.05 Q42.5 43.75 43.2 45.85 43.7 47.35 43.7 49.05 43.7 50.8 43.2 52.35 42.5 54.4 40.8 56.1 L38.45 57.85 Q36.35 58.95 33.8 58.95 L30.4 58.4 30.3 58.4 28.45 57.45 26.75 56.1 Q23.9 53.2 23.9 49.05 23.9 46.35 25.2 44.15 L25.85 43.15 26.75 42.05 Q27.55 41.25 28.4 40.7 L28.8 40.45 Q29.5 40.05 30.3 39.75 L30.3 39.8 31.65 39.4 32.35 39.25 33.8 39.15 Q36.5 39.15 38.7 40.45 L39.65 41.1 39.75 41.2 40.8 42.1 40.8 42.05 M32.5 47.75 L32.5 47.7 Q32.95 47.25 33.65 47.25 34.35 47.25 34.8 47.7 35.3 48.2 35.3 48.9 35.3 49.55 34.8 50.05 34.35 50.5 33.65 50.5 32.95 50.5 32.5 50.05 32.05 49.5 32.05 48.9 32.05 48.25 32.5 47.75 M34.85 45.95 L33.65 45.7 Q32.35 45.7 31.4 46.6 30.7 47.3 30.55 48.3 L30.5 48.85 30.55 49.5 Q30.7 50.3 31.3 51.0 L31.4 51.05 Q32.35 52.0 33.65 52.0 L34.6 51.85 35.85 51.05 36.2 50.7 Q36.8 49.9 36.8 48.85 L36.8 48.8 Q36.8 47.75 36.2 47.0 L35.85 46.6 Q35.4 46.15 34.85 45.95 M28.85 44.05 L28.55 44.4 Q26.85 46.3 26.85 48.95 26.85 51.8 28.85 53.85 L29.65 54.55 30.45 55.1 Q31.95 55.85 33.75 55.85 L36.3 55.45 36.95 55.1 38.25 54.25 38.65 53.85 Q40.25 52.25 40.6 50.15 L40.65 48.95 Q40.65 46.25 38.9 44.3 L38.65 44.05 Q37.55 42.95 36.15 42.45 L35.2 42.2 33.75 42.05 Q32.65 42.05 31.65 42.4 L30.45 42.9 29.6 43.4 28.85 44.05 M29.8 45.1 L30.25 44.75 Q30.7 44.35 31.2 44.1 L31.65 43.9 33.7 43.5 Q35.05 43.5 36.15 44.1 L36.45 44.3 37.55 45.1 37.65 45.2 37.65 45.25 38.55 46.4 Q39.15 47.55 39.15 48.95 39.15 50.35 38.55 51.55 L37.55 52.85 36.45 53.75 Q35.2 54.45 33.7 54.45 L31.65 54.1 30.25 53.25 30.2 53.25 29.8 52.85 Q28.2 51.25 28.2 48.95 28.2 46.7 29.8 45.1" fill="#173384" fill-rule="evenodd" stroke="none"/>
      <path d="M28.55 36.95 L28.55 36.6 28.9 36.6 28.75 36.75 28.55 36.95 M25.45 20.5 L24.25 20.5 24.25 20.1 25.45 20.5" fill="#660000" fill-rule="evenodd" stroke="none"/>
      <path d="M28.55 36.95 Q27.45 38.0 26.2 38.65 L25.05 39.1 24.75 39.2 21.7 39.65 Q19.85 39.65 18.3 39.05 17.25 38.7 16.3 38.05 15.45 37.5 14.7 36.75 11.8 33.85 11.8 29.75 11.8 25.6 14.7 22.7 L16.0 21.6 16.45 21.3 Q18.75 19.8 21.7 19.8 L24.25 20.1 24.25 20.5 25.45 20.5 Q26.6 20.95 27.65 21.75 L28.75 22.7 Q31.65 25.6 31.65 29.75 L31.5 31.7 30.9 33.65 Q30.2 35.25 28.9 36.6 L28.55 36.6 28.55 36.95 M21.8 22.7 L21.65 22.7 Q19.4 22.7 17.7 23.95 L16.75 24.75 Q14.75 26.75 14.75 29.6 14.75 32.1 16.3 34.0 L16.75 34.5 17.55 35.2 17.6 35.2 Q19.3 36.55 21.65 36.55 L22.7 36.5 23.55 36.35 24.75 35.9 24.9 35.8 26.2 34.85 26.55 34.5 26.8 34.25 27.3 33.65 28.3 31.7 28.5 30.8 28.6 29.6 Q28.6 26.75 26.55 24.75 L24.75 23.4 24.25 23.15 24.1 23.1 21.8 22.7 M21.6 24.15 L21.8 24.15 Q23.45 24.2 24.75 25.15 L25.5 25.75 25.6 25.9 Q27.1 27.45 27.1 29.65 27.1 30.75 26.75 31.7 L26.2 32.65 25.5 33.5 25.35 33.65 24.75 34.15 24.6 34.25 23.55 34.8 22.7 35.0 21.6 35.1 19.55 34.75 Q18.55 34.3 17.7 33.5 16.8 32.6 16.4 31.45 16.1 30.6 16.1 29.65 16.1 27.35 17.7 25.75 19.3 24.15 21.6 24.15 M21.6 27.9 L21.8 27.95 22.75 28.35 22.75 28.4 Q23.2 28.9 23.2 29.55 23.2 30.25 22.75 30.7 22.35 31.1 21.8 31.2 L21.6 31.2 Q20.9 31.2 20.4 30.7 19.95 30.25 19.95 29.55 19.95 28.9 20.4 28.4 L20.45 28.35 Q20.95 27.9 21.6 27.9 M19.35 27.3 Q18.4 28.2 18.4 29.5 18.4 30.6 19.1 31.45 L19.3 31.7 19.35 31.75 Q20.25 32.65 21.55 32.65 L21.8 32.65 22.5 32.5 22.7 32.45 23.75 31.8 23.75 31.75 23.8 31.7 24.05 31.45 Q24.7 30.6 24.7 29.5 L24.7 29.45 Q24.7 28.2 23.75 27.3 L22.8 26.6 21.8 26.35 21.55 26.35 Q20.25 26.35 19.35 27.3" fill="#b20000" fill-rule="evenodd" stroke="none"/>
      <path d="M11.4 9.75 Q11.4 10.4 10.9 10.9 10.45 11.35 9.75 11.35 9.15 11.35 8.65 10.9 L8.6 10.9 Q8.15 10.35 8.15 9.75 8.15 9.1 8.6 8.6 L8.65 8.55 Q9.15 8.1 9.75 8.1 10.45 8.1 10.9 8.55 11.4 9.05 11.4 9.75 M11.95 7.45 L10.95 6.8 9.75 6.55 Q8.45 6.55 7.55 7.45 6.6 8.4 6.6 9.7 6.6 10.95 7.45 11.9 L7.45 11.85 7.5 11.9 7.55 11.9 Q8.45 12.85 9.75 12.85 L10.7 12.7 11.7 12.2 11.65 12.2 11.75 12.1 11.95 11.9 12.0 11.85 12.0 11.9 12.7 10.9 12.9 9.7 12.9 9.65 Q12.9 8.4 11.95 7.45 M14.75 4.9 Q13.65 3.8 12.25 3.3 L9.85 2.9 Q7.0 2.9 4.95 4.9 L4.1 5.95 Q2.95 7.65 2.95 9.8 2.95 10.9 3.3 11.95 L4.1 13.7 4.95 14.7 5.4 15.1 5.75 15.4 5.8 15.4 Q7.05 16.35 8.65 16.6 L9.85 16.7 11.6 16.5 13.1 15.95 14.35 15.1 14.75 14.7 15.2 14.25 15.25 14.2 16.2 12.7 16.5 11.95 16.7 10.95 16.8 9.8 Q16.8 8.4 16.35 7.2 L16.2 6.9 15.2 5.4 14.75 4.9 M13.7 5.95 L13.75 6.05 Q14.85 7.15 15.15 8.6 L15.15 8.65 15.25 9.8 Q15.25 11.05 14.8 12.1 L13.7 13.7 13.15 14.2 11.6 15.05 11.35 15.1 9.8 15.3 9.7 15.3 8.2 15.1 7.75 14.95 5.9 13.7 4.8 12.1 Q4.3 11.05 4.3 9.8 4.3 7.55 5.9 5.95 7.5 4.35 9.8 4.35 12.1 4.35 13.7 5.95 M15.5 1.7 L15.45 1.7 15.85 1.95 16.2 2.25 16.95 2.9 18.7 5.2 Q19.8 7.3 19.8 9.9 L19.6 12.05 18.9 14.2 18.4 15.1 16.95 16.95 16.8 17.1 16.2 17.7 15.65 18.15 15.5 18.25 15.45 18.25 Q13.0 19.85 9.9 19.85 L7.05 19.45 6.5 19.25 Q4.6 18.6 3.05 17.1 L2.9 16.95 Q0.0 14.05 0.0 9.9 0.0 6.2 2.45 3.45 L2.9 2.9 4.1 1.85 Q6.6 0.0 9.9 0.0 13.0 0.0 15.5 1.7" fill="#005e00" fill-rule="evenodd" stroke="none"/>
    </g>
  </defs>
</svg>
