<?xml version="1.0" encoding="UTF-8" standalone="no"?>
<svg xmlns:xlink="http://www.w3.org/1999/xlink" height="39.39px" width="30.18px" xmlns="http://www.w3.org/2000/svg">
  <g transform="matrix(0.6, 0.0, 0.0, 0.6, 0.15, 3.6)">
    <use height="50.95" transform="matrix(1.0, 0.0, 0.0, 1.0, 5.65, 1.55)" width="38.45" xlink:href="#shape0"/>
  </g>
  <defs>
    <g id="shape0" transform="matrix(1.0, 0.0, 0.0, 1.0, 0.0, 0.0)">
      <path d="M30.75 7.5 Q31.15 7.9 31.15 8.55 31.15 9.15 30.75 9.5 30.3 9.95 29.75 9.95 29.15 9.95 28.75 9.5 L28.7 9.5 Q28.3 9.1 28.3 8.55 28.3 7.9 28.7 7.5 29.1 7.1 29.75 7.1 30.35 7.1 30.75 7.5 M30.9 6.05 L30.65 5.95 29.7 5.8 Q28.6 5.8 27.8 6.6 27.0 7.4 27.0 8.5 L27.0 8.6 Q27.0 9.6 27.75 10.35 L27.85 10.45 Q28.6 11.2 29.7 11.2 L30.5 11.1 30.5 11.05 Q31.15 10.85 31.6 10.4 L31.6 10.45 Q32.4 9.6 32.4 8.5 L32.4 8.45 Q32.4 7.4 31.6 6.6 L30.9 6.05 M34.0 4.4 L33.95 4.35 Q33.0 3.4 31.85 2.95 L29.8 2.65 Q27.35 2.65 25.6 4.4 23.85 6.15 23.85 8.6 23.85 9.65 24.2 10.65 24.6 11.8 25.6 12.8 L26.3 13.4 26.8 13.75 Q28.15 14.5 29.8 14.5 31.3 14.5 32.55 13.9 L32.6 13.85 32.85 13.75 34.0 12.8 Q35.4 11.4 35.65 9.6 L35.65 9.55 35.75 8.6 Q35.75 6.15 34.0 4.4 M32.65 4.8 L33.1 5.2 33.2 5.3 Q34.5 6.65 34.5 8.6 34.5 10.6 33.1 12.0 31.75 13.35 29.75 13.35 L28.0 13.05 Q27.1 12.65 26.4 12.0 25.4 11.0 25.15 9.75 L25.0 8.6 Q25.0 6.6 26.4 5.2 27.75 3.85 29.75 3.85 31.4 3.85 32.65 4.8 M35.95 2.6 L36.35 3.0 36.35 3.05 Q38.45 5.45 38.45 8.65 38.45 11.7 36.6 14.05 L35.95 14.75 Q33.45 17.25 29.85 17.25 L26.9 16.8 Q25.15 16.1 23.75 14.75 L23.15 14.05 22.1 12.35 Q21.25 10.65 21.25 8.65 21.25 5.1 23.75 2.6 26.25 0.1 29.85 0.1 32.7 0.1 35.0 1.75 L35.95 2.6 M7.45 43.2 Q7.0 42.75 7.0 42.2 7.0 41.65 7.45 41.25 L7.5 41.2 Q7.9 40.75 8.45 40.75 9.05 40.75 9.5 41.2 9.9 41.6 9.9 42.2 9.9 42.8 9.5 43.2 9.05 43.65 8.45 43.65 7.9 43.65 7.5 43.2 L7.45 43.2 M5.1 38.9 L5.2 38.85 Q6.55 37.55 8.5 37.55 10.45 37.55 11.85 38.9 L11.95 39.05 Q13.25 40.4 13.25 42.3 13.25 44.25 11.85 45.65 10.45 47.05 8.5 47.05 L6.75 46.7 5.1 45.65 Q4.05 44.6 3.8 43.3 L3.7 42.3 Q3.7 40.3 5.1 38.9 M9.5 39.7 L8.45 39.5 Q7.35 39.5 6.55 40.3 5.75 41.05 5.75 42.15 5.75 43.25 6.45 44.0 L6.55 44.1 Q7.35 44.9 8.45 44.9 L9.25 44.8 9.25 44.75 10.35 44.05 Q11.15 43.25 11.15 42.15 11.15 41.05 10.4 40.3 L10.35 40.3 Q9.95 39.85 9.5 39.7 M8.55 36.3 L6.25 36.75 Q5.2 37.15 4.35 38.05 2.6 39.8 2.6 42.25 2.6 44.05 3.55 45.5 L4.35 46.5 5.05 47.1 Q6.5 48.2 8.55 48.2 10.05 48.2 11.3 47.55 L12.8 46.5 12.75 46.5 Q14.1 45.1 14.4 43.3 L14.4 43.25 14.5 42.25 Q14.5 39.8 12.75 38.05 11.8 37.1 10.6 36.65 L8.55 36.3 M13.7 35.45 L14.65 36.3 Q17.15 38.8 17.15 42.35 17.15 45.95 14.65 48.45 12.15 50.95 8.6 50.95 L5.6 50.45 Q3.95 49.8 2.6 48.55 L2.5 48.45 Q0.0 45.95 0.0 42.35 0.0 38.8 2.5 36.3 4.5 34.35 7.15 33.95 L8.6 33.8 Q11.45 33.8 13.7 35.45" fill="#173384" fill-rule="evenodd" stroke="none"/>
      <path d="M9.55 7.4 L9.55 7.45 Q10.0 7.85 10.0 8.4 L9.55 9.4 Q9.1 9.85 8.55 9.85 7.95 9.85 7.5 9.4 7.1 9.0 7.1 8.4 7.1 7.8 7.5 7.4 7.95 6.95 8.55 6.95 9.1 6.95 9.55 7.4 M10.4 6.45 L10.45 6.45 9.55 5.9 8.5 5.7 Q7.4 5.7 6.65 6.45 5.8 7.25 5.8 8.35 5.8 9.45 6.6 10.25 L6.65 10.3 Q7.45 11.1 8.5 11.1 L9.3 11.0 9.3 10.95 10.4 10.3 10.4 10.25 Q11.2 9.45 11.2 8.35 11.2 7.25 10.4 6.45 M12.8 4.25 Q11.85 3.25 10.7 2.85 L8.6 2.5 Q6.15 2.5 4.4 4.25 2.65 6.0 2.65 8.45 2.65 10.9 4.4 12.7 L5.1 13.3 5.8 13.75 Q7.05 14.4 8.6 14.4 10.15 14.4 11.4 13.75 L12.85 12.7 12.8 12.7 Q14.2 11.3 14.45 9.5 L14.45 9.45 14.55 8.45 Q14.55 6.0 12.8 4.25 M13.8 1.65 L14.75 2.5 Q17.25 5.0 17.25 8.55 17.25 11.7 15.3 14.05 L14.75 14.65 Q12.25 17.15 8.65 17.15 L5.7 16.65 Q3.95 16.05 2.6 14.65 L2.05 14.05 Q0.1 11.7 0.1 8.55 0.1 5.0 2.6 2.5 5.1 0.0 8.65 0.0 11.55 0.0 13.8 1.65 M11.95 5.1 L12.0 5.2 Q13.3 6.55 13.3 8.5 13.3 10.45 11.95 11.85 10.55 13.25 8.55 13.25 L6.8 12.9 Q5.95 12.55 5.2 11.85 L5.15 11.85 Q3.8 10.45 3.8 8.5 3.8 6.5 5.15 5.1 6.55 3.75 8.55 3.75 10.55 3.75 11.95 5.1 M25.05 38.05 Q23.3 39.8 23.3 42.25 23.3 44.7 25.05 46.5 L25.75 47.1 Q27.2 48.2 29.25 48.2 30.75 48.2 32.0 47.55 L33.5 46.5 33.45 46.5 Q34.8 45.1 35.1 43.3 L35.1 43.25 35.2 42.25 Q35.2 39.8 33.45 38.05 L31.3 36.65 29.25 36.3 Q26.8 36.3 25.05 38.05 M25.8 38.9 Q27.2 37.55 29.2 37.55 31.15 37.55 32.55 38.9 L32.65 39.05 Q33.95 40.4 33.95 42.3 33.95 44.25 32.55 45.65 31.15 47.05 29.2 47.05 L27.45 46.7 Q26.55 46.4 25.8 45.65 24.4 44.25 24.4 42.3 24.4 40.3 25.8 38.9 M28.2 43.2 L28.15 43.2 Q27.7 42.75 27.7 42.2 27.7 41.65 28.15 41.25 L28.2 41.2 Q28.6 40.75 29.15 40.75 29.75 40.75 30.2 41.2 30.6 41.6 30.6 42.2 30.6 42.8 30.2 43.2 29.75 43.65 29.15 43.65 28.6 43.65 28.2 43.2 M30.2 39.7 L29.15 39.5 Q28.05 39.5 27.25 40.3 26.45 41.05 26.45 42.15 26.45 43.25 27.15 44.0 L27.25 44.1 Q28.05 44.9 29.15 44.9 L29.95 44.8 29.95 44.75 31.05 44.05 Q31.85 43.25 31.85 42.15 31.85 41.05 31.1 40.3 L31.05 40.3 30.2 39.7 M34.4 35.45 L35.35 36.3 Q37.85 38.8 37.85 42.35 37.85 45.95 35.35 48.45 32.85 50.95 29.3 50.95 L26.3 50.45 Q24.6 49.85 23.2 48.45 20.7 45.95 20.7 42.35 20.7 38.8 23.2 36.3 25.7 33.8 29.3 33.8 32.15 33.8 34.4 35.45" fill="#005e00" fill-rule="evenodd" stroke="none"/>
    </g>
  </defs>
</svg>
