<?xml version="1.0" encoding="UTF-8" standalone="no"?>
<svg xmlns:xlink="http://www.w3.org/1999/xlink" height="39.39px" width="30.18px" xmlns="http://www.w3.org/2000/svg">
  <g transform="matrix(0.6, 0.0, 0.0, 0.6, 0.15, 3.6)">
    <use height="50.95" transform="matrix(1.0, 0.0, 0.0, 1.0, 5.4, 2.3)" width="38.45" xlink:href="#shape0"/>
  </g>
  <defs>
    <g id="shape0" transform="matrix(1.0, 0.0, 0.0, 1.0, 0.0, 0.0)">
      <path d="M31.7 6.6 L31.65 6.6 Q31.25 6.25 30.75 6.05 L30.1 5.85 30.05 5.85 29.75 5.8 Q28.65 5.8 27.85 6.6 27.3 7.15 27.15 7.85 L27.05 8.5 Q27.05 9.55 27.75 10.35 L27.85 10.4 Q28.65 11.2 29.75 11.2 L30.55 11.1 31.65 10.4 Q32.45 9.6 32.45 8.5 L32.45 8.45 Q32.4 7.4 31.7 6.6 M30.75 7.5 Q31.2 7.95 31.2 8.55 L30.75 9.55 Q30.3 10.0 29.75 10.0 29.15 10.0 28.7 9.55 28.3 9.15 28.3 8.55 28.3 8.0 28.7 7.55 L28.75 7.5 Q29.2 7.1 29.75 7.1 30.35 7.1 30.75 7.5 M33.15 5.25 L33.25 5.4 Q34.55 6.75 34.55 8.6 34.55 10.6 33.15 12.0 31.75 13.35 29.8 13.35 L28.0 13.05 Q27.15 12.7 26.4 12.0 25.2 10.8 25.05 9.15 L25.0 8.6 Q25.0 6.65 26.4 5.25 27.8 3.85 29.8 3.85 31.0 3.85 32.0 4.4 L33.15 5.25 M34.0 4.4 L33.35 3.85 33.35 3.8 Q32.65 3.25 31.9 3.0 L29.8 2.65 Q27.35 2.65 25.65 4.4 23.9 6.15 23.9 8.6 L24.1 10.15 Q24.5 11.65 25.65 12.8 L25.65 12.85 26.35 13.45 26.75 13.75 Q28.1 14.55 29.8 14.55 31.35 14.55 32.6 13.9 L32.65 13.85 32.9 13.75 Q33.45 13.4 34.0 12.85 L34.0 12.8 Q35.4 11.45 35.7 9.65 L35.8 8.6 Q35.8 6.15 34.0 4.4 M35.65 2.4 L36.0 2.7 Q38.45 5.2 38.45 8.7 38.45 11.7 36.65 14.05 L35.95 14.8 Q33.45 17.3 29.85 17.3 L26.9 16.8 Q25.2 16.2 23.8 14.8 L23.15 14.05 Q22.35 13.05 21.9 11.95 21.25 10.45 21.25 8.7 21.25 5.15 23.8 2.65 26.3 0.1 29.85 0.1 32.75 0.1 35.0 1.8 L35.7 2.4 35.65 2.4 M7.45 43.25 Q7.05 42.85 7.05 42.25 7.05 41.6 7.45 41.2 7.85 40.8 8.5 40.8 9.1 40.8 9.5 41.2 9.9 41.6 9.9 42.25 9.9 42.85 9.5 43.25 9.1 43.65 8.5 43.65 7.85 43.65 7.45 43.25 M5.15 38.95 L5.6 38.6 Q6.85 37.55 8.5 37.55 10.5 37.55 11.85 38.95 L11.8 38.95 11.9 39.0 11.95 39.0 Q13.25 40.35 13.25 42.3 13.25 44.3 11.85 45.7 10.5 47.05 8.5 47.05 L6.75 46.75 5.15 45.7 Q4.3 44.85 4.0 43.85 L4.0 43.9 3.75 42.3 Q3.75 40.3 5.15 38.95 M9.5 39.7 L8.45 39.5 Q7.35 39.5 6.55 40.3 5.75 41.1 5.75 42.2 5.75 43.3 6.5 44.05 L6.6 44.15 Q7.35 44.9 8.45 44.9 L9.3 44.75 10.35 44.1 Q11.15 43.3 11.15 42.2 L11.15 42.15 Q11.15 41.1 10.35 40.3 L9.5 39.7 M8.55 36.35 L6.45 36.75 Q5.25 37.15 4.35 38.1 2.6 39.85 2.6 42.3 2.6 44.4 3.8 45.95 L4.35 46.5 5.05 47.1 Q6.55 48.25 8.55 48.25 10.05 48.25 11.3 47.6 L12.75 46.5 Q14.15 45.1 14.45 43.35 L14.5 42.3 Q14.5 39.85 12.75 38.1 11.8 37.15 10.6 36.7 L8.55 36.35 M13.75 35.45 L14.7 36.3 Q17.2 38.8 17.2 42.4 17.2 45.95 14.7 48.45 12.2 50.95 8.6 50.95 L5.65 50.5 2.9 48.8 2.85 48.8 2.5 48.45 Q0.0 45.95 0.0 42.4 0.0 38.8 2.5 36.3 4.55 34.25 7.4 33.9 L8.45 33.8 8.8 33.8 Q11.5 33.85 13.75 35.45" fill="#173384" fill-rule="evenodd" stroke="none"/>
      <path d="M23.05 21.4 Q22.1 20.45 20.9 20.0 19.9 19.65 18.85 19.65 16.4 19.65 14.6 21.4 12.85 23.15 12.85 25.6 12.85 28.05 14.6 29.8 L15.3 30.4 Q16.8 31.55 18.85 31.55 20.35 31.55 21.6 30.9 L23.05 29.8 Q24.4 28.45 24.7 26.65 L24.8 25.6 Q24.8 23.15 23.05 21.4 M22.15 22.25 L22.2 22.35 Q23.5 23.65 23.5 25.6 23.5 27.6 22.15 29.0 20.75 30.35 18.75 30.35 L17.0 30.05 Q16.15 29.7 15.4 29.0 14.0 27.6 14.0 25.6 14.0 23.65 15.4 22.25 16.8 20.85 18.75 20.85 20.75 20.85 22.15 22.25 M24.0 18.8 L24.95 19.6 Q27.45 22.15 27.45 25.7 27.45 29.25 24.95 31.75 22.95 33.8 20.25 34.2 L18.85 34.3 17.5 34.2 15.9 33.8 Q14.2 33.2 12.8 31.75 10.8 29.75 10.4 27.15 L10.3 25.7 Q10.3 22.15 12.8 19.6 14.5 17.9 16.7 17.45 L16.7 17.4 16.85 17.35 17.3 17.25 18.85 17.1 20.55 17.25 Q22.45 17.6 24.0 18.8 M19.8 23.0 L18.7 22.8 Q17.65 22.8 16.85 23.6 16.05 24.4 16.05 25.5 16.05 26.55 16.75 27.35 L16.85 27.4 Q17.65 28.2 18.7 28.2 L19.55 28.1 19.55 28.15 20.6 27.4 20.65 27.4 Q21.45 26.6 21.45 25.5 L21.45 25.45 Q21.4 24.4 20.6 23.6 20.25 23.15 19.8 23.0 M18.75 24.1 Q19.35 24.1 19.75 24.5 20.2 24.9 20.2 25.55 L19.75 26.55 18.75 27.0 Q18.15 27.0 17.7 26.55 17.3 26.15 17.3 25.55 17.3 24.9 17.7 24.5 L17.75 24.5 Q18.2 24.1 18.75 24.1" fill="#b20000" fill-rule="evenodd" stroke="none"/>
      <path d="M9.55 7.4 L9.55 7.45 Q10.0 7.85 10.0 8.45 L9.55 9.45 Q9.2 9.85 8.55 9.85 8.0 9.85 7.55 9.45 L7.5 9.45 Q7.15 9.0 7.15 8.45 7.15 7.8 7.5 7.45 L7.55 7.4 Q8.0 7.0 8.55 7.0 9.2 7.0 9.55 7.4 M11.25 8.35 Q11.2 7.25 10.45 6.5 L9.6 5.9 8.55 5.7 Q7.45 5.7 6.65 6.5 5.85 7.3 5.85 8.4 5.85 9.5 6.6 10.25 L6.7 10.35 Q7.45 11.1 8.55 11.1 L9.35 11.0 9.35 10.95 10.45 10.3 Q11.25 9.5 11.25 8.4 L11.25 8.35 M13.8 1.65 L14.75 2.5 Q17.25 5.0 17.25 8.6 17.25 11.7 15.3 14.05 L14.75 14.65 Q12.25 17.15 8.65 17.15 L5.75 16.7 Q4.0 16.1 2.6 14.65 L2.05 14.05 Q0.1 11.7 0.1 8.6 0.1 5.0 2.6 2.5 5.1 0.0 8.65 0.0 11.55 0.0 13.8 1.65 M12.8 4.3 Q11.9 3.35 10.7 2.9 L8.65 2.55 Q6.15 2.55 4.45 4.3 2.7 6.05 2.7 8.5 2.7 10.95 4.45 12.7 L5.15 13.3 5.8 13.75 Q7.05 14.45 8.65 14.45 10.15 14.45 11.4 13.8 L11.45 13.75 11.5 13.75 12.8 12.75 12.8 12.7 Q14.2 11.3 14.5 9.55 L14.6 8.5 Q14.6 6.05 12.8 4.3 M11.95 5.15 L12.05 5.25 Q13.35 6.6 13.35 8.5 13.35 10.5 11.95 11.9 10.55 13.25 8.6 13.25 L6.8 12.95 5.25 11.9 5.2 11.9 Q3.85 10.5 3.85 8.5 3.85 6.5 5.2 5.15 6.6 3.75 8.6 3.75 10.5 3.75 11.95 5.15 M25.05 38.1 Q23.3 39.85 23.3 42.3 23.3 44.75 25.05 46.5 L25.75 47.1 Q27.25 48.25 29.25 48.25 30.75 48.25 32.0 47.6 L33.45 46.5 Q34.85 45.1 35.15 43.35 L35.2 42.3 Q35.2 39.85 33.45 38.1 L31.3 36.7 29.25 36.35 Q26.8 36.35 25.05 38.1 M29.15 39.5 Q28.05 39.5 27.25 40.3 26.45 41.1 26.45 42.2 26.45 43.3 27.2 44.05 L27.3 44.15 Q28.05 44.9 29.15 44.9 L30.0 44.75 Q30.6 44.55 31.05 44.1 31.85 43.3 31.85 42.2 L31.85 42.15 Q31.85 41.1 31.05 40.3 L30.2 39.7 29.15 39.5 M29.2 40.8 Q29.8 40.8 30.2 41.2 30.6 41.6 30.6 42.25 30.6 42.85 30.2 43.25 29.8 43.65 29.2 43.65 28.55 43.65 28.15 43.25 27.75 42.85 27.75 42.25 27.75 41.6 28.15 41.2 28.55 40.8 29.2 40.8 M25.85 38.95 Q27.2 37.55 29.2 37.55 31.2 37.55 32.55 38.95 L32.5 38.95 32.6 39.0 32.65 39.0 Q33.95 40.35 33.95 42.3 33.95 44.3 32.55 45.7 31.2 47.05 29.2 47.05 L27.45 46.75 25.85 45.7 Q24.45 44.3 24.45 42.3 24.45 40.3 25.85 38.95 M34.45 35.45 L35.4 36.3 Q37.9 38.8 37.9 42.4 37.9 45.95 35.4 48.45 32.9 50.95 29.3 50.95 L26.35 50.5 Q24.65 49.9 23.2 48.45 20.7 45.95 20.7 42.4 20.7 38.8 23.2 36.3 25.6 33.9 29.1 33.8 L29.5 33.8 Q32.2 33.85 34.45 35.45" fill="#005e00" fill-rule="evenodd" stroke="none"/>
    </g>
  </defs>
</svg>
