<?xml version="1.0" encoding="UTF-8" standalone="no"?>
<svg xmlns:xlink="http://www.w3.org/1999/xlink" height="39.39px" width="30.18px" xmlns="http://www.w3.org/2000/svg">
  <g transform="matrix(0.6, 0.0, 0.0, 0.6, 0.15, 3.6)">
    <use height="58.25" transform="matrix(1.0, 0.0, 0.0, 1.0, 7.8, -1.6)" width="33.15" xlink:href="#shape0"/>
  </g>
  <defs>
    <g id="shape0" transform="matrix(1.0, 0.0, 0.0, 1.0, 0.0, 0.0)">
      <path d="M8.9 7.0 Q9.5 7.0 9.9 7.4 L9.9 7.45 Q10.3 7.9 10.3 8.45 10.3 9.05 9.9 9.45 9.5 9.9 8.9 9.9 8.25 9.9 7.85 9.45 7.45 9.05 7.45 8.45 7.45 7.9 7.85 7.45 L7.85 7.4 Q8.25 7.0 8.9 7.0 M11.6 8.35 Q11.55 7.3 10.75 6.5 L9.9 5.9 8.85 5.7 Q7.75 5.7 6.95 6.5 6.2 7.25 6.2 8.4 6.2 9.55 6.95 10.35 L6.95 10.3 Q7.75 11.1 8.85 11.1 L9.7 11.0 10.75 10.35 10.8 10.3 Q11.6 9.5 11.6 8.4 L11.6 8.35 M12.25 5.15 L12.35 5.25 Q13.65 6.6 13.65 8.5 13.65 10.5 12.25 11.9 10.9 13.25 8.9 13.25 L7.15 12.95 Q6.25 12.6 5.55 11.9 4.15 10.5 4.15 8.5 4.15 6.55 5.55 5.15 6.95 3.75 8.9 3.75 10.9 3.75 12.25 5.15 M13.15 4.3 Q12.25 3.35 11.0 2.9 L8.95 2.55 Q6.5 2.55 4.75 4.3 3.0 6.05 3.0 8.5 3.0 10.95 4.75 12.7 L5.45 13.35 Q6.95 14.45 8.95 14.45 10.5 14.45 11.75 13.8 L13.15 12.7 Q14.55 11.35 14.85 9.55 L14.9 8.5 Q14.9 6.05 13.15 4.3 M23.35 7.4 Q23.8 7.0 24.35 7.0 24.95 7.0 25.35 7.4 25.8 7.85 25.8 8.45 L25.35 9.45 Q24.9 9.9 24.35 9.9 23.75 9.9 23.3 9.45 22.9 9.05 22.9 8.45 22.9 7.9 23.3 7.45 L23.35 7.4 M27.75 5.15 L27.85 5.3 Q28.75 6.2 29.05 7.35 L29.05 7.4 29.15 8.5 Q29.15 10.5 27.75 11.9 26.35 13.25 24.4 13.25 L22.65 12.95 21.5 12.3 21.0 11.9 Q19.6 10.5 19.6 8.5 19.6 6.55 21.0 5.15 22.4 3.75 24.4 3.75 26.35 3.75 27.75 5.15 M25.35 5.9 L25.4 5.9 24.35 5.7 Q23.25 5.7 22.45 6.5 21.65 7.3 21.65 8.4 21.65 9.45 22.35 10.25 L22.45 10.3 23.2 10.9 24.35 11.1 25.15 11.0 26.25 10.3 Q27.05 9.5 27.05 8.4 L27.05 8.35 Q27.0 7.3 26.3 6.5 L26.25 6.5 25.35 5.9 M28.6 4.3 Q27.7 3.35 26.5 2.9 25.5 2.55 24.45 2.55 22.0 2.55 20.25 4.3 18.5 6.05 18.5 8.5 18.5 10.95 20.25 12.7 L20.5 12.95 20.95 13.35 Q22.4 14.45 24.45 14.45 25.95 14.45 27.2 13.8 L28.6 12.75 28.6 12.7 Q30.0 11.35 30.3 9.55 L30.4 8.5 30.15 6.7 Q29.7 5.35 28.6 4.3 M32.55 5.65 Q33.05 7.0 33.05 8.6 33.05 12.15 30.55 14.7 28.05 17.2 24.45 17.2 L21.5 16.7 Q19.85 16.05 18.5 14.8 L18.4 14.7 Q17.35 13.65 16.75 12.4 L15.1 14.7 Q12.6 17.2 9.0 17.2 L6.05 16.7 Q4.35 16.1 2.9 14.7 0.4 12.15 0.4 8.6 0.4 5.05 2.9 2.5 5.4 0.0 9.0 0.0 11.9 0.0 14.15 1.7 L15.1 2.5 Q16.1 3.55 16.75 4.85 17.35 3.55 18.4 2.5 20.9 0.0 24.45 0.0 27.35 0.0 29.6 1.7 L30.55 2.5 Q31.95 3.9 32.55 5.65" fill="#005e00" fill-rule="evenodd" stroke="none"/>
      <path d="M22.55 47.6 Q21.75 48.35 21.75 49.45 21.75 50.55 22.45 51.3 L22.6 51.45 Q23.35 52.2 24.45 52.2 L25.25 52.1 25.25 52.05 26.3 51.4 26.35 51.4 Q27.15 50.6 27.15 49.45 27.1 48.35 26.35 47.6 L26.3 47.6 Q25.95 47.15 25.5 47.0 L24.45 46.8 Q23.35 46.8 22.55 47.6 M23.4 48.5 Q23.85 48.05 24.45 48.05 25.0 48.05 25.45 48.5 L25.45 48.55 Q25.9 48.95 25.9 49.5 L25.45 50.55 Q25.05 50.95 24.45 50.95 23.9 50.95 23.45 50.55 L23.4 50.55 Q23.0 50.05 23.0 49.5 23.0 48.9 23.4 48.5 M24.55 43.6 Q22.1 43.6 20.3 45.35 18.6 47.1 18.6 49.55 18.6 52.0 20.3 53.8 L20.3 53.85 21.05 54.4 Q22.5 55.5 24.55 55.5 26.05 55.5 27.3 54.85 L28.8 53.8 28.75 53.8 Q30.1 52.4 30.4 50.6 L30.4 50.55 30.5 49.55 Q30.5 47.1 28.75 45.35 27.8 44.4 26.6 43.95 L24.55 43.6 M21.1 46.2 Q22.5 44.85 24.45 44.85 26.45 44.85 27.85 46.2 L27.95 46.35 Q29.2 47.7 29.2 49.6 29.2 51.55 27.85 52.95 26.45 54.35 24.45 54.35 L22.7 54.05 21.1 52.95 Q19.7 51.55 19.7 49.6 19.7 47.6 21.1 46.2 M27.85 31.3 L27.95 31.45 Q29.2 32.75 29.2 34.65 29.2 36.65 27.85 38.05 26.45 39.4 24.45 39.4 L22.7 39.1 21.1 38.05 Q19.7 36.65 19.7 34.65 19.7 32.7 21.1 31.3 22.5 29.9 24.45 29.9 26.45 29.9 27.85 31.3 M21.75 34.55 Q21.75 35.65 22.5 36.4 L22.6 36.5 Q23.35 37.25 24.45 37.25 L25.25 37.15 25.25 37.2 26.3 36.45 26.35 36.45 Q27.15 35.65 27.15 34.55 L27.15 34.5 Q27.1 33.45 26.3 32.65 25.95 32.2 25.5 32.05 L24.45 31.85 Q23.35 31.85 22.55 32.65 21.75 33.45 21.75 34.55 M23.45 33.55 Q23.9 33.15 24.45 33.15 25.05 33.15 25.45 33.55 25.9 33.95 25.9 34.6 25.9 35.2 25.45 35.6 25.05 36.0 24.45 36.0 23.9 36.0 23.45 35.6 L23.4 35.6 Q23.0 35.2 23.0 34.6 23.0 33.95 23.4 33.55 L23.45 33.55 M30.4 35.7 L30.5 34.65 Q30.5 32.2 28.75 30.45 27.8 29.5 26.6 29.05 L24.55 28.7 Q22.1 28.7 20.3 30.45 18.6 32.2 18.6 34.65 18.6 37.1 20.3 38.85 L21.0 39.45 21.05 39.45 Q22.5 40.6 24.55 40.6 26.05 40.6 27.3 39.95 L28.75 38.85 Q30.1 37.5 30.4 35.7 M18.5 40.8 Q17.15 39.45 16.55 37.8 L14.7 40.45 12.6 42.0 13.9 42.75 14.85 43.6 Q16.05 44.8 16.7 46.25 17.3 44.8 18.5 43.6 19.35 42.75 20.3 42.2 L18.5 40.8 M8.75 43.6 Q6.3 43.6 4.5 45.35 2.75 47.1 2.75 49.55 2.75 52.0 4.5 53.8 L5.2 54.4 Q6.7 55.5 8.75 55.5 10.25 55.5 11.5 54.85 L13.0 53.8 12.95 53.8 Q14.3 52.4 14.6 50.6 L14.65 49.55 Q14.65 47.1 12.95 45.35 12.0 44.4 10.8 43.95 L8.75 43.6 M6.75 47.6 Q5.95 48.35 5.95 49.45 5.95 50.6 6.7 51.4 L6.7 51.35 6.75 51.4 Q7.55 52.2 8.6 52.2 L9.45 52.05 10.5 51.4 10.55 51.4 Q11.35 50.6 11.35 49.45 11.3 48.35 10.55 47.6 L10.5 47.6 9.7 47.0 8.6 46.8 Q7.55 46.8 6.75 47.6 M7.6 48.5 Q8.05 48.05 8.65 48.05 9.2 48.05 9.65 48.5 L9.65 48.55 Q10.1 48.95 10.1 49.5 10.1 50.1 9.65 50.55 9.25 50.95 8.65 50.95 8.1 50.95 7.65 50.55 L7.6 50.55 Q7.2 50.05 7.2 49.5 7.2 48.9 7.6 48.5 M5.3 46.2 Q6.7 44.85 8.65 44.85 10.65 44.85 12.05 46.2 L12.1 46.3 Q13.4 47.65 13.4 49.6 13.4 51.55 12.05 52.95 10.65 54.35 8.65 54.35 L6.9 54.05 5.3 52.95 Q3.9 51.55 3.9 49.6 3.9 47.6 5.3 46.2 M8.5 32.75 Q9.1 32.75 9.5 33.15 9.95 33.6 9.95 34.2 L9.5 35.2 Q9.05 35.65 8.5 35.65 7.9 35.65 7.45 35.2 7.05 34.8 7.05 34.2 7.05 33.65 7.45 33.2 L7.5 33.15 Q7.95 32.75 8.5 32.75 M10.35 32.25 L10.4 32.25 Q9.95 31.85 9.5 31.7 L9.45 31.7 8.45 31.45 Q7.4 31.45 6.6 32.25 5.8 33.05 5.8 34.15 5.8 35.3 6.55 36.1 L6.55 36.05 6.6 36.1 Q7.4 36.9 8.45 36.9 L9.25 36.8 9.25 36.75 10.35 36.1 10.35 36.15 Q11.15 35.3 11.15 34.15 L11.15 34.1 Q11.15 33.05 10.35 32.25 M11.95 31.0 Q13.25 32.35 13.25 34.3 13.25 36.25 11.9 37.65 10.5 39.05 8.5 39.05 L6.75 38.75 5.15 37.65 Q4.0 36.5 3.8 35.05 L3.75 34.3 Q3.75 32.3 5.15 30.9 5.65 30.4 6.3 30.1 7.3 29.55 8.5 29.55 10.5 29.55 11.9 30.9 L11.95 31.0 M13.75 27.45 L14.7 28.3 Q16.05 29.65 16.7 31.35 17.3 29.9 18.5 28.65 21.0 26.15 24.55 26.15 27.45 26.15 29.7 27.85 L30.65 28.65 Q33.15 31.15 33.15 34.75 33.15 38.3 30.65 40.8 L28.85 42.2 29.7 42.75 30.65 43.6 Q33.15 46.1 33.15 49.65 33.15 53.25 30.65 55.75 28.15 58.25 24.55 58.25 L21.6 57.75 Q19.9 57.15 18.5 55.75 17.3 54.55 16.7 53.05 16.05 54.55 14.85 55.75 12.35 58.25 8.75 58.25 L5.8 57.75 Q4.1 57.15 2.7 55.75 0.2 53.25 0.2 49.65 0.2 46.1 2.7 43.6 3.6 42.65 4.75 42.1 L4.65 42.05 2.55 40.45 1.95 39.8 Q0.95 38.6 0.5 37.3 L0.55 37.3 Q0.0 35.9 0.0 34.35 0.0 32.75 0.55 31.45 L0.5 31.45 Q1.1 29.7 2.55 28.3 5.05 25.75 8.6 25.75 L8.95 25.75 Q11.6 25.85 13.75 27.45 M12.75 30.05 Q11.8 29.05 10.65 28.65 L8.55 28.3 7.65 28.4 Q5.75 28.65 4.35 30.05 2.6 31.8 2.6 34.25 2.6 35.8 3.35 37.1 L4.35 38.45 5.05 39.1 Q6.55 40.2 8.55 40.2 L11.35 39.55 Q12.05 39.15 12.75 38.45 14.15 37.1 14.45 35.3 L14.5 34.25 Q14.5 31.8 12.75 30.05" fill="#b20000" fill-rule="evenodd" stroke="none"/>
    </g>
  </defs>
</svg>
