<?xml version="1.0" encoding="UTF-8" standalone="no"?>
<svg xmlns:xlink="http://www.w3.org/1999/xlink" height="39.39px" width="30.18px" xmlns="http://www.w3.org/2000/svg">
  <g transform="matrix(0.6, 0.0, 0.0, 0.6, 0.15, 3.6)">
    <use height="62.5" transform="matrix(-1.0, 0.0, 0.0, -1.0, 47.55, 58.5)" width="45.4" xlink:href="#shape0"/>
  </g>
  <defs>
    <g id="shape0" transform="matrix(1.0, 0.0, 0.0, 1.0, 0.0, 0.0)">
      <path d="M42.8 47.7 L42.75 47.7 Q44.1 48.95 44.8 50.8 46.1 54.1 44.65 57.35 43.25 60.6 39.9 61.9 L33.35 61.7 Q30.7 60.6 29.3 58.2 L28.8 57.0 Q28.3 55.65 28.2 54.25 27.15 55.15 25.75 55.65 22.45 56.95 19.2 55.5 16.55 54.35 15.15 51.95 L14.7 51.0 14.6 50.75 14.5 50.55 14.5 50.5 14.05 48.55 13.15 49.2 11.75 49.85 Q8.45 51.15 5.15 49.7 2.5 48.6 1.15 46.2 L0.6 44.95 0.05 42.75 Q-0.2 40.55 0.75 38.4 2.2 35.15 5.5 33.85 8.8 32.6 12.05 34.0 13.5 34.65 14.6 35.65 L14.65 35.65 Q15.6 36.65 16.2 37.9 L16.6 38.75 Q17.05 39.9 17.15 41.0 18.25 40.15 19.5 39.65 21.65 38.85 23.7 39.1 L24.85 39.35 26.05 39.8 Q27.55 40.45 28.65 41.45 L29.6 42.65 29.6 42.6 Q30.25 43.5 30.6 44.55 31.2 45.95 31.25 47.3 32.3 46.45 33.65 45.9 37.0 44.65 40.25 46.05 41.7 46.7 42.8 47.7 M36.3 52.75 L37.45 52.8 37.4 52.8 Q38.0 53.05 38.2 53.55 L38.15 53.55 Q38.4 54.15 38.15 54.65 37.95 55.2 37.35 55.4 36.85 55.65 36.25 55.4 L35.5 54.6 Q35.3 54.05 35.5 53.5 35.8 53.0 36.3 52.75 M37.9 51.6 L37.15 51.45 35.85 51.6 Q34.8 52.05 34.35 53.05 33.9 54.05 34.3 55.1 34.55 55.65 34.95 56.0 L35.75 56.55 37.8 56.6 Q38.85 56.25 39.3 55.2 39.75 54.25 39.4 53.25 L39.35 53.1 Q39.0 52.1 37.9 51.6 M38.75 49.65 L40.25 50.65 41.3 52.25 Q42.0 54.1 41.2 55.9 40.45 57.7 38.55 58.4 L34.95 58.3 Q33.15 57.55 32.45 55.75 L32.45 55.8 32.4 55.55 Q31.75 53.8 32.5 52.1 33.3 50.3 35.15 49.55 L38.75 49.65 M36.4 48.05 L34.65 48.45 34.65 48.4 Q32.85 49.15 31.85 50.7 L31.35 51.55 Q30.35 53.85 31.25 56.15 31.75 57.45 32.7 58.35 L32.65 58.35 Q33.4 59.0 34.4 59.4 L38.95 59.55 Q41.25 58.65 42.25 56.4 43.25 54.15 42.35 51.8 L41.95 51.05 Q41.05 49.35 39.2 48.55 37.8 47.95 36.4 48.05 M21.35 48.4 Q21.15 47.85 21.4 47.25 L22.15 46.55 Q22.75 46.35 23.25 46.55 L23.7 46.85 24.0 47.35 Q24.25 47.9 24.0 48.4 L24.0 48.45 23.7 48.9 23.2 49.2 23.2 49.25 22.1 49.15 Q21.6 48.95 21.35 48.4 M20.2 46.85 Q19.75 47.85 20.15 48.85 L20.7 49.8 20.75 49.8 Q21.1 50.15 21.6 50.35 L23.65 50.4 23.7 50.35 Q24.7 50.0 25.15 49.0 25.6 48.0 25.2 46.95 L25.2 46.85 Q24.75 45.9 23.75 45.4 L23.7 45.35 22.95 45.2 21.7 45.4 21.7 45.35 Q20.7 45.8 20.25 46.75 L20.25 46.8 20.2 46.85 M17.95 47.3 L18.35 45.85 Q19.15 44.05 21.0 43.35 L21.9 43.1 23.7 43.15 24.6 43.45 Q25.5 43.85 26.05 44.45 L26.1 44.45 Q26.85 45.15 27.15 46.05 L27.1 46.05 Q27.85 47.9 27.05 49.7 26.3 51.5 24.4 52.2 L20.75 52.1 19.15 51.0 18.25 49.5 18.25 49.45 18.25 49.35 Q17.85 48.35 17.95 47.3 M17.15 45.35 Q16.45 47.05 16.75 48.75 L17.05 49.9 17.6 51.0 18.5 52.1 18.45 52.1 20.2 53.2 24.75 53.3 Q27.1 52.45 28.05 50.15 29.1 47.95 28.2 45.6 L28.2 45.65 27.8 44.75 27.8 44.8 Q27.2 43.65 26.1 42.9 L26.05 42.9 25.0 42.3 23.7 41.9 23.2 41.85 22.25 41.8 20.45 42.25 20.45 42.2 19.2 42.9 Q18.3 43.55 17.7 44.5 L17.15 45.35 M3.95 42.75 Q3.75 41.4 4.3 40.05 5.1 38.3 6.95 37.55 L10.55 37.65 12.05 38.7 12.1 38.7 Q12.75 39.35 13.1 40.25 L13.15 40.35 Q13.6 41.6 13.35 42.75 L13.15 43.55 13.0 43.9 Q12.25 45.7 10.35 46.4 L6.75 46.3 Q4.95 45.55 4.2 43.7 L4.2 43.65 4.2 43.55 3.95 42.8 3.95 42.75 M7.45 42.85 L7.35 42.65 7.35 42.6 Q7.15 42.05 7.35 41.5 7.6 40.95 8.1 40.75 8.7 40.55 9.2 40.75 9.8 41.0 10.0 41.6 L9.95 41.55 Q10.2 42.15 9.95 42.65 L9.95 42.7 9.85 42.9 9.2 43.4 9.2 43.45 8.05 43.35 7.45 42.85 M9.75 39.6 L8.95 39.45 8.9 39.45 7.7 39.55 Q6.65 40.0 6.2 40.95 L6.2 41.0 6.15 41.05 Q5.85 41.85 6.0 42.7 L6.15 43.1 6.1 43.05 6.75 44.0 7.55 44.55 9.65 44.6 Q10.7 44.25 11.1 43.2 L11.3 42.65 11.3 42.7 Q11.5 41.9 11.2 41.15 L11.2 41.05 Q10.75 40.1 9.75 39.6 M8.2 36.05 L6.45 36.4 Q4.65 37.15 3.65 38.7 L3.1 39.6 Q2.45 41.15 2.7 42.7 L3.05 44.15 Q3.55 45.45 4.45 46.3 L4.5 46.3 Q5.2 47.05 6.2 47.45 8.45 48.45 10.75 47.5 12.25 46.95 13.15 45.85 L14.05 44.35 14.55 42.7 Q14.75 41.3 14.15 39.8 L13.75 39.0 13.15 38.1 Q12.3 37.1 11.0 36.55 9.6 35.95 8.2 36.05" fill="#005e00" fill-rule="evenodd" stroke="none"/>
      <path d="M33.7 4.45 L33.0 3.85 Q31.55 2.7 29.5 2.7 27.95 2.7 26.75 3.35 26.0 3.75 25.3 4.45 23.9 5.85 23.6 7.6 L23.55 8.65 Q23.55 11.1 25.3 12.85 L27.45 14.25 29.5 14.6 Q31.95 14.6 33.7 12.85 35.45 11.1 35.45 8.65 35.45 6.2 33.7 4.45 M32.75 5.4 Q34.1 6.75 34.1 8.65 34.1 10.55 32.75 11.85 31.45 13.2 29.55 13.2 27.65 13.2 26.35 11.85 L26.3 11.8 Q25.0 10.5 25.0 8.65 25.0 6.75 26.35 5.4 27.65 4.1 29.55 4.1 L31.25 4.4 Q32.1 4.75 32.75 5.4 M30.8 8.7 Q30.8 9.25 30.45 9.6 L29.6 9.95 Q29.05 9.95 28.7 9.6 28.35 9.25 28.35 8.7 28.35 8.2 28.7 7.85 29.05 7.5 29.6 7.5 30.1 7.5 30.45 7.85 30.8 8.2 30.8 8.7 M17.9 4.45 L17.2 3.85 Q15.75 2.7 13.7 2.7 12.15 2.7 10.9 3.35 L9.5 4.45 Q8.1 5.85 7.8 7.6 L7.75 8.65 Q7.75 11.1 9.5 12.85 10.45 13.85 11.6 14.25 L13.7 14.6 Q16.15 14.6 17.9 12.85 19.65 11.1 19.65 8.65 19.65 6.2 17.9 4.45 M26.35 20.55 Q27.75 19.2 29.7 19.2 L31.5 19.5 Q32.35 19.9 33.05 20.55 L33.1 20.55 33.9 21.7 Q34.45 22.75 34.45 23.95 34.45 25.95 33.1 27.35 L33.05 27.35 Q32.25 28.15 31.25 28.45 L29.7 28.7 Q27.75 28.7 26.35 27.35 L26.25 27.2 Q24.95 25.85 24.95 23.95 24.95 21.95 26.35 20.55 M27.7 22.0 Q26.85 22.85 26.85 24.05 L26.85 24.1 Q26.9 25.25 27.7 26.1 L28.65 26.75 29.75 26.95 Q30.95 26.95 31.8 26.1 32.65 25.25 32.65 24.05 32.65 22.9 31.85 22.05 L31.8 22.0 Q30.95 21.15 29.75 21.15 L28.9 21.3 27.7 22.0 M28.75 23.0 Q29.1 22.6 29.75 22.6 30.3 22.6 30.75 23.0 L30.8 23.0 Q31.15 23.45 31.15 24.0 31.15 24.65 30.8 25.0 L30.75 25.05 Q30.3 25.45 29.75 25.45 29.1 25.45 28.75 25.05 L28.75 25.0 Q28.3 24.6 28.3 24.0 28.3 23.45 28.75 23.0 M23.8 23.0 L23.7 23.95 Q23.7 26.4 25.45 28.15 26.4 29.1 27.6 29.55 L29.65 29.9 30.25 29.85 Q32.35 29.65 33.85 28.15 35.6 26.4 35.6 23.95 35.6 21.75 34.2 20.05 L34.2 20.1 33.85 19.75 33.85 19.7 33.2 19.15 33.15 19.15 Q31.7 18.05 29.65 18.05 28.15 18.05 26.9 18.65 26.15 19.05 25.45 19.75 24.05 21.15 23.8 22.95 L23.8 23.0 M24.3 15.5 L23.4 14.65 Q22.2 13.45 21.55 11.95 20.9 13.45 19.7 14.65 L17.95 16.0 19.7 17.4 Q21.1 18.75 21.7 20.45 22.35 19.0 23.55 17.8 24.5 16.85 25.6 16.25 L24.3 15.5 M37.8 6.35 L38.05 8.55 Q38.05 11.6 36.15 13.9 L35.55 14.65 33.5 16.15 33.6 16.2 35.15 17.35 35.7 17.8 Q37.1 19.2 37.7 20.9 L37.65 20.9 Q38.2 22.3 38.2 23.9 38.2 25.45 37.65 26.8 L37.7 26.8 Q37.1 28.55 35.7 29.95 33.55 32.1 30.6 32.4 L29.65 32.45 29.3 32.45 28.55 32.4 Q26.3 32.15 24.45 30.8 L23.55 29.95 Q22.2 28.6 21.55 26.9 20.9 28.35 19.7 29.55 17.2 32.05 13.65 32.05 10.75 32.05 8.5 30.4 L7.55 29.55 Q5.05 27.05 5.05 23.5 5.05 19.9 7.55 17.4 8.45 16.55 9.35 16.05 L8.5 15.5 7.55 14.65 Q5.05 12.15 5.05 8.55 5.05 5.0 7.55 2.5 10.1 0.0 13.65 0.0 L16.6 0.45 Q18.35 1.1 19.7 2.5 20.9 3.7 21.55 5.1 22.2 3.7 23.4 2.5 25.9 0.0 29.45 0.0 L32.4 0.45 Q34.15 1.05 35.55 2.5 37.25 4.2 37.8 6.35 M31.7 6.75 L31.65 6.7 Q30.8 5.85 29.6 5.85 L28.75 6.0 Q28.05 6.2 27.55 6.7 26.7 7.55 26.7 8.75 L26.7 8.8 Q26.7 9.95 27.55 10.8 L28.5 11.45 29.6 11.65 Q30.8 11.65 31.65 10.8 32.45 9.95 32.45 8.75 32.45 7.55 31.7 6.75 M16.95 5.4 Q18.3 6.75 18.3 8.65 18.3 10.55 16.95 11.85 15.65 13.2 13.75 13.2 11.85 13.2 10.5 11.85 L10.5 11.8 Q9.2 10.5 9.2 8.65 9.2 6.75 10.5 5.4 11.85 4.1 13.75 4.1 L15.45 4.4 Q16.3 4.75 16.95 5.4 M13.8 5.85 L12.95 6.0 11.75 6.7 Q10.9 7.55 10.9 8.75 L10.9 8.8 Q10.9 9.95 11.75 10.8 L12.7 11.45 13.8 11.65 Q15.0 11.65 15.8 10.8 16.65 9.95 16.65 8.75 16.65 7.55 15.85 6.75 L15.8 6.7 Q15.0 5.85 13.8 5.85 M14.65 7.85 Q15.0 8.2 15.0 8.7 15.0 9.25 14.65 9.6 14.25 9.95 13.75 9.95 13.25 9.95 12.9 9.6 12.5 9.25 12.5 8.7 12.5 8.2 12.9 7.85 13.25 7.5 13.75 7.5 14.25 7.5 14.65 7.85 M13.8 20.75 L12.95 20.9 11.75 21.6 Q10.9 22.45 10.9 23.7 10.9 24.9 11.75 25.7 L12.7 26.35 13.8 26.55 Q15.0 26.55 15.8 25.7 16.65 24.9 16.65 23.7 16.65 22.5 15.85 21.65 L15.8 21.6 Q15.0 20.75 13.8 20.75 M9.45 19.35 L9.5 19.35 Q8.1 20.75 7.8 22.55 L7.75 23.6 Q7.75 26.05 9.5 27.8 10.45 28.8 11.6 29.2 L13.7 29.55 Q16.15 29.55 17.9 27.8 19.65 26.05 19.65 23.6 19.65 21.15 17.9 19.35 L17.2 18.75 Q15.75 17.65 13.7 17.65 12.15 17.65 10.9 18.3 10.15 18.7 9.45 19.35 M14.65 22.75 Q15.0 23.15 15.0 23.65 L14.65 24.5 Q14.25 24.9 13.75 24.9 13.25 24.9 12.9 24.5 12.5 24.15 12.5 23.65 12.5 23.15 12.9 22.75 13.25 22.4 13.75 22.4 14.25 22.4 14.65 22.75 M13.75 19.0 L15.45 19.3 Q16.3 19.65 16.95 20.35 18.3 21.7 18.3 23.55 18.3 25.45 16.95 26.8 15.65 28.1 13.75 28.1 11.85 28.1 10.5 26.8 L10.5 26.7 Q9.2 25.4 9.2 23.55 9.2 21.7 10.5 20.35 11.85 19.0 13.75 19.0" fill="#b20000" fill-rule="evenodd" stroke="none"/>
    </g>
  </defs>
</svg>
