<?xml version="1.0" encoding="UTF-8" standalone="no"?>
<svg xmlns:xlink="http://www.w3.org/1999/xlink" height="39.39px" width="30.18px" xmlns="http://www.w3.org/2000/svg">
  <g transform="matrix(0.6, 0.0, 0.0, 0.6, 0.15, 3.6)">
    <use height="61.4" transform="matrix(1.0, 0.0, 0.0, 1.0, 8.0, -3.7)" width="32.75" xlink:href="#shape0"/>
  </g>
  <defs>
    <g id="shape0" transform="matrix(1.0, 0.0, 0.0, 1.0, 0.0, 0.0)">
      <path d="M8.45 51.25 Q9.0 51.25 9.5 51.65 9.9 52.05 9.9 52.7 9.9 53.3 9.5 53.7 9.0 54.1 8.45 54.1 7.85 54.1 7.45 53.7 L7.5 53.7 Q7.0 53.3 7.0 52.7 7.0 52.05 7.5 51.65 L7.45 51.65 Q7.85 51.25 8.45 51.25 M10.35 54.55 Q11.15 53.75 11.15 52.65 L11.15 52.6 Q11.15 51.55 10.35 50.75 9.95 50.3 9.5 50.15 L8.45 49.95 Q7.35 49.95 6.55 50.75 5.75 51.55 5.75 52.65 5.75 53.75 6.5 54.5 L6.6 54.6 Q7.35 55.35 8.45 55.35 L9.25 55.25 9.25 55.2 10.4 54.55 10.35 54.55 M23.0 51.65 L23.05 51.65 Q23.5 51.25 24.05 51.25 24.65 51.25 25.05 51.65 25.5 52.05 25.5 52.7 25.5 53.3 25.05 53.7 24.65 54.1 24.05 54.1 23.5 54.1 23.05 53.7 L23.0 53.7 Q22.6 53.3 22.6 52.7 22.6 52.05 23.0 51.65 M26.75 52.65 L26.75 52.6 Q26.7 51.5 25.95 50.75 L25.05 50.15 24.05 49.95 Q22.95 49.95 22.15 50.75 21.35 51.55 21.35 52.65 21.35 53.75 22.1 54.5 L22.15 54.55 Q22.95 55.35 24.05 55.35 L24.85 55.25 24.85 55.2 26.0 54.55 25.95 54.55 Q26.75 53.75 26.75 52.65 M20.7 49.4 Q22.1 48.0 24.1 48.0 26.05 48.0 27.45 49.4 L27.5 49.45 Q28.85 50.8 28.85 52.75 28.85 54.75 27.45 56.15 26.05 57.5 24.1 57.5 L22.3 57.2 20.7 56.15 Q19.3 54.75 19.3 52.75 19.3 50.8 20.7 49.4 M25.25 46.9 L24.1 46.8 23.1 46.9 Q21.25 47.2 19.95 48.55 18.2 50.3 18.2 52.75 18.2 55.2 19.95 56.95 L19.95 57.0 20.6 57.55 20.65 57.55 Q22.1 58.7 24.1 58.7 25.65 58.7 26.9 58.05 L28.3 57.0 28.3 56.95 Q29.7 55.55 30.0 53.8 L30.1 52.75 Q30.1 50.3 28.3 48.55 27.4 47.6 26.2 47.15 L25.25 46.9 M20.7 34.6 Q22.1 33.25 24.1 33.25 26.05 33.25 27.45 34.6 L27.55 34.75 Q28.85 36.1 28.85 38.0 28.85 39.95 27.45 41.35 26.05 42.75 24.1 42.75 L22.3 42.4 20.7 41.35 Q19.3 39.95 19.3 38.0 19.3 36.0 20.7 34.6 M25.05 35.4 L25.0 35.4 24.05 35.15 Q22.95 35.15 22.15 35.95 21.35 36.75 21.35 37.85 21.35 38.95 22.05 39.7 L22.15 39.8 Q22.95 40.6 24.05 40.6 L24.85 40.5 24.85 40.45 25.95 39.75 Q26.75 38.95 26.75 37.85 L26.75 37.8 Q26.7 36.75 26.0 35.95 L25.95 35.95 Q25.55 35.6 25.05 35.4 M24.05 36.45 Q24.65 36.45 25.05 36.85 25.5 37.3 25.5 37.9 L25.05 38.9 Q24.6 39.35 24.05 39.35 23.45 39.35 23.0 38.9 22.6 38.5 22.6 37.9 22.6 37.35 23.0 36.9 L23.05 36.85 Q23.5 36.45 24.05 36.45 M13.05 45.45 L13.7 45.95 14.65 46.75 Q15.8 47.85 16.4 49.2 17.0 47.85 18.1 46.75 18.85 46.0 19.75 45.45 L18.1 44.15 Q17.0 43.05 16.4 41.75 15.8 43.05 14.65 44.15 L13.05 45.45 M19.95 42.15 L19.95 42.2 20.65 42.8 Q22.1 43.9 24.1 43.9 25.65 43.9 26.9 43.25 L28.3 42.2 28.3 42.15 Q29.7 40.8 30.0 39.0 L30.0 38.95 30.1 37.95 Q30.1 35.5 28.3 33.75 27.4 32.8 26.2 32.35 L25.3 32.1 24.15 32.15 23.1 32.1 Q21.25 32.4 19.95 33.75 18.2 35.5 18.2 37.95 18.2 40.4 19.95 42.15 M5.1 49.4 Q6.5 48.0 8.5 48.0 10.5 48.0 11.85 49.4 L11.9 49.45 Q13.25 50.8 13.25 52.75 13.25 54.75 11.85 56.15 10.5 57.5 8.5 57.5 L6.75 57.2 5.1 56.15 Q3.7 54.75 3.7 52.75 3.7 50.8 5.1 49.4 M8.55 46.8 L7.5 46.9 Q5.7 47.2 4.35 48.55 2.6 50.3 2.6 52.75 2.6 55.2 4.35 56.95 L4.35 57.0 5.0 57.55 5.05 57.55 Q6.5 58.7 8.55 58.7 10.05 58.7 11.3 58.05 L12.75 56.95 Q14.1 55.55 14.4 53.8 L14.5 52.75 Q14.5 50.3 12.75 48.55 11.8 47.6 10.6 47.15 L9.65 46.9 8.55 46.8 M9.5 36.85 L9.5 36.9 Q9.9 37.35 9.9 37.9 9.9 38.5 9.5 38.9 9.05 39.35 8.45 39.35 7.9 39.35 7.5 38.9 L7.45 38.9 Q7.0 38.45 7.0 37.9 7.0 37.3 7.45 36.85 7.85 36.45 8.45 36.45 9.0 36.45 9.5 36.85 M10.35 35.95 L10.4 35.95 Q9.95 35.55 9.5 35.4 L9.45 35.4 8.45 35.15 Q7.35 35.15 6.55 35.95 5.75 36.75 5.75 37.85 5.75 38.95 6.45 39.7 L6.55 39.8 Q7.35 40.6 8.45 40.6 L9.25 40.5 9.25 40.45 10.35 39.75 Q11.15 38.95 11.15 37.85 L11.15 37.8 Q11.15 36.75 10.35 35.95 M11.85 34.6 L11.95 34.75 Q13.25 36.1 13.25 38.0 13.25 39.95 11.85 41.35 10.5 42.75 8.5 42.75 L6.75 42.4 5.1 41.35 Q3.7 39.95 3.7 38.0 3.7 36.0 5.1 34.6 6.5 33.25 8.5 33.25 10.5 33.25 11.85 34.6 M12.75 33.75 Q11.8 32.8 10.6 32.35 L9.7 32.1 8.6 32.15 7.5 32.1 Q5.9 32.35 4.7 33.45 L4.35 33.75 Q2.6 35.5 2.6 37.95 L2.7 38.85 2.7 38.9 Q2.95 40.75 4.35 42.15 L4.35 42.2 5.05 42.8 Q6.5 43.9 8.55 43.9 10.05 43.9 11.3 43.25 L12.75 42.15 Q14.1 40.8 14.4 39.0 L14.4 38.95 14.5 37.95 Q14.5 35.5 12.75 33.75 M19.55 30.85 L18.1 29.65 Q17.0 28.55 16.4 27.3 15.8 28.55 14.65 29.65 L13.3 30.85 13.7 31.15 14.65 32.0 Q15.8 33.1 16.4 34.4 17.0 33.1 18.1 32.0 L18.1 32.05 Q18.75 31.3 19.55 30.85 M17.1 13.45 L17.1 13.4 16.4 12.25 Q15.8 13.55 14.65 14.65 L12.85 16.1 13.7 16.65 14.1 17.0 14.65 17.5 16.25 19.5 16.4 19.9 16.65 19.5 Q17.2 18.4 18.1 17.5 18.95 16.65 19.95 16.1 L18.1 14.65 17.1 13.45 M7.5 22.4 L7.45 22.4 Q7.85 22.0 8.45 22.0 9.0 22.0 9.5 22.4 L9.85 23.1 9.85 23.05 9.9 23.45 Q9.9 24.05 9.5 24.45 L8.9 24.85 8.8 24.85 8.45 24.85 Q7.85 24.85 7.45 24.45 L7.5 24.45 Q7.0 24.05 7.0 23.45 7.0 22.8 7.5 22.4 M5.1 20.15 Q5.5 19.75 6.05 19.45 7.15 18.75 8.5 18.75 9.85 18.75 10.95 19.45 L11.75 20.05 11.85 20.15 11.9 20.2 Q13.25 21.55 13.25 23.5 13.25 25.5 11.85 26.9 10.5 28.25 8.5 28.25 L6.95 28.05 6.9 28.05 6.7 27.95 6.75 27.95 5.15 26.9 5.1 26.9 Q3.7 25.5 3.7 23.5 3.7 21.5 5.1 20.15 M9.5 20.9 L8.45 20.7 Q7.35 20.7 6.55 21.5 5.75 22.3 5.75 23.4 5.75 24.5 6.5 25.25 L6.6 25.35 Q7.15 25.9 7.9 26.05 L8.45 26.1 9.25 26.0 9.25 25.95 10.4 25.3 10.35 25.3 Q11.15 24.5 11.15 23.4 L11.15 23.35 Q11.15 22.35 10.55 21.7 L10.35 21.5 Q9.95 21.05 9.5 20.9 M3.95 19.75 Q2.6 21.3 2.6 23.5 2.6 25.95 4.35 27.7 L5.05 28.3 6.45 29.15 6.45 29.1 8.55 29.45 Q10.05 29.45 11.3 28.8 L12.75 27.7 Q14.1 26.3 14.4 24.55 L14.5 23.5 Q14.5 21.3 13.15 19.75 L12.75 19.3 12.45 19.0 12.5 19.0 Q11.6 18.25 10.6 17.9 L8.55 17.55 Q6.1 17.55 4.35 19.3 L3.95 19.75 M8.45 7.0 Q9.0 7.0 9.5 7.4 9.9 7.8 9.9 8.45 9.9 9.05 9.5 9.4 9.05 9.85 8.45 9.85 7.9 9.85 7.5 9.4 L7.45 9.4 Q7.0 9.05 7.0 8.45 7.0 7.8 7.5 7.4 L7.45 7.4 Q7.85 7.0 8.45 7.0 M11.15 8.35 Q11.15 7.3 10.35 6.5 9.95 6.05 9.5 5.9 L8.45 5.7 Q7.35 5.7 6.55 6.5 5.75 7.3 5.75 8.4 5.75 9.45 6.45 10.2 L6.6 10.35 Q7.35 11.1 8.45 11.1 L9.25 11.0 9.25 10.95 Q9.85 10.75 10.35 10.35 L10.4 10.3 Q11.15 9.45 11.15 8.4 L11.15 8.35 M11.85 5.1 L11.95 5.25 Q13.25 6.6 13.25 8.5 13.25 10.5 11.85 11.9 10.5 13.25 8.5 13.25 L6.75 12.95 5.15 11.9 5.1 11.9 Q3.7 10.5 3.7 8.5 3.7 6.5 5.1 5.1 6.5 3.75 8.5 3.75 10.5 3.75 11.85 5.1 M12.75 4.3 Q11.8 3.3 10.6 2.85 L8.55 2.55 Q6.1 2.55 4.35 4.3 2.6 6.05 2.6 8.45 2.6 10.9 4.35 12.7 L5.05 13.3 Q6.5 14.4 8.55 14.4 10.05 14.4 11.3 13.8 L12.8 12.7 12.75 12.7 Q14.1 11.3 14.4 9.5 L14.4 9.45 14.5 8.45 Q14.5 6.05 12.75 4.3 M28.35 19.3 L28.3 19.3 Q27.4 18.35 26.2 17.9 L24.1 17.55 Q21.7 17.55 19.95 19.3 L19.55 19.75 Q18.2 21.3 18.2 23.5 18.2 25.95 19.95 27.7 L20.65 28.3 Q22.1 29.45 24.1 29.45 25.65 29.45 26.9 28.8 L28.3 27.75 28.3 27.7 Q29.7 26.3 30.0 24.55 L30.1 23.5 Q30.1 21.3 28.75 19.75 L28.35 19.3 M24.05 22.0 Q24.65 22.0 25.05 22.4 25.5 22.8 25.5 23.45 25.5 24.05 25.05 24.45 24.65 24.85 24.05 24.85 23.5 24.85 23.05 24.45 L23.0 24.45 Q22.6 24.05 22.6 23.45 22.6 22.8 23.0 22.4 L23.05 22.4 Q23.5 22.0 24.05 22.0 M20.7 20.15 L21.65 19.45 Q22.75 18.75 24.1 18.75 25.45 18.75 26.55 19.45 L27.45 20.15 27.5 20.2 Q28.85 21.55 28.85 23.5 28.85 25.5 27.45 26.9 26.05 28.25 24.1 28.25 L22.3 27.95 Q21.45 27.55 20.75 26.9 L20.7 26.9 Q19.3 25.5 19.3 23.5 19.3 21.5 20.7 20.15 M25.05 20.9 L24.05 20.7 Q22.95 20.7 22.15 21.5 21.35 22.3 21.35 23.4 21.35 24.5 22.1 25.25 L22.15 25.3 Q22.95 26.1 24.05 26.1 L24.85 26.0 24.85 25.95 26.0 25.3 25.95 25.3 Q26.75 24.5 26.75 23.4 L26.75 23.35 Q26.7 22.25 25.95 21.5 L25.05 20.9 M24.05 7.0 L24.35 7.05 25.05 7.4 Q25.5 7.8 25.5 8.45 L25.05 9.4 Q24.6 9.85 24.05 9.85 23.45 9.85 23.0 9.4 L23.05 9.4 Q22.6 9.05 22.6 8.45 L22.6 8.35 Q22.65 7.75 23.0 7.4 L23.05 7.4 Q23.5 7.0 24.05 7.0 M25.05 5.9 L24.05 5.7 Q22.95 5.7 22.15 6.5 21.35 7.3 21.35 8.4 L21.55 9.45 22.1 10.3 22.1 10.25 22.15 10.3 Q22.95 11.1 24.05 11.1 L24.85 11.0 24.85 10.95 Q25.45 10.75 25.95 10.35 L26.0 10.3 Q26.75 9.45 26.75 8.4 L26.75 8.35 Q26.7 7.25 25.95 6.5 L25.75 6.35 25.75 6.3 Q25.4 6.0 25.05 5.9 M27.45 5.1 L27.55 5.25 Q28.85 6.6 28.85 8.5 28.85 10.5 27.45 11.9 26.05 13.25 24.1 13.25 L22.3 12.95 Q21.45 12.55 20.75 11.9 L20.7 11.9 19.9 10.8 Q19.3 9.75 19.3 8.5 19.3 6.5 20.7 5.1 22.1 3.75 24.1 3.75 26.05 3.75 27.45 5.1 M28.3 4.3 Q27.4 3.3 26.2 2.85 L24.1 2.55 Q21.7 2.55 19.95 4.3 18.2 6.05 18.2 8.45 18.2 10.2 19.1 11.6 L19.95 12.7 20.65 13.3 Q22.1 14.4 24.1 14.4 25.65 14.4 26.9 13.8 L28.3 12.7 Q29.7 11.3 30.0 9.5 L30.0 9.45 30.1 8.45 Q30.1 6.15 28.55 4.55 L28.3 4.3 M30.8 3.15 Q32.75 5.45 32.75 8.55 32.75 12.15 30.25 14.65 L28.4 16.1 29.3 16.65 30.25 17.5 31.8 19.5 Q32.75 21.35 32.75 23.6 32.75 27.15 30.25 29.65 L28.85 30.85 29.3 31.15 30.25 32.0 Q32.75 34.5 32.75 38.05 32.75 41.65 30.25 44.15 L28.6 45.45 29.3 45.95 30.25 46.75 Q32.75 49.25 32.75 52.85 32.75 56.4 30.25 58.9 27.75 61.4 24.15 61.4 L21.2 60.95 Q19.5 60.35 18.1 58.9 17.0 57.8 16.4 56.55 15.8 57.8 14.65 58.9 12.15 61.4 8.6 61.4 L5.65 60.95 Q3.9 60.35 2.5 58.9 0.0 56.4 0.0 52.85 0.0 49.25 2.5 46.75 3.25 46.0 4.2 45.45 3.3 44.9 2.5 44.15 L1.25 42.55 Q0.0 40.55 0.0 38.05 0.0 34.5 2.5 32.0 L2.5 32.05 3.95 30.85 2.5 29.65 Q0.0 27.15 0.0 23.6 0.0 21.35 1.05 19.5 1.6 18.4 2.5 17.5 3.4 16.65 4.4 16.1 L2.5 14.65 Q0.0 12.15 0.0 8.55 0.0 5.0 2.5 2.5 L3.65 1.55 Q5.8 0.0 8.6 0.0 11.35 0.0 13.6 1.55 L13.7 1.65 14.65 2.5 Q15.8 3.6 16.4 4.95 17.0 3.6 18.1 2.5 L19.2 1.55 Q21.35 0.0 24.15 0.0 26.95 0.0 29.2 1.55 L29.3 1.65 30.25 2.5 30.8 3.15" fill="#173384" fill-rule="evenodd" stroke="none"/>
    </g>
  </defs>
</svg>
