<?xml version="1.0" encoding="UTF-8" standalone="no"?>
<svg xmlns:xlink="http://www.w3.org/1999/xlink" height="39.39px" width="30.18px" xmlns="http://www.w3.org/2000/svg">
  <g transform="matrix(0.6, 0.0, 0.0, 0.6, 0.15, 3.6)">
    <use height="60.85" transform="matrix(1.0, 0.0, 0.0, 1.0, 2.15, -2.9)" width="47.9" xlink:href="#shape0"/>
  </g>
  <defs>
    <g id="shape0" transform="matrix(1.0, 0.0, 0.0, 1.0, 0.0, 0.0)">
      <path d="M30.3 33.2 Q29.3 34.9 32.2 36.55 L34.3 37.6 34.4 37.65 36.75 38.7 40.55 40.2 47.9 42.55 Q41.2 44.15 38.75 45.9 37.2 46.7 36.2 46.5 38.75 44.8 39.2 44.2 38.4 43.75 37.55 42.95 36.95 42.45 34.2 41.1 L32.65 40.2 Q31.2 39.25 30.0 37.9 L29.4 37.25 Q28.2 35.75 28.2 34.7 28.2 33.85 28.35 33.8 L29.4 33.2 30.3 33.2 M15.6 52.05 L15.25 51.8 Q13.7 50.7 11.65 49.75 L11.4 49.4 Q10.6 48.0 13.05 48.9 L16.95 49.9 Q19.0 50.0 18.65 47.85 L18.9 36.85 18.8 36.3 18.55 35.8 18.9 35.8 Q19.75 35.8 20.1 36.3 L20.2 36.45 Q20.55 37.1 20.4 38.6 L20.35 39.7 Q20.25 42.15 20.5 45.25 L20.5 46.7 20.45 47.55 19.9 48.8 19.25 50.3 19.25 50.4 Q18.95 51.25 18.5 51.4 L17.4 51.5 16.15 51.8 15.8 51.9 15.6 52.05 M4.45 44.15 L2.05 44.5 0.15 44.35 0.0 44.1 Q-0.15 43.7 0.8 43.35 L7.6 38.45 11.35 35.45 14.3 32.95 15.8 32.85 15.8 33.05 15.5 34.1 Q14.7 35.15 13.9 35.5 L13.45 35.7 Q11.9 36.5 9.6 38.65 L7.7 40.5 4.45 44.15 M7.0 20.05 L6.85 19.75 6.3 18.75 Q6.25 18.15 6.8 17.65 L8.85 17.35 12.3 19.4 18.05 17.8 18.6 17.3 18.75 17.0 18.85 17.0 19.85 17.15 Q20.4 17.3 20.4 17.6 20.4 18.2 19.3 18.55 L18.95 18.6 15.1 19.5 13.25 20.5 12.4 20.9 10.5 21.3 Q10.1 21.3 9.5 20.55 L9.4 20.45 Q8.85 19.8 8.4 19.8 L7.1 20.0 7.0 20.05 M10.55 14.5 L10.05 13.4 10.0 13.35 Q9.9 12.95 10.2 12.7 10.6 12.3 11.7 12.05 14.45 12.8 18.95 11.05 L18.95 10.65 19.15 10.75 Q19.6 11.1 19.6 12.2 19.6 13.1 18.8 13.05 L17.6 13.0 16.6 13.4 16.55 13.4 14.6 14.2 13.65 14.4 11.8 14.5 10.55 14.5 M17.8 6.95 Q16.85 6.45 15.05 6.25 L14.4 6.2 Q17.0 4.15 18.75 1.9 L20.05 0.0 21.9 2.2 23.3 3.55 25.5 5.35 24.25 5.7 23.45 5.85 23.6 5.8 23.4 5.8 Q22.05 5.75 21.8 5.05 21.55 4.3 21.0 4.3 20.5 4.3 19.8 5.05 L17.8 6.95 M23.35 9.4 Q24.35 10.0 26.65 8.2 28.85 7.3 31.1 9.65 L30.55 9.7 31.2 9.7 31.2 9.75 29.75 9.7 26.9 9.9 Q26.4 10.05 24.3 11.1 L23.2 11.1 23.2 10.2 23.35 9.4 M23.15 15.85 L24.65 15.65 27.05 14.95 28.2 14.65 30.5 14.8 Q31.3 15.05 32.05 15.65 L32.35 15.8 32.55 15.95 Q36.0 18.5 41.5 21.5 L38.4 21.95 36.2 20.2 Q30.4 16.7 27.95 16.35 L27.45 16.3 24.85 16.5 23.2 16.4 23.1 16.0 23.15 15.85 M28.6 22.95 L23.05 22.6 22.5 22.6 22.5 21.7 24.55 21.45 Q27.25 20.75 28.6 22.95 M19.6 22.25 L19.65 22.5 19.7 22.85 Q19.7 24.4 17.25 24.65 15.9 24.8 14.9 25.2 14.7 24.4 15.6 24.05 18.6 23.3 19.6 22.25" fill="#0b173c" fill-rule="evenodd" stroke="none"/>
      <path d="M36.2 46.5 Q35.35 46.35 34.9 45.5 31.5 43.4 28.6 40.2 L26.0 36.95 24.55 34.75 Q22.8 34.0 22.7 36.65 L23.3 54.7 Q22.5 58.15 21.4 59.8 L20.4 60.8 20.2 60.85 Q19.8 60.8 19.6 59.6 19.4 58.55 19.35 56.8 18.45 54.15 15.6 52.05 L15.8 51.9 16.15 51.8 17.4 51.5 18.5 51.4 Q18.95 51.25 19.25 50.4 L19.25 50.3 19.9 48.8 20.45 47.55 20.5 46.7 20.5 45.25 Q20.25 42.15 20.35 39.7 L20.4 38.6 Q20.55 37.1 20.2 36.45 L20.1 36.3 Q19.75 35.8 18.9 35.8 L18.55 35.8 Q18.1 35.35 17.15 36.1 L16.35 36.85 13.8 39.05 Q8.65 43.1 4.45 44.15 L7.7 40.5 9.6 38.65 Q11.9 36.5 13.45 35.7 L13.9 35.5 Q14.7 35.15 15.5 34.1 L15.8 33.05 15.8 32.85 15.9 32.95 15.25 31.6 Q13.1 31.05 11.7 30.05 9.7 28.55 9.2 26.05 L9.0 24.35 7.0 20.05 7.1 20.0 8.4 19.8 Q8.85 19.8 9.4 20.45 L9.5 20.55 Q10.1 21.3 10.5 21.3 L12.4 20.9 13.25 20.5 15.1 19.5 18.95 18.6 19.3 18.55 Q20.4 18.2 20.4 17.6 20.4 17.3 19.85 17.15 L18.85 17.0 18.75 17.0 Q19.0 16.35 18.85 15.5 18.65 14.4 13.55 15.25 11.45 15.55 10.55 14.5 L11.8 14.5 13.65 14.4 14.6 14.2 16.55 13.4 16.6 13.4 17.6 13.0 18.8 13.05 Q19.6 13.1 19.6 12.2 19.6 11.1 19.15 10.75 L18.95 10.65 18.8 7.8 17.8 6.95 19.8 5.05 Q20.5 4.3 21.0 4.3 21.55 4.3 21.8 5.05 22.05 5.75 23.4 5.8 L23.6 5.8 23.45 5.85 24.25 5.7 25.5 5.35 26.35 5.95 Q22.6 7.45 23.15 9.25 L23.35 9.4 23.2 10.2 23.2 11.1 24.3 11.1 Q26.4 10.05 26.9 9.9 L29.75 9.7 31.2 9.75 31.8 10.45 Q32.55 11.75 29.5 11.7 24.5 12.3 23.0 13.4 L22.4 14.05 22.3 14.4 22.3 14.6 Q22.45 15.65 23.15 15.85 L23.1 16.0 23.2 16.4 24.85 16.5 27.45 16.3 27.95 16.35 Q30.4 16.7 36.2 20.2 L38.4 21.95 37.25 22.1 37.05 22.7 36.25 24.5 36.15 24.65 35.15 26.55 33.55 29.1 30.6 32.8 30.3 33.2 29.4 33.2 28.35 33.8 Q28.2 33.85 28.2 34.7 28.2 35.75 29.4 37.25 L30.0 37.9 Q31.2 39.25 32.65 40.2 L34.2 41.1 Q36.95 42.45 37.55 42.95 38.4 43.75 39.2 44.2 38.75 44.8 36.2 46.5 M31.1 9.65 L31.2 9.7 30.55 9.7 31.1 9.65 M22.5 21.7 L22.5 22.6 23.05 22.6 28.6 22.95 28.9 23.5 28.9 23.55 Q28.5 24.65 25.65 24.7 L22.5 24.5 Q22.35 24.6 22.3 25.15 22.15 26.1 22.25 28.45 L22.25 28.85 Q24.65 29.15 26.2 30.2 L26.95 30.85 28.95 31.0 29.8 29.65 31.1 27.15 32.05 24.65 32.25 24.05 32.85 21.8 33.05 21.0 Q33.1 18.8 28.9 17.55 L23.4 17.75 Q22.2 17.9 21.9 19.2 L21.8 19.6 21.85 19.6 22.05 21.75 22.5 21.7 M14.9 25.2 Q15.9 24.8 17.25 24.65 19.7 24.4 19.7 22.85 L19.65 22.5 19.6 22.25 19.7 22.1 19.65 21.2 Q19.05 18.85 16.5 19.6 L12.1 21.6 Q11.35 22.75 12.05 25.85 12.6 27.55 14.25 29.1 L14.85 29.55 Q16.8 30.8 19.3 29.75 L20.8 28.7 20.05 27.85 19.2 25.95 15.3 25.95 15.1 25.6 14.9 25.2" fill="#173384" fill-rule="evenodd" stroke="none"/>
    </g>
  </defs>
</svg>
