<?xml version="1.0" encoding="UTF-8" standalone="no"?>
<svg xmlns:xlink="http://www.w3.org/1999/xlink" height="39.39px" width="30.18px" xmlns="http://www.w3.org/2000/svg">
  <g transform="matrix(0.6, 0.0, 0.0, 0.6, 0.15, 3.6)">
    <use height="54.65" transform="matrix(1.0, 0.0, 0.0, 1.0, 4.4, -0.55)" width="43.45" xlink:href="#shape0"/>
  </g>
  <defs>
    <g id="shape0" transform="matrix(1.0, 0.0, 0.0, 1.0, 0.0, 0.0)">
      <path d="M17.25 25.05 Q17.75 25.6 19.0 25.55 L19.85 25.55 Q20.6 24.65 21.8 24.25 L22.5 24.05 22.65 23.0 22.65 22.85 22.35 22.35 22.15 22.2 22.05 22.0 22.15 21.3 22.3 20.75 Q22.45 20.3 22.75 20.05 L22.95 20.05 Q24.6 20.65 25.9 22.05 L26.6 22.85 26.85 23.25 31.95 23.7 33.3 24.25 34.15 24.7 Q37.45 26.35 42.45 29.85 L43.25 30.65 Q44.1 31.9 41.1 32.15 L40.2 32.2 39.05 32.4 39.2 31.95 39.25 31.75 38.8 30.65 37.6 29.45 35.15 27.05 34.0 25.4 32.55 24.95 32.25 24.9 29.05 24.55 27.25 24.45 25.8 24.45 23.35 24.85 Q22.6 25.25 21.95 25.75 L21.65 26.0 19.85 26.35 18.65 26.3 18.0 26.1 Q17.4 25.8 17.25 25.05 M10.5 40.6 Q10.25 40.3 10.45 39.8 L10.7 39.35 Q11.25 38.9 12.4 38.65 L14.4 38.35 15.75 38.1 16.2 38.65 16.3 38.8 16.55 39.6 Q16.55 39.95 16.15 40.15 L13.0 40.5 10.5 40.6 M9.75 35.55 L9.85 35.35 Q10.35 34.05 11.5 33.55 L16.05 33.15 17.85 32.3 Q17.75 33.9 16.55 34.1 13.4 34.6 11.55 35.55 L9.75 35.55 M3.3 41.1 L3.1 39.3 3.05 38.65 3.0 37.0 Q3.1 31.75 0.8 30.1 -0.5 28.75 0.35 27.9 L0.4 27.8 Q0.6 27.55 0.9 27.45 L2.2 27.55 2.25 27.6 2.45 27.7 4.35 29.05 Q5.8 30.05 7.15 29.85 L8.25 29.35 Q7.75 31.25 5.45 31.25 4.25 31.25 4.15 35.55 L4.35 37.5 4.2 38.65 4.0 39.35 3.3 41.1 M9.2 27.55 L8.75 27.2 Q8.25 26.6 8.0 25.35 L7.8 24.25 7.75 22.9 7.75 22.85 Q7.8 21.65 8.5 21.25 9.2 20.65 9.85 21.95 L10.25 22.8 10.25 22.85 10.3 22.9 Q10.1 23.25 10.05 23.8 L10.05 24.25 10.05 25.85 9.5 27.15 9.3 27.4 9.2 27.55 M8.25 18.05 Q7.9 17.55 7.9 16.85 L15.45 15.6 15.5 15.55 Q17.25 15.2 17.75 14.25 L17.75 10.5 17.6 9.7 17.5 8.85 17.1 7.4 16.45 5.9 16.15 5.9 15.6 5.75 15.0 5.65 13.95 5.35 Q12.8 5.3 12.8 5.0 L13.75 3.95 14.05 3.65 14.15 3.6 18.35 0.0 Q19.65 1.95 21.1 3.4 L20.1 7.8 20.0 8.1 Q19.55 9.55 19.65 11.05 L19.4 12.75 19.4 12.85 19.25 13.3 18.55 14.65 17.55 15.85 17.25 16.3 17.0 16.7 Q16.5 17.2 14.15 17.55 L8.25 18.05 M23.1 12.2 Q24.2 12.75 26.35 11.85 L30.8 14.9 Q31.75 15.6 27.75 16.35 L27.75 16.25 Q27.75 15.35 26.85 14.65 26.1 14.05 25.4 14.05 L24.15 14.25 22.55 14.25 22.55 13.75 22.85 13.25 22.95 12.85 23.1 12.2 M16.35 5.7 L16.35 5.65 16.3 5.65 16.35 5.7 M24.7 39.4 L23.3 39.3 19.95 39.05 19.95 38.35 Q19.9 37.3 20.75 36.15 L21.35 35.45 Q21.5 36.35 24.85 37.15 26.1 37.7 26.2 38.5 L26.15 38.65 24.7 39.4 M24.4 32.9 L24.35 32.9 20.85 32.95 20.85 31.85 21.2 30.75 21.7 30.0 22.15 29.65 22.55 29.65 Q22.45 29.85 22.5 30.1 L22.5 30.5 24.3 32.2 Q24.7 32.45 24.4 32.9 M31.05 41.45 L30.95 42.05 30.7 43.8 30.55 44.65 Q29.85 47.35 29.05 48.85 L27.9 50.25 Q27.3 50.65 26.7 50.65 L25.6 50.25 23.75 48.85 22.6 47.8 Q21.35 46.6 20.65 45.55 19.4 43.65 19.8 42.15 19.7 43.65 21.85 45.45 22.95 46.35 24.75 47.4 27.7 48.1 29.7 44.7 L30.85 42.05 31.05 41.45" fill="#0b173c" fill-rule="evenodd" stroke="none"/>
      <path d="M39.05 32.4 Q37.65 32.9 37.25 34.75 L36.7 38.65 36.2 41.05 35.95 42.05 35.25 44.2 Q34.3 46.85 33.0 48.85 L31.95 50.25 Q28.45 54.35 22.9 54.65 L22.7 54.0 22.5 51.7 22.4 51.4 22.3 50.55 22.25 50.25 22.1 49.85 21.85 49.25 21.7 48.85 Q21.1 47.6 19.45 47.6 L18.55 47.65 Q18.25 47.8 18.0 48.6 L17.95 48.85 17.75 49.7 17.55 50.25 17.05 50.75 16.5 50.25 16.45 50.2 16.05 49.2 16.0 48.85 15.9 48.55 15.8 47.8 15.7 47.25 15.6 46.7 15.6 46.55 15.45 44.8 15.05 43.9 14.65 43.2 13.8 42.1 13.75 42.05 12.5 41.2 Q10.9 41.1 10.5 40.6 L13.0 40.5 16.15 40.15 Q16.55 39.95 16.55 39.6 L16.3 38.8 16.2 38.65 15.75 38.1 16.25 37.45 Q16.3 36.85 15.25 36.55 9.5 36.4 9.75 35.55 L11.55 35.55 Q13.4 34.6 16.55 34.1 17.75 33.9 17.85 32.3 19.0 31.3 19.05 29.7 L19.0 29.0 19.0 28.9 Q18.5 26.95 15.7 27.4 L15.1 28.4 14.5 29.15 13.2 29.95 10.75 29.7 8.15 30.85 7.05 32.55 7.15 37.2 7.5 38.65 7.75 39.65 8.2 41.0 8.45 41.75 9.35 43.85 Q9.65 45.3 9.55 46.55 L8.9 48.85 8.25 49.7 Q7.2 49.65 6.35 48.85 5.6 48.15 5.05 46.95 L4.8 46.45 Q3.7 44.05 3.3 41.1 L4.0 39.35 4.2 38.65 4.35 37.5 4.15 35.55 Q4.25 31.25 5.45 31.25 7.75 31.25 8.25 29.35 L9.75 28.55 10.6 27.75 10.6 27.55 10.15 27.7 9.2 27.55 9.3 27.4 9.5 27.15 10.05 25.85 10.05 24.25 10.05 23.8 Q10.1 23.25 10.3 22.9 L11.1 24.7 Q11.4 25.75 12.7 25.65 13.75 25.45 14.3 24.25 L14.65 22.85 14.7 22.6 14.8 20.45 Q14.7 19.3 14.15 19.1 L10.3 18.8 Q8.8 18.75 8.25 18.05 L14.15 17.55 Q16.5 17.2 17.0 16.7 L17.25 16.3 17.55 15.85 18.55 14.65 19.25 13.3 19.4 12.85 19.4 12.75 19.65 11.05 Q19.55 9.55 20.0 8.1 L20.1 7.8 21.1 3.4 Q23.75 6.1 26.85 7.05 25.0 7.7 23.9 8.3 21.85 9.35 22.0 10.2 22.2 11.7 23.1 12.2 L22.95 12.85 22.85 13.25 22.55 13.75 22.55 14.25 24.15 14.25 25.4 14.05 Q26.1 14.05 26.85 14.65 27.75 15.35 27.75 16.25 L27.75 16.35 27.55 16.35 25.85 16.7 25.05 16.9 Q19.2 18.3 17.45 21.4 17.2 21.95 17.1 22.45 L17.0 22.85 Q16.8 23.65 16.9 24.25 16.95 24.7 17.25 25.05 17.4 25.8 18.0 26.1 L18.65 26.3 19.85 26.35 21.65 26.0 21.95 25.75 Q22.6 25.25 23.35 24.85 L25.8 24.45 27.25 24.45 29.05 24.55 32.25 24.9 32.55 24.95 34.0 25.4 35.15 27.05 37.6 29.45 38.8 30.65 39.25 31.75 39.2 31.95 39.05 32.4 M24.7 39.4 L20.9 40.3 20.8 40.4 Q19.9 41.2 19.8 42.05 L19.8 42.15 Q19.4 43.65 20.65 45.55 21.35 46.6 22.6 47.8 L23.75 48.85 25.6 50.25 26.7 50.65 Q27.3 50.65 27.9 50.25 L29.05 48.85 Q29.85 47.35 30.55 44.65 L30.7 43.8 30.95 42.05 31.05 41.45 31.25 40.9 31.65 39.25 33.15 31.5 33.25 31.3 33.4 30.65 Q33.6 28.05 28.15 26.65 L27.9 26.6 27.75 26.6 Q25.0 26.05 22.85 29.35 L22.8 29.4 22.55 29.65 22.15 29.65 21.7 30.0 21.2 30.75 20.85 31.85 20.85 32.95 24.35 32.9 24.4 32.9 Q23.95 33.6 21.75 34.7 21.25 35.1 21.35 35.45 L20.75 36.15 Q19.9 37.3 19.95 38.35 L19.95 39.05 23.3 39.3 24.7 39.4" fill="#173384" fill-rule="evenodd" stroke="none"/>
    </g>
  </defs>
</svg>
