<?xml version="1.0" encoding="UTF-8" standalone="no"?>
<svg xmlns:xlink="http://www.w3.org/1999/xlink" height="39.39px" width="30.18px" xmlns="http://www.w3.org/2000/svg">
  <g transform="matrix(0.6, 0.0, 0.0, 0.6, 0.15, 3.6)">
    <use height="48.1" transform="matrix(1.0, 0.0, 0.0, 1.0, 1.4, 3.7)" width="47.45" xlink:href="#shape0"/>
  </g>
  <defs>
    <g id="shape0" transform="matrix(1.0, 0.0, 0.0, 1.0, 0.0, 0.0)">
      <path d="M26.85 20.6 L28.65 20.8 30.0 20.9 32.6 20.65 33.95 20.7 Q35.0 20.7 36.85 22.1 L37.05 22.25 39.0 23.55 39.1 23.6 39.55 23.75 41.15 23.95 41.3 23.95 43.95 24.55 45.15 25.15 45.8 25.55 46.4 25.9 47.05 26.35 47.45 26.75 47.35 27.25 46.85 27.75 45.5 28.15 45.3 28.25 44.2 28.55 43.4 28.6 43.55 28.1 43.45 27.8 43.45 27.75 41.55 27.25 40.5 26.95 39.3 26.4 39.25 26.35 38.55 25.85 37.75 25.0 37.35 24.5 36.85 24.05 36.75 23.95 36.5 23.75 35.5 22.65 Q34.85 22.05 34.25 21.9 L33.7 21.85 33.65 21.85 33.55 21.85 28.25 21.7 26.75 21.65 26.75 20.75 26.85 20.6 M4.35 32.2 L4.1 31.35 3.35 30.45 1.5 28.8 Q0.0 27.7 0.0 27.3 0.0 26.65 0.4 26.45 L0.55 26.4 2.35 26.4 3.65 26.45 4.7 26.6 7.15 27.15 8.25 26.95 9.05 26.45 9.5 26.15 11.3 25.55 12.45 25.3 12.8 25.15 13.4 24.9 Q14.05 24.55 14.35 24.2 L14.35 25.15 13.95 25.5 12.8 26.45 12.05 27.05 10.6 27.55 Q8.95 28.25 8.8 29.3 L8.65 29.35 5.6 30.65 5.3 30.75 Q4.6 31.2 4.35 32.2 M13.2 22.7 L12.8 22.5 9.35 23.55 Q6.75 24.0 7.7 22.85 L12.95 19.65 13.55 16.5 Q14.3 15.15 15.05 16.5 L16.05 18.45 15.85 18.45 Q15.1 18.8 14.5 20.1 L14.25 20.55 13.45 22.65 13.2 22.7 M21.05 17.05 Q19.8 16.1 17.45 15.25 L19.75 14.35 21.0 13.6 22.3 12.55 23.85 10.65 25.0 11.45 25.25 12.9 25.9 14.45 26.1 14.75 27.6 16.15 28.95 16.75 26.45 16.7 26.25 16.65 25.65 16.45 24.55 15.9 Q23.6 15.45 23.25 15.45 22.6 15.45 21.05 17.05 M30.85 7.0 Q32.6 5.55 32.15 4.35 L29.85 4.2 29.95 4.15 29.65 4.15 29.45 4.15 29.45 4.2 Q27.6 4.3 24.95 5.5 21.9 6.85 19.3 6.85 L16.25 6.7 Q14.7 6.75 12.75 7.45 L12.75 8.25 14.85 9.25 12.95 9.0 11.1 8.65 10.85 8.55 Q9.9 8.1 8.75 6.6 L8.75 6.3 Q8.9 5.85 9.5 5.6 10.4 5.15 11.2 5.15 L13.85 4.8 15.65 4.55 16.65 4.5 19.8 3.55 22.45 2.5 24.75 0.95 25.5 0.35 26.2 0.1 26.75 0.0 Q27.55 0.0 28.6 0.7 L31.0 2.4 33.5 4.2 Q34.5 5.0 34.5 5.65 L34.45 6.2 33.95 6.8 32.1 6.95 30.85 7.0 M24.15 24.85 L24.0 26.45 23.95 26.55 23.95 27.15 23.95 27.9 Q23.95 29.45 24.75 29.45 L25.7 29.5 27.55 29.6 Q28.95 29.9 29.8 31.2 30.3 32.0 30.45 32.75 L30.5 32.9 30.5 33.35 30.5 33.6 Q30.35 34.4 29.4 34.45 L29.25 34.0 29.15 33.8 28.4 32.7 Q27.35 31.7 25.25 31.45 24.05 31.3 23.65 30.2 L23.65 30.15 Q23.35 29.35 23.35 27.55 L23.35 27.05 23.4 26.45 23.45 25.6 24.15 24.85 M28.2 42.45 L29.0 42.7 30.5 41.55 31.1 40.4 31.7 39.4 32.9 37.5 33.6 36.05 33.8 35.55 34.3 34.45 34.75 33.3 34.85 33.05 35.25 32.15 35.3 33.0 35.3 33.35 35.3 34.25 35.1 35.9 Q34.75 38.3 33.6 40.55 L32.45 42.5 31.3 43.8 Q30.55 44.45 29.85 44.45 L29.45 44.2 28.55 43.05 28.5 43.0 28.2 42.45 M21.85 34.8 L21.9 34.9 22.3 36.45 22.35 36.95 22.35 37.6 22.3 39.5 Q22.25 39.7 21.5 39.7 18.65 39.8 13.55 43.55 L12.15 43.55 12.15 41.45 12.3 41.1 12.7 41.2 14.1 40.75 Q15.2 40.1 16.35 39.75 L17.75 39.1 Q18.85 38.6 19.6 38.55 20.1 38.55 20.55 37.55 L20.65 37.3 21.0 36.5 21.3 35.8 21.85 34.8" fill="#0b173c" fill-rule="evenodd" stroke="none"/>
      <path d="M43.4 28.6 L43.1 28.7 42.0 29.7 41.6 30.4 41.25 31.1 40.45 32.3 40.3 32.35 40.1 33.1 39.95 33.45 39.1 35.1 38.8 35.6 38.15 36.45 37.2 37.95 34.95 41.75 34.6 42.25 33.8 43.3 32.85 44.2 29.95 46.3 29.7 46.55 28.85 47.55 Q28.4 48.1 27.6 48.1 L27.2 48.0 27.1 47.55 26.45 44.65 26.35 44.25 25.95 43.3 25.65 42.95 Q24.65 42.0 24.3 41.95 L22.8 41.85 22.75 41.8 22.75 41.85 21.1 41.95 19.15 42.15 17.6 42.35 Q17.2 42.4 16.35 42.8 15.3 43.3 14.9 44.4 L14.85 44.65 14.8 44.75 Q14.6 45.45 14.55 47.65 12.85 47.7 10.3 44.85 L10.15 44.65 9.3 43.65 Q6.6 40.3 5.85 37.85 L5.7 37.3 4.35 32.2 Q4.6 31.2 5.3 30.75 L5.6 30.65 8.65 29.35 8.8 29.3 8.75 29.55 8.9 30.95 9.1 31.9 9.5 33.5 9.7 34.45 9.75 34.75 10.4 36.65 10.5 36.9 10.85 37.85 11.15 38.7 11.65 40.3 Q11.9 40.9 12.3 41.1 L12.15 41.45 12.15 43.55 13.55 43.55 Q18.65 39.8 21.5 39.7 22.25 39.7 22.3 39.5 L22.35 37.6 22.35 36.95 22.3 36.45 21.9 34.9 21.85 34.8 22.15 34.45 22.7 34.05 Q23.2 33.8 23.2 33.1 L23.1 32.5 22.6 32.2 22.3 32.0 21.65 31.1 21.45 30.75 21.25 30.4 21.05 29.6 21.05 28.7 20.95 27.6 20.9 26.65 20.9 26.45 20.9 26.05 Q20.5 25.4 19.7 25.4 18.55 25.4 18.0 26.15 L17.85 26.45 17.55 27.5 17.4 29.45 16.9 31.4 16.85 31.7 16.8 31.8 16.55 33.15 16.2 34.45 15.85 35.35 15.05 36.75 14.4 37.45 13.85 37.85 12.9 38.1 12.35 38.1 12.1 37.85 12.1 37.7 12.3 36.85 12.6 35.95 13.1 34.45 13.3 33.25 13.45 32.6 13.75 31.4 13.8 31.1 14.15 28.75 14.0 27.35 Q13.8 26.95 12.85 26.95 L12.05 27.05 12.8 26.45 13.95 25.5 14.35 25.15 14.35 24.2 Q14.85 23.7 14.5 23.3 L13.2 22.7 13.45 22.65 14.25 20.55 14.5 20.1 Q15.1 18.8 15.85 18.45 L16.05 18.45 17.3 20.9 17.35 21.05 Q18.3 23.05 20.65 22.5 21.45 22.3 21.9 21.8 L22.4 20.75 22.35 19.4 22.3 19.1 22.1 18.25 21.05 17.05 Q22.6 15.45 23.25 15.45 23.6 15.45 24.55 15.9 L25.65 16.45 26.25 16.65 26.45 16.7 28.95 16.75 29.0 16.8 29.75 17.0 Q31.15 18.15 29.4 18.05 L27.65 18.25 Q27.2 18.4 26.9 18.6 26.5 18.9 26.45 19.35 26.25 20.25 26.85 20.6 L26.75 20.75 26.75 21.65 28.25 21.7 33.55 21.85 33.65 21.85 33.7 21.85 34.25 21.9 Q34.85 22.05 35.5 22.65 L36.5 23.75 36.75 23.95 36.85 24.05 37.35 24.5 37.75 25.0 38.55 25.85 39.25 26.35 39.3 26.4 40.5 26.95 41.55 27.25 43.45 27.75 43.45 27.8 43.55 28.1 43.4 28.6 M14.85 9.25 L12.75 8.25 12.75 7.45 Q14.7 6.75 16.25 6.7 L19.3 6.85 Q21.9 6.85 24.95 5.5 27.6 4.3 29.45 4.2 L29.45 4.15 29.65 4.15 29.95 4.15 29.85 4.2 32.15 4.35 Q32.6 5.55 30.85 7.0 L27.6 7.15 22.95 8.35 22.0 8.65 Q20.9 9.0 20.15 9.4 L18.8 9.7 16.4 9.5 14.85 9.25 M35.25 32.15 L35.55 31.15 35.95 29.3 36.05 27.8 36.05 27.55 36.05 27.25 36.0 26.5 35.9 25.7 35.8 25.3 35.25 24.1 35.0 23.8 34.95 23.75 34.25 23.3 29.6 22.95 29.25 22.95 28.8 22.95 28.75 22.95 27.0 23.05 26.5 23.15 25.65 23.4 Q25.0 23.65 24.25 24.05 L24.25 24.1 24.15 24.85 23.45 25.6 23.4 26.45 23.35 27.05 23.35 27.55 Q23.35 29.35 23.65 30.15 L23.65 30.2 Q24.05 31.3 25.25 31.45 27.35 31.7 28.4 32.7 L29.15 33.8 29.25 34.0 29.4 34.45 29.25 34.45 28.9 34.45 25.55 34.15 25.05 34.2 24.8 34.3 24.05 34.9 23.5 35.75 23.3 36.45 23.35 36.75 23.65 37.1 24.75 37.35 Q25.0 37.35 25.7 37.8 L26.2 38.15 26.55 38.55 27.2 40.95 Q27.6 42.05 28.2 42.45 L28.5 43.0 28.55 43.05 29.45 44.2 29.85 44.45 Q30.55 44.45 31.3 43.8 L32.45 42.5 33.6 40.55 Q34.75 38.3 35.1 35.9 L35.3 34.25 35.3 33.35 35.3 33.0 35.25 32.15" fill="#173384" fill-rule="evenodd" stroke="none"/>
    </g>
  </defs>
</svg>
