<?xml version="1.0" encoding="UTF-8" standalone="no"?>
<svg xmlns:xlink="http://www.w3.org/1999/xlink" height="39.39px" width="30.18px" xmlns="http://www.w3.org/2000/svg">
  <g transform="matrix(0.6, 0.0, 0.0, 0.6, 0.15, 3.6)">
    <use height="49.95" transform="matrix(1.0, 0.0, 0.0, 1.0, 2.2, 2.05)" width="43.35" xlink:href="#shape0"/>
  </g>
  <defs>
    <g id="shape0" transform="matrix(1.0, 0.0, 0.0, 1.0, 0.0, 0.0)">
      <path d="M30.25 36.4 L31.15 38.3 32.35 39.55 Q33.75 40.7 34.7 40.7 L36.95 40.3 38.7 39.85 39.9 38.85 40.25 38.15 Q40.45 37.7 40.85 37.7 41.15 37.7 41.9 38.6 L42.7 39.6 43.3 40.95 43.35 42.15 43.25 44.05 Q42.85 43.45 41.9 43.4 L41.9 43.3 41.85 43.35 39.3 44.0 Q36.75 44.85 36.7 44.45 L36.8 44.4 36.7 44.4 36.3 44.4 34.35 44.35 Q33.2 44.1 32.3 42.8 30.25 39.9 30.05 38.65 L30.0 38.3 30.25 36.4 M1.65 45.4 L1.2 44.75 0.3 43.55 Q0.0 43.15 0.0 42.55 0.0 41.75 0.95 41.75 L2.25 41.8 2.85 41.85 6.7 41.25 8.65 40.1 10.05 38.4 Q10.65 37.45 11.25 37.1 10.95 39.5 10.05 41.3 8.85 43.75 6.9 44.2 L1.7 45.4 1.65 45.4 M3.15 29.95 L3.05 29.65 3.0 29.15 3.0 29.05 3.0 28.7 3.1 27.9 3.4 27.55 3.8 27.4 6.7 27.7 7.75 28.7 8.25 29.4 8.45 29.65 8.85 30.3 9.1 30.65 9.8 31.65 10.0 31.95 10.45 32.45 10.6 32.6 7.7 31.8 5.6 29.95 5.25 29.65 Q4.75 29.3 4.25 29.3 L3.95 29.35 Q3.6 29.4 3.35 29.7 L3.15 29.95 M9.65 21.8 L7.5 21.65 Q5.95 21.75 6.35 20.8 L6.7 20.2 Q9.15 18.7 10.45 16.4 L10.5 16.3 10.7 15.9 10.95 15.3 Q11.15 13.35 12.8 14.7 L13.25 15.9 13.45 16.3 14.1 17.65 14.9 19.05 15.05 19.3 15.75 20.3 14.45 19.5 14.1 19.2 13.7 18.85 Q13.0 18.2 12.45 18.2 11.65 18.2 10.85 19.9 L10.8 19.95 10.25 21.0 9.65 21.8 M16.8 26.2 L16.85 26.8 Q16.9 28.95 18.8 27.8 L25.05 20.0 25.05 17.35 25.6 18.4 25.9 20.35 Q25.9 21.85 25.35 22.6 24.8 23.35 22.9 24.3 L21.9 25.0 20.8 26.1 19.05 28.55 18.85 28.7 17.7 28.9 16.9 28.8 16.75 28.7 Q16.5 28.45 16.5 27.9 L16.8 26.2 M23.4 8.85 Q19.0 9.0 19.75 8.0 L19.9 7.8 23.3 4.35 23.3 4.3 26.05 0.75 26.5 0.0 26.75 0.55 Q27.85 3.1 29.35 4.8 L30.4 5.95 Q33.5 8.75 37.75 8.15 38.8 9.65 37.3 10.05 L37.1 10.0 32.9 9.6 30.5 9.2 25.95 7.7 25.1 7.8 23.8 8.2 23.4 8.85 M30.2 27.5 Q30.65 27.9 31.55 27.9 33.95 28.0 34.7 26.75 L35.0 25.5 35.0 21.45 41.1 26.8 Q40.8 27.85 40.0 28.7 L39.95 28.75 39.65 29.05 38.9 29.65 38.45 28.9 38.35 28.75 38.3 28.7 36.9 28.5 35.55 28.55 35.1 28.7 34.3 29.0 32.95 29.55 32.35 29.75 31.75 29.8 31.6 29.65 31.7 29.6 30.1 29.5 30.1 28.0 30.2 27.5" fill="#0b173c" fill-rule="evenodd" stroke="none"/>
      <path d="M43.25 44.05 L43.2 44.1 Q42.85 45.55 41.7 46.05 L39.2 46.95 36.95 47.2 33.4 47.0 33.15 46.95 Q31.55 46.45 29.05 44.65 26.4 42.8 25.8 41.2 25.55 40.5 25.55 37.85 L25.6 36.35 25.75 33.7 25.75 33.3 25.8 31.9 25.85 31.2 25.9 28.7 25.9 28.55 Q25.9 27.45 25.55 26.95 25.1 26.25 23.9 26.25 23.1 26.25 22.75 26.6 L21.65 28.0 21.05 28.7 20.45 29.35 19.3 30.6 18.75 31.3 18.15 31.95 17.35 33.1 17.05 33.55 17.0 33.6 17.0 33.7 16.95 35.15 16.9 36.75 16.7 40.45 Q16.6 42.65 16.1 44.05 L15.2 47.45 Q14.4 49.45 12.6 49.95 L12.6 47.5 Q13.0 46.55 13.05 45.25 L13.1 43.7 13.05 42.2 12.7 42.2 Q11.8 42.2 11.1 43.0 L9.9 44.6 8.7 46.55 Q7.8 47.55 6.5 47.55 L4.4 47.2 2.45 46.35 2.1 46.0 1.65 45.4 1.7 45.4 6.9 44.2 Q8.85 43.75 10.05 41.3 10.95 39.5 11.25 37.1 L11.65 36.9 Q11.95 36.85 11.95 35.85 L11.95 35.25 11.95 35.1 11.65 34.8 10.95 34.9 10.1 35.0 8.9 34.9 7.4 34.75 6.45 34.5 6.05 34.25 5.6 33.95 5.45 33.8 5.35 33.7 5.0 33.3 Q3.5 31.3 3.15 29.95 L3.35 29.7 Q3.6 29.4 3.95 29.35 L4.25 29.3 Q4.75 29.3 5.25 29.65 L5.6 29.95 7.7 31.8 10.6 32.6 Q11.0 32.95 11.35 32.95 L12.8 32.75 13.1 32.65 12.85 24.65 12.55 23.2 12.1 21.95 9.65 21.8 10.25 21.0 10.8 19.95 10.85 19.9 Q11.65 18.2 12.45 18.2 13.0 18.2 13.7 18.85 L14.1 19.2 14.45 19.5 15.75 20.3 16.05 20.65 16.35 21.05 16.8 26.2 16.5 27.9 Q16.5 28.45 16.75 28.7 L16.9 28.8 17.7 28.9 18.85 28.7 19.05 28.55 20.8 26.1 21.9 25.0 22.9 24.3 Q24.8 23.35 25.35 22.6 25.9 21.85 25.9 20.35 L25.6 18.4 25.05 17.35 25.05 12.5 Q25.25 9.6 24.05 8.8 L23.4 8.85 23.8 8.2 25.1 7.8 25.95 7.7 30.5 9.2 32.9 9.6 37.1 10.0 37.3 10.05 35.95 10.15 32.05 10.15 Q29.95 10.75 30.1 12.25 L29.6 26.15 Q29.6 27.05 30.2 27.5 L30.1 28.0 30.1 29.5 31.7 29.6 31.6 29.65 31.75 29.8 32.35 29.75 32.95 29.55 34.3 29.0 35.1 28.7 35.55 28.55 36.9 28.5 38.3 28.7 38.35 28.75 38.45 28.9 38.9 29.65 Q37.25 30.7 34.45 31.4 L32.05 32.3 Q30.8 32.9 30.3 33.7 29.7 34.6 30.05 35.75 L30.25 36.4 30.0 38.3 30.05 38.65 Q30.25 39.9 32.3 42.8 33.2 44.1 34.35 44.35 L36.3 44.4 36.7 44.4 36.8 44.4 36.7 44.45 Q36.75 44.85 39.3 44.0 L41.85 43.35 41.9 43.3 41.9 43.4 Q42.85 43.45 43.25 44.05" fill="#173384" fill-rule="evenodd" stroke="none"/>
    </g>
  </defs>
</svg>
