<?xml version="1.0" encoding="UTF-8" standalone="no"?>
<svg xmlns:xlink="http://www.w3.org/1999/xlink" height="39.39px" width="30.18px" xmlns="http://www.w3.org/2000/svg">
  <g transform="matrix(0.6, 0.0, 0.0, 0.6, 0.15, 3.6)">
    <use height="60.85" transform="matrix(1.0, 0.0, 0.0, 1.0, 2.25, -2.65)" width="42.7" xlink:href="#shape0"/>
  </g>
  <defs>
    <g id="shape0" transform="matrix(1.0, 0.0, 0.0, 1.0, 0.0, 0.0)">
      <path d="M41.3 7.05 L41.2 7.1 41.15 7.1 40.95 7.2 40.35 7.55 39.65 8.0 39.55 8.05 39.5 8.05 39.5 5.25 38.5 5.25 38.1 5.8 37.65 6.15 37.25 5.9 Q36.95 5.6 36.95 5.25 36.95 4.7 37.95 3.9 L40.35 1.8 40.45 1.85 41.3 2.0 41.3 7.05 M12.75 1.9 L12.8 2.65 12.9 3.35 13.55 3.9 13.95 4.3 13.5 5.65 Q13.0 6.8 13.0 7.2 13.0 7.6 14.9 9.2 L15.5 9.6 16.25 10.05 17.1 10.3 17.15 10.75 17.1 11.25 16.3 11.6 15.65 11.85 14.85 12.05 Q14.05 12.05 13.8 12.7 L13.4 14.05 12.35 16.6 Q11.1 18.8 9.75 18.8 8.35 18.8 8.35 18.1 L8.4 17.8 8.8 17.35 8.8 16.95 Q8.4 17.05 8.3 16.8 L8.3 16.55 Q8.3 16.05 9.65 16.1 11.0 16.15 11.0 15.45 11.0 14.9 9.95 14.9 L8.4 14.8 Q7.45 14.4 7.45 12.8 L7.25 11.4 Q6.4 11.4 6.25 14.7 6.1 18.0 5.15 18.0 4.75 18.0 3.85 17.35 L2.55 16.4 Q1.95 15.9 0.8 15.75 0.0 15.65 0.0 15.05 0.0 14.6 0.6 13.85 L2.05 12.05 2.75 11.25 3.5 10.6 4.35 10.25 4.75 9.85 Q4.75 9.0 2.8 9.0 0.85 9.0 0.85 8.4 0.85 7.4 1.45 7.1 L3.2 6.7 4.65 6.8 Q5.4 6.8 5.4 5.75 5.4 4.95 4.5 4.1 3.6 3.25 3.6 1.95 3.55 0.7 3.9 0.5 L4.15 0.45 4.2 0.45 Q6.3 1.3 6.85 1.8 7.7 2.5 7.7 3.85 L7.05 8.75 Q7.05 9.55 8.25 9.55 L8.8 9.05 Q9.1 8.35 9.35 8.1 L10.2 7.65 10.65 7.15 Q10.65 6.5 9.7 6.55 8.8 6.6 8.8 6.05 8.8 5.6 9.7 4.65 L10.6 3.3 Q10.6 2.65 9.95 2.05 9.3 1.5 9.3 1.1 L9.5 0.25 Q9.7 0.0 10.2 0.0 11.15 0.0 11.8 0.4 12.55 0.9 12.75 1.9 M10.7 8.6 L9.7 9.8 9.7 10.15 10.45 10.15 Q10.95 9.65 11.45 9.65 11.95 9.65 12.2 10.05 L12.65 10.4 Q13.05 10.4 13.05 9.8 13.05 9.25 11.85 8.85 L10.7 8.6 M2.95 14.2 Q2.95 14.95 3.95 14.95 4.7 14.95 4.8 14.2 L4.85 12.75 3.85 13.25 Q2.95 13.65 2.95 14.2 M11.05 12.05 Q10.3 12.05 10.3 11.4 L9.5 11.4 9.15 11.55 Q9.05 12.2 9.35 12.65 9.8 13.25 10.9 13.25 12.65 13.25 12.65 12.0 12.65 11.55 12.0 11.55 11.75 11.55 11.45 11.8 L11.05 12.05" fill="#0b173c" fill-rule="evenodd" stroke="none"/>
      <path d="M39.5 8.05 L39.55 8.05 39.65 8.0 40.35 7.55 40.95 7.2 41.15 7.1 41.2 7.1 41.3 7.05 41.3 13.35 42.7 14.65 42.7 15.95 37.8 16.0 37.8 15.95 37.7 14.75 38.5 13.95 39.5 13.2 39.5 8.05" fill="#173384" fill-rule="evenodd" stroke="none"/>
      <path d="M21.85 24.7 L21.85 24.5 Q21.85 23.2 22.8 22.45 L23.8 21.55 Q23.8 21.3 22.8 20.85 21.85 20.35 21.85 19.7 L22.15 18.6 22.4 17.7 21.95 16.75 Q21.45 16.05 21.45 15.5 21.45 13.65 23.35 13.5 L24.65 13.35 Q25.25 13.1 25.25 12.3 L25.15 11.0 25.05 9.7 Q25.05 8.25 26.05 6.15 26.7 4.65 27.45 4.0 L28.05 4.0 28.35 4.75 27.2 6.5 26.3 8.2 Q26.15 8.5 26.15 8.95 L26.15 9.6 25.95 11.4 25.95 12.3 Q26.1 12.8 26.6 12.8 L27.45 12.35 Q28.05 11.95 28.15 11.9 L29.05 11.9 29.05 12.25 Q28.1 14.1 26.95 14.55 26.15 14.85 26.15 16.0 26.15 16.7 26.8 16.95 L27.95 17.15 27.7 17.4 27.55 17.6 27.2 17.95 27.05 18.1 26.8 18.4 26.2 19.05 26.05 19.2 25.9 19.4 25.8 19.5 25.65 19.65 25.6 19.7 25.5 19.85 25.25 20.15 25.55 19.05 25.5 18.55 25.2 18.2 25.15 18.1 23.95 18.15 Q23.15 18.4 22.9 18.75 22.75 18.95 22.75 19.35 22.75 20.05 23.4 20.4 L24.65 20.65 25.0 20.5 24.85 20.75 24.8 20.8 24.7 20.9 24.65 21.0 24.6 21.0 24.6 21.05 24.55 21.1 24.5 21.15 24.2 21.5 23.6 22.25 23.55 22.35 23.45 22.5 23.1 22.95 22.9 23.3 22.65 23.6 22.45 23.85 22.3 24.1 22.0 24.5 21.85 24.7 M24.95 14.95 L24.85 14.9 24.1 14.8 23.25 14.85 Q22.8 15.0 22.8 15.55 L23.25 16.25 Q23.55 16.45 23.8 16.45 L24.95 16.15 24.95 14.95 M10.65 30.15 L10.6 28.4 11.3 28.4 12.2 28.8 12.25 29.45 12.1 30.45 12.1 31.1 12.85 31.1 Q12.95 30.7 13.35 30.7 L15.65 31.1 16.5 32.0 16.65 32.65 16.5 33.6 16.1 35.1 16.0 35.45 15.95 35.5 Q15.75 35.9 15.35 35.95 L14.15 35.85 13.3 36.05 12.4 36.5 11.8 36.95 11.55 37.2 10.65 37.5 Q9.65 37.5 8.9 37.1 L8.7 36.95 Q7.95 36.45 7.95 35.6 7.95 34.3 8.45 33.6 L8.9 33.05 7.7 31.75 Q6.45 30.4 6.45 28.8 L6.45 28.15 6.7 27.75 7.3 27.4 Q7.85 27.1 7.85 27.3 L7.9 27.3 8.35 27.6 8.75 28.0 8.8 28.4 8.8 29.45 Q9.05 31.15 9.85 31.15 10.7 31.15 10.65 30.15 M13.05 33.35 Q13.05 34.05 13.3 34.15 L13.9 34.2 Q15.55 34.2 15.55 32.4 15.55 31.8 15.05 31.7 L14.05 31.65 Q13.45 31.65 13.45 32.15 L13.1 32.6 13.05 33.35 M10.25 33.35 Q9.8 33.65 9.7 33.95 L9.7 34.55 9.7 35.3 10.4 35.4 11.6 35.15 Q12.35 34.85 12.35 34.35 12.35 33.45 11.65 33.15 L10.9 33.05 10.4 33.05 10.25 33.35 M11.45 49.3 L10.8 48.5 Q10.2 48.05 9.7 48.05 L9.25 48.05 9.15 48.45 Q8.6 48.8 8.5 48.9 L8.4 49.5 Q8.4 50.3 9.05 50.75 L10.1 51.1 11.0 50.5 11.3 50.2 11.2 50.65 11.05 50.9 10.8 51.95 10.75 52.1 10.45 53.7 10.4 53.85 9.75 53.95 8.65 54.8 Q7.9 55.25 7.7 55.8 L7.35 57.0 6.6 58.0 5.8 59.35 4.9 60.3 3.95 60.85 Q3.6 60.85 3.4 60.4 L3.35 59.9 3.5 59.5 3.65 59.1 3.6 58.9 3.15 58.55 4.4 56.6 Q5.45 55.2 5.85 54.9 L7.35 53.75 Q8.1 53.0 8.1 52.4 8.1 51.7 7.5 51.3 6.95 50.9 6.95 50.2 6.95 49.4 7.4 48.55 L8.0 47.65 Q8.35 47.4 8.9 47.1 9.9 46.6 10.3 46.6 11.3 46.6 11.9 47.4 L11.8 47.85 11.65 48.35 11.45 49.3" fill="#024602" fill-rule="evenodd" stroke="none"/>
      <path d="M27.95 17.15 L28.25 17.2 Q30.35 17.55 30.35 19.8 30.35 20.95 29.05 23.2 28.85 23.5 27.6 23.75 26.6 23.9 26.6 24.75 26.6 25.35 27.35 25.55 L29.25 25.85 Q30.2 25.95 30.5 26.6 L30.65 27.9 Q30.65 29.2 29.6 30.3 28.55 31.4 28.55 31.95 28.55 32.3 29.45 33.0 30.35 33.7 30.35 34.85 30.35 35.65 29.5 36.3 L28.2 36.75 27.4 36.65 26.15 35.9 Q25.6 35.6 25.55 34.95 L25.5 34.05 Q25.25 33.4 24.2 33.25 L22.8 33.1 Q22.25 32.9 21.9 31.85 L21.65 30.6 Q21.65 29.7 22.55 29.1 23.15 28.65 24.05 28.45 L25.3 28.3 Q26.25 28.05 26.25 27.35 26.25 26.7 25.55 26.6 L24.05 26.65 Q21.95 26.75 21.85 24.7 L22.0 24.5 22.3 24.1 22.45 23.85 22.65 23.6 22.9 23.3 23.1 22.95 23.45 22.5 23.55 22.35 23.6 22.25 24.2 21.5 24.5 21.15 24.55 21.1 24.6 21.05 24.6 21.0 24.65 21.0 24.7 20.9 24.8 20.8 24.85 20.75 25.0 20.5 25.25 20.15 25.5 19.85 25.6 19.7 25.65 19.65 25.8 19.5 25.9 19.4 26.05 19.2 26.2 19.05 26.8 18.4 27.05 18.1 27.2 17.95 27.55 17.6 27.7 17.4 27.95 17.15 M24.8 22.7 L24.6 22.7 24.45 22.8 23.7 23.3 Q23.05 23.65 23.05 24.3 L23.1 24.9 Q23.2 25.1 23.6 25.1 25.3 25.1 25.3 23.8 L25.3 23.2 Q25.2 22.7 24.8 22.7 M28.25 19.05 L27.45 18.9 27.15 18.8 27.05 18.85 Q26.4 19.15 26.2 19.8 L26.15 20.8 Q26.15 21.45 26.5 21.75 L27.45 21.95 Q29.4 21.95 29.4 20.3 29.4 19.4 28.25 19.05 M11.45 49.3 L11.65 48.35 11.8 47.85 11.9 47.4 12.5 48.7 13.0 51.35 Q13.15 51.6 13.75 51.6 L15.75 51.85 17.85 52.05 19.75 52.1 24.4 51.6 Q26.0 51.05 26.55 51.05 L27.05 51.1 27.15 51.7 Q27.15 53.15 25.6 53.65 L22.0 54.0 14.7 54.15 10.6 53.85 10.4 53.85 10.45 53.7 10.75 52.1 10.8 51.95 11.05 50.9 11.2 50.65 11.3 50.2 11.5 49.6 11.45 49.3 M27.9 27.35 L27.3 27.8 Q26.6 28.45 26.6 28.8 L26.75 29.15 27.25 29.25 28.75 28.85 Q29.85 28.4 29.85 28.2 29.85 27.85 29.3 27.4 28.75 26.95 28.3 26.95 L27.9 26.95 27.9 27.35 M24.75 29.5 L24.65 29.5 Q23.5 29.55 23.1 30.45 22.85 30.9 22.85 31.4 L23.05 31.8 24.2 32.05 26.3 32.05 26.4 31.4 Q26.4 30.3 25.45 29.75 L24.9 29.55 24.75 29.5 M26.65 33.2 L26.6 33.9 Q26.6 34.6 26.9 34.75 L28.0 34.85 28.75 34.85 29.0 34.2 Q29.0 33.35 28.15 32.9 27.6 32.55 27.0 32.5 26.75 32.7 26.65 33.2 M30.05 45.05 L29.8 44.75 Q29.8 44.3 30.35 43.85 31.0 43.3 32.05 43.3 L32.8 43.35 Q33.4 42.3 33.85 41.95 34.45 41.4 35.55 41.4 L36.25 41.4 36.7 41.5 37.5 42.5 37.5 43.85 Q37.55 44.65 37.9 44.9 L38.95 45.25 Q39.75 45.55 40.45 46.35 L41.45 48.05 Q42.2 49.7 42.2 51.0 L42.15 52.95 Q41.95 53.95 41.25 53.95 40.15 53.95 39.95 53.2 L39.65 51.2 39.25 49.15 39.05 48.85 38.1 48.25 36.65 47.3 36.2 47.2 Q35.35 47.2 35.25 47.6 L35.2 48.05 34.95 48.8 34.1 49.9 32.95 50.25 31.65 50.0 Q31.25 49.75 30.95 48.85 30.8 48.3 30.95 47.2 L30.55 46.8 Q30.15 46.65 30.15 46.45 30.15 46.15 30.45 45.8 L31.1 45.15 31.1 44.9 30.7 45.0 30.45 45.15 30.05 45.05 M35.95 42.8 L35.3 42.65 34.75 42.65 34.3 43.25 34.3 43.7 Q34.3 44.45 36.15 44.45 L36.55 44.4 36.6 44.0 36.55 43.2 Q36.4 42.9 35.95 42.8 M32.35 47.05 L32.2 47.1 32.1 47.1 32.05 47.1 31.7 47.35 31.55 47.7 Q31.55 48.55 32.25 48.95 L32.9 49.15 Q33.15 49.15 33.5 48.65 L33.8 47.95 33.8 47.6 33.25 47.2 32.8 47.15 32.45 47.05 32.35 47.05" fill="#005e00" fill-rule="evenodd" stroke="none"/>
      <path d="M12.9 43.9 L12.85 43.85 Q11.5 43.05 11.15 42.55 10.85 42.05 10.85 40.8 10.85 39.1 12.1 37.95 L13.5 37.1 14.6 36.95 15.4 36.9 15.4 36.95 15.15 37.5 15.15 37.55 15.1 37.6 15.05 37.8 14.9 38.15 14.9 38.2 Q13.75 38.2 12.95 39.7 12.4 40.8 12.4 41.65 12.4 42.45 13.25 42.75 L13.15 43.05 13.1 43.2 12.9 43.9" fill="#730000" fill-rule="evenodd" stroke="none"/>
      <path d="M12.9 43.9 L13.1 43.2 13.15 43.05 13.25 42.75 14.5 42.9 15.2 42.8 15.15 42.2 Q15.15 40.3 16.5 38.9 16.05 38.2 14.9 38.2 L14.9 38.15 15.05 37.8 15.1 37.6 15.15 37.55 15.15 37.5 15.4 36.95 15.4 36.9 15.45 36.9 15.9 36.95 Q16.6 37.05 17.05 37.45 L17.55 38.15 17.85 38.0 17.8 36.95 17.75 36.0 Q17.75 35.55 18.35 34.7 18.75 34.05 19.5 33.8 L21.0 33.65 22.4 33.9 Q23.35 34.25 23.65 34.75 L24.15 36.0 24.3 36.95 24.3 37.25 24.15 38.05 24.7 38.0 25.25 38.0 25.3 38.0 26.1 38.0 26.65 38.2 27.3 38.55 27.6 38.95 28.15 40.3 28.25 41.45 Q28.25 43.25 26.95 44.0 L26.05 44.45 25.65 44.85 25.9 46.2 25.7 46.8 25.45 47.65 25.05 48.25 24.6 48.8 24.15 49.15 23.5 49.55 21.95 49.7 21.85 49.7 21.1 49.65 20.8 49.3 20.5 48.75 20.15 48.65 Q19.75 48.65 19.45 49.0 L18.85 49.6 18.15 49.85 17.35 49.85 16.7 49.85 16.1 49.5 14.85 48.45 Q14.45 48.0 14.2 47.25 13.95 46.5 14.0 46.1 L14.0 44.9 Q14.0 44.5 12.9 43.9 M19.2 36.95 L19.1 37.6 19.85 37.55 Q21.3 37.55 22.5 38.35 L22.55 38.25 Q22.9 37.9 22.9 37.3 L22.9 36.95 22.75 36.1 Q22.2 35.35 21.1 35.35 20.2 35.35 19.75 35.75 19.35 36.15 19.2 36.95 M19.75 40.7 Q19.15 40.7 18.75 41.15 18.3 41.6 18.3 42.25 18.3 42.85 18.75 43.3 L18.8 43.4 19.7 43.75 19.75 43.75 Q20.35 43.75 20.8 43.3 21.2 42.85 21.2 42.25 L21.2 42.05 Q21.2 41.55 20.8 41.15 L20.6 41.0 20.3 40.8 19.75 40.7 M18.1 40.6 Q18.75 39.9 19.7 39.9 L20.55 40.05 21.05 40.35 21.25 40.5 21.35 40.6 Q21.95 41.25 22.0 42.05 L22.0 42.35 Q22.0 43.3 21.35 44.05 20.65 44.75 19.7 44.75 L19.65 44.75 18.95 44.65 18.2 44.15 18.1 44.05 Q17.4 43.3 17.4 42.35 17.4 41.3 18.1 40.6 M17.3 39.65 Q16.25 40.75 16.25 42.3 16.25 43.85 17.3 44.95 17.9 45.55 18.6 45.85 L19.8 46.05 Q21.25 46.05 22.35 44.95 23.35 43.85 23.35 42.3 23.35 40.75 22.35 39.65 L22.2 39.5 21.85 39.25 Q20.95 38.55 19.8 38.55 18.35 38.55 17.3 39.65 M15.45 46.2 L15.4 47.15 Q15.4 47.85 16.25 48.2 L17.65 48.5 Q18.7 48.5 19.0 47.95 L19.25 46.9 Q18.1 46.75 17.15 46.05 L16.5 45.55 16.2 45.2 16.0 45.4 Q15.45 45.85 15.45 46.2 M25.6 39.3 L25.05 39.25 Q24.5 39.3 24.25 39.65 L24.05 40.05 24.0 40.1 Q24.5 41.05 24.5 42.2 L24.5 42.65 24.45 43.1 24.65 43.25 25.3 43.3 Q26.3 43.3 26.75 42.7 27.1 42.2 27.1 41.15 27.1 40.4 26.75 39.95 L26.25 39.3 25.6 39.3 M23.7 44.9 L23.15 45.55 21.25 46.7 Q21.25 47.85 21.6 48.0 L22.75 48.2 Q23.7 48.2 24.3 47.35 24.85 46.55 24.85 45.55 24.85 45.1 24.5 44.95 L23.7 44.9" fill="#b20000" fill-rule="evenodd" stroke="none"/>
    </g>
  </defs>
</svg>
