<?xml version="1.0" encoding="UTF-8" standalone="no"?>
<svg xmlns:xlink="http://www.w3.org/1999/xlink" height="39.39px" width="30.18px" xmlns="http://www.w3.org/2000/svg">
  <g transform="matrix(0.6, 0.0, 0.0, 0.6, 0.15, 3.6)">
    <use height="59.85" transform="matrix(1.0, 0.0, 0.0, 1.0, 1.2, -1.9)" width="45.35" xlink:href="#shape0"/>
  </g>
  <defs>
    <g id="shape0" transform="matrix(1.0, 0.0, 0.0, 1.0, 0.0, 0.0)">
      <path d="M41.25 4.85 L41.7 3.75 Q41.7 3.15 41.05 2.7 40.5 2.3 40.05 2.3 39.65 2.3 39.4 2.55 L38.45 3.25 37.65 4.25 Q37.4 4.7 36.95 4.7 L36.15 4.5 Q36.0 4.35 36.0 3.7 36.0 3.2 36.15 2.95 L37.15 1.4 37.25 1.25 37.8 0.75 38.7 0.2 39.5 0.0 41.25 0.2 Q42.3 0.45 42.75 0.8 43.55 1.45 43.65 2.15 L43.65 3.6 43.65 3.8 43.15 4.0 41.9 4.55 41.25 4.85 M15.4 5.15 L15.5 6.1 15.45 7.3 14.95 7.6 10.4 7.45 7.1 7.75 Q6.95 7.75 6.25 8.25 L5.25 8.9 Q2.8 10.25 2.75 10.0 L2.7 9.95 Q2.15 9.95 1.2 9.2 0.2 8.4 0.0 7.7 L0.0 7.05 0.3 7.05 1.7 7.15 2.2 7.25 2.55 7.35 4.1 7.0 4.6 6.3 4.85 5.5 4.55 4.2 4.2 2.9 4.4 1.55 Q4.7 0.75 5.3 0.65 L5.55 0.65 5.9 0.75 6.4 1.2 7.35 2.5 7.6 2.1 8.0 1.8 9.15 1.55 10.25 1.45 10.45 1.45 11.8 1.7 Q12.45 2.05 12.45 3.1 L12.4 3.65 12.15 4.0 11.4 5.0 11.4 5.4 12.95 5.4 13.9 5.15 14.55 5.0 15.4 5.15 M7.25 5.7 L7.75 5.7 Q8.2 5.7 9.25 4.95 10.3 4.2 10.3 3.75 L10.1 3.3 9.65 3.25 9.05 3.45 Q8.0 3.85 7.65 4.15 7.1 4.55 7.1 5.35 L7.25 5.7 M6.6 9.5 L6.9 9.35 7.0 9.3 7.3 9.25 8.6 9.15 Q9.85 9.15 9.85 9.75 9.85 10.25 8.95 10.9 L7.3 11.55 6.0 11.2 Q5.1 10.8 5.1 10.35 L5.2 9.9 5.7 9.85 6.2 9.7 6.25 9.65 Q6.4 9.6 6.6 9.5 M7.35 12.8 L9.0 12.55 10.65 12.65 10.75 12.65 11.2 12.65 Q12.05 12.8 12.05 13.4 L11.4 14.3 Q10.65 15.15 10.45 15.9 L9.4 17.0 8.4 17.6 8.75 16.45 8.95 15.6 8.05 15.45 7.15 15.35 5.5 15.6 4.4 15.8 Q3.85 15.8 3.3 15.1 2.8 14.45 2.75 14.0 2.65 13.5 5.6 13.4 L5.95 13.3 7.35 12.8" fill="#0b173c" fill-rule="evenodd" stroke="none"/>
      <path d="M41.25 4.85 L41.9 4.55 43.15 4.0 43.65 3.8 43.6 4.8 42.5 6.6 41.2 8.2 Q40.25 9.35 40.25 9.6 40.25 10.1 41.35 10.1 L43.2 10.3 44.9 11.05 Q45.35 11.3 45.35 12.35 L45.05 13.55 Q44.8 13.9 43.9 13.9 42.6 13.9 41.45 13.35 40.3 12.75 38.9 12.75 38.6 12.75 37.65 13.3 L36.45 13.85 35.7 13.65 Q35.4 13.45 35.4 13.1 35.4 11.85 36.0 11.1 L38.1 8.85 40.3 6.2 41.25 4.85" fill="#173384" fill-rule="evenodd" stroke="none"/>
      <path d="M42.1 41.8 Q41.75 43.7 40.75 45.35 L39.9 46.9 38.25 48.8 36.9 50.55 Q36.15 51.4 35.75 51.4 L35.3 51.35 35.1 50.9 Q35.1 50.05 35.8 49.05 L37.4 47.05 Q39.75 44.15 39.75 41.2 L39.5 38.55 38.65 36.15 38.55 35.9 37.35 34.85 36.2 34.05 Q34.85 33.25 32.65 33.25 L31.45 33.35 29.95 33.6 27.8 33.95 Q26.95 34.15 26.5 34.6 L24.9 36.15 24.3 36.9 Q23.85 37.9 23.85 40.7 L23.95 42.5 24.25 44.2 24.6 45.75 25.3 47.6 26.8 50.85 27.95 52.75 28.95 54.25 29.0 54.25 29.35 54.5 29.65 54.9 29.8 55.4 29.65 55.95 29.2 56.3 Q28.6 56.3 27.6 55.0 L26.5 53.4 25.2 51.4 23.9 49.05 22.9 46.65 22.15 44.45 21.8 42.35 21.75 40.2 Q21.75 39.2 22.05 38.05 L22.75 36.15 22.85 35.75 Q23.0 35.25 24.1 33.7 L25.75 31.5 Q26.6 30.1 29.0 28.4 30.65 27.1 31.05 26.85 L32.85 26.6 35.65 26.85 Q37.2 27.15 37.2 27.8 37.2 28.5 35.2 28.55 L33.05 28.4 31.7 28.5 Q31.0 28.65 30.5 28.95 L29.0 30.0 Q28.3 30.6 28.3 30.85 28.3 31.8 29.1 31.8 L29.85 31.8 30.8 31.7 31.0 31.45 31.05 31.15 31.75 31.0 Q36.15 31.0 38.4 32.25 40.5 33.4 41.4 34.7 L42.1 36.15 42.4 38.3 42.1 41.8 M26.7 14.5 L26.85 14.35 27.3 13.95 27.45 13.8 27.55 13.8 27.75 13.55 27.85 13.5 28.15 13.2 28.25 13.1 28.35 13.0 28.65 12.7 28.8 12.6 Q28.95 12.45 29.05 12.4 L29.1 12.35 29.25 12.25 29.3 12.2 29.35 12.15 29.45 12.1 29.5 12.1 30.2 13.1 31.55 14.7 31.6 16.7 Q31.6 18.85 31.25 20.25 30.9 21.9 29.85 23.45 L28.85 24.6 28.05 25.55 25.25 28.9 24.9 29.15 23.6 30.3 Q22.7 31.35 22.0 32.55 20.95 34.5 20.75 35.2 L20.6 36.15 20.55 37.6 20.75 40.45 21.1 43.0 Q21.55 45.6 22.3 47.7 L22.75 49.25 23.2 50.65 23.75 51.6 24.55 52.95 26.1 55.25 Q27.15 56.6 27.15 57.05 L27.15 57.35 26.85 57.6 25.2 57.1 Q24.4 56.75 23.8 55.8 L20.55 50.8 Q19.8 49.5 19.35 48.15 L19.05 46.6 18.9 45.25 18.7 42.1 18.25 36.15 18.2 35.75 18.15 35.6 17.95 33.95 Q17.9 33.25 17.25 31.9 L15.9 29.8 15.45 29.1 15.65 28.8 15.75 28.55 16.25 27.75 16.45 27.5 16.45 27.45 16.5 27.35 16.7 27.0 Q17.95 27.35 19.0 29.4 L20.2 31.85 21.05 30.8 21.6 30.0 22.1 29.5 23.65 27.85 25.1 26.2 27.95 22.1 Q28.3 21.4 28.3 19.5 L28.2 17.35 Q27.95 16.1 26.85 14.7 L26.7 14.5 M13.15 33.65 L14.5 34.9 15.55 36.15 16.25 37.15 16.4 38.3 16.9 40.15 Q17.55 41.55 17.55 42.95 L17.45 44.2 17.45 45.45 Q17.45 47.0 18.15 49.55 19.05 52.9 20.6 54.45 L23.35 56.8 Q25.4 58.65 25.4 59.5 L25.3 59.85 25.15 59.85 Q24.4 59.85 21.9 57.75 L18.85 54.9 Q17.6 53.2 16.9 51.65 16.15 49.95 15.65 47.35 15.25 45.65 15.05 42.65 L14.75 40.65 14.3 38.65 Q14.05 37.05 13.5 36.15 L12.6 35.25 12.45 35.2 12.55 34.95 12.6 34.9 12.65 34.75 12.8 34.45 12.85 34.4 12.85 34.35 12.9 34.15 13.15 33.65" fill="#005e00" fill-rule="evenodd" stroke="none"/>
      <path d="M26.7 14.5 L24.7 11.9 23.8 10.65 23.35 10.15 23.25 9.65 23.25 9.1 Q23.4 8.6 23.8 8.5 L24.2 8.45 24.85 8.65 26.05 9.2 26.95 9.7 28.05 10.65 29.45 12.0 29.5 12.1 29.45 12.1 29.35 12.15 29.3 12.2 29.25 12.25 29.1 12.35 29.05 12.4 Q28.95 12.45 28.8 12.6 L28.65 12.7 28.35 13.0 28.25 13.1 28.15 13.2 27.85 13.5 27.75 13.55 27.55 13.8 27.45 13.8 27.3 13.95 26.85 14.35 26.7 14.5 M15.45 29.1 L14.85 27.95 Q14.85 26.9 16.1 26.9 L16.7 27.0 16.5 27.35 16.45 27.45 16.45 27.5 16.25 27.75 15.75 28.55 15.65 28.8 15.45 29.1 M12.45 35.2 Q11.7 34.75 9.9 34.75 L8.95 34.75 7.4 35.05 6.1 35.65 5.45 36.15 5.3 36.25 Q4.8 36.65 4.3 38.75 L3.9 41.35 Q3.9 44.15 5.55 46.7 7.2 49.3 7.2 49.85 7.2 50.4 6.4 50.4 5.95 50.4 5.45 49.95 L4.3 48.75 3.4 47.55 3.0 46.45 Q2.15 43.8 2.05 43.05 L2.0 40.5 2.1 37.75 2.7 36.15 3.4 34.65 Q4.15 33.2 5.75 32.5 7.0 31.9 8.45 31.9 10.85 31.9 13.15 33.65 L12.9 34.15 12.85 34.35 12.85 34.4 12.8 34.45 12.65 34.75 12.6 34.9 12.55 34.95 12.45 35.2" fill="#024602" fill-rule="evenodd" stroke="none"/>
      <path d="M31.2 36.55 Q30.65 36.75 30.55 37.25 L30.55 38.55 30.45 39.65 30.4 40.8 Q30.4 42.3 31.45 43.2 32.3 43.9 33.45 43.9 L34.15 43.65 34.3 42.8 Q34.3 42.45 33.3 41.8 32.3 41.1 32.3 39.3 32.3 38.2 32.45 38.1 L33.05 37.8 33.1 37.5 Q33.1 36.6 32.5 36.55 L31.2 36.55 M30.9 34.4 L31.95 34.3 33.3 34.5 Q34.0 34.8 34.0 36.05 L34.0 36.15 33.85 37.15 Q33.85 38.2 34.8 40.2 L35.7 42.65 Q35.7 43.3 35.3 44.0 L34.15 45.1 Q33.9 45.25 33.65 46.45 33.4 47.55 32.85 47.55 32.25 47.55 32.05 47.1 L31.6 46.4 31.0 47.45 Q30.2 48.35 29.3 48.35 28.4 48.35 27.6 47.5 26.7 46.55 26.7 45.3 26.7 43.5 27.65 42.8 28.6 42.1 28.6 41.55 L28.4 40.9 Q28.2 40.45 27.9 40.45 27.75 40.45 26.85 41.2 L25.9 41.95 25.4 41.8 25.35 41.0 Q25.35 38.8 28.0 37.0 L28.8 37.1 29.05 37.1 29.45 36.85 29.7 36.3 29.7 36.15 29.9 35.75 30.9 34.4 M28.8 43.85 L28.35 44.55 Q28.0 45.55 28.0 46.1 28.0 46.8 28.55 47.0 L29.1 47.05 Q29.75 47.05 30.25 45.9 L30.6 44.7 Q30.6 44.1 29.95 43.85 L29.3 43.75 29.0 43.75 28.8 43.85" fill="#b20000" fill-rule="evenodd" stroke="none"/>
    </g>
  </defs>
</svg>
