<?xml version="1.0" encoding="UTF-8" standalone="no"?>
<svg xmlns:xlink="http://www.w3.org/1999/xlink" height="39.39px" width="30.18px" xmlns="http://www.w3.org/2000/svg">
  <g transform="matrix(0.6, 0.0, 0.0, 0.6, 0.15, 3.6)">
    <use height="61.05" transform="matrix(1.0, 0.0, 0.0, 1.0, 3.25, -2.75)" width="42.7" xlink:href="#shape0"/>
  </g>
  <defs>
    <g id="shape0" transform="matrix(1.0, 0.0, 0.0, 1.0, 0.0, 0.0)">
      <path d="M33.9 8.75 L34.05 8.5 35.65 5.95 Q36.1 5.05 37.5 3.1 39.35 0.45 39.95 0.45 L40.4 0.5 40.65 0.7 40.65 5.4 39.8 5.75 39.15 6.05 39.1 6.05 38.95 6.1 37.9 6.6 37.8 6.65 37.4 6.85 37.15 7.0 37.05 7.05 37.05 7.1 36.2 7.45 36.0 7.55 35.8 7.7 35.7 7.75 35.65 7.75 35.45 7.85 34.85 8.2 34.15 8.65 34.05 8.7 34.0 8.7 33.9 8.75 M6.85 5.35 Q7.2 5.5 7.2 5.85 L6.9 6.65 6.1 7.65 5.75 8.8 5.5 10.05 5.25 11.35 5.1 13.0 5.05 13.65 4.95 14.35 Q4.35 15.4 3.95 14.95 3.1 14.95 2.15 14.2 1.0 13.3 1.0 12.1 L1.1 11.3 Q1.3 10.6 1.75 10.6 2.2 10.6 2.85 11.35 L3.8 12.4 4.1 12.4 4.1 11.85 Q3.95 11.45 4.05 10.45 L4.25 8.9 4.2 8.3 3.8 7.45 3.6 7.45 2.15 8.8 0.5 9.85 0.0 9.8 Q0.25 8.65 1.7 6.95 L3.05 5.1 Q3.05 4.2 2.4 3.3 1.7 2.35 1.7 1.75 1.7 1.05 1.9 0.85 2.05 0.65 2.5 0.65 L3.8 0.85 3.95 0.85 4.35 1.15 5.25 2.6 5.7 3.85 6.15 5.0 6.85 5.35 M15.3 4.7 L15.25 5.35 14.4 5.75 13.5 6.1 13.05 6.5 13.1 8.3 12.9 10.4 12.15 14.5 Q11.4 17.55 10.3 17.55 9.8 17.55 9.3 17.15 L8.4 16.1 7.2 14.4 Q6.95 14.1 6.95 13.4 6.95 12.0 7.85 12.0 8.9 12.0 9.25 12.9 9.6 13.75 10.25 13.75 10.75 13.75 10.75 13.3 L10.75 12.2 10.95 9.2 Q10.95 7.75 10.35 7.75 L9.95 7.85 Q9.55 8.0 9.4 8.15 9.1 8.45 8.7 8.55 L8.3 8.65 7.7 8.6 7.7 8.0 Q8.45 5.65 8.75 5.05 L9.55 3.75 9.85 2.9 9.45 2.25 Q9.1 1.85 9.1 1.3 L9.15 0.7 9.55 0.0 9.85 0.0 10.95 0.2 11.35 0.75 11.45 1.15 11.65 2.25 Q11.7 2.85 11.95 2.9 L14.25 3.25 Q15.3 3.55 15.3 4.7" fill="#0b173c" fill-rule="evenodd" stroke="none"/>
      <path d="M33.9 8.75 L34.0 8.7 34.05 8.7 34.15 8.65 34.85 8.2 35.45 7.85 35.65 7.75 35.7 7.75 35.8 7.7 36.0 7.55 36.2 7.45 37.05 7.1 37.05 7.05 37.15 7.0 37.4 6.85 37.8 6.65 37.9 6.6 38.95 6.1 39.1 6.05 39.15 6.05 39.8 5.75 40.65 5.4 40.6 8.9 Q40.75 9.15 41.05 9.15 41.9 9.15 41.85 8.6 41.8 8.1 42.05 8.1 L42.3 8.2 42.7 8.3 42.7 8.95 42.6 10.05 42.65 11.35 Q42.65 12.35 42.3 12.35 L41.7 11.95 41.2 11.55 Q40.95 11.55 40.9 11.65 L40.9 11.95 41.35 12.8 41.8 13.75 Q41.8 14.9 41.2 14.85 L39.1 15.1 37.7 15.1 37.7 13.65 38.0 13.2 38.15 12.85 Q38.3 12.7 38.7 12.5 L38.9 12.2 38.9 11.7 38.55 11.3 37.65 11.25 37.1 11.3 37.05 11.3 33.3 11.65 32.8 11.6 32.6 11.3 Q32.6 10.9 33.9 8.75 M39.25 8.85 L39.2 6.2 Q38.9 6.25 38.45 6.65 L37.65 7.4 Q36.5 8.55 36.5 9.0 L36.6 9.5 37.35 9.55 38.45 9.5 Q39.25 9.35 39.25 8.85" fill="#173384" fill-rule="evenodd" stroke="none"/>
      <path d="M40.8 48.5 L40.8 49.3 40.15 49.45 Q39.4 49.45 39.05 49.1 L37.4 47.4 35.2 45.4 33.5 43.65 Q31.15 40.6 30.75 39.45 30.55 38.8 30.5 37.35 L30.4 34.4 30.45 33.0 Q30.6 32.0 30.85 31.6 L30.95 31.55 Q31.8 31.55 31.8 32.95 L31.7 34.0 31.55 35.15 31.55 35.5 Q31.6 35.75 32.0 35.75 L32.35 35.45 Q32.75 35.15 33.25 35.15 34.05 35.15 34.05 35.7 L33.8 37.2 33.8 37.35 33.6 39.65 33.6 40.45 Q33.75 41.0 34.2 41.0 34.9 41.0 35.05 40.45 L35.25 39.75 35.6 39.05 36.9 39.05 37.1 40.6 37.15 41.9 37.1 43.9 Q37.2 44.75 38.0 44.75 38.3 44.75 38.5 44.4 L39.0 43.25 39.0 42.4 Q39.0 41.8 39.35 41.5 L39.75 41.5 40.15 43.05 Q40.55 44.45 40.45 45.15 40.35 46.05 40.6 47.15 L40.8 48.5 M11.15 34.6 L11.2 34.6 Q12.15 35.15 12.75 36.2 13.15 36.9 13.75 36.9 L14.5 36.6 15.1 35.85 15.9 35.1 Q16.3 34.7 16.3 34.25 L16.3 33.95 16.5 33.85 16.4 33.55 16.25 33.35 16.1 33.15 15.05 32.15 13.25 30.9 13.05 30.8 13.2 30.6 13.2 30.55 13.25 30.45 13.3 30.35 13.35 30.3 13.55 30.0 13.65 29.75 13.95 29.3 14.2 29.55 15.4 30.9 16.3 32.35 Q16.65 32.7 17.35 32.7 L18.25 32.6 Q18.9 32.6 19.3 33.55 L20.05 35.5 Q20.4 36.4 21.25 37.3 L21.3 37.35 22.4 38.45 23.05 38.45 23.15 37.35 23.2 36.35 Q23.3 35.3 23.55 34.4 L23.7 32.7 23.8 31.95 24.3 31.6 24.65 31.65 24.75 32.85 24.6 35.05 24.55 36.9 24.55 37.35 Q24.55 38.6 24.7 38.8 L26.1 40.5 27.4 41.35 29.15 42.75 30.35 43.75 31.15 44.55 34.6 48.5 Q36.35 50.45 36.35 51.25 L34.5 53.7 33.45 54.8 32.5 55.5 31.65 55.25 30.8 54.3 30.1 53.35 29.1 52.6 27.25 51.05 24.75 49.3 21.7 45.9 Q20.25 44.3 18.8 43.45 L17.0 42.1 15.5 40.95 13.65 40.1 Q12.75 39.7 12.65 39.1 12.55 38.5 11.8 37.95 11.3 37.65 10.95 37.35 L10.25 36.75 10.35 36.4 10.45 36.15 10.5 36.1 10.55 35.95 10.7 35.65 10.75 35.6 10.75 35.55 10.8 35.35 11.05 34.85 11.05 34.8 11.15 34.6 M19.7 36.9 L19.25 36.4 19.0 35.75 Q18.8 34.6 18.45 34.5 L18.25 34.5 18.1 34.95 17.55 36.1 16.3 37.35 15.95 37.55 Q15.0 38.05 15.0 38.7 15.0 39.35 16.4 39.65 16.95 39.75 17.4 40.15 L18.55 40.95 20.2 42.35 21.2 43.3 21.75 44.05 22.45 44.75 23.0 44.35 23.7 43.65 24.7 43.05 25.25 42.55 25.05 42.05 24.85 41.7 24.5 41.45 24.1 41.25 21.65 39.75 Q21.15 39.45 20.4 38.2 L19.95 37.35 19.7 36.9 M16.35 49.35 L16.55 49.3 Q18.0 49.3 19.2 49.8 L23.85 51.95 Q25.15 52.5 27.15 54.1 30.15 56.45 30.15 58.45 L30.0 59.1 29.35 59.1 28.15 58.3 27.6 57.4 27.45 57.05 Q27.05 56.65 26.1 56.4 L25.3 55.95 25.4 55.7 25.45 55.25 Q25.45 54.4 23.15 54.15 20.8 53.9 20.8 53.3 20.8 53.05 21.1 52.85 L20.7 52.35 Q20.5 52.15 20.2 52.1 L19.3 51.95 18.75 51.75 18.5 51.55 Q18.55 50.85 17.2 50.65 15.85 50.4 15.85 49.9 L15.85 49.55 15.95 49.5 16.05 49.45 16.25 49.4 16.35 49.35 M24.5 45.85 Q24.5 46.3 26.55 48.0 27.65 48.85 28.3 48.85 L28.85 48.65 29.5 47.75 30.3 47.05 30.6 46.55 Q30.6 46.25 29.65 45.4 L28.55 44.5 27.5 43.9 26.3 43.5 25.75 43.7 24.85 44.7 Q24.5 45.45 24.5 45.85 M31.35 47.95 L31.0 48.05 31.0 48.1 30.4 48.5 29.4 49.4 28.7 50.05 30.2 51.8 31.25 53.0 Q31.7 53.4 32.05 53.4 32.55 53.4 34.05 51.65 L34.5 50.3 Q34.5 49.9 33.05 48.9 31.65 47.95 31.35 47.95" fill="#005e00" fill-rule="evenodd" stroke="none"/>
      <path d="M29.45 17.75 Q28.85 17.75 28.45 18.15 28.05 18.55 28.05 19.15 28.05 19.7 28.45 20.1 28.85 20.5 29.45 20.5 30.0 20.5 30.4 20.1 L30.85 19.15 Q30.85 18.55 30.4 18.15 30.0 17.75 29.45 17.75 M29.5 16.5 Q30.6 16.5 31.35 17.3 32.1 18.05 32.1 19.15 32.1 20.25 31.35 20.95 30.6 21.75 29.5 21.75 28.4 21.75 27.65 20.95 26.9 20.25 26.9 19.15 26.9 18.05 27.65 17.3 28.4 16.5 29.5 16.5 M25.1 22.2 L25.95 22.25 26.05 22.25 26.05 23.05 Q25.95 23.8 24.55 24.8 L22.8 25.8 20.9 26.05 20.15 26.25 19.8 26.35 Q19.5 26.35 19.4 25.7 L19.35 25.0 Q19.35 24.25 19.9 23.9 20.15 23.65 21.85 23.0 23.75 22.2 25.1 22.2 M31.85 23.75 L32.55 23.0 Q32.95 22.5 33.6 22.5 35.3 22.5 36.2 23.5 L37.85 26.35 37.85 27.75 37.6 27.75 36.8 27.5 35.65 26.85 34.8 26.25 Q34.05 25.75 33.7 25.75 33.15 25.75 33.0 26.8 L32.75 29.75 32.0 29.6 Q31.7 29.5 31.55 28.8 L31.0 27.35 Q30.75 26.7 30.75 25.5 L30.8 24.45 30.85 24.1 30.95 24.0 31.4 23.8 31.85 23.75 M36.05 17.6 L39.15 18.2 Q41.2 18.85 41.2 19.6 41.2 20.2 40.4 20.65 L38.25 21.15 38.2 21.1 38.1 21.15 38.25 21.15 35.9 21.1 Q33.6 20.85 33.6 20.25 33.6 19.85 33.85 19.7 L34.55 19.15 34.5 19.1 33.9 19.0 33.4 18.75 34.05 18.2 34.6 17.85 34.7 17.8 35.3 17.65 35.35 17.65 36.05 17.6 M27.7 24.05 L28.15 24.05 28.35 24.65 28.5 25.95 28.5 27.0 28.25 27.75 27.95 28.4 25.7 31.35 25.3 31.05 Q25.0 30.65 25.0 30.0 L25.4 28.7 25.8 27.55 26.55 25.7 Q27.05 24.55 27.7 24.05 M7.45 44.35 L8.55 43.55 8.65 43.55 8.75 43.5 10.0 42.4 Q11.3 41.4 12.6 41.4 13.15 41.4 13.15 41.7 L12.55 43.1 11.95 44.4 Q11.95 44.9 12.25 45.6 12.6 46.55 13.15 46.55 L13.9 46.5 13.9 46.1 13.75 45.95 13.75 45.65 Q13.75 45.05 15.0 44.95 L15.95 44.95 16.15 45.0 16.2 44.95 17.2 45.05 17.95 45.1 17.95 45.8 17.3 47.15 Q16.75 48.05 16.05 48.2 L13.6 48.5 Q12.1 48.7 12.1 49.2 12.1 50.05 14.4 51.15 16.65 52.25 16.65 53.7 L16.65 54.35 15.85 54.45 Q15.3 54.45 14.3 53.85 L13.05 53.2 12.4 53.35 Q12.25 53.5 12.25 54.05 L12.25 54.65 12.8 55.1 12.8 57.9 12.45 58.65 Q12.35 58.9 11.9 58.9 L11.1 58.8 Q10.6 58.55 9.85 57.55 L8.95 55.7 Q8.55 54.7 8.1 54.7 7.4 54.7 7.2 55.35 L7.1 57.05 Q7.1 58.05 6.7 59.15 L6.05 60.85 5.35 61.05 Q4.5 61.05 3.9 60.4 L3.5 59.75 Q2.95 58.65 2.95 57.15 L3.1 55.95 3.6 53.85 Q3.8 52.85 4.1 52.45 L4.9 51.8 5.8 51.0 6.8 49.95 8.15 48.15 Q8.15 47.8 7.8 47.6 L7.4 47.1 7.55 46.75 7.65 46.55 7.35 46.1 6.95 46.15 7.2 45.15 7.35 44.65 7.4 44.55 7.45 44.35" fill="#b20000" fill-rule="evenodd" stroke="none"/>
      <path d="M11.15 34.6 L11.05 34.8 11.05 34.85 10.8 35.35 10.75 35.55 10.75 35.6 10.7 35.65 10.55 35.95 10.5 36.1 10.45 36.15 10.35 36.4 10.25 36.75 10.2 36.7 9.2 35.05 8.3 33.65 8.05 32.9 Q8.05 32.25 8.85 31.2 L9.9 30.0 Q10.3 29.6 11.6 29.2 L13.15 28.8 Q13.3 28.8 13.95 29.3 L13.65 29.75 13.55 30.0 13.35 30.3 13.3 30.35 13.25 30.45 13.2 30.55 13.2 30.6 13.05 30.8 11.95 30.6 Q11.35 30.6 10.65 31.1 9.8 31.7 9.8 32.65 9.8 33.35 10.15 33.8 L11.15 34.6" fill="#024602" fill-rule="evenodd" stroke="none"/>
      <path d="M4.55 45.2 Q5.35 45.95 5.35 47.05 5.35 48.15 4.55 48.9 3.8 49.65 2.7 49.65 1.65 49.65 0.85 48.9 0.1 48.15 0.1 47.05 0.1 45.95 0.85 45.2 1.65 44.45 2.7 44.45 3.8 44.45 4.55 45.2 M3.6 46.05 Q3.2 45.65 2.65 45.65 2.05 45.65 1.65 46.05 1.25 46.45 1.25 47.05 1.25 47.6 1.65 48.0 2.05 48.45 2.65 48.45 3.2 48.45 3.6 48.0 L4.05 47.05 Q4.05 46.45 3.6 46.05 M7.45 44.35 L7.4 44.55 7.35 44.65 7.2 45.15 6.95 46.15 6.5 46.05 6.7 45.1 7.45 44.35" fill="#730000" fill-rule="evenodd" stroke="none"/>
    </g>
  </defs>
</svg>
