<?xml version="1.0" encoding="UTF-8" standalone="no"?>
<svg xmlns:xlink="http://www.w3.org/1999/xlink" height="39.39px" width="30.18px" xmlns="http://www.w3.org/2000/svg">
  <g transform="matrix(0.6, 0.0, 0.0, 0.6, 0.15, 3.6)">
    <use height="59.4" transform="matrix(1.0, 0.0, 0.0, 1.0, 2.45, -1.7)" width="42.85" xlink:href="#shape0"/>
  </g>
  <defs>
    <g id="shape0" transform="matrix(1.0, 0.0, 0.0, 1.0, 0.0, 0.0)">
      <path d="M42.4 4.0 L41.6 4.3 41.1 4.5 40.7 4.7 39.85 5.05 39.2 5.35 Q40.3 4.7 40.3 3.75 40.3 2.85 39.7 2.35 39.15 1.9 38.3 1.9 L37.45 2.05 Q37.0 2.25 36.7 2.85 L35.1 4.45 34.3 4.3 Q33.7 4.0 33.7 3.45 L33.75 3.0 33.85 2.8 Q34.4 1.7 35.6 0.95 37.15 0.0 38.9 0.0 40.45 0.0 41.45 0.8 42.5 1.6 42.5 3.05 L42.4 4.0 M8.0 14.4 L8.0 13.8 8.5 13.45 8.55 13.45 8.7 13.5 9.25 13.9 9.8 14.3 9.9 14.95 Q9.9 16.1 9.15 16.1 8.9 16.1 8.45 15.55 8.0 14.95 8.0 14.4 M8.9 8.9 L8.95 8.9 Q10.2 8.9 10.2 9.6 L9.85 10.3 Q9.45 10.7 9.0 10.7 L8.2 10.6 8.2 9.95 8.55 9.35 8.9 8.9 M2.65 9.65 L3.8 9.65 3.85 9.65 Q4.6 9.7 4.6 10.3 L4.45 11.1 3.65 11.15 2.6 11.1 Q1.85 10.95 1.85 10.35 1.85 9.75 2.65 9.65 M13.5 7.8 L13.8 8.75 13.65 9.8 12.95 11.3 Q12.75 11.85 12.8 12.65 L12.85 13.95 12.55 17.0 Q12.1 19.65 11.15 19.65 10.7 19.65 9.8 18.85 8.85 17.95 8.85 17.3 L8.9 16.95 9.3 16.95 9.9 17.3 10.3 17.4 Q11.35 17.4 11.35 14.25 L11.3 12.65 8.55 12.65 Q7.85 12.75 7.55 13.25 7.3 13.7 7.2 14.75 L7.2 16.65 Q7.1 18.25 6.7 18.25 5.5 18.25 5.5 16.8 L5.65 14.85 Q5.7 13.5 5.2 13.5 L4.65 13.7 3.8 14.0 2.05 14.35 1.95 14.35 1.3 14.3 1.3 14.0 Q1.35 13.0 2.1 12.85 L3.95 12.6 4.9 12.45 5.5 12.05 5.9 11.35 Q6.25 10.8 6.65 10.8 7.0 10.8 7.15 11.3 7.35 11.75 8.3 11.75 L9.15 11.65 10.45 11.45 Q10.95 11.4 11.05 10.85 L11.1 9.85 11.1 8.55 10.9 7.9 10.15 7.85 Q8.2 7.85 7.3 8.45 6.35 9.05 5.3 9.05 L4.5 8.95 Q4.15 8.75 4.15 8.1 L4.2 7.85 6.8 7.2 10.35 6.65 10.85 6.6 11.55 6.65 12.6 7.15 13.5 7.8 M16.3 2.75 Q16.7 3.1 16.7 3.85 16.7 5.1 15.15 5.2 L11.7 5.2 9.4 5.4 7.65 5.7 4.85 6.65 2.8 7.15 1.1 6.9 Q0.0 6.55 0.0 5.95 0.0 5.1 1.65 4.9 L4.65 4.8 7.75 4.2 Q9.4 3.6 9.4 2.65 L9.2 2.35 8.95 2.35 Q8.8 2.35 7.8 3.1 6.8 3.85 6.2 3.85 L5.4 3.6 4.75 3.3 Q4.2 2.95 3.8 2.2 L3.45 1.3 Q3.45 1.05 3.6 0.9 L4.55 0.35 4.85 0.35 4.9 0.4 5.0 0.4 5.25 0.95 5.85 1.55 Q6.45 2.05 6.8 2.05 7.2 2.05 8.05 1.2 8.9 0.35 9.45 0.35 11.35 0.35 11.35 1.4 L11.1 2.9 11.1 3.55 11.75 3.6 Q12.85 3.6 13.75 3.05 14.6 2.5 15.15 2.5 L16.3 2.75 M3.7 15.05 L4.55 14.8 4.6 16.2 Q4.6 16.7 4.05 17.3 3.5 17.9 3.05 17.9 2.5 17.9 2.25 17.2 L2.05 16.4 Q2.05 15.8 2.3 15.65 2.5 15.45 3.05 15.4 3.4 15.15 3.7 15.05" fill="#0b173c" fill-rule="evenodd" stroke="none"/>
      <path d="M39.2 5.35 L39.85 5.05 40.7 4.7 41.1 4.5 41.6 4.3 42.4 4.0 42.15 4.95 41.8 6.05 42.3 6.95 Q42.85 7.75 42.85 8.75 42.85 10.45 42.1 12.45 L40.7 14.25 Q39.65 15.05 38.7 15.05 L37.1 14.95 36.25 14.9 Q35.85 14.85 35.4 14.4 33.6 12.45 33.6 11.1 L33.7 10.2 Q33.9 9.6 34.55 9.6 34.95 9.6 36.15 11.0 37.3 12.45 38.5 12.45 39.4 12.45 40.3 11.55 41.2 10.55 41.2 9.4 41.2 8.45 40.75 7.95 40.3 7.5 39.55 7.5 38.65 7.5 37.8 8.0 L36.6 8.5 Q35.85 8.5 35.85 8.0 35.85 7.2 36.45 6.65 37.0 6.15 38.1 5.8 L38.35 5.75 39.2 5.35" fill="#173384" fill-rule="evenodd" stroke="none"/>
      <path d="M27.05 12.85 L27.05 12.8 26.95 9.85 Q26.7 8.45 25.6 8.45 24.9 8.45 24.6 9.0 L24.2 9.55 24.05 9.5 23.6 9.35 23.45 9.15 23.45 8.8 23.7 7.65 24.25 7.15 Q25.1 6.6 25.85 6.6 L27.2 6.95 28.35 7.55 Q28.6 7.8 28.65 8.8 L28.65 10.55 28.65 11.65 28.45 11.8 28.35 11.85 28.35 11.9 28.2 11.95 27.7 12.35 27.55 12.5 27.45 12.6 27.4 12.6 27.3 12.65 27.25 12.7 27.2 12.75 27.05 12.85 M22.5 17.1 L21.65 16.75 Q21.1 16.4 21.1 15.6 21.1 14.95 22.15 14.95 23.3 14.95 23.9 15.65 L23.85 15.75 23.8 15.8 23.35 16.2 23.0 16.6 22.7 16.85 22.65 16.9 22.5 17.1 M6.1 48.8 L6.0 49.25 6.0 49.3 5.95 49.45 5.9 49.6 5.8 49.85 5.8 49.9 5.85 50.15 5.85 50.3 5.75 50.6 5.6 50.85 5.35 51.9 5.3 52.05 5.0 53.65 4.95 53.8 4.85 54.25 4.85 54.3 4.75 54.95 Q4.15 54.3 4.15 53.5 L4.25 52.75 4.35 51.7 Q4.35 51.4 5.1 50.0 L6.1 48.8" fill="#024602" fill-rule="evenodd" stroke="none"/>
      <path d="M27.05 12.85 L27.2 12.75 27.25 12.7 27.3 12.65 27.4 12.6 27.45 12.6 27.55 12.5 27.7 12.35 28.2 11.95 28.35 11.9 28.35 11.85 28.45 11.8 28.65 11.65 28.55 13.4 28.45 15.75 28.55 17.95 29.1 18.35 Q29.6 18.55 29.6 19.0 29.6 19.55 28.55 20.0 27.55 20.5 27.55 20.9 27.55 21.5 27.7 21.65 L28.55 22.25 30.35 22.8 30.35 23.4 30.1 25.8 Q29.9 26.75 29.4 26.75 L29.05 26.65 28.4 26.55 27.9 27.05 Q27.45 27.55 26.6 27.55 26.0 27.55 25.9 27.25 L25.85 26.1 25.8 25.05 Q25.7 24.3 25.05 24.3 24.25 24.3 23.65 26.35 23.2 27.9 23.15 29.75 22.95 30.6 23.1 32.8 23.05 34.65 21.95 34.65 21.2 34.65 21.15 34.15 L21.15 32.95 20.9 31.55 20.05 31.5 Q18.85 31.5 18.45 32.1 L17.2 32.75 Q16.0 32.75 15.65 32.35 15.4 32.05 15.4 31.15 15.4 30.3 16.0 29.3 16.75 28.15 17.75 28.15 18.4 28.15 18.75 28.55 L19.95 29.5 21.5 29.5 21.75 27.85 22.1 25.35 Q22.6 22.8 23.4 22.3 L23.85 21.95 24.05 21.05 24.05 20.6 22.45 19.7 Q21.35 19.1 21.35 18.65 21.35 18.2 21.8 18.0 L22.5 17.85 22.5 17.1 22.65 16.9 22.7 16.85 23.0 16.6 23.35 16.2 23.8 15.8 23.85 15.75 23.9 15.65 24.15 16.05 Q24.75 17.15 25.25 17.15 26.35 17.15 26.7 16.45 27.05 15.65 27.05 12.85 M7.35 44.15 L7.85 44.15 8.5 44.3 9.1 44.8 9.45 45.6 9.95 46.1 10.5 46.1 12.9 46.5 16.0 47.15 17.05 47.75 18.55 48.5 19.3 48.9 19.8 49.3 20.4 50.1 Q20.65 50.55 21.15 50.55 L23.6 50.2 25.0 50.05 27.3 50.1 27.45 50.1 28.5 50.25 Q29.6 50.45 30.6 51.1 L31.85 51.65 Q32.85 52.0 33.2 52.3 L34.35 53.5 Q34.65 54.05 35.15 54.05 35.95 54.0 35.95 53.45 L35.65 52.8 35.0 52.05 34.25 51.35 33.05 50.5 31.5 49.8 Q30.2 49.05 30.2 48.25 30.2 47.65 30.6 47.35 L31.25 46.9 Q31.95 46.15 32.45 44.85 L32.75 43.8 33.4 42.6 Q33.45 42.5 33.85 42.25 L34.4 41.95 35.3 41.8 35.8 41.8 35.9 41.85 35.9 41.8 Q37.15 41.8 38.5 42.35 40.35 43.1 40.35 44.35 L40.3 44.95 Q40.2 45.35 39.7 45.6 L38.85 46.1 38.3 46.3 Q37.55 46.25 37.55 47.05 L37.5 48.4 37.0 48.4 35.75 47.05 Q35.3 46.4 34.6 46.4 33.95 46.4 33.55 46.9 33.2 47.35 33.2 48.0 33.2 48.7 33.9 49.1 35.35 49.9 36.45 50.95 L37.9 52.35 38.5 53.85 38.5 59.4 37.85 59.4 Q36.8 59.05 35.7 57.85 L34.95 57.05 34.2 56.35 32.35 55.0 28.6 52.4 27.4 51.85 25.0 51.65 23.8 51.7 22.7 52.1 22.0 52.7 21.45 52.8 Q20.55 52.8 20.2 52.35 L19.25 51.2 17.2 49.75 15.8 49.15 Q14.8 49.15 14.15 50.45 13.6 51.55 13.6 52.85 13.6 54.5 13.95 54.9 L13.95 55.45 13.1 55.45 12.0 54.75 Q11.5 54.15 11.5 53.45 11.5 51.65 12.45 49.9 L13.4 48.35 13.25 47.95 12.6 47.95 11.7 48.0 9.95 48.1 Q9.55 48.1 9.1 48.35 L8.1 48.95 Q6.5 49.95 5.85 50.95 5.45 51.65 5.45 52.5 L5.5 53.3 6.2 53.85 7.25 54.55 Q7.85 55.05 7.85 55.3 L7.65 55.85 7.05 55.9 Q5.85 55.9 5.05 55.2 L4.75 54.95 4.85 54.3 4.85 54.25 4.95 53.8 5.0 53.65 5.3 52.05 5.35 51.9 5.6 50.85 5.75 50.6 5.85 50.3 5.85 50.15 5.8 49.9 5.8 49.85 5.9 49.6 5.95 49.45 6.0 49.3 6.0 49.25 6.1 48.8 6.5 48.35 Q7.5 47.3 7.5 46.6 L7.25 45.95 7.05 45.4 7.25 44.45 7.35 44.15 M31.45 28.8 L33.25 30.4 33.95 31.5 Q33.95 32.2 33.05 32.2 L31.35 32.3 Q30.55 32.55 29.75 33.5 29.05 34.35 28.8 34.35 28.15 34.35 27.7 33.5 27.3 32.8 27.0 32.95 L27.1 32.65 27.2 32.4 27.1 32.0 26.8 32.0 26.15 32.05 Q25.3 32.1 25.3 31.6 25.3 31.1 26.4 30.1 L27.2 29.25 Q29.25 27.55 29.3 28.15 L29.3 28.2 29.9 28.2 30.35 28.3 31.45 28.8" fill="#005e00" fill-rule="evenodd" stroke="none"/>
      <path d="M15.05 36.6 Q15.05 35.6 15.95 35.1 16.7 34.65 17.95 34.65 L19.2 34.85 20.65 36.15 21.4 37.05 21.55 37.35 22.7 37.25 22.75 36.8 Q22.85 35.85 23.65 35.3 24.35 34.85 25.45 34.85 26.6 34.85 27.95 35.7 L29.3 36.8 29.5 37.05 30.05 37.75 30.2 38.35 30.35 38.85 30.35 39.4 30.35 39.85 30.15 40.65 29.9 41.0 30.65 41.95 Q30.85 42.15 30.85 43.1 30.85 43.9 30.35 44.65 L29.35 45.4 28.65 45.3 Q28.3 45.3 28.0 45.95 L27.85 46.45 27.75 46.9 27.35 47.35 26.7 47.8 23.2 48.3 20.7 48.1 Q20.2 48.05 19.95 47.8 L19.8 47.45 19.65 47.2 19.5 46.75 19.1 46.45 18.15 46.2 17.5 45.95 Q16.65 45.5 16.5 44.7 L16.45 43.3 16.0 42.75 15.45 42.25 15.05 41.55 14.9 40.8 Q14.9 40.5 15.25 40.05 15.65 39.6 15.65 39.2 L15.35 38.05 15.05 36.8 15.05 36.6 M16.7 36.55 L16.65 36.8 16.6 37.25 Q16.6 38.1 16.9 38.6 17.2 39.15 17.6 39.15 18.15 39.15 19.1 38.15 L20.1 37.2 19.85 36.8 19.75 36.7 19.05 36.05 18.2 35.8 16.9 36.3 16.7 36.55 M16.0 40.2 Q15.7 40.45 15.7 41.4 15.7 42.3 16.3 42.65 L17.05 42.85 17.3 42.6 17.35 42.1 17.5 41.3 17.25 40.5 17.2 40.3 17.15 40.25 16.9 40.1 16.55 40.05 16.0 40.2 M17.8 43.15 L17.65 43.25 17.1 43.65 17.05 44.15 Q17.05 44.9 17.5 45.4 17.9 45.9 18.55 45.9 L19.3 45.65 19.5 44.95 Q19.5 44.2 18.65 43.6 L18.0 43.25 17.85 43.1 17.8 43.15 M19.85 38.8 Q18.65 39.8 18.65 41.15 18.65 42.5 19.85 43.4 L20.2 43.7 20.7 43.95 22.7 44.4 23.35 44.35 Q24.65 44.2 25.6 43.4 26.75 42.5 26.75 41.15 26.75 39.8 25.6 38.8 24.9 38.3 24.1 38.05 L23.35 37.9 22.7 37.85 Q21.55 37.85 20.6 38.35 L19.85 38.8 M24.3 36.95 L25.0 37.4 26.0 37.7 27.2 38.8 28.05 40.05 Q28.5 40.7 29.0 40.7 L29.25 40.65 29.4 40.2 29.4 39.5 29.25 38.15 28.2 36.8 27.95 36.5 27.25 36.1 26.7 35.95 25.85 35.9 24.9 36.05 24.85 36.1 24.65 36.2 24.5 36.5 24.35 36.8 24.3 36.95 M29.95 42.7 L29.35 42.2 28.7 41.95 28.4 42.0 27.4 43.1 27.35 43.6 Q27.35 44.0 27.65 44.15 L28.25 44.2 28.55 44.2 29.05 43.9 29.55 43.5 29.95 43.05 29.95 42.7 M20.85 39.6 Q21.55 39.05 22.45 39.0 L22.85 38.95 24.3 39.25 24.9 39.65 Q25.7 40.3 25.7 41.25 25.7 42.2 24.9 42.85 24.05 43.55 22.85 43.55 L22.45 43.55 21.9 43.45 20.85 42.85 20.65 42.7 Q20.0 42.1 20.0 41.25 20.0 40.3 20.85 39.65 L20.85 39.6 M24.25 40.15 L23.85 39.9 23.55 39.8 22.9 39.7 22.6 39.7 Q22.0 39.8 21.55 40.15 20.95 40.6 20.95 41.25 20.95 41.9 21.55 42.35 L21.9 42.6 22.6 42.8 22.9 42.8 24.05 42.55 24.25 42.35 Q24.85 41.9 24.85 41.25 24.85 40.6 24.25 40.15 M22.9 45.4 L21.95 45.65 21.35 45.7 21.0 45.65 20.75 45.6 20.6 45.95 20.5 46.55 Q20.5 47.0 20.65 47.15 20.8 47.4 21.25 47.45 L23.0 47.5 24.6 47.45 26.3 46.95 26.7 46.8 27.0 46.65 27.4 46.3 Q27.65 46.15 27.7 45.45 27.7 45.1 26.75 44.8 L25.75 44.55 25.1 44.8 24.25 45.2 22.9 45.4" fill="#b20000" fill-rule="evenodd" stroke="none"/>
      <path d="M7.35 44.15 L7.25 44.45 7.05 45.4 6.95 44.75 7.0 44.15 7.35 44.15" fill="#31842f" fill-rule="evenodd" stroke="none"/>
      <path d="M20.85 39.65 L20.85 39.6" fill="none" stroke="#0099ff" stroke-linecap="round" stroke-linejoin="round" stroke-width="0.05"/>
    </g>
  </defs>
</svg>
