<?xml version="1.0" encoding="UTF-8" standalone="no"?>
<svg xmlns:xlink="http://www.w3.org/1999/xlink" height="39.39px" width="30.18px" xmlns="http://www.w3.org/2000/svg">
  <g transform="matrix(0.6, 0.0, 0.0, 0.6, 0.15, 3.6)">
    <use height="59.75" transform="matrix(1.0, 0.0, 0.0, 1.0, 5.05, -2.1)" width="41.15" xlink:href="#shape0"/>
  </g>
  <defs>
    <g id="shape0" transform="matrix(1.0, 0.0, 0.0, 1.0, 0.0, 0.0)">
      <path d="M37.6 6.6 L37.6 6.95 Q37.55 7.6 36.95 8.0 L35.65 8.3 35.65 9.2 Q35.85 9.65 38.25 10.1 L41.15 10.55 41.15 11.0 Q40.05 12.15 38.0 12.15 L36.35 11.95 34.8 10.75 33.3 9.35 33.55 9.15 34.15 8.7 34.25 8.65 35.3 8.0 35.4 7.95 35.7 7.75 35.8 7.65 35.95 7.55 36.95 6.95 37.05 6.9 37.1 6.9 37.2 6.85 37.6 6.6 M31.35 10.8 L31.65 10.8 31.65 11.15 30.55 11.4 30.7 11.25 31.2 10.85 31.35 10.8 M29.5 12.2 L29.5 12.25 30.15 12.25 31.6 12.2 31.75 12.9 Q31.75 13.7 30.55 13.6 29.4 13.55 29.4 14.5 29.4 15.45 29.7 15.7 L30.8 15.9 Q32.15 15.9 32.6 15.5 33.2 14.95 33.2 13.1 L33.05 12.3 Q32.7 11.9 32.5 11.35 L32.5 10.55 Q33.6 10.8 33.95 11.3 34.55 12.0 34.55 13.75 L34.45 14.85 Q34.35 15.55 34.4 16.4 34.45 18.5 33.25 18.5 32.4 18.5 31.95 17.85 31.5 17.2 31.25 17.2 L29.35 17.35 27.8 17.05 Q27.65 16.9 27.65 16.15 L27.95 14.25 27.85 13.7 28.25 13.35 28.4 13.2 28.5 13.2 28.7 12.95 28.8 12.9 29.1 12.6 29.2 12.5 29.3 12.4 29.5 12.2 M14.9 31.45 L15.0 31.2 15.1 31.05 15.25 30.75 15.3 30.55 15.4 30.35 15.6 30.05 16.1 30.5 Q18.1 32.25 19.9 32.25 L21.4 31.4 Q22.65 30.55 23.25 30.5 L23.7 30.45 24.45 31.0 24.85 31.35 25.35 31.35 Q25.85 31.35 26.3 30.75 L27.2 28.9 28.25 25.7 Q28.25 24.85 27.7 24.55 27.35 24.3 26.5 24.3 26.0 24.3 24.95 25.7 23.7 27.4 22.65 28.0 L21.5 28.95 20.75 29.4 18.75 29.95 Q17.6 29.95 16.25 28.85 L16.25 28.75 16.3 28.65 16.35 28.55 16.4 28.5 16.6 28.2 16.7 27.95 17.0 27.5 18.15 28.25 20.2 28.6 Q21.1 28.6 21.65 27.85 L22.65 26.4 23.8 25.35 Q24.25 24.85 24.25 24.05 L23.8 23.0 Q23.0 22.15 22.45 21.1 L22.05 20.05 22.05 20.0 22.1 19.95 22.15 19.9 22.15 19.85 22.2 19.85 22.25 19.75 22.35 19.65 22.4 19.6 22.55 19.35 22.7 19.15 22.8 19.0 22.9 18.9 22.95 19.0 23.9 21.4 Q24.2 22.4 24.95 23.05 25.6 23.65 26.15 23.65 L26.95 23.45 Q27.25 23.25 27.7 23.2 27.7 22.95 28.45 23.2 29.2 23.4 29.35 23.95 L29.55 25.1 29.6 26.05 28.95 28.9 27.9 31.35 Q27.1 32.7 25.5 32.7 24.25 32.7 23.65 32.2 23.1 31.65 22.65 31.65 22.25 31.65 21.3 32.45 20.4 33.3 19.55 33.3 L17.2 32.6 14.9 31.45 M20.5 22.1 L20.65 21.8 21.0 21.35 21.1 21.2 21.15 21.1 21.35 20.9 21.8 22.05 21.85 23.3 21.75 25.35 Q21.4 26.45 20.15 26.45 L18.8 26.2 17.9 25.9 18.05 25.6 18.4 25.1 18.95 25.4 19.9 25.45 Q20.7 25.45 20.9 24.9 L21.0 23.8 Q21.0 22.8 20.5 22.1 M0.0 6.05 Q0.0 5.5 0.95 4.7 L3.4 2.65 3.5 2.65 4.35 2.85 4.35 14.15 5.75 15.45 5.75 16.75 0.85 16.8 0.85 16.75 0.75 15.55 1.55 14.8 2.5 14.0 2.55 6.1 1.5 6.1 1.1 6.65 0.65 7.0 0.25 6.7 0.0 6.05 M27.7 23.2 L27.75 23.25 27.85 23.2 27.7 23.2" fill="#b20000" fill-rule="evenodd" stroke="none"/>
      <path d="M37.6 6.6 L37.2 6.85 37.1 6.9 37.05 6.9 36.95 6.95 35.95 7.55 35.8 7.65 35.7 7.75 35.4 7.95 35.3 8.0 34.25 8.65 34.15 8.7 33.55 9.15 33.3 9.35 33.2 9.2 Q33.0 8.9 32.2 8.85 L31.15 8.9 Q30.1 9.05 30.1 9.3 L30.25 9.95 30.45 10.6 31.0 10.8 31.35 10.8 31.2 10.85 30.7 11.25 30.55 11.4 29.5 11.5 29.5 12.2 29.3 12.4 29.2 12.5 29.1 12.6 28.8 12.9 28.7 12.95 28.5 13.2 28.4 13.2 28.25 13.35 27.85 13.7 27.6 13.5 26.9 14.15 26.05 14.95 24.9 15.75 23.7 16.25 22.95 16.1 Q23.35 15.1 25.55 12.95 27.55 10.95 27.55 10.45 27.55 10.1 26.45 9.9 25.35 9.7 25.35 9.35 L25.8 8.7 26.35 8.25 27.2 8.5 28.15 8.75 28.9 8.65 Q29.25 8.4 29.4 7.75 L27.75 7.65 Q26.3 7.4 26.5 6.5 L26.5 6.05 28.35 5.85 Q29.95 5.6 30.2 4.95 L30.2 4.6 29.9 4.6 29.05 4.8 28.6 4.85 28.55 4.8 27.45 4.5 26.65 3.35 26.65 3.0 27.85 2.95 29.75 2.45 29.85 2.45 29.85 2.35 29.95 1.3 29.95 0.0 30.5 0.0 31.75 0.2 31.85 1.1 31.85 1.5 31.65 2.2 32.35 2.35 33.55 1.9 34.3 1.5 34.6 1.5 34.85 1.9 35.3 2.4 35.6 2.9 33.7 3.85 32.4 4.1 Q31.75 4.25 31.65 4.7 L31.65 5.1 34.4 5.15 34.4 5.65 Q33.9 6.5 32.75 6.5 31.8 6.55 31.8 7.35 L32.0 7.8 32.65 7.85 34.8 7.15 Q36.3 6.45 36.5 6.45 L37.6 6.55 37.6 6.6 M14.9 31.45 L14.65 31.35 13.15 30.15 11.55 28.3 10.05 25.9 Q9.15 24.3 9.0 23.65 L8.4 20.7 8.2 18.55 Q8.2 16.85 8.85 16.05 9.45 15.4 10.7 15.4 11.75 15.4 12.6 16.05 13.2 16.5 13.6 17.25 L14.25 16.65 Q14.9 16.05 15.25 16.0 L17.1 15.75 Q18.1 15.75 18.6 16.35 L19.3 17.15 20.4 17.2 Q21.45 17.3 21.85 17.65 22.45 18.1 22.9 18.9 L22.8 19.0 22.7 19.15 22.55 19.35 22.4 19.6 22.35 19.65 22.25 19.75 22.2 19.85 22.15 19.85 22.15 19.9 22.1 19.95 22.05 20.0 22.05 20.05 22.0 20.0 Q21.75 19.35 21.3 18.95 L19.95 18.6 18.45 18.2 Q16.95 17.1 16.25 17.1 L15.7 17.1 15.0 17.65 14.8 17.95 14.45 18.45 13.95 19.8 13.7 21.8 Q13.7 23.45 13.95 24.1 14.3 25.2 15.6 26.35 L17.0 27.5 16.7 27.95 16.6 28.2 16.4 28.5 16.35 28.55 16.3 28.65 16.25 28.75 16.25 28.85 16.2 28.85 14.75 27.55 Q13.2 26.15 13.2 23.6 L12.95 19.45 Q12.65 17.8 11.85 17.3 L11.6 17.1 11.2 17.0 10.2 16.9 Q9.5 16.9 9.15 17.75 8.8 18.45 8.8 19.55 8.8 20.4 9.25 21.15 L10.5 23.3 13.3 27.4 15.6 30.05 15.4 30.35 15.3 30.55 15.25 30.75 15.1 31.05 15.0 31.2 14.9 31.45 M21.35 20.9 L21.15 21.1 21.1 21.2 21.0 21.35 20.65 21.8 20.5 22.1 20.0 21.55 Q19.25 20.95 18.6 20.95 L18.25 20.95 18.15 20.95 Q17.5 21.4 17.35 21.7 L17.25 22.6 17.4 23.55 18.1 24.7 18.4 25.1 18.05 25.6 17.9 25.9 17.65 25.8 16.7 25.0 Q16.1 24.25 16.1 23.55 16.1 22.75 16.25 22.2 L16.6 21.15 16.65 21.05 16.9 20.55 17.3 20.15 17.35 20.15 17.45 20.05 Q18.1 19.65 18.5 19.65 L19.8 20.0 Q20.7 20.3 21.15 20.7 L21.35 20.9" fill="#730000" fill-rule="evenodd" stroke="none"/>
      <path d="M13.95 33.35 L13.85 33.55 13.8 33.75 13.8 33.8 13.75 33.85 13.6 34.15 13.55 34.3 13.5 34.35 13.4 34.6 13.4 34.65 12.65 34.2 Q10.85 33.15 10.4 33.15 9.95 33.15 9.0 34.1 8.15 35.0 7.85 35.6 L7.25 36.35 6.4 37.2 6.2 37.55 Q6.05 37.9 6.05 38.5 6.05 39.2 6.85 39.45 L9.1 39.95 11.15 40.55 11.1 40.65 11.05 40.85 11.0 41.05 10.95 41.35 10.9 41.4 10.8 41.6 10.7 41.9 10.65 42.05 10.5 42.55 10.5 42.65 10.35 42.6 9.25 42.4 6.45 41.35 3.95 40.75 Q2.7 40.4 2.7 39.55 2.7 39.2 3.8 37.55 L4.1 37.1 5.95 34.6 7.85 32.45 Q8.6 32.0 10.25 32.0 L11.05 32.1 12.8 32.7 13.75 33.25 13.95 33.35" fill="#024602" fill-rule="evenodd" stroke="none"/>
      <path d="M13.4 34.65 L13.4 34.6 13.5 34.35 13.55 34.3 13.6 34.15 13.75 33.85 13.8 33.8 13.8 33.75 13.85 33.55 13.95 33.35 14.75 33.8 Q15.3 34.25 16.15 34.6 L16.5 34.95 16.5 35.05 16.55 35.2 16.55 35.6 15.35 35.6 13.4 34.65 M10.5 42.65 L10.5 42.55 10.65 42.05 10.7 41.9 10.8 41.6 10.9 41.4 10.95 41.35 11.0 41.05 11.05 40.85 11.1 40.65 11.15 40.55 12.95 40.75 Q13.6 40.75 14.9 39.6 L16.7 38.05 17.25 37.55 18.1 36.45 Q18.4 36.05 20.1 35.9 L21.0 36.05 21.65 36.25 Q22.05 36.35 22.3 36.55 L22.7 37.0 23.1 37.5 23.2 37.55 24.15 37.85 26.4 38.45 28.55 39.0 28.8 38.9 28.8 38.5 28.7 37.55 28.6 36.3 Q28.6 34.05 30.05 32.25 31.5 30.4 33.25 30.4 33.75 30.4 34.65 31.0 L36.45 31.35 38.2 31.55 Q39.55 31.9 39.55 32.3 39.55 33.35 38.5 34.25 37.5 35.15 37.55 36.15 L37.5 37.55 37.35 38.9 37.15 41.55 Q37.25 42.6 36.45 43.3 L35.05 43.95 33.05 44.0 Q32.0 44.0 32.0 44.8 L32.05 45.2 32.6 45.7 32.85 46.3 33.45 47.9 Q33.85 48.85 33.85 51.4 L33.55 54.25 33.15 55.4 32.6 56.7 31.95 58.0 31.4 58.85 31.05 59.25 30.65 59.6 30.05 59.75 29.95 59.75 28.85 59.6 Q28.6 59.4 28.6 58.85 L30.55 54.55 30.8 52.0 30.8 49.65 Q30.8 48.25 30.45 47.15 30.1 45.9 29.4 45.9 28.9 45.9 27.65 47.65 L25.75 50.3 23.8 52.55 Q23.05 53.2 22.0 53.2 20.7 53.2 20.2 52.1 19.75 50.95 18.75 50.95 L17.45 51.2 16.7 51.5 Q15.75 51.5 15.25 50.3 14.85 49.4 14.85 48.4 14.85 47.55 15.4 46.5 L16.2 45.2 Q16.55 44.5 17.45 43.95 L18.95 42.95 21.3 41.3 Q22.6 40.4 22.6 39.7 L22.45 39.15 21.3 39.15 20.7 39.0 20.15 38.5 19.95 38.1 19.3 38.1 Q18.25 38.1 17.95 38.6 L16.45 40.7 14.5 42.6 Q13.5 43.35 12.8 43.35 L12.3 43.2 11.4 42.8 10.5 42.65 M18.15 45.8 Q17.7 46.3 17.3 47.3 L16.65 49.0 16.65 49.4 17.1 49.45 17.45 49.5 18.4 49.4 19.25 49.3 Q20.45 49.3 20.9 50.5 21.4 51.65 22.5 51.65 L23.2 51.45 23.85 50.45 24.55 49.4 25.5 48.1 27.1 46.7 Q27.85 46.1 27.9 45.5 L27.9 44.4 26.95 44.25 26.3 43.9 25.65 43.25 24.95 43.0 23.95 42.75 23.1 42.5 22.0 42.25 21.95 42.25 Q21.35 42.4 20.65 43.05 L19.75 43.95 18.15 45.8 M31.15 33.2 Q30.55 34.25 30.45 35.2 L30.35 36.85 30.2 37.55 29.95 39.75 30.05 40.85 31.0 41.65 32.85 42.45 33.7 42.5 Q34.8 42.5 35.3 42.15 35.9 41.8 35.9 40.9 L35.8 38.1 35.8 37.55 35.9 36.05 Q36.05 35.5 37.25 33.85 L37.25 33.3 Q34.95 33.3 34.3 32.75 33.65 32.25 32.4 32.25 31.55 32.25 31.3 32.65 L31.15 33.2" fill="#005e00" fill-rule="evenodd" stroke="none"/>
    </g>
  </defs>
</svg>
