<?xml version="1.0" encoding="UTF-8" standalone="no"?>
<svg xmlns:xlink="http://www.w3.org/1999/xlink" height="39.39px" width="30.18px" xmlns="http://www.w3.org/2000/svg">
  <g transform="matrix(0.6, 0.0, 0.0, 0.6, 0.15, 3.6)">
    <use height="60.8" transform="matrix(1.0, 0.0, 0.0, 1.0, 4.0, -2.65)" width="44.25" xlink:href="#shape0"/>
  </g>
  <defs>
    <g id="shape0" transform="matrix(1.0, 0.0, 0.0, 1.0, 0.0, 0.0)">
      <path d="M37.45 6.25 L37.4 8.15 38.2 9.1 Q38.95 9.6 38.95 10.0 L38.85 10.75 37.9 10.75 37.9 11.1 38.3 12.7 38.55 13.3 38.95 14.15 41.0 14.3 Q42.8 14.3 42.8 14.75 42.8 15.4 41.2 16.35 39.65 17.35 38.6 17.35 37.0 17.35 36.7 16.35 36.4 15.35 35.3 15.35 34.65 15.35 34.25 15.9 L33.4 16.8 31.0 18.15 30.75 18.15 30.65 17.9 Q30.65 17.4 32.0 15.9 33.35 14.4 33.35 13.85 L33.3 13.45 32.95 13.4 32.45 13.4 31.9 13.75 31.35 14.45 30.65 15.2 29.05 16.7 Q27.85 17.75 27.45 17.75 L26.85 17.7 26.85 17.1 28.45 15.1 29.55 13.2 Q29.55 12.75 28.7 12.55 L28.75 12.45 28.85 12.4 29.15 12.1 29.25 12.0 29.35 11.9 29.55 11.7 29.65 11.6 29.8 11.5 Q29.95 11.35 30.05 11.3 L30.1 11.25 30.25 11.15 30.3 11.1 30.35 11.05 30.45 11.0 30.5 11.0 30.6 10.9 30.75 10.75 31.25 10.35 31.4 10.3 31.4 10.25 31.5 10.2 31.7 10.05 32.3 9.6 32.35 9.55 32.6 9.35 32.75 9.25 32.85 9.2 33.0 9.1 33.35 8.85 33.5 8.75 34.25 8.7 34.5 9.0 Q34.5 9.3 33.3 9.55 32.1 9.75 32.1 10.8 L32.15 11.35 32.75 11.5 Q33.6 11.5 35.35 10.45 L36.35 10.0 36.45 9.0 36.3 7.0 36.3 6.9 37.0 6.45 37.1 6.4 37.15 6.4 37.25 6.35 37.45 6.25 M34.35 12.25 L34.3 12.95 34.35 13.65 Q34.4 13.8 34.75 13.85 L36.25 13.85 36.25 12.7 Q36.05 12.1 35.5 11.95 L35.0 11.95 34.75 11.8 34.7 11.9 34.35 12.25 M5.85 2.35 Q6.9 2.6 7.35 2.95 8.15 3.6 8.3 4.3 L8.3 5.7 8.2 6.95 7.1 8.75 5.8 10.35 Q4.85 11.5 4.85 11.75 4.85 12.25 5.95 12.25 L7.8 12.45 Q8.6 12.9 9.5 13.15 9.95 13.45 9.95 14.5 L9.65 15.7 8.5 16.05 Q7.2 16.05 6.05 15.45 4.9 14.9 3.55 14.9 3.2 14.9 2.25 15.45 L1.05 15.95 0.3 15.8 Q0.0 15.6 0.0 15.25 0.0 14.0 0.6 13.2 L2.7 11.0 4.9 8.35 Q6.3 6.5 6.3 5.9 6.3 5.3 5.65 4.85 5.1 4.45 4.65 4.45 L4.0 4.65 3.05 5.4 Q2.55 5.7 2.25 6.4 2.0 6.85 1.55 6.85 L0.75 6.65 Q0.6 6.45 0.6 5.85 0.6 5.35 0.75 5.05 L1.75 3.5 1.85 3.4 2.4 2.9 3.3 2.35 4.1 2.15 5.85 2.35 M14.0 32.9 L14.0 32.85 14.15 32.55 14.15 32.5 14.25 32.3 14.75 31.45 14.8 31.3 14.8 31.25 14.85 31.1 14.9 31.0 14.95 30.95 15.05 30.7 15.15 30.55 15.3 30.25 15.35 30.05 15.45 29.85 15.65 29.55 15.7 29.35 15.75 29.25 15.95 28.9 16.15 28.5 16.3 28.35 16.3 28.25 16.35 28.15 16.4 28.05 16.45 28.0 16.65 27.7 16.7 27.55 Q18.15 27.7 20.05 29.15 L22.5 30.75 24.55 30.8 Q26.1 30.95 28.0 31.7 30.6 32.7 30.6 36.7 L30.6 37.05 30.25 38.75 Q29.9 39.7 28.8 40.8 L27.3 42.0 25.15 42.4 Q24.15 42.35 24.0 43.1 L23.3 45.25 Q22.05 47.25 21.55 47.5 L20.15 48.4 19.15 48.5 17.4 48.4 Q16.2 48.15 15.35 47.4 L13.5 45.4 13.45 43.25 13.5 41.45 13.55 40.05 13.4 39.05 12.8 38.25 12.1 37.4 12.2 37.15 12.25 37.05 12.3 36.95 12.4 36.8 12.5 36.55 12.5 36.5 12.65 36.15 12.7 35.95 12.75 35.9 12.9 36.15 13.55 36.85 13.8 37.05 14.25 37.35 14.85 37.35 15.5 37.05 15.75 36.0 15.55 34.85 14.85 33.8 14.2 33.0 14.0 32.9 M16.0 30.7 Q16.0 31.85 16.65 32.15 L18.5 32.4 19.55 32.1 20.0 31.25 Q20.0 30.35 18.8 29.85 L16.75 29.4 16.4 29.4 16.1 29.3 16.1 29.4 16.0 30.7 M18.2 33.35 L18.0 33.55 17.25 33.5 16.95 34.35 16.95 35.4 Q16.95 36.3 17.25 37.05 17.7 38.2 18.9 39.1 20.45 40.25 21.85 40.25 L21.85 40.3 21.95 40.25 22.6 40.2 22.8 39.6 22.8 38.3 22.8 37.05 22.75 36.75 Q22.55 36.05 21.5 34.85 L20.15 33.95 Q19.05 33.25 18.55 33.25 L18.2 33.35 M19.15 41.25 L18.25 40.9 Q17.8 40.65 17.4 40.65 L16.85 40.7 16.4 40.75 15.55 41.45 Q15.0 42.1 15.0 43.25 15.0 46.2 18.2 46.2 L20.1 46.0 21.2 45.7 22.15 44.45 22.8 43.15 22.55 42.1 Q22.2 41.5 21.4 41.55 L19.15 41.25 M23.35 33.2 L22.9 33.2 Q22.4 33.2 22.25 33.5 L22.2 33.85 Q22.2 34.4 22.7 35.0 L23.25 35.95 23.45 36.9 23.5 37.05 23.7 37.95 Q23.75 39.35 24.3 39.8 24.75 40.2 25.9 40.2 27.45 40.2 28.35 39.4 29.25 38.65 29.25 37.35 L29.25 37.05 28.7 35.5 Q28.15 34.4 27.25 33.55 26.8 33.1 25.45 32.9 L23.9 32.75 Q23.6 32.75 23.5 32.95 L23.35 33.2" fill="#b20000" fill-rule="evenodd" stroke="none"/>
      <path d="M40.65 37.6 L41.75 38.65 43.15 40.5 Q43.95 41.6 44.15 42.55 L44.25 44.5 44.15 46.4 43.9 47.15 43.4 47.4 Q42.85 47.4 42.3 46.0 L41.4 43.65 39.55 41.05 Q38.0 39.2 36.95 39.2 L35.85 39.3 Q35.15 39.45 34.75 39.8 L33.8 40.75 Q33.3 41.45 33.3 42.1 33.3 42.7 34.0 43.2 L35.05 43.7 36.35 44.7 36.5 46.15 Q36.5 48.85 35.7 48.85 35.3 48.85 35.15 48.3 L34.95 47.05 Q34.7 45.3 33.3 45.2 L33.25 45.15 32.7 45.15 31.9 45.35 31.75 45.8 31.75 46.2 Q31.75 46.95 32.7 47.85 33.65 48.75 33.65 50.25 L33.6 51.25 Q33.45 52.1 32.9 52.1 32.75 52.1 32.35 50.55 31.95 49.0 30.75 49.0 30.45 49.0 30.2 49.25 29.9 49.5 29.9 49.95 29.9 51.1 30.9 52.25 31.95 53.45 31.95 54.55 31.85 55.35 31.35 55.35 L30.45 54.75 Q29.75 54.2 29.35 54.2 28.6 54.2 28.15 54.65 L26.15 56.8 24.6 59.0 Q23.2 60.8 22.25 60.8 L20.9 60.5 20.35 60.1 19.95 59.3 19.75 58.3 Q19.65 57.4 17.7 56.85 15.8 56.3 15.8 55.75 15.8 54.85 16.9 54.9 18.0 54.95 18.0 53.75 18.0 53.1 17.65 53.0 L15.4 52.65 13.5 52.45 12.1 52.3 Q11.75 52.2 11.75 51.8 11.75 51.2 13.5 50.65 15.2 50.1 16.85 50.1 19.6 50.1 20.6 53.65 L21.1 56.1 Q21.3 57.25 21.6 57.25 L22.05 57.05 22.7 56.9 22.85 53.4 22.95 50.85 Q23.2 48.95 23.85 48.95 24.3 48.95 24.6 49.45 L24.9 50.9 24.8 52.8 24.7 54.95 24.75 55.9 25.2 55.9 26.0 54.95 26.05 53.85 25.65 50.45 25.25 46.75 25.45 45.4 Q25.75 44.45 26.45 44.45 27.55 44.45 27.55 45.85 L27.65 48.3 28.0 48.3 Q29.55 46.65 29.7 46.0 L29.85 45.25 30.1 44.55 30.95 42.5 Q31.45 40.65 33.4 39.05 34.95 37.75 35.15 37.05 L35.15 36.9 Q35.15 35.5 34.15 34.7 33.15 33.95 33.15 33.05 L33.35 32.3 34.25 32.1 35.0 32.2 35.8 32.8 36.4 34.0 36.85 34.8 Q37.2 35.4 37.2 36.1 L37.2 36.25 38.55 36.55 40.65 37.6 M19.95 22.4 L20.5 23.1 21.9 25.35 Q22.5 26.55 22.5 27.25 L22.45 27.75 22.15 27.95 21.35 27.4 20.5 26.15 19.65 25.3 18.65 24.35 18.75 24.15 18.75 24.1 18.85 24.0 18.95 23.9 19.15 23.55 19.45 23.05 19.6 22.85 19.9 22.45 19.95 22.4 M9.5 45.8 L9.55 45.75 10.85 45.55 11.05 45.55 11.45 45.55 12.2 45.9 12.5 46.05 12.55 46.5 12.1 47.25 9.65 47.65 Q9.35 47.65 9.0 47.9 L9.0 47.85 9.05 47.7 9.05 47.65 9.15 47.2 9.25 46.7 9.4 46.2 9.5 45.8" fill="#005e00" fill-rule="evenodd" stroke="none"/>
      <path d="M37.45 6.25 L37.25 6.35 37.15 6.4 37.1 6.4 37.0 6.45 36.3 6.9 36.2 5.45 Q36.2 4.95 35.0 4.85 L33.25 4.8 32.45 5.0 32.4 5.05 32.15 5.15 31.95 5.5 31.95 5.95 Q31.95 6.45 33.25 6.4 34.6 6.4 34.6 6.95 34.6 7.6 33.25 7.55 31.95 7.5 31.95 8.3 31.95 8.8 32.65 8.8 L33.5 8.75 33.35 8.85 33.0 9.1 32.85 9.2 32.75 9.25 32.6 9.35 32.35 9.55 32.3 9.6 31.7 10.05 31.5 10.2 31.4 10.25 31.4 10.3 31.25 10.35 30.75 10.75 30.6 10.9 30.5 11.0 30.45 11.0 30.35 11.05 30.3 11.1 30.25 11.15 30.1 11.25 30.05 11.3 Q29.95 11.35 29.8 11.5 L29.65 11.6 29.55 11.7 29.35 11.9 29.25 12.0 29.15 12.1 28.85 12.4 28.75 12.45 28.7 12.55 28.25 12.45 Q27.0 12.25 27.0 11.35 L27.0 10.7 29.25 10.7 29.75 10.9 30.15 11.0 30.25 10.95 30.25 7.8 Q30.4 7.1 29.75 7.05 L28.55 6.95 28.55 6.4 Q29.65 4.9 31.05 4.15 31.5 3.8 32.0 3.7 L35.15 3.45 35.3 3.45 35.35 3.45 36.95 3.6 Q37.3 3.7 38.1 4.55 L37.9 4.8 37.45 5.1 37.45 6.25 M38.8 0.55 Q39.2 0.95 39.65 2.35 L39.65 2.85 38.3 2.85 37.65 2.35 37.25 2.15 35.65 2.2 33.75 2.35 Q33.2 2.35 31.3 3.1 L29.25 3.75 28.6 3.6 27.65 3.1 Q26.2 1.9 26.2 1.2 L26.25 1.1 28.25 1.15 30.7 0.85 31.4 0.85 31.5 0.85 32.45 0.65 34.0 0.1 36.0 0.0 Q38.3 0.0 38.8 0.55 M16.7 27.55 L16.65 27.7 16.45 28.0 16.4 28.05 16.35 28.15 16.3 28.25 16.3 28.35 16.15 28.5 15.95 28.9 15.75 29.25 15.7 29.35 15.65 29.55 15.45 29.85 15.35 30.05 15.3 30.25 15.15 30.55 15.05 30.7 14.95 30.95 14.9 31.0 14.85 31.1 14.8 31.25 14.8 31.3 14.75 31.45 14.25 32.3 14.15 32.5 14.15 32.55 14.0 32.85 14.0 32.9 13.45 32.7 12.95 32.7 12.95 32.9 Q12.4 33.4 12.4 34.75 12.4 35.35 12.75 35.9 L12.7 35.95 12.65 36.15 12.5 36.5 12.5 36.55 12.4 36.8 12.3 36.95 12.25 37.05 12.2 37.15 12.1 37.4 11.95 37.2 11.85 37.05 11.0 35.85 Q10.0 33.9 10.0 33.05 10.0 31.7 10.9 31.0 11.55 30.5 12.55 30.45 L13.0 30.4 13.85 30.45 14.25 30.7 14.35 30.85 Q14.2 29.7 14.7 28.75 15.3 27.55 16.45 27.55 L16.7 27.55" fill="#730000" fill-rule="evenodd" stroke="none"/>
      <path d="M18.65 24.35 L18.5 24.2 17.75 23.25 17.1 22.65 15.55 22.4 14.6 22.35 Q12.7 22.35 9.15 24.8 7.55 25.85 6.5 28.35 L6.0 29.45 Q5.6 30.3 5.65 30.6 L5.65 32.75 5.7 34.95 Q5.75 36.5 4.9 36.5 4.25 36.5 4.05 34.95 L4.0 32.8 Q4.0 30.45 5.15 27.75 5.55 25.95 5.85 25.4 L7.6 23.75 Q8.85 22.7 9.75 22.3 10.4 22.0 12.05 21.75 L14.55 21.3 15.9 20.9 16.3 19.3 16.75 16.85 Q17.15 15.2 18.3 13.05 19.35 10.95 20.0 10.2 21.15 8.9 22.7 8.9 L22.85 8.9 22.85 8.95 22.95 9.3 22.1 10.65 21.15 11.7 20.15 12.85 19.05 14.45 Q18.75 14.95 18.6 15.65 L18.3 17.3 18.1 18.45 18.05 19.65 Q18.05 20.75 18.5 21.05 19.3 21.65 19.95 22.4 L19.9 22.45 19.6 22.85 19.45 23.05 19.15 23.55 18.95 23.9 18.85 24.0 18.75 24.1 18.75 24.15 18.65 24.35 M9.5 45.8 L9.4 46.2 9.25 46.7 9.15 47.2 9.05 47.65 9.05 47.7 9.0 47.85 9.0 47.9 8.05 48.75 6.55 50.65 Q4.6 52.9 4.65 55.35 L4.65 56.5 Q4.55 56.95 3.8 56.95 3.05 56.95 2.6 55.95 2.25 55.25 2.25 54.6 2.25 53.0 3.5 50.65 4.8 48.15 6.15 47.45 8.55 46.15 9.5 45.8" fill="#024602" fill-rule="evenodd" stroke="none"/>
    </g>
  </defs>
</svg>
