<?xml version="1.0" encoding="UTF-8" standalone="no"?>
<svg xmlns:xlink="http://www.w3.org/1999/xlink" height="39.39px" width="30.18px" xmlns="http://www.w3.org/2000/svg">
  <g transform="matrix(0.6, 0.0, 0.0, 0.6, 0.15, 3.6)">
    <use height="59.95" transform="matrix(1.0, 0.0, 0.0, 1.0, 3.55, -2.2)" width="43.1" xlink:href="#shape0"/>
  </g>
  <defs>
    <g id="shape0" transform="matrix(1.0, 0.0, 0.0, 1.0, 0.0, 0.0)">
      <path d="M35.7 5.2 L35.65 5.85 35.4 6.9 35.15 7.5 Q35.15 8.3 35.7 9.05 36.4 10.1 37.6 10.35 L39.1 11.3 40.45 11.95 41.8 12.7 42.4 13.2 Q42.4 13.85 40.75 14.15 L38.55 14.3 Q37.15 14.3 36.4 13.4 L34.45 10.65 34.15 10.65 33.7 12.95 Q33.2 14.3 32.55 14.3 L32.3 14.25 32.25 13.95 Q32.25 13.55 32.8 11.25 L33.35 8.95 Q33.35 8.6 32.9 8.35 32.45 8.15 32.45 7.7 32.45 7.35 32.6 7.15 32.8 6.85 33.3 6.7 L33.5 6.45 33.9 6.2 34.0 6.15 34.05 6.15 34.15 6.1 34.35 6.0 34.55 5.85 34.85 5.65 35.45 5.3 35.65 5.2 35.7 5.2 M37.4 4.3 L37.8 3.85 38.2 3.95 38.5 4.1 Q38.85 4.35 38.85 5.05 L38.7 5.75 38.05 6.45 37.55 7.2 36.8 7.8 Q36.45 7.8 36.4 7.55 L36.4 6.95 36.4 6.25 Q36.45 5.9 36.85 5.2 L37.4 4.3 M27.65 10.5 L28.15 10.1 28.3 10.05 28.3 10.0 28.4 9.95 28.6 9.8 29.2 9.35 29.25 9.3 29.5 9.1 29.65 9.0 29.75 8.95 29.9 8.85 30.25 8.6 30.4 8.5 30.5 8.4 30.8 8.15 30.95 12.6 Q30.95 15.85 29.7 15.85 29.25 15.85 28.15 14.75 L26.1 12.7 26.75 11.65 27.4 10.75 27.55 10.6 27.6 10.6 27.65 10.5 M28.4 11.15 L28.3 11.1 Q28.1 11.15 28.0 11.3 L27.9 11.8 28.55 12.95 29.5 13.75 29.9 13.75 30.05 12.85 30.2 12.05 Q30.2 11.5 29.8 11.4 L29.0 11.35 28.4 11.15 M7.85 3.0 Q8.9 3.85 8.9 5.25 L8.55 7.2 8.2 8.3 8.7 9.15 Q9.25 10.0 9.25 11.0 9.25 12.7 8.45 14.65 8.05 15.65 7.1 16.5 6.05 17.3 5.1 17.3 L3.5 17.2 2.65 17.15 Q2.25 17.05 1.8 16.6 0.0 14.65 0.0 13.35 L0.1 12.4 Q0.3 11.85 0.95 11.85 1.35 11.85 2.55 13.25 3.7 14.65 4.85 14.65 5.8 14.65 6.65 13.75 7.6 12.8 7.6 11.6 7.6 10.65 7.1 10.15 6.65 9.7 5.95 9.7 5.05 9.7 4.2 10.2 L3.0 10.7 Q2.25 10.7 2.25 10.25 2.25 8.7 4.5 8.05 6.7 7.35 6.7 6.0 6.7 5.1 6.1 4.6 5.55 4.15 4.7 4.15 L3.85 4.3 Q3.4 4.5 3.05 5.1 1.85 6.7 1.45 6.7 L0.7 6.55 Q0.1 6.25 0.1 5.65 L0.15 5.2 0.25 5.0 Q0.8 3.9 2.0 3.15 3.55 2.25 5.3 2.25 6.85 2.25 7.85 3.0 M16.8 36.8 Q16.85 36.15 17.4 35.3 18.05 34.4 18.85 34.0 L19.1 34.1 19.35 33.85 20.3 33.7 23.2 34.3 25.8 34.85 Q26.45 34.85 27.7 33.85 28.95 32.9 29.8 32.9 31.35 32.9 32.2 33.4 32.9 33.8 33.65 35.0 L34.5 36.8 34.5 36.85 34.5 39.3 34.5 40.85 34.35 41.9 34.05 42.7 Q33.7 43.2 32.5 43.8 31.25 44.35 30.45 44.35 L28.85 44.25 Q28.4 44.25 28.05 44.7 L27.4 45.6 Q26.25 47.0 23.9 47.0 L21.45 46.8 Q20.1 46.5 19.1 45.15 17.4 43.0 17.4 40.7 L17.45 39.95 17.65 39.45 17.8 38.9 17.25 38.2 Q16.75 37.45 16.75 37.0 L16.8 36.8 M17.95 36.8 L18.15 37.2 18.8 37.35 Q19.25 37.35 19.85 36.8 L20.05 36.6 Q20.75 35.9 20.75 35.45 L20.25 35.0 19.35 34.75 19.3 34.8 18.65 35.3 Q17.9 35.95 17.9 36.35 L17.95 36.8 M18.7 41.4 Q18.7 42.45 18.85 43.1 L19.75 44.75 21.55 45.9 23.6 46.4 25.35 46.0 Q26.4 45.6 26.8 45.05 L27.65 43.25 28.05 41.4 27.4 38.9 26.5 37.45 25.95 36.8 25.65 36.55 25.6 36.4 Q25.5 36.15 25.15 36.1 L24.7 36.05 22.95 36.2 20.9 36.8 20.7 36.95 Q18.7 38.85 18.7 41.4 M20.1 43.15 L19.5 42.85 19.5 42.2 19.8 41.7 20.3 41.05 20.45 41.05 20.75 41.15 20.95 41.25 Q21.6 41.5 21.6 41.9 L21.35 42.95 Q21.15 43.15 20.7 43.15 L20.1 43.15 M31.7 35.65 Q31.1 35.0 29.45 35.0 L28.55 35.15 27.75 35.4 27.45 35.8 27.4 36.35 27.5 36.8 27.9 37.3 28.5 37.9 28.85 39.3 29.15 40.4 Q29.2 42.0 29.4 42.3 29.65 42.75 30.7 42.75 32.55 42.75 33.15 41.5 33.6 40.6 33.6 38.4 L33.3 37.25 32.85 36.8 31.7 35.65 M23.4 43.05 L24.3 43.15 Q24.8 43.3 24.8 44.0 L24.8 44.6 24.2 45.0 23.55 44.9 Q23.15 44.65 23.15 44.0 L23.3 43.3 23.4 43.05 M22.7 42.05 Q22.4 41.9 22.4 41.4 22.4 40.55 22.9 40.4 L23.25 40.4 23.6 40.4 Q24.05 40.6 24.05 41.15 24.05 42.15 23.3 42.15 L22.7 42.05 M23.05 37.5 L23.2 37.55 Q23.65 37.7 23.65 38.55 L23.5 39.35 Q23.25 39.8 22.8 39.8 L22.25 39.75 Q21.8 39.6 21.8 39.05 21.8 38.25 21.95 37.9 L22.25 37.6 22.45 37.5 23.05 37.5 M26.0 39.45 L26.25 39.45 26.5 40.25 26.4 40.75 26.3 41.3 25.3 41.3 24.9 41.05 24.85 40.7 Q24.85 40.25 25.15 39.9 25.5 39.45 26.0 39.45" fill="#b20000" fill-rule="evenodd" stroke="none"/>
      <path d="M42.0 48.45 Q42.0 48.05 41.3 47.2 L40.15 45.85 Q39.8 45.5 38.5 45.4 L37.4 45.4 37.3 45.35 37.3 45.4 36.9 45.4 Q36.75 45.4 36.7 45.5 35.55 46.55 35.35 46.95 35.05 47.3 35.05 48.0 35.05 49.85 36.65 50.45 L39.2 50.8 40.1 50.8 40.95 50.15 41.9 49.2 42.0 48.45 M41.55 45.7 L43.05 47.3 43.1 49.2 43.1 50.7 42.9 51.7 42.6 52.25 42.2 51.75 Q42.05 51.25 41.7 51.25 L41.1 51.45 39.85 52.1 37.1 52.8 Q34.85 52.8 34.2 50.45 L33.75 48.85 Q33.35 48.1 32.5 48.1 31.55 48.1 29.9 49.55 27.95 51.25 26.35 51.75 L24.35 52.05 22.7 52.05 Q21.15 52.1 21.15 53.95 21.15 55.3 21.65 56.7 L22.15 58.8 22.15 59.5 21.65 59.95 20.3 59.2 18.85 57.75 17.85 56.1 17.75 54.65 17.95 52.4 18.2 50.45 17.75 49.15 Q17.35 48.4 16.95 48.4 L16.35 48.6 15.6 49.5 14.55 50.35 13.9 50.85 13.4 51.0 Q12.6 51.0 11.95 50.55 11.2 50.0 11.2 49.05 11.2 47.35 12.2 47.35 L12.7 48.0 Q13.0 48.6 13.9 48.6 14.7 48.6 15.0 48.15 L15.7 47.2 15.9 46.75 15.7 46.05 15.5 45.4 15.2 44.7 14.55 44.45 14.5 44.45 12.75 44.75 11.9 45.2 Q11.1 45.7 10.85 46.1 9.65 47.65 9.3 48.35 L8.6 49.75 8.0 49.85 7.45 49.55 7.35 48.75 Q7.35 46.85 8.9 45.2 10.65 43.3 13.25 43.3 15.25 43.3 15.95 44.2 L17.9 46.9 17.95 46.95 18.3 47.2 18.85 47.9 19.6 48.75 Q20.85 49.55 21.7 49.65 L23.8 49.75 25.8 49.7 28.5 48.95 30.2 47.45 Q31.2 46.5 31.75 46.4 L33.65 46.2 34.65 45.85 Q35.15 45.25 36.65 44.65 37.95 44.05 38.5 44.05 39.15 44.05 40.05 44.55 40.95 45.0 41.55 45.7 M19.05 19.2 L19.1 19.15 19.1 19.1 19.15 19.1 19.2 19.0 19.3 18.9 19.35 18.85 19.5 18.6 19.65 18.4 19.75 18.25 19.85 18.15 19.95 18.05 20.65 18.2 21.35 18.3 22.45 18.1 Q22.9 17.8 22.9 16.95 L22.8 16.25 22.7 15.8 22.7 15.55 Q22.8 15.4 23.2 15.15 L23.5 14.8 23.55 14.3 23.55 14.15 23.75 13.95 23.8 13.9 23.85 13.8 25.2 16.05 25.65 18.65 25.8 22.35 25.65 23.85 Q25.65 24.6 26.6 24.6 27.0 24.6 28.45 23.65 29.9 22.75 31.25 22.75 32.6 22.75 34.15 23.65 35.85 24.65 37.15 26.4 L37.15 28.3 36.25 28.3 Q35.75 28.35 35.5 27.95 35.25 27.5 34.9 27.5 34.3 27.5 34.0 28.15 L33.2 29.4 31.8 30.5 31.05 31.0 30.35 31.15 29.95 31.15 Q28.35 31.15 27.3 30.35 L26.45 29.55 Q26.0 29.55 25.3 30.65 24.6 31.8 23.6 31.8 23.0 31.8 22.9 31.4 L22.45 30.95 Q22.1 30.95 22.05 31.15 L21.55 32.0 20.55 32.85 19.35 33.25 18.75 33.25 18.85 33.2 18.7 33.2 Q15.95 33.2 14.55 31.8 13.65 30.35 13.3 30.35 12.85 30.35 12.6 30.9 L12.2 31.9 11.75 31.95 11.25 31.9 11.65 31.2 11.7 31.05 11.7 31.0 11.75 30.85 11.8 30.75 11.85 30.7 11.95 30.45 12.05 30.3 12.2 30.0 12.25 29.8 12.35 29.6 12.55 29.3 12.6 29.1 12.65 29.0 12.85 28.65 13.05 28.25 13.2 28.1 13.2 28.0 13.25 27.9 13.3 27.8 13.35 27.75 13.55 27.45 13.6 27.35 Q14.45 26.8 15.7 26.2 17.45 25.35 17.8 25.35 19.7 25.35 20.9 26.7 22.1 28.1 23.0 28.1 23.45 28.1 23.7 27.8 L24.0 27.35 24.0 27.15 24.05 24.1 23.8 22.9 22.95 22.2 Q22.7 22.05 22.7 21.7 22.7 20.95 23.2 20.75 23.7 20.5 23.7 20.1 L23.3 19.6 22.85 19.55 21.35 19.65 19.05 19.2 M29.55 24.3 L29.25 24.95 29.25 25.0 29.25 25.1 27.1 26.4 Q26.3 26.8 26.3 27.4 26.3 28.2 28.1 28.8 L30.4 29.25 Q31.25 29.25 32.6 27.7 L33.9 25.85 Q33.9 25.5 32.45 24.9 30.95 24.25 30.0 24.25 L29.55 24.3 M17.15 26.65 L16.4 26.7 Q16.05 26.8 15.75 27.0 L15.7 27.05 15.25 27.55 14.65 28.2 Q14.35 28.65 14.35 29.25 14.35 29.95 14.8 30.2 L16.35 30.85 17.8 31.7 18.7 31.8 19.7 31.6 20.65 30.5 21.45 29.55 21.65 29.1 Q21.65 28.6 21.15 28.2 L19.7 27.2 18.35 26.85 17.15 26.65" fill="#005e00" fill-rule="evenodd" stroke="none"/>
      <path d="M35.7 5.2 L35.65 5.2 35.45 5.3 34.85 5.65 34.55 5.85 34.35 6.0 34.15 6.1 34.05 6.15 34.0 6.15 33.9 6.2 33.5 6.45 33.5 6.4 33.55 5.95 33.55 2.95 33.1 2.3 32.65 1.5 32.85 0.5 33.3 0.0 Q35.1 0.65 35.4 1.0 35.8 1.5 35.8 3.7 L35.75 4.8 35.7 5.2 M27.65 10.5 L27.7 10.4 28.6 9.35 29.35 8.2 28.95 7.45 Q28.25 7.45 27.75 8.25 L26.95 9.1 Q26.55 9.1 25.95 8.45 25.35 7.75 25.35 7.1 L25.75 6.75 26.35 6.65 27.0 6.5 27.65 6.2 28.75 5.55 29.55 4.85 Q29.55 4.1 28.6 4.0 27.65 3.9 27.65 3.35 L27.7 3.0 28.1 2.35 29.25 0.4 29.75 0.5 30.6 0.7 Q31.6 1.25 31.6 2.25 L31.5 2.7 31.15 3.05 31.15 3.35 31.0 3.85 31.0 4.55 31.95 4.5 Q32.35 4.5 32.35 5.1 32.35 5.65 32.05 5.8 L31.1 6.45 Q30.8 6.75 30.8 7.95 L30.8 8.15 30.5 8.4 30.4 8.5 30.25 8.6 29.9 8.85 29.75 8.95 29.65 9.0 29.5 9.1 29.25 9.3 29.2 9.35 28.6 9.8 28.4 9.95 28.3 10.0 28.3 10.05 28.15 10.1 27.65 10.5 M19.05 19.2 L17.6 18.5 Q14.7 16.9 14.7 13.9 L14.85 11.05 14.8 9.9 Q14.65 9.4 14.1 9.4 L13.1 10.6 12.2 11.75 11.4 11.55 Q11.1 11.35 11.1 10.85 11.1 9.8 12.5 8.75 13.75 7.8 14.75 7.75 L17.45 8.15 18.6 8.55 19.4 8.9 21.4 10.25 Q22.55 11.15 23.05 12.15 L23.85 13.8 23.8 13.9 23.75 13.95 23.55 14.15 23.45 13.55 22.9 13.4 Q22.55 13.4 22.1 13.7 L21.55 14.0 Q21.2 14.0 20.9 13.6 L20.4 12.65 19.3 10.9 Q18.85 10.4 18.2 10.4 L17.05 10.45 16.75 11.55 16.5 13.05 Q16.5 13.8 17.0 15.35 L17.7 17.05 Q18.3 17.85 19.75 18.0 L19.95 18.05 19.85 18.15 19.75 18.25 19.65 18.4 19.5 18.6 19.35 18.85 19.3 18.9 19.2 19.0 19.15 19.1 19.1 19.1 19.1 19.15 19.05 19.2" fill="#730000" fill-rule="evenodd" stroke="none"/>
      <path d="M11.25 31.9 L11.0 31.85 11.0 31.3 Q11.0 30.75 11.7 29.45 12.4 28.1 12.95 27.75 L13.6 27.35 13.55 27.45 13.35 27.75 13.3 27.8 13.25 27.9 13.2 28.0 13.2 28.1 13.05 28.25 12.85 28.65 12.65 29.0 12.6 29.1 12.55 29.3 12.35 29.6 12.25 29.8 12.2 30.0 12.05 30.3 11.95 30.45 11.85 30.7 11.8 30.75 11.75 30.85 11.7 31.0 11.7 31.05 11.65 31.2 11.25 31.9" fill="#024602" fill-rule="evenodd" stroke="none"/>
    </g>
  </defs>
</svg>
