<?xml version="1.0" encoding="UTF-8" standalone="no"?>
<svg xmlns:xlink="http://www.w3.org/1999/xlink" height="39.39px" width="30.18px" xmlns="http://www.w3.org/2000/svg">
  <g transform="matrix(0.6, 0.0, 0.0, 0.6, 0.15, 3.6)">
    <use height="58.85" transform="matrix(1.0, 0.0, 0.0, 1.0, 3.1, -2.65)" width="43.55" xlink:href="#shape0"/>
  </g>
  <defs>
    <g id="shape0" transform="matrix(1.0, 0.0, 0.0, 1.0, 0.0, 0.0)">
      <path d="M38.25 7.65 L38.3 7.65 40.85 8.15 43.45 8.8 Q43.45 9.35 42.85 9.6 L41.95 9.9 40.65 10.65 39.1 11.05 Q37.8 11.05 36.65 9.4 L36.25 8.85 36.35 8.8 36.45 8.75 36.75 8.55 36.85 8.45 37.0 8.35 37.3 8.2 37.6 8.0 38.0 7.75 38.1 7.7 38.15 7.7 38.25 7.65 M33.2 10.95 L33.3 10.9 33.35 10.85 33.6 10.65 33.75 10.55 33.85 10.5 34.0 10.4 34.35 10.15 34.5 10.05 34.6 9.95 34.9 9.7 35.15 9.55 35.5 9.6 36.55 10.45 37.3 11.05 37.45 11.65 37.4 12.05 36.95 12.15 35.2 12.0 33.0 11.9 33.0 11.35 33.2 10.95 M30.2 13.25 L30.3 13.25 30.85 13.2 31.95 12.85 33.15 12.8 33.5 12.8 Q38.35 12.9 38.35 13.5 L38.15 13.95 Q38.0 14.1 37.95 14.4 L37.75 14.85 37.1 15.55 36.2 15.95 35.9 15.9 35.8 15.65 35.9 15.05 Q35.9 14.4 35.45 14.4 34.7 14.4 34.25 14.95 33.8 15.55 32.95 15.55 L31.75 15.35 Q31.15 15.05 30.2 13.85 L30.2 13.25 M20.35 24.6 L20.8 24.8 21.65 25.15 Q22.05 25.15 22.35 24.25 L22.65 23.15 Q22.8 22.65 23.3 22.45 23.75 22.3 23.75 21.55 L23.4 20.9 23.2 20.65 23.25 20.65 23.3 20.55 23.4 20.45 23.45 20.4 23.6 20.15 23.75 19.95 23.85 19.8 23.95 19.7 24.05 19.6 24.1 19.5 24.2 19.35 24.25 19.3 24.4 19.15 24.5 19.05 24.65 18.9 25.3 19.25 Q25.75 19.65 25.7 20.9 25.7 21.75 24.95 22.55 24.2 23.4 24.2 24.3 24.2 24.85 23.05 25.9 21.9 27.0 21.2 27.0 L20.4 26.8 19.0 26.55 19.1 26.4 19.45 25.9 19.65 25.65 19.75 25.45 19.75 25.4 19.85 25.3 19.95 25.2 20.15 24.85 20.35 24.6 M5.0 8.5 Q3.9 9.65 3.9 10.05 L4.0 10.55 4.75 10.6 5.85 10.55 Q6.65 10.45 6.65 9.9 L6.6 7.3 5.85 7.7 5.0 8.5 M7.35 1.55 L7.8 1.55 8.05 1.75 8.0 9.95 8.4 10.2 Q9.3 10.2 9.25 9.7 9.2 9.2 9.45 9.2 L9.7 9.3 10.1 9.4 10.1 10.05 10.0 11.1 10.05 12.4 Q10.05 13.4 9.7 13.4 L9.1 13.05 8.6 12.65 8.3 12.75 8.3 13.05 8.75 13.85 9.2 14.8 Q9.2 16.0 8.6 15.95 L6.5 16.15 5.1 16.15 5.1 14.7 5.4 14.25 5.55 13.95 Q5.7 13.8 6.1 13.55 L6.3 13.25 6.3 12.75 5.9 12.35 5.05 12.35 4.5 12.35 4.45 12.35 0.7 12.75 0.2 12.7 0.0 12.35 Q0.0 12.0 1.45 9.55 L3.05 7.0 4.9 4.15 Q6.75 1.55 7.35 1.55" fill="#b20000" fill-rule="evenodd" stroke="none"/>
      <path d="M15.8 32.55 L16.15 32.55 17.95 32.65 20.3 32.35 21.35 32.0 21.75 31.35 22.25 30.6 22.75 30.45 23.1 30.45 Q23.85 30.45 24.65 30.95 L25.6 31.3 Q25.8 31.35 25.8 32.0 L25.55 32.7 24.9 32.85 23.5 32.75 Q22.2 32.75 20.95 33.8 19.8 34.75 19.6 35.95 L19.55 36.45 Q19.55 37.3 20.05 37.4 L22.75 37.95 Q23.9 38.3 24.15 38.8 L24.3 40.4 24.25 43.5 Q24.35 45.05 25.2 45.05 25.75 45.05 26.0 43.5 L26.45 40.75 26.55 39.9 26.5 39.1 26.65 38.2 26.95 37.2 27.2 35.95 27.25 35.6 27.7 34.05 Q28.3 32.45 29.85 30.4 31.75 27.85 33.7 26.65 L35.85 25.35 37.9 24.4 41.4 24.0 41.55 24.05 41.65 24.0 42.9 24.0 Q43.55 24.05 43.55 24.45 43.55 25.05 41.5 25.8 L39.35 26.45 37.85 27.05 36.15 27.9 Q35.05 28.3 34.2 29.05 34.1 29.1 33.95 29.65 L33.55 30.35 32.55 31.35 31.95 32.0 31.8 32.15 29.95 35.15 29.5 35.95 Q28.7 37.4 28.7 38.2 L28.7 38.75 Q28.85 39.05 29.3 39.05 L30.5 38.6 31.9 37.75 34.2 36.2 34.6 35.95 Q36.55 34.75 37.25 34.75 38.25 34.75 39.85 35.5 L40.6 35.95 Q41.8 36.8 41.8 37.8 L41.7 38.8 41.6 39.9 41.2 41.5 Q41.1 41.7 40.25 41.7 L39.25 41.65 37.9 41.3 Q36.5 40.65 35.4 39.75 34.65 39.2 34.25 39.2 33.7 39.2 33.2 39.8 L32.3 41.3 31.6 42.55 Q30.95 43.75 30.95 44.4 L30.95 45.25 31.1 45.25 33.15 44.8 34.0 44.35 35.3 43.5 35.9 43.5 35.9 43.75 34.55 45.45 33.8 46.4 33.05 47.3 31.8 48.7 31.75 50.15 31.9 52.3 32.05 54.5 31.95 56.05 Q31.7 56.65 30.75 56.45 29.85 55.05 29.7 54.5 29.55 53.95 29.55 52.25 L29.65 50.45 29.65 49.1 29.65 47.45 Q29.85 45.2 30.1 44.3 L30.25 43.05 30.0 41.0 29.2 40.75 Q27.4 40.75 27.4 44.7 L27.55 46.55 27.8 50.4 28.0 51.95 28.3 53.45 28.8 54.85 29.1 56.45 29.05 57.5 28.75 57.5 Q27.95 56.85 26.2 52.95 24.65 49.6 23.55 49.6 21.9 49.6 21.9 50.65 21.9 51.4 22.15 51.55 L23.35 52.65 25.15 54.75 Q25.55 55.25 25.55 56.4 25.55 58.85 24.0 58.85 22.85 58.85 22.0 56.65 21.15 54.45 20.25 54.45 L19.15 54.9 17.25 55.3 15.15 55.15 Q14.3 54.95 14.3 54.4 14.3 53.7 14.7 53.0 15.15 52.1 15.95 52.1 L17.1 52.25 Q17.8 52.4 18.15 52.65 L19.3 53.65 20.15 53.9 20.55 53.9 20.6 53.5 Q20.6 52.4 20.15 51.85 19.7 51.3 18.7 51.25 L15.85 51.3 13.8 51.15 13.1 50.75 Q13.1 48.9 16.15 48.5 L18.05 48.35 Q18.75 48.25 18.75 47.6 18.75 47.0 18.3 46.9 L17.5 46.9 Q15.45 46.9 13.9 47.55 L12.35 48.4 Q12.0 48.75 11.75 50.0 L11.25 52.55 10.45 55.45 10.1 56.6 Q9.8 57.4 9.3 57.8 L8.15 58.3 8.2 58.0 8.3 57.4 8.35 57.05 8.4 56.75 8.4 56.7 8.45 56.4 8.55 56.05 8.7 55.35 9.25 54.85 9.3 53.65 Q9.3 52.3 9.7 50.6 L9.7 50.5 9.8 50.3 9.9 50.0 9.9 49.85 9.85 49.6 9.85 49.55 9.95 49.3 10.0 49.2 10.0 49.15 10.05 49.0 10.05 48.95 10.15 48.5 10.25 48.0 10.4 47.5 10.5 47.1 10.5 47.05 10.55 46.9 10.75 46.3 10.8 46.05 11.55 46.0 12.8 46.1 14.05 46.1 15.6 46.05 16.75 45.6 16.75 44.95 Q14.35 44.15 12.15 43.9 L11.45 43.85 11.45 43.65 11.5 43.55 11.55 43.45 11.55 43.35 11.7 42.85 11.75 42.7 11.85 42.4 11.95 42.2 12.0 42.15 12.05 41.85 12.1 41.65 12.15 41.45 12.2 41.35 12.25 41.2 12.7 41.2 13.7 41.25 14.95 41.65 16.25 42.0 Q17.15 42.25 17.85 42.65 L19.9 44.35 Q20.45 44.85 21.0 44.85 21.7 44.85 22.25 44.0 22.85 43.05 22.85 41.45 L22.3 39.0 21.1 39.1 19.7 39.15 18.65 39.35 17.85 39.85 16.7 39.85 Q16.65 39.45 16.2 39.2 L15.7 39.0 14.3 39.25 12.85 39.6 12.85 39.55 12.75 39.55 12.85 39.35 12.95 39.2 13.0 39.0 13.1 38.7 13.2 38.45 13.3 38.25 13.4 38.1 13.5 37.85 13.5 37.8 13.65 37.45 13.65 37.4 15.6 37.55 15.6 37.6 17.1 37.6 17.55 37.5 17.8 37.2 18.2 35.95 18.45 34.9 Q18.55 34.45 18.25 34.45 L17.0 34.7 15.6 34.95 14.7 34.9 14.8 34.65 14.85 34.6 14.85 34.55 14.9 34.35 15.0 34.2 15.0 34.15 15.15 33.85 15.15 33.8 15.25 33.6 15.35 33.45 15.75 32.75 15.8 32.6 15.8 32.55 M36.8 36.85 L36.65 37.05 36.65 37.6 36.7 38.3 37.65 38.9 Q38.15 39.05 38.65 39.5 L39.15 39.8 39.6 40.05 Q40.15 40.05 40.1 38.55 40.1 37.7 39.8 37.4 L39.3 37.2 39.2 37.2 38.65 36.9 37.85 36.85 Q37.85 36.7 36.8 36.85 M18.7 51.25 L18.7 51.2 18.55 51.2 18.4 51.2 18.7 51.25 M33.2 49.25 Q33.45 48.5 33.9 48.1 L34.55 47.55 35.4 46.65 35.55 46.4 36.0 46.35 Q36.35 46.3 36.35 46.7 L36.3 47.2 35.45 48.4 34.6 50.3 34.1 51.85 34.2 52.65 34.6 53.85 34.75 56.5 34.7 57.55 34.3 57.9 Q33.25 57.9 32.9 56.6 32.6 55.55 32.6 52.65 L32.6 50.85 Q32.65 50.4 33.2 49.25" fill="#005e00" fill-rule="evenodd" stroke="none"/>
      <path d="M38.25 7.65 L38.15 7.7 38.1 7.7 38.0 7.75 37.6 8.0 37.3 8.2 37.0 8.35 36.85 8.45 36.75 8.55 36.45 8.75 36.35 8.8 36.25 8.85 Q35.4 7.75 35.05 7.75 34.55 7.75 34.3 8.2 L33.35 9.2 Q32.55 9.7 31.5 10.7 L29.7 12.45 28.95 12.45 28.95 12.0 30.5 9.55 31.05 8.75 31.7 7.9 32.4 7.35 32.45 6.8 32.3 6.3 31.05 7.4 29.55 8.45 29.15 8.4 29.15 7.7 Q29.3 6.95 30.25 5.35 L31.3 3.35 31.35 2.4 31.3 1.5 31.55 0.5 32.0 0.0 32.75 0.45 33.95 1.2 34.6 1.2 Q34.7 0.65 34.85 0.6 L35.5 0.55 36.15 0.6 36.6 1.5 37.45 2.65 Q38.0 3.4 38.0 3.8 38.0 4.25 37.25 5.0 L36.45 5.9 37.0 7.35 38.25 7.65 M33.1 5.75 L33.75 5.9 Q34.35 5.9 35.75 3.6 35.75 3.25 34.4 3.1 L33.75 3.05 33.4 3.9 33.1 5.15 33.1 5.75 M35.15 9.55 L34.9 9.7 34.6 9.95 34.5 10.05 34.35 10.15 34.0 10.4 33.85 10.5 33.75 10.55 33.6 10.65 33.35 10.85 33.3 10.9 33.2 10.95 34.35 9.55 34.55 9.5 35.15 9.55 M19.0 26.55 L18.8 26.55 17.8 26.75 16.3 26.9 Q15.55 26.9 14.75 26.0 L13.95 25.7 12.95 25.55 Q12.0 25.55 11.45 24.45 11.0 23.55 11.0 22.7 L11.1 21.6 Q11.1 20.95 10.55 20.5 10.0 20.05 10.0 19.15 10.0 18.45 10.75 16.55 11.4 14.8 11.75 14.35 L12.55 13.6 13.5 13.25 14.55 12.9 15.3 12.85 15.75 12.9 16.1 12.9 17.25 12.95 17.35 12.95 18.75 12.6 Q19.3 12.25 19.95 12.25 L20.85 12.45 Q21.35 12.75 21.35 13.4 21.35 13.85 20.6 14.15 L19.5 14.5 Q18.55 14.85 18.15 15.25 L17.45 15.55 16.05 15.2 14.15 14.85 Q13.45 14.85 13.2 15.15 L12.6 16.5 12.1 17.55 11.9 18.35 Q11.9 18.8 12.35 19.25 12.85 19.7 12.85 20.65 L12.75 21.75 12.85 22.45 13.5 23.1 15.1 23.5 Q17.55 25.45 18.25 25.45 18.7 25.45 19.05 24.95 19.45 24.5 19.9 24.5 L20.35 24.6 20.15 24.85 19.95 25.2 19.85 25.3 19.75 25.4 19.75 25.45 19.65 25.65 19.45 25.9 19.1 26.4 19.0 26.55 M23.2 20.65 L23.0 20.0 23.1 19.4 23.2 19.0 22.35 17.65 21.5 16.45 Q21.5 16.05 22.25 15.55 L23.05 15.15 Q23.95 15.15 24.15 16.35 L24.2 17.9 Q24.2 18.7 24.55 18.85 L24.65 18.9 24.5 19.05 24.4 19.15 24.25 19.3 24.2 19.35 24.1 19.5 24.05 19.6 23.95 19.7 23.85 19.8 23.75 19.95 23.6 20.15 23.45 20.4 23.4 20.45 23.3 20.55 23.25 20.65 23.2 20.65 M17.1 17.7 Q15.6 17.8 15.6 19.6 15.6 20.4 16.95 21.05 L18.6 21.55 Q19.3 21.55 19.3 19.95 19.3 18.6 18.7 18.2 L17.65 17.9 17.25 17.7 17.1 17.7 M17.1 16.6 L17.3 16.6 Q18.5 16.65 19.4 17.25 20.6 18.0 20.6 19.45 20.6 22.85 18.2 22.85 L17.0 22.7 15.85 22.15 14.55 21.35 Q14.25 21.05 14.25 20.3 14.25 18.75 14.9 17.95 15.35 17.4 16.3 16.95 L16.6 16.8 17.05 16.6 17.1 16.6" fill="#730000" fill-rule="evenodd" stroke="none"/>
      <path d="M8.15 58.3 L7.0 58.4 5.5 58.2 Q4.95 57.9 4.95 56.8 L5.1 53.7 Q5.1 52.45 6.15 50.85 L7.25 49.1 Q8.3 47.5 9.45 46.5 L9.75 46.4 10.65 46.05 10.8 46.05 10.75 46.3 10.55 46.9 10.5 47.05 10.5 47.1 10.4 47.5 10.25 48.0 10.15 48.5 10.05 48.95 10.05 49.0 10.0 49.15 10.0 49.2 9.95 49.3 9.85 49.55 9.85 49.6 9.9 49.85 9.9 50.0 9.8 50.3 9.7 50.5 Q9.45 50.0 8.9 50.0 8.2 50.0 7.5 50.95 6.75 52.0 6.75 53.35 L6.8 54.95 Q6.95 55.85 7.45 55.85 7.9 55.85 8.45 55.5 L8.7 55.35 8.55 56.05 8.45 56.4 8.4 56.7 8.4 56.75 8.35 57.05 8.3 57.4 8.2 58.0 8.15 58.3 M11.45 43.85 L8.5 43.8 Q7.25 43.9 7.25 43.4 7.25 42.75 8.95 42.0 10.55 41.3 12.25 41.2 L12.2 41.35 12.15 41.45 12.1 41.65 12.05 41.85 12.0 42.15 11.95 42.2 11.85 42.4 11.75 42.7 11.7 42.85 11.55 43.35 11.55 43.45 11.5 43.55 11.45 43.65 11.45 43.85 M12.75 39.55 L11.85 39.45 Q11.55 39.25 11.55 38.8 11.55 38.55 12.0 38.05 12.6 37.4 13.3 37.4 L13.65 37.4 13.65 37.45 13.5 37.8 13.5 37.85 13.4 38.1 13.3 38.25 13.2 38.45 13.1 38.7 13.0 39.0 12.95 39.2 12.85 39.35 12.75 39.55 M14.7 34.9 Q13.3 34.7 12.45 33.95 11.45 33.0 11.45 31.6 L11.65 30.2 Q11.65 29.75 8.7 27.85 5.7 26.0 5.7 25.05 5.7 24.5 6.35 23.9 7.0 23.3 7.0 23.5 7.35 23.5 7.7 23.8 L9.75 25.0 10.4 25.45 10.8 25.9 11.6 27.35 12.0 27.95 12.2 28.15 12.25 28.45 Q12.45 29.05 12.85 29.05 L13.25 28.4 Q13.65 27.7 14.15 27.7 14.7 27.7 15.9 28.25 17.1 28.8 17.35 29.45 L17.4 29.75 Q17.4 30.2 16.9 30.35 L16.55 30.35 15.45 30.15 14.4 29.95 Q13.7 29.95 13.7 30.35 13.7 31.25 14.35 31.85 14.95 32.45 15.8 32.55 L15.8 32.6 15.75 32.75 15.35 33.45 15.25 33.6 15.15 33.8 15.15 33.85 15.0 34.15 15.0 34.2 14.9 34.35 14.85 34.55 14.85 34.6 14.8 34.65 14.7 34.9" fill="#024602" fill-rule="evenodd" stroke="none"/>
    </g>
  </defs>
</svg>
