<?xml version="1.0" encoding="UTF-8" standalone="no"?>
<svg xmlns:xlink="http://www.w3.org/1999/xlink" height="39.39px" width="30.18px" xmlns="http://www.w3.org/2000/svg">
  <g transform="matrix(0.6, 0.0, 0.0, 0.6, 0.15, 3.6)">
    <use height="53.55" transform="matrix(1.0, 0.0, 0.0, 1.0, 2.3, 1.25)" width="47.65" xlink:href="#shape0"/>
  </g>
  <defs>
    <g id="shape0" transform="matrix(1.0, 0.0, 0.0, 1.0, 0.0, 0.0)">
      <path d="M30.3 15.05 L33.2 17.3 34.5 18.25 37.9 20.5 38.35 20.75 38.95 21.15 40.6 22.1 43.8 24.05 46.15 25.55 46.25 25.65 47.65 26.75 Q47.65 27.35 47.0 27.55 L45.3 28.1 43.7 28.6 42.05 29.0 41.9 29.0 40.15 28.8 39.85 28.75 41.2 28.2 Q41.8 28.0 41.8 27.4 41.8 26.85 40.55 26.2 39.0 25.35 37.4 24.15 L36.25 23.2 36.2 23.15 33.75 20.7 33.6 20.55 32.75 19.65 32.65 19.5 30.3 16.85 30.3 15.05 M22.75 8.75 L23.05 8.3 23.95 7.1 Q24.65 6.05 25.3 5.5 L25.55 4.75 24.85 3.1 Q24.25 2.1 24.2 1.55 L24.15 1.3 24.2 0.5 24.25 0.45 Q24.35 0.15 24.8 0.0 L25.0 0.0 25.1 0.0 Q26.05 0.0 27.55 2.05 L28.0 2.65 28.45 3.25 30.1 5.2 31.75 6.3 32.95 7.55 32.9 7.55 Q30.05 6.8 29.5 5.9 29.1 5.25 28.25 5.25 27.4 5.25 25.35 6.85 L22.75 8.75 M20.65 23.85 L20.8 22.5 20.8 22.45 21.2 21.35 22.2 21.05 23.7 20.8 25.1 20.75 25.9 20.4 26.0 20.35 26.35 20.1 26.75 20.3 27.55 21.2 27.8 21.5 28.65 22.75 28.9 23.45 28.0 25.5 27.9 25.4 26.7 24.35 26.55 24.2 26.1 23.2 Q25.85 22.4 25.6 22.35 L23.6 22.35 22.65 22.25 21.4 22.45 Q21.1 22.6 20.65 23.85 M11.3 8.7 Q10.65 8.75 9.9 9.3 L8.9 9.95 8.5 9.8 Q8.45 9.35 8.75 9.0 L9.55 8.0 9.7 7.65 10.0 7.25 11.05 6.45 11.9 5.8 12.95 4.7 13.85 4.0 13.95 3.9 14.5 3.1 15.0 2.45 Q15.35 2.45 16.0 3.8 L16.7 5.3 17.35 6.85 17.35 8.35 17.35 9.6 17.25 10.5 Q16.85 10.15 16.1 9.75 L16.0 9.65 15.15 7.95 Q14.6 6.75 13.7 6.75 12.75 6.75 12.25 7.15 11.65 7.65 11.3 8.7 M7.05 22.4 L7.05 22.3 7.35 21.05 Q7.35 20.4 6.5 19.45 5.65 18.5 5.65 18.0 5.65 17.15 6.05 16.9 6.3 16.65 6.85 16.65 7.6 16.65 7.85 17.25 8.15 17.8 8.95 17.8 10.15 17.8 10.5 17.0 L11.5 14.95 11.75 14.45 12.3 13.65 12.7 12.95 12.7 13.6 12.7 14.2 12.7 15.25 Q12.5 17.85 11.45 19.45 10.3 21.15 8.6 21.05 8.0 21.0 7.05 22.4 M16.45 25.6 L15.05 25.05 14.55 24.7 14.4 24.6 13.95 24.5 13.75 24.45 13.65 24.45 Q12.75 24.45 11.95 24.85 L11.0 25.25 10.9 24.85 Q10.9 24.4 11.35 23.85 11.8 23.25 12.8 22.55 L15.35 20.85 17.0 21.15 Q17.65 21.35 17.95 21.9 L18.15 23.0 18.15 23.25 Q18.1 24.55 17.25 25.05 L16.8 25.35 16.45 25.6 M12.25 28.5 L12.35 28.55 12.8 29.05 12.8 29.1 11.0 31.3 10.8 31.55 10.6 31.75 9.85 32.45 9.8 32.45 8.25 32.1 8.15 31.85 9.0 30.95 9.1 30.85 10.2 29.8 10.7 29.5 11.5 29.0 11.9 28.75 12.2 28.55 12.25 28.5 M11.45 33.75 Q12.3 33.5 12.3 33.75 L13.2 33.75 13.7 34.25 13.7 34.45 Q13.7 35.45 11.4 35.9 L10.9 35.95 8.75 37.7 8.25 38.15 7.65 38.65 7.8 38.3 8.1 37.65 9.05 35.75 10.4 34.65 10.95 34.25 11.45 33.75 M12.4 44.4 L11.3 48.85 8.9 48.85 8.4 47.8 Q8.25 47.35 7.1 46.25 L6.45 45.65 Q5.7 44.2 5.7 42.95 L5.75 41.85 6.25 41.85 7.45 42.7 8.6 43.8 9.2 44.6 9.5 45.05 Q10.35 46.05 10.9 46.05 L11.15 46.0 12.0 44.95 12.4 44.4 M20.55 36.0 L20.2 35.85 19.65 35.4 19.55 35.3 20.35 34.8 Q21.3 34.15 21.9 34.0 L24.95 33.35 26.9 33.0 28.3 32.95 29.9 33.2 31.8 34.75 32.4 35.5 32.85 36.15 33.55 37.65 33.45 37.8 Q32.8 36.8 31.45 35.9 L30.7 35.45 Q28.1 33.95 25.9 33.95 24.7 33.95 23.6 34.55 L20.55 36.0 M27.45 40.85 Q30.95 42.3 32.95 44.0 L33.9 44.9 Q35.55 46.7 35.8 49.15 L35.85 50.05 Q35.85 51.35 35.65 51.6 L34.2 51.7 32.95 51.65 32.45 50.5 32.35 50.3 31.4 47.95 Q30.95 45.85 29.1 44.25 L28.25 43.45 Q27.4 42.5 27.4 41.75 L27.45 40.85 M21.25 40.55 L20.8 40.25 18.9 39.2 18.8 39.2 19.35 39.0 19.8 38.95 Q20.4 38.95 21.4 39.45 L22.2 39.75 23.15 39.9 24.05 39.8 24.15 39.8 24.2 40.45 21.25 40.55" fill="#024602" fill-rule="evenodd" stroke="none"/>
      <path d="M30.3 15.05 L30.3 16.85 32.65 19.5 32.75 19.65 33.6 20.55 33.75 20.7 36.2 23.15 36.25 23.2 37.4 24.15 Q39.0 25.35 40.55 26.2 41.8 26.85 41.8 27.4 41.8 28.0 41.2 28.2 L39.85 28.75 37.3 28.05 Q34.85 27.2 33.7 26.3 L33.05 25.7 30.05 21.75 29.55 21.0 29.4 20.8 29.15 20.4 29.05 20.25 28.55 19.4 28.05 18.45 27.0 17.15 26.25 16.3 25.6 16.75 24.8 17.3 Q23.3 18.1 23.1 18.35 L23.05 18.35 21.3 18.9 19.35 19.2 Q18.2 19.2 18.2 18.65 18.2 18.4 19.7 17.5 L20.0 17.35 21.55 16.35 23.45 15.05 24.9 14.05 24.3 13.15 24.1 12.85 24.05 12.8 23.6 12.1 Q23.5 11.8 23.05 11.8 22.45 11.8 21.6 13.15 L21.6 13.2 Q20.7 14.4 20.2 14.4 L19.6 14.25 19.6 13.65 19.9 13.25 20.3 12.65 21.1 11.4 21.4 11.0 21.9 10.6 22.4 10.0 22.45 9.5 22.45 9.45 Q22.45 9.2 22.75 8.75 L25.35 6.85 Q27.4 5.25 28.25 5.25 29.1 5.25 29.5 5.9 30.05 6.8 32.9 7.55 L32.95 7.55 33.35 8.35 33.35 8.4 34.1 9.45 34.9 10.35 36.1 11.2 36.2 11.45 36.2 12.1 36.2 12.7 Q36.1 13.0 35.7 13.0 35.1 13.0 34.35 12.4 33.55 11.8 33.15 11.8 32.45 11.8 31.15 12.4 30.45 12.75 30.05 13.05 29.55 13.5 29.55 13.9 29.55 14.3 30.3 15.05 M25.0 10.2 Q25.0 10.95 25.85 11.55 L26.05 11.7 Q26.6 12.1 26.95 12.1 L28.3 11.8 Q28.85 11.5 29.4 10.6 L29.65 10.25 30.1 9.85 30.3 9.65 30.45 9.1 29.95 7.9 29.15 7.1 28.1 6.9 27.7 6.95 27.3 6.85 27.2 6.95 25.95 8.4 25.2 9.5 25.0 10.2 M20.65 23.85 Q21.1 22.6 21.4 22.45 L22.65 22.25 23.6 22.35 25.6 22.35 Q25.85 22.4 26.1 23.2 L26.55 24.2 26.7 24.35 27.9 25.4 28.0 25.5 Q27.1 27.1 27.1 28.1 L27.1 28.7 27.55 29.15 28.75 29.15 28.8 28.9 Q29.0 28.15 29.3 27.95 L30.0 27.8 30.7 27.9 30.95 28.15 31.0 29.8 31.0 29.9 31.0 30.75 30.65 31.5 30.45 31.55 28.6 32.1 27.95 32.1 25.9 31.85 Q24.9 31.6 24.65 31.0 L24.55 30.55 Q24.55 30.15 24.9 29.6 L25.05 29.4 25.25 29.0 24.95 28.55 24.7 27.8 Q24.7 26.95 25.35 25.5 L25.65 24.8 25.95 23.75 25.95 23.25 Q25.85 23.0 25.15 23.0 24.1 23.0 23.7 23.85 L22.25 26.7 22.05 27.0 21.3 28.2 20.8 29.1 20.55 29.45 Q19.95 30.3 19.75 31.15 L19.2 32.1 18.55 32.65 18.55 32.25 18.75 31.4 19.05 29.9 19.35 29.0 19.5 28.45 19.85 27.0 20.3 25.65 20.6 24.35 20.65 23.85 M11.3 8.7 Q11.65 7.65 12.25 7.15 12.75 6.75 13.7 6.75 14.6 6.75 15.15 7.95 L16.0 9.65 16.1 9.75 Q16.85 10.15 17.25 10.5 L17.2 10.9 16.2 13.4 15.9 14.15 15.3 15.6 15.05 15.9 14.9 16.0 14.4 16.6 13.55 18.2 12.3 20.1 10.25 23.3 10.1 23.55 7.6 27.4 7.1 28.2 6.25 29.55 6.0 29.85 5.85 30.15 4.35 32.2 3.8 33.0 3.1 34.1 3.05 34.25 Q2.45 35.75 0.75 36.65 L0.0 36.65 0.0 35.3 0.45 34.25 0.8 33.55 0.8 33.5 0.9 33.35 1.7 32.05 2.6 30.4 3.2 29.3 3.8 28.25 3.85 28.1 4.1 27.6 5.2 25.7 Q6.25 24.75 6.5 23.95 L6.85 22.85 7.05 22.4 Q8.0 21.0 8.6 21.05 10.3 21.15 11.45 19.45 12.5 17.85 12.7 15.25 L12.7 14.2 12.7 13.6 12.7 12.95 12.85 12.65 13.0 12.3 Q14.0 10.8 14.0 10.25 L13.85 9.75 13.8 9.75 13.1 9.2 12.3 8.7 11.55 8.65 11.3 8.7 M11.0 25.25 L11.95 24.85 Q12.75 24.45 13.65 24.45 L13.75 24.45 13.95 24.5 14.4 24.6 14.55 24.7 15.05 25.05 16.45 25.6 15.7 26.15 Q15.35 26.6 15.35 27.25 L15.65 28.1 16.1 28.8 16.15 28.85 16.8 29.85 17.0 30.5 Q17.0 31.2 16.3 31.55 15.55 31.8 15.55 32.35 15.55 32.9 15.75 33.05 L16.75 34.05 16.8 34.1 17.1 34.5 17.3 34.9 17.55 36.5 Q17.55 38.35 16.85 40.15 L16.25 41.9 16.2 41.95 15.0 45.25 Q13.75 48.7 12.55 49.8 L11.55 50.75 10.75 51.6 9.75 52.4 9.05 53.3 8.25 53.55 Q7.8 53.55 7.75 52.8 L7.75 51.3 7.75 49.9 7.9 49.05 8.05 48.5 6.9 46.4 6.45 45.65 7.1 46.25 Q8.25 47.35 8.4 47.8 L8.9 48.85 11.3 48.85 12.4 44.4 12.75 43.75 12.95 43.2 13.4 41.95 13.45 41.5 13.5 40.3 13.5 38.85 Q13.4 37.35 12.85 37.35 12.4 37.35 11.4 37.9 L10.3 38.5 8.2 39.6 Q7.4 39.55 7.4 39.15 L7.65 38.65 8.25 38.15 8.75 37.7 10.9 35.95 11.4 35.9 Q13.7 35.45 13.7 34.45 L13.7 34.25 13.2 33.75 12.3 33.75 Q12.3 33.5 11.45 33.75 L11.45 33.7 11.5 33.5 11.45 33.2 Q11.2 32.6 9.85 32.45 L10.6 31.75 10.8 31.55 11.0 31.3 12.8 29.1 12.8 29.05 12.35 28.55 12.25 28.5 12.7 28.0 12.55 27.0 12.5 26.8 12.45 26.15 11.5 25.75 11.45 25.7 11.0 25.25 M33.45 37.8 L32.5 37.9 30.95 37.5 29.1 37.05 Q28.6 37.05 28.55 37.35 L28.15 38.7 28.0 39.0 27.4 40.25 27.35 40.4 27.35 40.8 27.45 40.85 27.4 41.75 Q27.4 42.5 28.25 43.45 L29.1 44.25 Q30.95 45.85 31.4 47.95 L32.35 50.3 32.45 50.5 32.95 51.65 32.85 51.65 Q32.25 51.4 31.95 50.7 L31.85 50.55 Q31.45 49.5 30.5 48.4 L29.0 46.95 27.35 45.1 Q26.05 43.55 25.65 43.55 L24.75 44.55 23.85 45.9 21.85 47.7 19.4 49.35 17.25 50.55 15.2 50.55 19.05 46.6 22.3 42.75 22.65 41.95 Q22.65 41.5 21.3 40.6 L21.25 40.55 24.2 40.45 24.15 39.8 Q24.7 39.55 24.7 38.9 L24.8 38.75 25.2 38.05 25.2 37.95 25.6 36.65 Q25.6 35.95 23.9 35.95 L21.8 36.05 21.05 36.05 20.55 36.0 23.6 34.55 Q24.7 33.95 25.9 33.95 28.1 33.95 30.7 35.45 L31.45 35.9 Q32.8 36.8 33.45 37.8" fill="#005e00" fill-rule="evenodd" stroke="none"/>
    </g>
  </defs>
</svg>
