<?xml version="1.0" encoding="UTF-8" standalone="no"?>
<svg xmlns:xlink="http://www.w3.org/1999/xlink" height="39.39px" width="30.18px" xmlns="http://www.w3.org/2000/svg">
  <g transform="matrix(0.6, 0.0, 0.0, 0.6, 0.15, 3.6)">
    <use height="56.65" transform="matrix(1.0, 0.0, 0.0, 1.0, 3.75, -1.3)" width="41.75" xlink:href="#shape0"/>
  </g>
  <defs>
    <g id="shape0" transform="matrix(1.0, 0.0, 0.0, 1.0, 0.0, 0.0)">
      <path d="M1.6 55.9 Q0.0 54.8 0.0 52.5 L0.0 4.25 Q0.0 0.0 4.85 0.0 L36.95 0.0 Q40.75 0.0 41.55 2.7 L41.75 4.25 41.75 52.5 Q41.75 54.5 40.6 55.7 L40.75 54.4 40.75 6.15 Q40.75 4.45 39.4 4.0 39.4 2.0 36.95 2.0 L4.85 2.0 Q3.15 2.0 2.55 3.1 1.4 4.0 1.4 6.15 L1.4 54.4 1.6 55.9 M8.2 53.05 L8.0 53.05 Q6.55 53.05 5.6 52.5 4.0 51.7 4.0 49.4 L4.0 7.3 Q4.0 4.6 6.25 3.9 L8.0 3.7 33.85 3.7 35.55 3.9 Q37.15 4.45 37.5 6.15 L37.7 7.3 37.7 49.4 Q37.7 50.6 37.2 51.45 L37.2 51.3 37.2 49.25 35.5 50.6 35.8 49.4 35.8 48.45 37.2 47.25 37.2 13.25 35.8 12.15 35.8 11.45 29.05 5.35 12.75 5.35 10.6 7.3 9.3 7.3 8.8 7.35 8.15 7.55 10.6 5.35 8.0 5.35 Q6.0 5.35 5.95 7.1 L5.95 7.3 5.95 9.5 7.6 7.95 7.35 9.25 7.35 10.25 5.95 11.45 5.95 45.35 7.35 46.5 7.35 47.25 13.85 53.05 11.75 53.05 9.65 51.3 10.6 51.3 5.95 47.25 5.95 49.4 Q5.95 50.9 7.35 51.25 L7.35 51.3 Q7.35 52.5 8.2 53.05 M31.15 5.35 L35.8 9.5 35.8 7.3 Q35.8 5.95 34.9 5.65 L33.85 5.35 31.15 5.35" fill="#0b173c" fill-rule="evenodd" stroke="none"/>
      <path d="M1.6 55.9 L1.4 54.4 1.4 6.15 Q1.4 4.0 2.55 3.1 2.25 3.5 2.25 4.25 L2.25 52.5 Q2.25 54.1 3.65 54.5 L4.85 54.65 36.95 54.65 Q39.4 54.65 39.4 52.5 L39.4 4.25 39.4 4.0 Q40.75 4.45 40.75 6.15 L40.75 54.4 40.6 55.7 Q39.7 56.4 38.15 56.6 L36.95 56.65 4.85 56.65 Q2.85 56.65 1.6 55.9 M8.2 53.05 Q7.35 52.5 7.35 51.3 L7.35 51.25 8.0 51.3 9.65 51.3 11.75 53.05 8.2 53.05 M13.85 53.05 L7.35 47.25 7.35 46.5 12.75 51.3 29.05 51.3 35.8 45.35 35.8 12.15 37.2 13.25 37.2 47.25 35.8 48.45 35.8 47.25 31.15 51.3 33.85 51.3 35.15 51.05 35.5 50.6 37.2 49.25 37.2 51.3 37.2 51.45 Q36.35 53.05 33.85 53.05 L13.85 53.05 M7.35 10.25 L7.35 9.25 7.6 7.95 8.15 7.55 8.8 7.35 9.3 7.3 10.6 7.3 7.35 10.25" fill="#173384" fill-rule="evenodd" stroke="none"/>
    </g>
  </defs>
</svg>
