<?xml version="1.0" encoding="UTF-8" standalone="no"?>
<svg xmlns:xlink="http://www.w3.org/1999/xlink" height="39.39px" width="30.18px" xmlns="http://www.w3.org/2000/svg">
  <g transform="matrix(0.6, 0.0, 0.0, 0.6, 0.15, 3.6)">
    <use height="61.65" transform="matrix(1.0, 0.0, 0.0, 1.0, 0.5, -2.8)" width="46.25" xlink:href="#shape0"/>
  </g>
  <defs>
    <g id="shape0" transform="matrix(1.0, 0.0, 0.0, 1.0, 0.0, 0.0)">
      <path d="M21.4 2.7 L20.8 2.65 Q20.2 2.65 19.85 3.1 19.6 3.45 19.6 3.95 19.6 4.65 20.25 5.1 L20.3 5.1 Q20.8 5.5 21.5 5.5 L25.25 5.3 24.4 4.35 23.35 3.65 23.15 3.45 23.05 3.4 23.0 3.35 22.85 3.25 22.8 3.25 22.25 2.95 21.4 2.7 M31.2 12.15 L31.0 11.1 30.25 9.7 29.4 8.5 28.15 7.85 Q26.45 7.15 23.45 7.15 L22.45 7.4 22.25 7.5 Q21.8 7.6 21.55 8.05 L21.4 8.25 Q21.15 8.65 21.15 9.1 L21.15 9.15 20.9 10.95 20.35 12.65 Q20.0 13.45 20.0 14.25 20.0 15.55 20.25 16.2 20.55 16.95 21.5 17.85 22.2 18.55 23.3 18.65 L25.7 18.6 27.7 18.55 28.5 18.45 28.5 18.5 Q29.3 18.1 30.4 16.55 L30.65 15.65 30.9 14.4 31.2 12.15 M43.65 27.55 L43.6 27.55 43.65 27.05 Q43.65 26.4 43.15 25.9 42.7 25.4 42.05 25.4 41.35 25.4 40.9 25.9 40.4 26.4 40.4 27.05 L40.5 27.55 40.9 28.2 Q41.35 28.65 42.05 28.65 42.7 28.65 43.15 28.2 L43.65 27.55 M42.05 22.65 Q43.8 22.65 45.0 23.85 46.25 25.1 46.25 26.85 L46.2 27.65 Q45.95 28.9 45.0 29.85 43.8 31.05 42.05 31.05 L41.9 31.05 33.3 31.05 Q32.1 30.95 31.65 32.1 L31.35 33.0 30.3 36.1 30.3 36.05 Q30.0 37.05 30.0 40.3 L30.0 40.35 Q29.45 47.7 30.05 55.15 L30.05 55.4 30.55 56.55 30.55 56.6 Q30.45 57.95 29.65 57.9 29.0 57.95 28.1 56.0 L26.9 52.9 Q26.6 51.9 26.55 50.65 L26.5 46.65 26.5 44.7 26.6 42.75 26.75 40.85 28.25 34.0 28.2 33.3 Q28.1 32.75 27.7 32.7 26.3 32.75 25.85 34.9 L25.55 37.0 25.05 39.05 24.95 39.15 24.85 39.15 24.45 39.15 24.35 39.15 Q23.9 38.85 23.95 35.45 24.0 34.0 23.7 33.25 23.45 32.6 22.85 32.6 L22.35 32.65 22.2 32.7 22.15 32.9 22.05 33.1 22.05 33.2 22.05 33.3 21.85 33.95 21.65 35.2 21.65 37.1 Q21.65 40.05 21.8 40.25 L22.45 40.6 23.9 41.6 Q24.2 41.8 24.2 42.95 L24.15 44.8 24.35 46.3 24.45 48.0 24.45 48.05 Q24.45 48.5 24.8 49.9 L25.2 52.3 25.45 54.15 25.6 55.0 25.8 55.8 27.3 59.85 27.3 59.9 Q27.3 61.45 26.7 61.6 26.15 61.8 25.15 60.6 L25.15 60.55 Q20.8 51.55 18.1 35.8 L18.1 35.7 18.3 34.1 18.3 34.05 Q18.25 33.15 17.85 32.95 L17.5 32.85 Q16.65 32.85 16.5 33.15 L16.4 34.4 16.55 36.15 16.7 37.0 17.95 41.6 18.7 45.55 19.3 47.45 19.9 49.6 Q19.9 51.1 18.8 51.05 17.25 51.1 16.4 47.95 L15.45 43.6 15.5 43.65 14.35 40.55 14.35 40.6 14.1 39.75 Q13.3 37.15 13.3 35.25 L12.55 35.25 Q11.65 35.2 10.75 36.0 L8.75 37.5 6.9 38.35 5.2 39.2 4.0 40.2 3.95 40.25 2.95 40.4 1.4 40.1 Q0.0 39.65 0.0 38.7 -0.05 38.2 0.95 37.9 L2.05 37.6 5.35 36.2 8.15 35.0 Q9.65 34.25 9.7 33.55 L9.55 32.85 8.25 32.45 Q7.1 33.5 5.45 33.5 3.75 33.5 2.55 32.35 1.4 31.25 1.4 29.6 1.4 28.45 2.05 27.5 L2.55 26.8 2.6 26.8 Q3.8 25.7 5.45 25.7 7.15 25.7 8.3 26.8 L8.9 27.5 9.4 28.75 Q10.0 30.05 10.65 30.5 L12.2 31.3 13.9 31.3 14.0 30.25 14.1 29.65 13.05 27.7 Q11.55 24.45 12.0 21.35 10.95 20.35 10.85 17.05 L10.9 16.6 11.3 15.0 11.3 14.95 Q11.45 14.15 12.25 13.55 12.8 13.05 13.65 12.8 L13.65 12.85 16.7 12.75 Q18.8 12.65 18.85 11.75 18.85 10.8 18.05 10.8 L16.0 10.9 14.4 10.75 13.2 10.05 Q12.4 9.6 12.15 9.5 11.65 9.2 11.4 8.45 L11.4 8.15 11.45 8.0 11.6 7.95 13.15 7.95 15.05 7.95 16.35 7.8 17.75 7.7 17.8 7.7 18.8 7.85 Q19.2 7.8 19.2 7.3 L19.15 7.05 19.1 7.05 19.05 6.8 17.75 5.5 17.8 5.5 Q17.1 4.9 17.1 3.95 17.1 2.3 18.45 1.1 19.7 0.0 21.35 0.0 22.4 0.0 24.05 1.25 L26.4 3.15 Q27.45 3.7 29.2 3.75 L31.7 3.75 31.8 3.8 31.85 3.8 31.85 3.75 31.9 3.75 32.15 3.75 33.35 3.75 36.05 3.5 37.4 3.05 38.9 2.75 39.6 2.95 39.6 3.0 39.7 3.05 39.75 3.7 Q39.75 4.4 39.3 4.65 L38.05 5.3 37.05 5.8 Q36.25 6.1 35.95 6.35 L33.8 7.35 32.6 7.8 Q34.0 8.7 34.3 12.0 L35.05 12.3 35.2 12.1 35.3 11.9 35.45 11.65 35.5 11.65 35.85 11.5 35.9 11.5 36.1 11.5 36.65 11.5 37.65 11.65 38.2 12.55 38.2 12.5 38.6 13.4 38.65 14.15 37.8 17.45 36.65 21.2 36.65 21.15 35.55 23.9 Q34.5 26.35 34.5 26.8 34.5 27.25 35.0 27.4 L36.3 27.7 37.9 27.7 37.9 27.65 37.8 26.85 Q37.8 25.1 39.05 23.85 40.25 22.65 42.05 22.65 M7.0 28.55 L7.05 28.55 Q6.5 28.1 5.7 28.1 4.95 28.1 4.45 28.55 3.9 29.05 3.9 29.65 3.9 30.25 4.45 30.7 4.95 31.2 5.7 31.2 6.5 31.2 7.05 30.7 L7.5 29.65 Q7.5 29.05 7.0 28.55 M14.25 22.45 L14.25 22.4 Q13.7 23.2 13.7 24.35 13.7 25.5 14.25 26.3 14.75 27.05 15.45 27.05 16.2 27.05 16.7 26.3 L18.05 23.7 Q18.7 21.95 18.1 21.3 L16.2 21.15 Q14.8 21.6 14.25 22.45 M18.9 17.35 Q18.5 17.3 18.15 17.65 17.8 17.95 17.8 18.4 17.8 18.85 18.15 19.2 18.5 19.5 19.1 19.5 L20.0 19.2 Q20.3 18.9 20.05 18.6 L19.4 17.65 18.9 17.35 M16.25 18.35 L16.3 18.35 15.7 16.45 Q15.55 15.75 14.85 15.75 14.15 15.75 13.6 16.45 13.05 17.1 13.05 18.15 13.05 19.1 13.75 19.7 14.45 20.3 15.45 20.1 16.35 19.9 16.5 19.6 L16.25 18.35 M18.5 14.75 L17.9 14.5 17.3 14.75 Q17.0 15.05 17.0 15.4 17.0 15.75 17.3 16.0 L17.9 16.25 18.5 16.0 18.55 16.0 18.8 15.4 18.5 14.75 M36.5 15.1 L36.45 14.5 35.7 14.3 Q34.55 14.3 33.65 15.25 32.8 16.2 32.55 18.4 32.3 20.45 32.9 20.9 L32.95 20.9 Q33.5 21.35 34.25 21.25 34.9 21.2 35.4 20.2 L35.4 20.25 Q35.9 19.1 36.05 17.75 L36.5 15.1 M24.2 21.65 L24.0 21.65 Q23.2 24.85 20.8 26.55 L20.65 26.55 20.5 26.5 20.45 26.4 20.5 26.25 20.55 26.2 Q21.8 24.05 22.15 20.8 L21.95 20.45 Q20.95 20.1 20.25 21.9 L20.25 21.85 Q19.25 25.75 18.0 27.7 L17.55 28.3 Q17.05 29.35 17.4 29.95 17.75 30.5 19.0 30.65 L20.25 30.7 26.95 30.7 Q29.8 30.3 30.9 27.55 31.65 25.45 31.4 22.1 L31.4 22.05 31.45 21.9 Q31.35 20.95 30.95 20.55 L29.8 20.35 29.6 20.55 Q29.65 24.95 27.9 26.95 L27.8 27.0 27.7 27.0 27.6 26.9 27.55 26.8 Q27.9 24.85 27.6 21.45 L26.55 21.65 Q26.35 25.4 25.25 27.35 L25.15 27.45 25.0 27.45 24.9 27.4 24.85 27.25 24.35 22.45 24.2 21.65" fill="#005e00" fill-rule="evenodd" stroke="none"/>
      <path d="M23.65 9.95 Q22.85 10.75 22.85 11.85 22.85 12.95 23.65 13.75 24.45 14.55 25.55 14.55 26.65 14.55 27.45 13.75 28.25 12.95 28.25 11.85 28.25 10.75 27.45 9.95 26.65 9.15 25.55 9.15 24.45 9.15 23.65 9.95 M23.95 11.75 Q23.95 11.05 24.5 10.6 L24.45 10.6 Q24.9 10.15 25.6 10.15 26.3 10.15 26.75 10.6 27.2 11.05 27.2 11.75 L26.75 12.9 Q26.3 13.35 25.6 13.35 24.9 13.35 24.45 12.9 L24.5 12.9 Q23.95 12.45 23.95 11.75 M22.45 11.85 Q22.45 10.55 23.35 9.65 24.25 8.75 25.55 8.75 26.85 8.75 27.75 9.65 28.65 10.55 28.65 11.85 28.65 13.15 27.75 14.05 26.85 14.95 25.55 14.95 24.25 14.95 23.35 14.05 22.45 13.15 22.45 11.85 M24.75 10.9 Q24.35 11.25 24.35 11.75 24.35 12.25 24.75 12.6 25.1 12.95 25.6 12.95 26.1 12.95 26.45 12.6 L26.8 11.75 Q26.8 11.25 26.45 10.9 26.1 10.55 25.6 10.55 25.1 10.55 24.75 10.9" fill="#660000" fill-rule="evenodd" stroke="none"/>
      <path d="M23.95 11.75 Q23.95 12.45 24.5 12.9 L24.45 12.9 Q24.9 13.35 25.6 13.35 26.3 13.35 26.75 12.9 L27.2 11.75 Q27.2 11.05 26.75 10.6 26.3 10.15 25.6 10.15 24.9 10.15 24.45 10.6 L24.5 10.6 Q23.95 11.05 23.95 11.75 M23.65 9.95 Q24.45 9.15 25.55 9.15 26.65 9.15 27.45 9.95 28.25 10.75 28.25 11.85 28.25 12.95 27.45 13.75 26.65 14.55 25.55 14.55 24.45 14.55 23.65 13.75 22.85 12.95 22.85 11.85 22.85 10.75 23.65 9.95" fill="#730000" fill-rule="evenodd" stroke="none"/>
    </g>
  </defs>
</svg>
