<?xml version="1.0" encoding="UTF-8" standalone="no"?>
<svg xmlns:xlink="http://www.w3.org/1999/xlink" height="39.39px" width="30.18px" xmlns="http://www.w3.org/2000/svg">
  <g transform="matrix(0.6, 0.0, 0.0, 0.6, 0.15, 3.6)">
    <use height="62.4" transform="matrix(1.0, 0.0, 0.0, 1.0, 18.75, -3.2)" width="11.2" xlink:href="#shape0"/>
  </g>
  <defs>
    <g id="shape0" transform="matrix(1.0, 0.0, 0.0, 1.0, 0.0, 0.0)">
      <path d="M7.0 38.45 Q7.0 37.75 6.55 37.25 6.1 36.75 5.5 36.75 4.9 36.75 4.45 37.25 L4.4 37.3 4.35 37.35 Q4.0 37.8 3.95 38.45 L3.95 57.65 Q4.0 58.35 4.4 58.85 L4.4 58.8 Q4.9 59.3 5.5 59.3 6.1 59.3 6.55 58.85 7.0 58.3 7.0 57.6 L7.0 38.45 M5.7 33.2 Q7.7 33.3 9.15 34.75 10.75 36.3 10.75 38.55 10.75 40.75 9.2 42.35 8.6 43.15 9.15 43.95 L9.15 43.9 Q10.75 45.45 10.75 47.7 10.75 49.9 9.15 51.5 8.4 52.45 9.15 53.3 L9.15 53.25 Q10.75 54.8 10.75 57.05 10.75 59.3 9.15 60.85 7.6 62.4 5.35 62.4 3.15 62.4 1.55 60.85 0.0 59.3 0.0 57.05 0.0 54.8 1.55 53.25 L1.65 53.15 1.65 53.2 Q2.25 52.35 1.65 51.6 L1.55 51.5 0.45 49.85 Q0.0 48.85 0.0 47.7 0.0 45.45 1.55 43.9 L1.65 43.8 Q2.1 43.0 1.65 42.45 L1.55 42.35 Q0.0 40.8 0.0 38.55 0.0 36.3 1.55 34.75 3.15 33.2 5.35 33.2 L5.7 33.2 M5.85 0.0 Q8.05 0.0 9.65 1.6 11.2 3.15 11.2 5.4 11.2 7.6 9.65 9.2 9.05 9.95 9.65 10.75 L9.65 10.7 Q11.2 12.3 11.2 14.5 11.2 16.75 9.65 18.3 8.9 19.3 9.65 20.15 L9.65 20.1 Q11.0 21.45 11.2 23.4 L11.2 23.9 Q11.2 26.1 9.65 27.7 L8.75 28.45 8.05 28.85 5.85 29.25 Q4.25 29.25 2.95 28.45 L2.05 27.7 Q0.45 26.1 0.45 23.9 0.45 21.65 2.05 20.1 L2.15 20.05 Q2.75 19.15 2.15 18.4 L2.05 18.3 Q0.45 16.75 0.45 14.5 0.45 12.3 2.05 10.7 L2.15 10.6 Q2.55 9.8 2.15 9.3 L2.05 9.2 Q0.45 7.6 0.45 5.4 0.45 3.15 2.05 1.6 3.6 0.0 5.85 0.0 M7.5 5.3 Q7.5 4.55 7.05 4.1 6.6 3.6 6.0 3.6 5.35 3.6 4.9 4.1 4.45 4.55 4.45 5.25 L4.45 24.5 Q4.45 25.15 4.9 25.6 L4.9 25.65 Q5.35 26.1 6.0 26.1 6.6 26.1 7.05 25.65 L7.5 24.4 7.5 5.3" fill="#005e00" fill-rule="evenodd" stroke="none"/>
    </g>
  </defs>
</svg>
