<?xml version="1.0" encoding="UTF-8" standalone="no"?>
<svg xmlns:xlink="http://www.w3.org/1999/xlink" height="39.39px" width="30.18px" xmlns="http://www.w3.org/2000/svg">
  <g transform="matrix(0.6, 0.0, 0.0, 0.6, 0.15, 3.6)">
    <use height="62.55" transform="matrix(1.0, 0.0, 0.0, 1.0, 4.65, -3.25)" width="39.45" xlink:href="#shape0"/>
  </g>
  <defs>
    <g id="shape0" transform="matrix(1.0, 0.0, 0.0, 1.0, 0.0, 0.0)">
      <path d="M33.15 37.4 Q32.7 37.85 32.7 38.55 L32.7 57.8 Q32.7 58.45 33.15 58.9 L33.15 58.95 Q33.6 59.4 34.2 59.4 34.8 59.4 35.25 58.95 35.7 58.4 35.7 57.7 L35.7 38.6 Q35.7 37.85 35.25 37.4 34.8 36.9 34.2 36.9 33.6 36.9 33.15 37.4 M34.05 33.3 Q36.3 33.3 37.85 34.9 39.45 36.45 39.45 38.7 39.45 40.9 37.85 42.5 37.3 43.25 37.85 44.05 L37.85 44.0 Q39.45 45.6 39.45 47.8 39.45 50.05 37.85 51.6 37.1 52.6 37.85 53.45 L37.85 53.4 Q39.45 54.95 39.45 57.2 39.45 59.4 37.85 61.0 36.3 62.55 34.05 62.55 31.85 62.55 30.25 61.0 28.7 59.4 28.7 57.2 28.7 54.95 30.25 53.4 L30.35 53.35 Q30.95 52.45 30.35 51.7 L30.25 51.6 Q28.7 50.05 28.7 47.8 28.7 45.6 30.25 44.0 L30.35 43.9 Q30.8 43.1 30.35 42.6 L30.25 42.5 Q28.7 40.9 28.7 38.7 28.7 36.45 30.25 34.9 31.85 33.3 34.05 33.3 M6.55 36.9 Q6.1 36.4 5.5 36.4 4.9 36.4 4.4 36.9 4.0 37.4 3.95 38.1 L3.95 57.3 Q4.0 58.0 4.4 58.5 L4.4 58.45 Q4.9 58.95 5.5 58.95 6.1 58.95 6.55 58.5 7.0 57.95 7.0 57.25 L7.0 38.1 Q7.0 37.4 6.55 36.9 M5.35 32.85 Q7.6 32.85 9.15 34.4 L10.15 35.7 Q10.7 36.8 10.7 38.2 10.7 40.4 9.2 42.0 8.6 42.8 9.15 43.6 L9.15 43.55 Q10.7 45.1 10.7 47.35 10.7 49.55 9.15 51.15 8.4 52.1 9.15 52.95 L9.15 52.9 Q10.7 54.45 10.7 56.7 10.7 58.95 9.15 60.5 7.6 62.05 5.35 62.05 3.55 62.05 2.15 61.0 L1.55 60.5 Q0.0 58.95 0.0 56.7 0.0 54.45 1.55 52.9 L1.65 52.8 1.65 52.85 Q2.25 52.0 1.65 51.25 L1.55 51.15 Q0.0 49.55 0.0 47.35 0.0 45.1 1.55 43.55 L1.65 43.45 Q2.05 42.65 1.65 42.1 L1.55 42.0 Q0.0 40.45 0.0 38.2 0.0 35.95 1.55 34.4 3.1 32.85 5.35 32.85 M21.75 5.3 Q21.75 4.55 21.35 4.1 20.9 3.6 20.25 3.6 19.65 3.6 19.2 4.1 18.75 4.55 18.75 5.25 L18.75 24.5 Q18.75 25.15 19.2 25.6 L19.2 25.65 Q19.65 26.15 20.25 26.15 20.9 26.15 21.35 25.65 21.75 25.15 21.75 24.45 L21.75 5.3 M23.95 10.75 L23.95 10.7 Q25.5 12.3 25.5 14.5 L25.2 16.45 23.95 18.3 Q23.15 19.3 23.95 20.15 L23.95 20.1 Q25.5 21.65 25.5 23.9 25.5 26.1 23.95 27.7 22.35 29.25 20.15 29.25 17.9 29.25 16.3 27.7 L15.45 26.5 Q14.75 25.3 14.75 23.9 14.75 21.65 16.3 20.1 L16.4 20.0 16.4 20.05 Q17.05 19.15 16.4 18.4 L16.3 18.3 Q14.75 16.75 14.75 14.5 14.75 12.3 16.3 10.7 L16.4 10.6 Q16.85 9.8 16.4 9.3 L16.3 9.2 Q14.75 7.6 14.75 5.4 14.75 3.15 16.3 1.6 17.9 0.0 20.15 0.0 22.35 0.0 23.95 1.6 25.5 3.15 25.5 5.4 25.5 7.6 23.95 9.2 23.35 9.95 23.95 10.75" fill="#005e00" fill-rule="evenodd" stroke="none"/>
    </g>
  </defs>
</svg>
