<?xml version="1.0" encoding="UTF-8" standalone="no"?>
<svg xmlns:xlink="http://www.w3.org/1999/xlink" height="39.39px" width="30.18px" xmlns="http://www.w3.org/2000/svg">
  <g transform="matrix(0.6, 0.0, 0.0, 0.6, 0.15, 3.6)">
    <use height="62.35" transform="matrix(1.0, 0.0, 0.0, 1.0, 8.85, -3.15)" width="31.0" xlink:href="#shape0"/>
  </g>
  <defs>
    <g id="shape0" transform="matrix(1.0, 0.0, 0.0, 1.0, 0.0, 0.0)">
      <path d="M27.3 38.4 Q27.3 37.65 26.85 37.2 26.4 36.7 25.8 36.7 25.2 36.7 24.7 37.2 24.3 37.7 24.25 38.4 L24.25 57.6 Q24.3 58.25 24.7 58.75 25.2 59.25 25.8 59.25 26.4 59.25 26.85 58.75 27.3 58.25 27.3 57.55 L27.3 38.4 M25.65 33.1 Q27.9 33.1 29.45 34.7 31.0 36.25 31.0 38.5 31.0 40.75 29.45 42.3 28.9 43.05 29.45 43.85 L29.45 43.8 Q31.0 45.4 31.0 47.6 31.0 49.85 29.45 51.4 28.7 52.4 29.45 53.25 L29.45 53.2 Q31.0 54.75 31.0 57.0 31.0 59.2 29.45 60.8 27.9 62.35 25.65 62.35 23.4 62.35 21.85 60.8 20.3 59.2 20.3 57.0 20.3 54.75 21.85 53.2 L21.95 53.15 Q22.55 52.25 21.95 51.5 L21.85 51.4 Q20.3 49.85 20.3 47.6 20.3 45.4 21.85 43.8 L21.95 43.7 Q22.35 42.95 21.95 42.4 L21.85 42.3 Q20.3 40.75 20.3 38.5 20.3 36.25 21.85 34.7 23.4 33.1 25.65 33.1 M6.8 37.55 L6.55 37.2 Q6.1 36.7 5.5 36.7 4.9 36.7 4.4 37.2 4.0 37.7 3.95 38.4 L3.95 57.6 Q4.0 58.25 4.4 58.75 4.9 59.25 5.5 59.25 6.1 59.25 6.55 58.75 7.0 58.25 7.0 57.55 L7.0 38.4 6.8 37.55 M5.35 33.1 Q7.15 33.1 8.6 34.2 L9.15 34.7 Q10.7 36.25 10.7 38.5 10.7 40.75 9.15 42.3 8.6 43.05 9.15 43.85 L9.15 43.8 Q10.7 45.4 10.7 47.6 10.7 49.85 9.15 51.4 8.4 52.4 9.15 53.25 L9.15 53.2 Q10.7 54.75 10.7 57.0 10.7 59.2 9.15 60.8 7.6 62.35 5.35 62.35 3.1 62.35 1.55 60.8 L0.55 59.35 Q0.0 58.25 0.0 57.0 0.0 54.75 1.55 53.2 L1.65 53.1 1.8 52.9 1.95 52.15 1.65 51.5 1.55 51.4 Q0.0 49.85 0.0 47.6 0.0 45.4 1.55 43.8 L1.65 43.7 Q2.05 42.95 1.65 42.4 L1.55 42.3 Q0.0 40.75 0.0 38.5 0.0 36.25 1.55 34.7 3.1 33.1 5.35 33.1 M6.55 4.1 Q6.1 3.6 5.5 3.6 4.9 3.6 4.4 4.1 4.0 4.6 3.95 5.3 L3.95 24.5 Q4.0 25.15 4.4 25.65 4.9 26.15 5.5 26.15 6.1 26.15 6.55 25.65 7.0 25.15 7.0 24.45 L7.0 5.3 Q7.0 4.55 6.55 4.1 M5.35 0.0 Q7.6 0.0 9.15 1.6 10.7 3.15 10.7 5.4 10.7 7.6 9.15 9.2 8.6 9.95 9.15 10.75 L9.15 10.7 Q10.7 12.3 10.7 14.5 10.7 16.75 9.15 18.3 8.4 19.3 9.15 20.15 L9.15 20.1 Q10.7 21.65 10.7 23.9 10.7 26.1 9.15 27.7 7.6 29.25 5.35 29.25 3.1 29.25 1.55 27.7 0.0 26.1 0.0 23.9 0.0 21.65 1.55 20.1 L1.65 20.05 Q2.25 19.15 1.65 18.4 L1.55 18.3 Q0.0 16.75 0.0 14.5 0.0 12.3 1.55 10.7 L1.65 10.6 Q2.05 9.8 1.65 9.3 L1.55 9.2 Q0.0 7.6 0.0 5.4 0.0 3.15 1.55 1.6 3.1 0.0 5.35 0.0 M25.65 0.0 Q27.9 0.0 29.45 1.6 31.0 3.15 31.0 5.4 31.0 7.6 29.45 9.2 28.9 9.95 29.45 10.75 L29.45 10.7 Q31.0 12.3 31.0 14.5 31.0 16.75 29.45 18.3 28.7 19.3 29.45 20.15 L29.45 20.1 Q31.0 21.65 31.0 23.9 31.0 26.1 29.45 27.7 27.9 29.25 25.65 29.25 23.4 29.25 21.85 27.7 20.3 26.1 20.3 23.9 20.3 21.65 21.85 20.1 L21.95 20.05 Q22.55 19.15 21.95 18.4 L21.85 18.3 21.0 17.15 Q20.3 15.95 20.3 14.5 20.3 12.3 21.85 10.7 L21.95 10.6 Q22.35 9.8 21.95 9.3 L21.85 9.2 Q20.3 7.6 20.3 5.4 20.3 3.15 21.85 1.6 23.4 0.0 25.65 0.0 M26.85 4.1 Q26.4 3.6 25.8 3.6 25.2 3.6 24.7 4.1 24.3 4.55 24.25 5.25 L24.25 24.5 Q24.3 25.15 24.7 25.65 25.2 26.15 25.8 26.15 26.4 26.15 26.85 25.65 27.3 25.15 27.3 24.45 L27.3 5.3 Q27.3 4.55 26.85 4.1" fill="#005e00" fill-rule="evenodd" stroke="none"/>
    </g>
  </defs>
</svg>
