<?xml version="1.0" encoding="UTF-8" standalone="no"?>
<svg xmlns:xlink="http://www.w3.org/1999/xlink" height="39.39px" width="30.18px" xmlns="http://www.w3.org/2000/svg">
  <g transform="matrix(0.6, 0.0, 0.0, 0.6, 0.15, 3.6)">
    <use height="62.45" transform="matrix(1.0, 0.0, 0.0, 1.0, 6.05, -3.45)" width="37.1" xlink:href="#shape0"/>
  </g>
  <defs>
    <g id="shape0" transform="matrix(1.0, 0.0, 0.0, 1.0, 0.0, 0.0)">
      <path d="M31.85 3.7 Q31.25 3.7 30.8 4.15 30.35 4.65 30.35 5.35 L30.35 24.6 Q30.35 25.25 30.8 25.75 31.25 26.2 31.85 26.2 32.45 26.2 32.9 25.75 L33.35 24.5 33.35 5.4 Q33.35 4.65 32.9 4.15 32.45 3.7 31.85 3.7 M35.5 1.65 Q37.1 3.25 37.1 5.45 37.1 7.7 35.5 9.25 35.05 9.95 35.45 10.65 L35.45 10.75 35.5 10.8 Q37.1 12.35 37.1 14.6 37.1 16.85 35.5 18.4 34.75 19.35 35.5 20.2 L35.5 20.15 Q37.1 21.75 37.1 23.95 37.1 26.2 35.5 27.75 L34.55 28.6 34.5 28.6 Q33.25 29.35 31.7 29.35 30.2 29.35 28.95 28.6 L27.9 27.75 Q26.35 26.2 26.35 23.95 26.35 21.75 27.9 20.15 L28.0 20.05 28.0 20.1 Q28.6 19.25 28.0 18.5 L27.9 18.4 Q26.7 17.2 26.45 15.7 L26.35 14.6 Q26.35 12.35 27.9 10.8 L28.0 10.7 Q28.45 9.9 28.0 9.35 L27.9 9.25 Q26.35 7.7 26.35 5.45 26.35 3.25 27.9 1.65 29.5 0.1 31.7 0.1 33.95 0.1 35.5 1.65 M7.0 5.25 Q7.0 4.55 6.6 4.05 6.15 3.55 5.5 3.55 4.9 3.55 4.45 4.05 4.0 4.5 4.0 5.2 L4.0 24.45 Q4.0 25.1 4.45 25.55 L4.45 25.6 Q4.9 26.1 5.5 26.1 6.15 26.1 6.6 25.6 7.0 25.1 7.0 24.4 L7.0 5.25 M5.4 0.0 Q7.6 0.0 9.2 1.55 10.75 3.1 10.75 5.35 10.75 7.6 9.2 9.15 8.6 9.95 9.2 10.75 L9.2 10.7 Q10.75 12.25 10.75 14.5 10.75 16.7 9.2 18.3 8.4 19.25 9.2 20.1 L9.2 20.05 Q10.75 21.6 10.75 23.85 10.75 26.1 9.2 27.65 L7.95 28.6 Q6.8 29.2 5.4 29.2 4.0 29.2 2.85 28.6 L1.55 27.65 Q0.0 26.1 0.0 23.85 0.0 21.6 1.55 20.05 L1.65 19.95 1.65 20.0 Q2.3 19.15 1.65 18.4 L1.55 18.3 Q0.0 16.7 0.0 14.5 0.0 12.25 1.55 10.7 L1.65 10.6 Q2.1 9.8 1.65 9.25 L1.55 9.15 Q0.0 7.6 0.0 5.35 0.0 3.1 1.55 1.55 3.15 0.0 5.4 0.0 M33.35 38.5 Q33.35 37.75 32.9 37.3 32.45 36.8 31.85 36.8 31.25 36.8 30.8 37.3 30.35 37.75 30.35 38.45 L30.35 57.7 Q30.35 58.35 30.8 58.85 31.25 59.3 31.85 59.3 32.45 59.3 32.9 58.85 L33.35 57.6 33.35 38.5 M31.7 33.2 Q33.95 33.2 35.5 34.75 37.1 36.35 37.1 38.55 37.1 40.8 35.5 42.4 34.95 43.15 35.5 43.95 L35.5 43.9 Q37.1 45.45 37.1 47.7 37.1 49.95 35.5 51.5 34.75 52.45 35.5 53.3 L35.5 53.25 Q37.1 54.85 37.1 57.05 37.1 59.3 35.5 60.85 33.95 62.45 31.7 62.45 29.5 62.45 27.9 60.85 26.35 59.3 26.35 57.05 26.35 54.85 27.9 53.25 L28.0 53.15 28.0 53.2 Q28.6 52.35 28.0 51.6 L27.9 51.5 Q26.35 49.95 26.35 47.7 26.35 45.45 27.9 43.9 L28.0 43.8 Q28.45 43.05 28.05 42.45 L28.0 42.45 27.9 42.4 Q26.35 40.8 26.35 38.55 26.35 36.35 27.9 34.75 29.5 33.2 31.7 33.2 M7.0 38.35 Q7.0 37.65 6.6 37.15 6.15 36.65 5.5 36.65 4.9 36.65 4.45 37.15 4.0 37.6 4.0 38.3 L4.0 57.55 Q4.0 58.25 4.45 58.75 4.9 59.2 5.5 59.2 6.15 59.2 6.6 58.75 7.0 58.25 7.0 57.5 L7.0 38.35 M5.4 33.1 Q7.6 33.1 9.2 34.65 L9.55 35.0 9.55 35.05 Q10.75 36.5 10.75 38.45 10.75 40.7 9.2 42.25 8.6 43.05 9.2 43.85 L9.2 43.8 Q10.75 45.35 10.75 47.6 10.75 49.8 9.2 51.4 8.4 52.35 9.2 53.2 L9.2 53.15 Q10.75 54.7 10.75 56.95 10.75 59.2 9.2 60.75 7.6 62.3 5.4 62.3 3.15 62.3 1.55 60.75 L0.8 59.8 Q0.0 58.55 0.0 56.95 0.0 54.7 1.55 53.15 L1.65 53.05 1.65 53.1 Q2.3 52.25 1.65 51.5 L1.55 51.4 Q0.0 49.8 0.0 47.6 0.0 45.35 1.55 43.8 L1.65 43.7 Q2.1 42.9 1.65 42.35 L1.55 42.25 Q0.0 40.7 0.0 38.45 0.0 36.2 1.55 34.65 3.15 33.1 5.4 33.1" fill="#005e00" fill-rule="evenodd" stroke="none"/>
      <path d="M22.55 18.8 Q23.8 20.25 23.8 22.2 23.8 24.4 22.3 26.0 21.7 26.8 22.25 27.6 L22.25 27.55 22.9 28.3 Q23.8 29.65 23.8 31.35 23.8 33.6 22.25 35.15 21.5 36.1 22.25 36.95 L22.25 36.9 Q23.8 38.45 23.8 40.7 23.8 42.95 22.25 44.5 20.7 46.1 18.45 46.1 16.2 46.1 14.65 44.5 13.05 42.95 13.05 40.7 13.05 38.45 14.65 36.9 L14.75 36.8 14.75 36.85 Q15.35 36.0 14.75 35.25 L14.65 35.15 Q13.05 33.6 13.05 31.35 13.05 29.65 14.05 28.3 L14.65 27.55 14.75 27.45 14.95 26.6 14.75 26.1 14.65 26.0 Q13.05 24.45 13.05 22.2 13.05 20.0 14.65 18.4 16.2 16.85 18.45 16.85 20.7 16.85 22.25 18.4 L22.55 18.8 M19.65 20.85 Q19.2 20.4 18.6 20.4 17.95 20.4 17.5 20.9 17.1 21.35 17.05 22.05 L17.05 41.35 Q17.1 42.0 17.5 42.5 17.95 42.95 18.6 42.95 19.2 42.95 19.65 42.5 L20.1 41.25 20.1 22.1 19.85 21.15 19.65 20.85" fill="#b20000" fill-rule="evenodd" stroke="none"/>
    </g>
  </defs>
</svg>
