<?xml version="1.0" encoding="UTF-8" standalone="no"?>
<svg xmlns:xlink="http://www.w3.org/1999/xlink" height="39.39px" width="30.18px" xmlns="http://www.w3.org/2000/svg">
  <g transform="matrix(0.6, 0.0, 0.0, 0.6, 0.15, 3.6)">
    <use height="62.35" transform="matrix(1.0, 0.0, 0.0, 1.0, 5.7, -3.65)" width="37.3" xlink:href="#shape0"/>
  </g>
  <defs>
    <g id="shape0" transform="matrix(1.0, 0.0, 0.0, 1.0, 0.0, 0.0)">
      <path d="M31.0 37.15 Q30.55 37.6 30.55 38.3 L30.55 57.55 Q30.55 58.25 31.0 58.75 31.45 59.2 32.05 59.2 32.7 59.2 33.15 58.75 L33.6 57.5 33.6 38.35 Q33.6 37.65 33.15 37.15 32.7 36.65 32.05 36.65 31.45 36.65 31.0 37.15 M31.95 33.1 Q34.15 33.1 35.75 34.65 37.3 36.25 37.3 38.45 37.3 40.7 35.75 42.25 35.15 43.05 35.75 43.85 L35.75 43.8 Q37.3 45.35 37.3 47.6 37.3 49.8 35.75 51.4 35.0 52.35 35.75 53.2 L35.75 53.15 Q37.3 54.7 37.3 56.95 37.3 59.2 35.75 60.75 34.15 62.35 31.95 62.35 29.7 62.35 28.15 60.75 26.55 59.2 26.55 56.95 26.55 54.7 28.15 53.15 L28.15 53.2 28.2 53.1 Q28.85 52.25 28.2 51.5 L28.15 51.35 28.15 51.4 Q26.55 49.8 26.55 47.6 26.55 45.35 28.15 43.8 L28.2 43.75 Q28.65 42.95 28.2 42.35 L28.15 42.2 28.15 42.25 Q26.55 40.7 26.55 38.45 26.55 36.25 28.15 34.65 29.7 33.1 31.95 33.1 M17.45 37.15 Q17.0 37.6 17.0 38.3 L17.0 57.55 Q17.0 58.25 17.45 58.75 17.9 59.2 18.55 59.2 19.15 59.2 19.6 58.75 20.05 58.2 20.05 57.5 L20.05 38.35 Q20.05 37.65 19.6 37.15 19.15 36.65 18.55 36.65 17.9 36.65 17.45 37.15 M7.0 38.35 Q7.0 37.65 6.55 37.15 6.1 36.65 5.5 36.65 4.9 36.65 4.4 37.15 4.0 37.6 3.95 38.3 L3.95 57.55 Q4.0 58.25 4.4 58.75 L4.4 58.7 Q4.9 59.2 5.5 59.2 6.1 59.2 6.55 58.75 7.0 58.2 7.0 57.5 L7.0 38.35 M9.15 34.65 L9.45 35.05 Q10.7 36.5 10.7 38.45 10.7 40.65 9.2 42.25 8.6 43.05 9.15 43.85 L9.15 43.8 Q10.7 45.35 10.7 47.6 10.7 49.8 9.15 51.4 8.4 52.35 9.15 53.2 L9.15 53.15 Q10.7 54.7 10.7 56.95 10.7 59.2 9.15 60.75 7.6 62.35 5.35 62.35 3.1 62.35 1.55 60.75 0.0 59.2 0.0 56.95 0.0 54.7 1.55 53.15 L1.65 53.05 1.65 53.1 Q2.25 52.25 1.65 51.5 L1.55 51.4 Q0.0 49.8 0.0 47.6 0.0 45.35 1.55 43.8 L1.65 43.7 Q2.05 42.9 1.65 42.35 L1.55 42.25 Q0.0 40.7 0.0 38.45 0.0 36.25 1.55 34.65 3.1 33.1 5.35 33.1 7.6 33.1 9.15 34.65 M14.6 34.65 Q16.15 33.1 18.4 33.1 20.6 33.1 22.2 34.65 23.75 36.25 23.75 38.45 23.75 40.65 22.25 42.25 21.65 43.05 22.2 43.85 L22.2 43.8 Q23.75 45.35 23.75 47.6 23.75 49.8 22.2 51.4 21.45 52.35 22.2 53.2 L22.2 53.15 Q23.75 54.7 23.75 56.95 23.75 59.2 22.2 60.75 20.6 62.35 18.4 62.35 16.15 62.35 14.6 60.75 13.0 59.2 13.0 56.95 13.0 54.7 14.6 53.15 L14.7 53.05 14.7 53.1 Q15.3 52.25 14.7 51.5 L14.6 51.4 Q13.0 49.8 13.0 47.6 13.0 45.35 14.6 43.8 L14.7 43.7 Q15.1 42.9 14.7 42.35 L14.6 42.25 Q13.0 40.7 13.0 38.45 13.0 36.25 14.6 34.65 M5.35 0.0 Q7.6 0.0 9.15 1.55 10.7 3.1 10.7 5.35 10.7 7.55 9.2 9.15 8.6 9.95 9.15 10.75 L9.15 10.7 Q10.7 12.25 10.7 14.5 10.7 16.7 9.15 18.3 8.4 19.25 9.15 20.1 L9.15 20.05 Q10.7 21.6 10.7 23.85 10.7 26.1 9.15 27.65 L8.2 28.45 Q6.9 29.2 5.35 29.2 3.8 29.2 2.55 28.45 L1.55 27.65 Q0.0 26.1 0.0 23.85 0.0 21.6 1.55 20.05 L1.65 19.95 1.65 20.0 Q2.25 19.15 1.65 18.4 L1.55 18.3 Q0.0 16.7 0.0 14.5 0.0 12.25 1.55 10.7 L1.65 10.6 Q2.05 9.8 1.65 9.25 L1.55 9.15 Q0.0 7.6 0.0 5.35 0.0 3.1 1.55 1.55 3.1 0.0 5.35 0.0 M7.2 5.25 Q7.2 4.5 6.7 3.9 6.2 3.35 5.5 3.35 4.8 3.35 4.25 3.9 3.8 4.45 3.75 5.2 L3.75 24.45 Q3.8 25.2 4.25 25.75 4.8 26.3 5.5 26.3 6.2 26.3 6.7 25.75 7.2 25.2 7.2 24.4 L7.2 5.25 M17.45 4.05 Q17.0 4.5 17.0 5.2 L17.0 24.45 Q17.0 25.15 17.45 25.65 17.9 26.1 18.55 26.1 19.15 26.1 19.6 25.65 20.05 25.1 20.05 24.4 L20.05 5.25 Q20.05 4.55 19.6 4.05 19.15 3.55 18.55 3.55 17.9 3.55 17.45 4.05 M22.2 1.55 Q23.75 3.1 23.75 5.35 23.75 7.55 22.25 9.15 21.65 9.95 22.2 10.75 L22.2 10.7 Q23.75 12.25 23.75 14.5 L23.45 16.45 22.2 18.3 Q21.45 19.25 22.2 20.1 L22.2 20.05 Q23.75 21.6 23.75 23.85 23.75 26.1 22.2 27.65 L21.2 28.45 Q19.95 29.2 18.4 29.2 16.85 29.2 15.6 28.45 L14.6 27.65 13.95 26.9 Q13.0 25.55 13.0 23.85 13.0 21.6 14.6 20.05 L14.7 19.95 14.7 20.0 Q15.3 19.15 14.7 18.4 L14.6 18.3 Q13.0 16.7 13.0 14.5 13.0 12.25 14.6 10.7 L14.7 10.6 Q15.1 9.8 14.7 9.25 L14.6 9.15 Q13.0 7.6 13.0 5.35 13.0 3.1 14.6 1.55 16.15 0.0 18.4 0.0 20.6 0.0 22.2 1.55 M32.05 3.55 Q31.45 3.55 31.0 4.05 30.55 4.5 30.55 5.2 L30.55 24.45 Q30.55 25.15 31.0 25.65 31.45 26.1 32.05 26.1 32.7 26.1 33.15 25.65 L33.6 24.4 33.6 5.25 Q33.6 4.55 33.15 4.05 32.7 3.55 32.05 3.55 M35.75 1.55 Q37.3 3.1 37.3 5.35 37.3 6.7 36.75 7.8 L35.75 9.15 Q35.15 9.95 35.75 10.75 L35.75 10.7 Q37.3 12.25 37.3 14.5 37.3 16.7 35.75 18.3 35.0 19.25 35.75 20.1 L35.75 20.05 Q37.3 21.6 37.3 23.85 37.3 26.1 35.75 27.65 L34.75 28.45 Q33.5 29.2 31.95 29.2 30.4 29.2 29.15 28.45 L28.15 27.65 Q26.55 26.1 26.55 23.85 26.55 21.6 28.15 20.05 L28.15 20.1 28.2 20.0 Q28.85 19.15 28.2 18.4 L28.15 18.25 28.15 18.3 Q26.55 16.7 26.55 14.5 L26.65 13.4 Q26.95 11.85 28.15 10.7 L28.2 10.65 Q28.65 9.85 28.2 9.25 L28.15 9.1 28.15 9.15 Q26.55 7.6 26.55 5.35 26.55 3.1 28.15 1.55 29.7 0.0 31.95 0.0 34.15 0.0 35.75 1.55" fill="#005e00" fill-rule="evenodd" stroke="none"/>
    </g>
  </defs>
</svg>
