<?xml version="1.0" encoding="UTF-8" standalone="no"?>
<svg xmlns:xlink="http://www.w3.org/1999/xlink" height="39.39px" width="30.18px" xmlns="http://www.w3.org/2000/svg">
  <g transform="matrix(0.6, 0.0, 0.0, 0.6, 0.15, 3.6)">
    <use height="64.35" transform="matrix(1.0, 0.0, 0.0, 1.0, 5.65, -4.9)" width="37.45" xlink:href="#shape0"/>
  </g>
  <defs>
    <g id="shape0" transform="matrix(1.0, 0.0, 0.0, 1.0, 0.0, 0.0)">
      <path d="M21.6 7.25 Q22.85 8.35 22.85 9.85 22.85 11.35 21.6 12.45 21.1 13.05 21.6 13.55 22.85 14.65 22.85 16.15 22.85 17.7 21.6 18.8 20.3 19.85 18.55 19.85 16.8 19.85 15.55 18.8 14.25 17.7 14.25 16.15 14.25 14.7 15.45 13.6 15.5 13.5 15.6 13.5 L15.8 13.0 15.6 12.55 15.55 12.55 15.45 12.4 Q14.25 11.35 14.25 9.85 14.25 8.3 15.55 7.2 L15.6 7.2 Q15.8 6.75 15.6 6.4 L15.45 6.25 Q14.25 5.15 14.25 3.7 14.25 2.15 15.55 1.1 16.8 0.0 18.55 0.0 20.3 0.0 21.6 1.1 22.85 2.15 22.85 3.7 22.85 5.15 21.6 6.3 21.25 6.8 21.6 7.2 L21.6 7.25 M19.5 2.85 L19.55 2.85 Q19.15 2.55 18.65 2.55 18.15 2.55 17.85 2.85 17.5 3.2 17.5 3.6 L17.5 16.55 Q17.5 16.95 17.85 17.3 18.15 17.6 18.65 17.6 L19.55 17.3 19.5 17.3 19.85 16.55 19.85 3.65 Q19.85 3.2 19.5 2.85" fill="#b20000" fill-rule="evenodd" stroke="none"/>
      <path d="M33.15 22.05 Q34.9 22.05 36.2 23.15 37.45 24.2 37.45 25.75 37.45 27.2 36.2 28.35 35.8 28.85 36.15 29.3 L36.4 29.45 Q37.45 30.45 37.45 31.9 37.45 33.4 36.2 34.5 35.7 35.1 36.2 35.6 37.45 36.7 37.45 38.2 37.45 39.75 36.2 40.85 34.9 41.9 33.15 41.9 31.4 41.9 30.15 40.85 28.8 39.75 28.8 38.2 28.8 36.75 30.1 35.65 L30.2 35.55 Q30.55 35.0 30.15 34.6 L30.05 34.45 Q28.8 33.4 28.8 31.9 28.8 30.5 29.95 29.5 L30.1 29.3 30.15 29.3 30.2 29.25 Q30.4 28.8 30.2 28.45 L30.05 28.3 Q28.8 27.2 28.8 25.75 28.8 24.2 30.15 23.15 31.4 22.05 33.15 22.05 M15.7 51.6 L15.6 51.65 15.65 51.65 15.7 51.6 M30.2 51.65 L30.25 51.65 30.3 51.6 30.2 51.65 M32.4 47.35 L32.05 48.15 32.05 61.05 32.4 61.75 Q32.75 62.1 33.25 62.1 33.7 62.1 34.05 61.75 L34.1 61.75 34.4 61.0 34.4 48.1 Q34.4 47.7 34.05 47.35 L34.1 47.35 33.25 47.05 Q32.75 47.05 32.4 47.35 M28.8 48.2 Q28.8 46.65 30.15 45.55 31.4 44.5 33.15 44.5 34.9 44.5 36.2 45.55 37.45 46.65 37.45 48.2 37.45 49.65 36.2 50.8 35.8 51.25 36.2 51.7 L36.2 51.75 Q37.45 52.85 37.45 54.35 37.45 55.8 36.2 56.95 35.7 57.55 36.2 58.05 37.45 59.1 37.45 60.65 37.45 62.2 36.2 63.25 34.9 64.35 33.15 64.35 31.4 64.35 30.15 63.25 28.8 62.2 28.8 60.65 28.8 59.15 30.05 58.1 L30.15 57.95 30.15 58.0 Q30.6 57.45 30.15 57.0 L30.1 56.95 30.15 56.95 Q28.8 55.85 28.8 54.35 28.8 52.8 30.15 51.7 30.45 51.2 30.15 50.85 L30.1 50.8 30.15 50.8 Q28.8 49.7 28.8 48.2 M32.25 24.75 Q31.9 25.15 31.85 25.65 L31.85 38.65 Q31.9 39.15 32.25 39.5 32.65 39.85 33.25 39.85 33.8 39.85 34.2 39.5 34.6 39.1 34.6 38.6 L34.6 25.7 Q34.6 25.15 34.2 24.75 33.8 24.4 33.25 24.4 32.65 24.4 32.25 24.75 M19.55 47.35 Q19.15 47.05 18.65 47.05 18.15 47.05 17.85 47.35 17.5 47.65 17.5 48.1 L17.5 61.05 Q17.5 61.45 17.85 61.75 18.2 62.1 18.65 62.1 L19.5 61.75 19.55 61.75 19.85 61.0 19.85 48.1 19.5 47.35 19.55 47.35 M15.55 45.55 Q16.8 44.5 18.55 44.5 20.3 44.5 21.6 45.55 22.85 46.65 22.85 48.2 22.85 49.65 21.6 50.8 21.25 51.25 21.6 51.7 L21.6 51.75 Q22.85 52.85 22.85 54.35 22.85 55.8 21.6 56.95 21.1 57.55 21.6 58.05 22.85 59.1 22.85 60.65 22.85 62.2 21.6 63.25 20.3 64.35 18.55 64.35 16.8 64.35 15.55 63.25 14.25 62.2 14.25 60.65 14.25 59.15 15.45 58.1 L15.55 57.95 15.55 58.0 Q16.0 57.45 15.55 57.0 L15.5 56.95 15.55 56.95 Q14.25 55.85 14.25 54.35 14.25 52.8 15.55 51.7 15.85 51.2 15.55 50.85 L15.5 50.8 15.55 50.8 Q14.25 49.7 14.25 48.2 14.25 46.65 15.55 45.55 M4.35 44.5 L4.4 44.5 Q6.05 44.5 7.4 45.55 8.65 46.65 8.65 48.2 8.65 49.65 7.4 50.8 7.0 51.25 7.4 51.7 L7.4 51.75 Q8.65 52.85 8.65 54.35 8.65 55.8 7.4 56.95 L7.1 57.55 Q7.1 57.8 7.4 58.05 8.65 59.1 8.65 60.65 8.65 62.2 7.4 63.25 6.05 64.35 4.35 64.35 2.6 64.35 1.3 63.25 0.0 62.2 0.0 60.65 0.0 59.1 1.3 58.05 L1.25 58.05 1.35 57.95 1.35 58.0 Q1.75 57.45 1.4 57.0 L1.35 57.0 1.3 56.95 0.7 56.3 Q0.0 55.4 0.0 54.35 0.0 52.8 1.3 51.7 L1.35 51.65 1.4 50.85 1.35 50.85 1.3 50.8 Q0.0 49.7 0.0 48.2 0.0 46.65 1.3 45.55 2.6 44.5 4.35 44.5 M3.6 47.35 L3.55 47.4 3.25 48.15 3.25 61.05 3.6 61.75 Q3.95 62.1 4.45 62.1 L5.25 61.75 5.3 61.75 5.6 61.0 5.6 48.1 Q5.6 47.7 5.25 47.35 L5.3 47.35 Q4.95 47.05 4.45 47.05 3.95 47.05 3.6 47.35 M5.6 25.7 Q5.6 25.25 5.25 24.9 L5.3 24.9 Q4.95 24.6 4.45 24.6 3.95 24.6 3.6 24.9 3.3 25.25 3.25 25.7 L3.25 38.65 3.6 39.35 4.45 39.65 5.3 39.35 5.25 39.35 5.6 38.6 5.6 25.7 M19.5 24.9 L19.55 24.9 Q19.15 24.6 18.65 24.6 18.15 24.6 17.85 24.9 17.5 25.25 17.5 25.65 L17.5 38.65 Q17.5 39.05 17.85 39.35 18.15 39.65 18.65 39.65 L19.55 39.35 19.5 39.35 19.85 38.6 19.85 25.7 Q19.85 25.25 19.5 24.9 M18.85 22.05 L18.9 22.05 Q20.45 22.15 21.6 23.15 22.85 24.2 22.85 25.75 22.85 27.2 21.6 28.35 21.25 28.85 21.6 29.3 L21.8 29.45 Q22.85 30.45 22.85 31.9 22.85 33.4 21.6 34.5 21.1 35.1 21.6 35.6 22.85 36.7 22.85 38.2 22.85 39.75 21.6 40.85 20.3 41.9 18.55 41.9 16.8 41.9 15.55 40.85 14.25 39.75 14.25 38.2 14.25 36.75 15.45 35.65 15.5 35.55 15.6 35.55 L15.8 35.05 15.6 34.6 15.55 34.6 15.45 34.45 Q14.25 33.4 14.25 31.9 14.25 30.5 15.35 29.5 L15.5 29.3 15.55 29.3 15.6 29.25 Q15.8 28.8 15.6 28.45 L15.45 28.3 Q14.75 27.7 14.5 26.95 14.25 26.4 14.25 25.75 14.25 24.2 15.55 23.15 16.8 22.05 18.55 22.05 L18.85 22.05 M4.35 22.05 Q6.05 22.05 7.4 23.15 8.65 24.2 8.65 25.75 8.65 27.2 7.4 28.35 7.0 28.85 7.35 29.3 L7.6 29.45 Q8.65 30.45 8.65 31.9 8.65 33.4 7.4 34.5 L7.1 35.1 Q7.1 35.35 7.4 35.6 L8.25 36.6 Q8.65 37.35 8.65 38.2 8.65 39.75 7.4 40.85 L5.8 41.75 5.75 41.75 4.35 41.9 Q2.6 41.9 1.3 40.85 0.0 39.75 0.0 38.2 0.0 36.7 1.3 35.6 L1.25 35.6 1.4 35.5 Q1.75 35.0 1.35 34.6 L1.25 34.5 1.3 34.5 Q0.0 33.45 0.0 31.9 0.0 30.5 1.1 29.5 L1.25 29.3 1.4 29.25 Q1.6 28.8 1.4 28.45 L1.25 28.35 1.3 28.35 Q0.0 27.25 0.0 25.75 0.0 24.2 1.3 23.15 2.6 22.05 4.35 22.05" fill="#005e00" fill-rule="evenodd" stroke="none"/>
    </g>
  </defs>
</svg>
