<?xml version="1.0" encoding="UTF-8" standalone="no"?>
<svg xmlns:xlink="http://www.w3.org/1999/xlink" height="39.39px" width="30.18px" xmlns="http://www.w3.org/2000/svg">
  <g transform="matrix(0.6, 0.0, 0.0, 0.6, 0.15, 3.6)">
    <use height="63.3" transform="matrix(1.0, 0.0, 0.0, 1.0, 5.9, -3.9)" width="37.9" xlink:href="#shape0"/>
  </g>
  <defs>
    <g id="shape0" transform="matrix(1.0, 0.0, 0.0, 1.0, 0.0, 0.0)">
      <path d="M5.35 37.85 L5.3 37.85 4.8 37.7 Q4.25 37.7 3.85 38.2 L3.65 38.5 3.45 39.35 3.45 58.15 Q3.45 58.85 3.85 59.35 4.25 59.8 4.8 59.8 L5.8 59.35 6.2 58.2 6.2 43.55 6.25 43.4 6.4 43.35 6.55 43.4 17.65 54.5 17.75 54.65 17.8 54.65 17.85 54.7 Q18.3 55.15 18.95 55.1 19.55 55.0 20.1 54.55 L20.05 54.55 31.05 43.5 31.2 43.45 31.35 43.5 31.4 43.65 31.4 58.15 Q31.4 58.85 31.8 59.35 32.2 59.8 32.8 59.8 L33.75 59.35 Q34.15 58.85 34.15 58.2 L34.15 39.3 34.05 38.6 34.0 38.5 33.75 38.2 32.8 37.7 Q32.2 37.7 31.8 38.2 31.5 38.55 31.45 39.05 L31.4 39.15 19.0 51.55 18.85 51.6 18.7 51.55 6.2 39.05 6.15 38.95 5.95 38.4 5.8 38.15 5.35 37.85 M1.45 36.2 Q2.9 34.6 4.9 34.6 5.9 34.6 6.75 35.0 L7.2 35.2 Q8.15 35.6 8.95 36.45 L8.95 36.4 Q10.55 37.95 10.6 40.2 L10.6 40.25 Q10.8 41.3 11.75 41.45 L11.9 41.45 Q14.1 41.5 15.65 43.1 17.25 44.7 17.3 46.85 L17.35 47.05 Q17.65 47.85 18.35 48.05 L18.45 48.05 19.6 48.2 Q20.35 47.9 20.5 47.15 20.6 44.9 22.2 43.3 23.75 41.75 25.95 41.7 27.15 41.5 27.2 40.45 27.25 39.25 27.75 38.3 L27.75 38.35 Q28.15 37.4 28.9 36.6 L29.4 36.2 29.45 36.15 Q30.9 34.6 32.9 34.6 34.95 34.6 36.4 36.2 37.85 37.75 37.85 39.9 L37.85 39.95 Q37.85 42.1 36.4 43.6 L36.3 43.7 36.2 44.0 Q35.9 44.6 36.3 45.25 L36.4 45.35 36.4 45.4 Q37.85 46.95 37.85 49.05 37.85 51.2 36.4 52.8 L36.3 52.9 Q35.95 53.65 36.3 54.2 L36.4 54.3 Q37.85 55.8 37.85 58.05 37.85 60.15 36.4 61.75 34.95 63.3 32.9 63.3 30.85 63.3 29.4 61.75 27.95 60.15 27.95 58.05 27.95 55.8 29.4 54.3 29.9 53.55 29.4 52.75 L28.45 51.35 28.25 51.5 Q27.05 52.2 25.6 52.25 L25.55 52.25 Q24.65 52.5 24.5 53.2 L24.5 53.25 24.5 53.35 Q24.45 55.55 22.85 57.15 21.3 58.7 19.05 58.8 16.85 58.85 15.35 57.35 L15.35 57.3 15.1 57.05 14.95 56.95 Q13.4 55.35 13.35 53.2 13.15 52.2 12.2 52.0 10.7 52.0 9.5 51.2 L8.45 52.8 8.35 52.9 Q7.95 53.65 8.4 54.25 L8.45 54.3 Q9.9 55.8 9.9 58.05 9.9 60.15 8.45 61.75 7.0 63.3 4.9 63.3 2.9 63.3 1.45 61.75 0.0 60.15 0.0 58.05 0.0 55.8 1.45 54.3 1.9 53.55 1.45 52.75 0.6 51.9 0.25 50.75 L0.25 50.8 Q0.0 50.0 0.0 49.05 0.0 46.95 1.45 45.4 2.1 44.4 1.45 43.6 0.0 42.1 0.0 39.9 0.0 37.75 1.45 36.2 M32.1 4.0 Q31.7 4.45 31.7 5.15 L31.7 19.8 31.65 19.95 31.5 20.0 31.35 19.95 20.4 8.95 20.3 8.85 20.05 8.65 20.0 8.6 20.05 8.6 Q19.6 8.2 19.0 8.2 18.3 8.35 17.8 8.8 L6.8 19.8 6.65 19.85 6.5 19.8 6.45 19.65 6.45 5.2 Q6.45 4.5 6.05 4.0 5.65 3.55 5.1 3.55 4.55 3.55 4.1 4.0 3.7 4.45 3.7 5.15 L3.7 24.05 3.8 24.7 3.9 24.8 3.95 24.9 4.1 25.2 Q4.55 25.65 5.1 25.65 5.65 25.65 6.05 25.2 L6.45 24.3 6.5 24.15 18.85 11.75 19.0 11.7 19.15 11.75 31.7 24.25 31.75 24.4 32.0 25.0 32.1 25.15 32.1 25.2 Q32.55 25.65 33.05 25.65 33.65 25.65 34.05 25.2 L34.25 24.85 34.45 24.0 34.45 5.2 Q34.45 4.5 34.05 4.0 33.65 3.55 33.05 3.55 32.55 3.55 32.1 4.0 M36.45 1.6 Q37.9 3.15 37.9 5.3 37.9 7.4 36.55 9.0 L36.55 8.9 36.45 8.95 36.5 8.9 36.5 8.95 36.5 9.05 36.5 9.1 Q35.95 9.8 36.45 10.55 37.9 12.05 37.9 14.25 37.9 16.4 36.45 18.0 35.75 18.95 36.45 19.75 37.9 21.3 37.9 23.45 37.9 25.6 36.45 27.2 35.0 28.7 32.95 28.7 31.7 28.7 30.7 28.2 L30.75 28.2 Q29.75 27.75 28.9 26.95 27.3 25.35 27.25 23.15 L27.25 23.05 27.25 23.0 Q27.05 22.05 26.2 21.9 L25.9 21.85 Q23.75 21.75 22.2 20.2 21.05 19.1 20.75 17.75 L20.55 16.4 20.55 16.35 Q20.25 15.45 19.55 15.3 L19.45 15.3 18.3 15.15 Q17.45 15.4 17.35 16.25 17.3 18.4 15.65 20.0 14.1 21.55 11.95 21.6 10.7 21.85 10.65 22.9 10.6 24.05 10.15 25.05 L9.0 26.7 8.5 27.15 8.35 27.2 8.3 27.25 8.45 27.2 Q7.0 28.7 4.95 28.7 2.9 28.7 1.45 27.2 0.0 25.6 0.0 23.45 L0.0 23.35 Q0.05 21.3 1.45 19.75 L1.45 19.7 1.55 19.6 1.55 19.65 1.75 19.35 1.75 19.4 Q1.95 18.7 1.55 18.1 L1.45 18.0 Q0.0 16.4 0.0 14.25 0.0 12.05 1.45 10.55 L1.55 10.45 1.55 10.55 Q1.9 9.7 1.55 9.1 L1.45 9.05 Q0.0 7.45 0.0 5.3 0.0 3.15 1.45 1.6 2.9 0.0 4.95 0.0 7.0 0.0 8.45 1.6 9.9 3.15 9.9 5.3 9.9 7.45 8.5 9.0 7.95 9.8 8.45 10.55 L9.45 11.95 9.6 11.9 Q10.8 11.15 12.25 11.1 L12.3 11.1 Q13.2 10.8 13.35 10.1 L13.4 9.95 Q13.4 7.8 15.0 6.2 16.6 4.6 18.8 4.55 21.0 4.5 22.5 6.0 L22.45 6.0 22.8 6.35 22.8 6.3 22.9 6.4 Q24.5 7.95 24.55 10.15 24.75 11.1 25.7 11.3 27.2 11.35 28.4 12.15 28.75 11.25 29.45 10.55 L29.55 10.45 29.55 10.55 Q29.9 9.7 29.55 9.1 L29.45 9.05 Q28.0 7.45 28.0 5.3 28.0 3.15 29.45 1.6 30.9 0.0 32.95 0.0 35.0 0.0 36.45 1.6" fill="#005e00" fill-rule="evenodd" stroke="none"/>
    </g>
  </defs>
</svg>
