<?xml version="1.0" encoding="UTF-8" standalone="no"?>
<svg xmlns:xlink="http://www.w3.org/1999/xlink" height="39.39px" width="30.18px" xmlns="http://www.w3.org/2000/svg">
  <g transform="matrix(0.6, 0.0, 0.0, 0.6, 0.15, 3.6)">
    <use height="64.3" transform="matrix(1.0, 0.0, 0.0, 1.0, 6.4, -4.65)" width="37.45" xlink:href="#shape0"/>
  </g>
  <defs>
    <g id="shape0" transform="matrix(1.0, 0.0, 0.0, 1.0, 0.0, 0.0)">
      <path d="M33.35 2.85 L33.4 2.85 Q33.05 2.55 32.55 2.55 32.05 2.55 31.7 2.85 31.4 3.15 31.35 3.65 L31.35 16.55 31.7 17.25 Q32.05 17.6 32.55 17.6 33.0 17.6 33.35 17.25 L33.4 17.25 33.7 16.5 33.7 3.6 33.35 2.85 M36.75 3.7 L36.7 4.45 Q36.45 5.45 35.5 6.25 35.1 6.75 35.5 7.2 L35.5 7.25 Q36.75 8.35 36.75 9.8 36.75 11.3 35.5 12.45 35.0 13.05 35.5 13.55 36.75 14.6 36.75 16.15 36.75 17.7 35.5 18.75 34.2 19.85 32.45 19.85 30.7 19.85 29.45 18.75 28.1 17.7 28.1 16.15 28.1 14.65 29.35 13.6 L29.45 13.45 29.45 13.5 Q29.9 12.95 29.45 12.5 L29.4 12.45 29.45 12.45 Q28.1 11.35 28.1 9.8 28.1 8.75 28.8 7.85 L29.4 7.25 29.35 7.35 29.4 7.3 29.4 7.25 29.45 7.2 Q29.75 6.7 29.45 6.35 L29.35 6.2 Q28.1 5.15 28.1 3.7 28.1 2.15 29.45 1.05 30.7 0.0 32.45 0.0 34.2 0.0 35.5 1.05 36.75 2.15 36.75 3.7 M32.7 21.9 Q34.4 21.9 35.75 22.95 37.0 24.0 37.0 25.55 37.0 27.05 35.75 28.15 35.35 28.65 35.75 29.1 L35.75 29.15 36.1 29.5 Q37.0 30.5 37.0 31.7 37.0 33.2 35.75 34.35 35.45 34.65 35.45 34.95 35.45 35.2 35.75 35.45 37.0 36.5 37.0 38.05 37.0 39.55 35.75 40.65 34.4 41.75 32.7 41.75 30.95 41.75 29.65 40.65 28.35 39.55 28.35 38.05 28.35 36.5 29.65 35.45 L29.6 35.45 29.7 35.35 29.7 35.4 Q30.1 34.85 29.75 34.4 L29.7 34.4 29.65 34.35 Q28.35 33.25 28.35 31.7 28.35 30.5 29.25 29.5 L29.65 29.1 29.6 29.1 29.75 29.05 Q29.95 28.55 29.7 28.25 L29.6 28.15 29.65 28.15 Q28.35 27.1 28.35 25.55 28.35 24.0 29.65 22.95 30.95 21.9 32.7 21.9 M33.6 24.7 Q33.25 24.4 32.8 24.4 32.3 24.4 31.95 24.7 31.65 25.05 31.6 25.5 L31.6 38.45 31.95 39.15 Q32.3 39.5 32.8 39.5 L33.6 39.15 33.95 38.4 33.95 25.5 33.65 24.7 33.6 24.7 M1.55 22.95 Q2.85 21.9 4.6 21.9 6.3 21.9 7.65 22.95 8.9 24.0 8.9 25.55 8.9 27.05 7.65 28.15 7.25 28.65 7.6 29.1 L7.95 29.4 8.0 29.45 8.05 29.5 Q8.9 30.5 8.9 31.7 8.9 33.2 7.65 34.35 7.35 34.65 7.35 34.95 7.35 35.2 7.65 35.45 8.9 36.5 8.9 38.05 8.9 39.55 7.65 40.65 6.3 41.75 4.6 41.75 L2.45 41.3 2.4 41.3 1.55 40.65 Q0.25 39.55 0.25 38.05 0.25 36.5 1.55 35.45 L1.5 35.45 1.6 35.35 1.6 35.4 Q2.0 34.85 1.65 34.4 L1.6 34.4 1.55 34.35 Q0.25 33.25 0.25 31.7 0.25 30.5 1.15 29.5 L1.55 29.1 1.5 29.1 1.65 29.05 Q1.85 28.55 1.6 28.25 L1.5 28.15 1.55 28.15 Q0.25 27.1 0.25 25.55 0.25 24.0 1.55 22.95 M4.7 24.4 Q4.2 24.4 3.85 24.7 L3.5 25.5 3.5 38.45 3.6 38.75 3.6 38.8 3.85 39.15 Q4.2 39.5 4.7 39.5 5.15 39.5 5.5 39.15 L5.85 38.4 5.85 25.5 5.55 24.7 5.5 24.7 Q5.15 24.4 4.7 24.4 M1.4 7.15 L1.45 7.15 1.5 7.1 1.4 7.15 M5.6 3.6 Q5.6 3.2 5.25 2.85 L5.3 2.85 Q4.95 2.55 4.45 2.55 3.95 2.55 3.6 2.85 3.3 3.15 3.25 3.65 L3.25 16.55 3.6 17.25 Q3.95 17.6 4.45 17.6 L5.25 17.25 5.3 17.25 5.6 16.5 5.6 3.6 M7.4 1.05 Q8.65 2.15 8.65 3.7 8.65 5.15 7.4 6.25 7.0 6.75 7.4 7.2 L7.4 7.25 Q8.65 8.35 8.65 9.8 8.65 11.3 7.4 12.45 6.9 13.05 7.4 13.55 8.65 14.6 8.65 16.15 8.65 17.7 7.4 18.75 6.1 19.85 4.35 19.85 2.6 19.85 1.35 18.75 0.0 17.7 0.0 16.15 0.0 14.65 1.25 13.6 L1.35 13.45 1.35 13.5 Q1.8 12.95 1.35 12.5 L1.3 12.45 1.35 12.45 Q0.0 11.35 0.0 9.8 0.0 8.3 1.35 7.2 1.65 6.7 1.35 6.35 L1.25 6.2 Q0.0 5.15 0.0 3.7 0.0 2.15 1.35 1.05 2.6 0.0 4.35 0.0 6.1 0.0 7.4 1.05 M2.05 45.5 Q3.3 44.45 5.05 44.45 6.8 44.45 8.1 45.5 9.35 46.55 9.35 48.1 9.35 49.6 8.1 50.7 7.7 51.2 8.1 51.65 L8.1 51.7 Q9.35 52.8 9.35 54.25 9.35 55.75 8.1 56.9 7.6 57.5 8.1 58.0 9.35 59.05 9.35 60.6 9.35 62.1 8.1 63.2 6.8 64.3 5.05 64.3 3.3 64.3 2.05 63.2 0.75 62.1 0.75 60.6 0.75 59.1 1.95 58.05 L2.05 57.9 2.05 57.95 Q2.5 57.4 2.05 56.95 L2.0 56.9 2.05 56.9 Q0.75 55.8 0.75 54.25 0.75 52.8 1.95 51.7 L2.05 51.65 2.1 51.6 Q2.3 51.1 2.05 50.8 L1.95 50.65 Q0.75 49.6 0.75 48.1 0.75 46.55 2.05 45.5 M4.35 47.25 Q4.0 47.6 4.0 48.05 L4.0 61.0 Q4.0 61.4 4.35 61.7 4.7 62.05 5.15 62.05 5.65 62.05 6.05 61.7 L6.0 61.7 6.35 60.95 6.35 48.05 6.05 47.25 6.0 47.25 Q5.6 46.95 5.15 46.95 4.65 46.95 4.35 47.25 M32.45 47.25 Q32.1 47.6 32.1 48.05 L32.1 61.0 Q32.1 61.4 32.45 61.7 32.8 62.05 33.25 62.05 L34.15 61.7 34.1 61.7 34.45 60.95 34.45 48.05 34.15 47.25 34.1 47.25 33.25 46.95 Q32.75 46.95 32.45 47.25 M28.85 48.1 Q28.85 46.55 30.15 45.5 31.4 44.45 33.15 44.45 34.9 44.45 36.2 45.5 37.45 46.55 37.45 48.1 37.45 49.6 36.2 50.7 35.8 51.2 36.2 51.65 L36.2 51.7 Q37.45 52.8 37.45 54.25 37.45 55.75 36.2 56.9 35.7 57.5 36.2 58.0 37.45 59.05 37.45 60.6 37.45 62.1 36.2 63.2 34.9 64.3 33.15 64.3 31.4 64.3 30.15 63.2 28.85 62.1 28.85 60.6 28.85 59.1 30.05 58.05 L30.15 57.9 30.15 57.95 Q30.6 57.4 30.15 56.95 L30.1 56.9 30.15 56.9 Q28.85 55.8 28.85 54.25 28.85 52.8 30.05 51.7 L30.15 51.65 30.2 51.6 Q30.4 51.1 30.15 50.8 L30.05 50.65 Q28.85 49.6 28.85 48.1" fill="#005e00" fill-rule="evenodd" stroke="none"/>
      <path d="M21.75 1.05 Q23.0 2.15 23.0 3.7 23.0 5.15 21.75 6.25 21.35 6.75 21.75 7.2 L21.75 7.25 Q23.0 8.35 23.0 9.8 23.0 11.3 21.75 12.45 21.45 12.8 21.5 13.1 L21.5 13.15 21.75 13.55 Q23.0 14.6 23.0 16.15 23.0 17.7 21.75 18.75 20.45 19.85 18.7 19.85 16.95 19.85 15.7 18.75 L15.65 18.75 15.55 18.7 15.55 18.65 Q14.35 17.6 14.35 16.15 14.35 14.65 15.6 13.6 L15.7 13.45 15.7 13.5 Q16.15 12.95 15.7 12.5 L15.65 12.45 15.7 12.45 Q14.35 11.35 14.35 9.8 14.35 8.35 15.65 7.25 L15.6 7.35 15.65 7.3 15.65 7.25 15.7 7.2 Q16.0 6.7 15.7 6.35 L15.6 6.2 Q14.35 5.15 14.35 3.7 14.35 2.15 15.7 1.05 16.95 0.0 18.7 0.0 20.45 0.0 21.75 1.05 M18.8 2.55 Q18.3 2.55 17.95 2.85 17.65 3.15 17.6 3.65 L17.6 16.6 Q17.7 17.0 17.95 17.25 18.3 17.6 18.8 17.6 19.25 17.6 19.6 17.25 L19.65 17.25 19.95 16.5 19.95 3.6 Q19.95 3.2 19.6 2.85 L19.65 2.85 Q19.3 2.55 18.8 2.55 M15.9 22.95 Q17.2 21.9 18.95 21.9 20.65 21.9 22.0 22.95 23.25 24.0 23.25 25.55 23.25 27.05 22.0 28.15 21.6 28.65 22.0 29.1 L22.0 29.15 22.35 29.5 Q23.25 30.5 23.25 31.7 23.25 33.2 22.0 34.35 L21.7 34.95 22.0 35.45 Q23.25 36.5 23.25 38.05 23.25 39.55 22.0 40.65 20.65 41.75 18.95 41.75 17.2 41.75 15.9 40.65 14.6 39.55 14.6 38.05 14.6 36.5 15.9 35.45 L15.85 35.45 15.95 35.35 15.95 35.4 Q16.35 34.85 16.0 34.4 L15.95 34.4 15.9 34.35 Q14.6 33.25 14.6 31.7 14.6 30.5 15.5 29.5 L15.9 29.1 15.85 29.1 16.0 29.05 Q16.2 28.55 15.95 28.25 L15.85 28.15 15.9 28.15 Q14.6 27.1 14.6 25.55 14.6 24.0 15.9 22.95 M19.05 24.2 Q18.45 24.2 18.05 24.55 17.7 24.95 17.65 25.45 L17.65 38.45 Q17.7 38.95 18.05 39.3 18.45 39.7 19.05 39.7 19.6 39.7 20.0 39.3 20.4 38.9 20.4 38.4 L20.4 25.5 Q20.4 25.0 20.0 24.55 19.6 24.2 19.05 24.2 M16.4 45.5 Q17.65 44.45 19.4 44.45 21.15 44.45 22.45 45.5 23.7 46.55 23.7 48.1 23.7 49.6 22.45 50.7 22.05 51.2 22.45 51.65 L22.45 51.7 Q23.7 52.8 23.7 54.25 23.7 55.75 22.45 56.9 21.95 57.5 22.45 58.0 23.7 59.05 23.7 60.6 23.7 62.1 22.45 63.2 21.15 64.3 19.4 64.3 17.65 64.3 16.4 63.2 15.1 62.1 15.1 60.6 15.1 59.1 16.3 58.05 L16.4 57.9 16.4 57.95 Q16.85 57.4 16.4 56.95 L16.35 56.9 16.4 56.9 Q15.1 55.8 15.1 54.25 15.1 52.8 16.3 51.7 L16.4 51.65 16.45 51.6 Q16.65 51.1 16.4 50.8 L16.3 50.65 Q15.1 49.6 15.1 48.1 15.1 46.55 16.4 45.5 M18.7 47.25 Q18.35 47.6 18.35 48.05 L18.35 61.0 Q18.35 61.4 18.7 61.7 19.05 62.05 19.5 62.05 L20.3 61.7 20.35 61.7 20.7 60.95 20.7 48.05 Q20.7 47.65 20.3 47.25 L20.35 47.25 Q20.0 46.95 19.5 46.95 19.0 46.95 18.7 47.25" fill="#b20000" fill-rule="evenodd" stroke="none"/>
    </g>
  </defs>
</svg>
