<?xml version="1.0" encoding="UTF-8" standalone="no"?>
<svg xmlns:xlink="http://www.w3.org/1999/xlink" height="39.39px" width="30.18px" xmlns="http://www.w3.org/2000/svg">
  <g transform="matrix(0.6, 0.0, 0.0, 0.6, 0.15, 3.6)">
    <use height="55.85" transform="matrix(1.0, 0.0, 0.0, 1.0, 2.8, 0.75)" width="46.1" xlink:href="#shape0"/>
  </g>
  <defs>
    <g id="shape0" transform="matrix(1.0, 0.0, 0.0, 1.0, 0.0, 0.0)">
      <path d="M36.6 39.6 L36.75 39.6 36.95 39.8 39.35 41.45 39.65 41.8 Q42.75 44.55 46.1 45.35 L43.95 45.75 43.0 46.0 42.7 46.2 42.5 46.2 42.15 46.25 39.7 47.6 39.65 47.65 Q38.45 48.45 37.45 49.6 L37.2 49.85 37.0 50.3 36.75 50.55 36.65 50.75 34.55 53.15 34.35 53.2 31.95 55.35 30.7 55.85 30.35 55.85 Q29.85 54.15 28.8 52.4 26.85 48.85 24.7 47.95 L25.0 48.0 25.25 48.0 Q26.85 48.7 29.05 51.1 L31.45 53.55 Q35.0 51.75 36.4 49.15 L36.95 48.35 Q37.85 47.4 39.65 46.5 L40.25 46.2 43.2 45.1 Q41.8 45.1 39.65 43.3 L39.15 42.7 36.95 40.7 35.65 39.8 Q34.0 39.3 24.2 40.95 L25.0 40.25 32.95 39.15 33.0 39.15 34.2 39.1 35.6 39.15 36.1 39.3 Q36.35 39.3 36.6 39.6 M25.25 44.2 L25.25 44.15 26.45 43.9 27.35 43.65 Q27.55 43.4 27.35 43.1 27.35 42.4 27.55 42.4 L29.75 42.6 Q31.1 43.1 31.95 44.05 33.7 46.3 32.15 46.95 31.2 47.6 29.05 47.35 L28.65 46.7 Q30.6 46.2 31.35 45.5 32.45 45.0 28.7 43.4 L20.9 46.95 19.4 46.45 19.5 45.35 20.4 45.25 21.5 45.0 22.35 45.85 25.25 44.2 M21.65 44.6 L21.6 44.05 21.6 43.1 22.35 42.3 22.35 45.5 21.65 44.95 21.65 44.6 M19.25 53.0 L17.1 52.7 Q15.1 52.05 14.4 50.6 13.05 48.5 11.85 45.45 L12.6 44.05 14.25 47.65 Q16.55 51.75 19.25 53.0 M1.95 42.3 L5.05 42.2 6.3 41.95 19.9 40.7 21.5 41.2 7.55 44.05 0.65 42.25 1.95 42.3 M21.6 40.55 L21.6 39.6 22.35 39.1 22.35 41.15 21.6 40.55 M16.8 38.15 L16.55 37.85 16.2 37.4 Q15.65 36.15 15.65 34.7 15.65 33.5 14.1 31.35 L13.0 29.85 Q15.65 31.4 16.1 33.6 16.7 36.65 17.05 37.4 18.05 39.3 19.65 39.8 L18.75 39.6 Q17.45 39.3 16.8 38.15 M15.65 29.85 L16.2 29.85 Q18.95 29.65 24.55 28.0 L28.8 27.1 Q31.35 26.85 32.45 27.8 L33.85 29.25 Q35.6 30.6 36.75 30.95 36.0 30.95 35.15 31.35 33.7 32.15 33.0 33.6 32.6 34.85 32.15 37.15 31.45 39.0 29.05 38.6 L28.1 38.6 Q29.5 37.8 30.35 37.8 31.5 37.8 32.15 33.5 32.6 32.1 34.65 30.95 33.65 30.95 32.95 29.5 32.15 28.15 30.35 27.8 27.0 27.5 18.05 30.6 L15.65 29.85 M27.1 21.5 Q27.75 21.05 28.4 19.7 L29.15 17.5 29.3 17.0 29.35 16.3 29.45 15.1 29.5 13.85 29.75 13.85 Q29.85 14.25 30.6 14.85 L30.75 15.1 31.05 15.55 31.75 16.95 30.5 16.2 29.15 20.6 27.1 21.5 M18.05 25.65 Q17.3 24.8 16.9 23.7 L16.9 23.85 16.7 23.25 Q16.1 21.45 17.25 18.8 L17.85 17.5 17.85 17.3 18.95 15.1 19.5 14.35 Q19.75 14.15 19.9 14.35 L20.1 15.1 20.2 15.4 19.05 16.9 19.0 17.15 18.15 18.6 Q16.95 21.0 17.8 23.25 18.1 24.65 19.05 25.25 L18.05 25.65 M21.6 31.3 L22.6 29.85 22.35 34.25 21.65 33.5 21.6 31.3 M21.65 35.6 L22.4 34.85 22.4 38.6 21.6 37.6 21.6 37.55 21.65 35.6" fill="#490000" fill-rule="evenodd" stroke="none"/>
      <path d="M43.95 45.75 L43.05 46.0 42.7 46.2 43.0 46.0 43.95 45.75 M39.65 47.65 L37.55 49.6 37.25 49.85 37.0 50.3 37.2 49.85 37.45 49.6 Q38.45 48.45 39.65 47.65 M25.25 48.0 L27.1 48.7 31.5 50.55 Q32.8 49.85 33.7 48.5 35.9 46.3 35.9 44.4 35.9 43.1 35.15 42.2 34.2 41.4 33.0 41.4 29.05 41.4 24.95 42.3 L24.55 44.2 25.25 44.2 22.35 45.85 21.5 45.0 21.65 44.6 21.65 44.95 22.35 45.5 22.35 42.3 21.6 43.1 15.0 44.8 16.65 47.45 19.25 53.0 Q16.55 51.75 14.25 47.65 L12.6 44.05 11.85 45.45 Q7.5 46.05 3.2 44.15 L0.0 41.95 1.75 42.2 1.95 42.3 0.65 42.25 7.55 44.05 21.5 41.2 19.9 40.7 21.6 40.55 22.35 41.15 22.35 39.1 21.6 39.6 18.75 39.8 Q17.45 39.35 16.8 38.15 17.45 39.3 18.75 39.6 L19.65 39.8 Q18.05 39.3 17.05 37.4 16.7 36.65 16.1 33.6 15.65 31.4 13.0 29.85 L14.1 31.35 12.6 29.8 13.0 29.85 13.95 29.85 15.65 29.85 18.05 30.6 Q27.0 27.5 30.35 27.8 32.15 28.15 32.95 29.5 33.65 30.95 34.65 30.95 32.6 32.1 32.15 33.5 31.5 37.8 30.35 37.8 29.5 37.8 28.1 38.6 L25.0 39.15 25.0 40.25 24.2 40.95 Q34.0 39.3 35.65 39.8 L36.95 40.7 39.15 42.7 39.65 43.3 Q41.8 45.1 43.2 45.1 L40.25 46.2 39.65 46.5 Q37.85 47.4 36.95 48.35 L36.4 49.15 Q35.0 51.75 31.45 53.55 L29.05 51.1 Q26.85 48.7 25.25 48.0 M28.65 46.7 L28.65 46.05 Q29.85 45.85 28.7 45.0 28.1 44.4 22.9 47.05 L21.35 48.0 20.05 48.4 Q18.3 47.9 18.05 46.2 18.05 45.5 19.45 45.35 L19.5 45.35 19.4 46.45 20.9 46.95 28.7 43.4 Q32.45 45.0 31.35 45.5 30.6 46.2 28.65 46.7 M35.6 39.15 L36.35 39.3 36.6 39.6 Q36.35 39.3 36.1 39.3 L35.6 39.15 M31.75 16.95 L31.95 17.7 Q32.45 19.3 33.75 20.5 L34.65 21.5 Q32.6 21.2 31.35 22.2 L29.95 22.85 29.5 23.25 30.75 23.25 Q36.0 22.95 35.6 24.4 L35.15 25.25 Q33.75 26.55 30.85 26.25 L29.95 26.25 Q28.1 26.0 25.25 27.05 21.85 28.25 19.4 28.25 L16.1 27.75 Q14.45 27.3 14.7 26.75 15.1 26.0 18.05 25.65 L19.05 25.25 Q18.1 24.65 17.8 23.25 16.95 21.0 18.15 18.6 L19.0 17.15 19.05 16.9 20.2 15.4 20.4 16.5 20.25 18.3 20.15 18.95 Q20.05 20.8 20.65 21.7 L21.5 22.3 23.6 22.5 Q25.65 22.45 26.7 21.8 L26.75 21.7 26.85 21.7 Q26.9 21.5 27.1 21.5 L29.15 20.6 30.5 16.2 31.75 16.95 M22.6 23.4 Q21.6 23.85 21.5 24.25 21.5 24.8 21.85 25.1 L26.4 23.9 26.75 23.25 24.3 23.25 22.6 23.4 M21.6 31.3 L21.6 31.05 Q19.9 31.85 17.55 31.85 17.3 31.85 17.5 32.55 L18.05 33.6 18.95 33.6 20.05 33.6 21.65 33.5 22.35 34.25 22.6 29.85 21.6 31.3 M21.65 35.6 L20.95 35.7 18.5 35.6 Q18.95 37.8 19.25 37.8 L21.6 37.55 21.6 37.6 22.4 38.6 22.4 34.85 21.65 35.6 M25.25 34.3 L25.25 36.85 25.95 36.7 Q26.45 36.65 27.55 35.95 28.1 35.75 28.8 35.95 L29.05 36.1 Q29.4 36.15 29.4 35.95 L30.15 33.5 29.85 33.5 Q29.05 33.2 25.25 34.3 M30.85 30.55 L30.75 30.4 Q29.95 28.75 25.55 29.85 L25.45 32.1 Q27.35 31.05 28.3 31.35 29.5 31.85 30.35 32.95 31.0 30.95 30.85 30.55" fill="#b20000" fill-rule="evenodd" stroke="none"/>
      <path d="M8.55 6.7 Q6.75 5.6 5.9 2.95 12.85 3.4 21.95 1.55 L27.55 0.55 32.35 0.1 33.9 0.0 Q36.7 0.4 39.05 2.45 L39.45 2.8 40.15 3.55 Q42.3 5.85 41.0 6.95 L36.95 6.7 37.7 6.25 37.95 5.4 37.95 4.1 Q37.85 3.3 37.35 2.75 L37.15 2.5 34.6 2.0 32.55 1.9 32.45 1.9 30.4 2.0 21.4 3.2 20.9 3.25 12.65 4.6 10.25 4.65 8.55 6.7" fill="#0b173c" fill-rule="evenodd" stroke="none"/>
      <path d="M8.55 6.7 L10.25 4.65 12.65 4.6 20.9 3.25 21.4 3.2 30.4 2.0 32.45 1.9 32.55 1.9 34.6 2.0 37.15 2.5 37.35 2.75 Q37.85 3.3 37.95 4.1 L37.95 5.4 37.7 6.25 36.95 6.7 34.75 5.95 33.05 5.5 27.35 5.1 24.0 5.25 13.7 7.1 Q10.55 7.85 8.55 6.7" fill="#173384" fill-rule="evenodd" stroke="none"/>
    </g>
  </defs>
</svg>
