<?xml version="1.0" encoding="UTF-8" standalone="no"?>
<svg xmlns:xlink="http://www.w3.org/1999/xlink" height="39.39px" width="30.18px" xmlns="http://www.w3.org/2000/svg">
  <g transform="matrix(0.6, 0.0, 0.0, 0.6, 0.15, 3.6)">
    <use height="60.4" transform="matrix(1.0, 0.0, 0.0, 1.0, 0.0, -3.75)" width="46.1" xlink:href="#shape0"/>
  </g>
  <defs>
    <g id="shape0" transform="matrix(1.0, 0.0, 0.0, 1.0, 0.0, 0.0)">
      <path d="M7.4 14.3 Q6.45 13.2 5.9 11.45 12.85 11.9 21.95 10.1 27.5 8.8 33.85 8.5 36.9 8.95 39.45 11.35 42.4 14.2 40.95 15.45 L37.05 15.25 37.95 14.55 37.95 12.25 34.85 11.35 32.75 11.15 22.95 11.35 20.15 11.75 17.45 12.25 12.25 13.5 8.3 14.35 7.4 14.3 M15.9 5.4 L14.95 4.15 Q15.05 3.1 16.5 3.2 20.35 3.05 23.65 0.65 25.75 -0.4 27.85 0.25 30.1 1.3 31.45 3.5 32.55 4.55 30.95 4.6 L29.55 4.4 29.55 4.25 Q29.55 3.25 28.95 3.1 L27.2 3.1 Q24.3 3.1 20.35 4.25 L15.9 5.4" fill="#0b173c" fill-rule="evenodd" stroke="none"/>
      <path d="M7.4 14.3 L8.3 14.35 12.25 13.5 17.45 12.25 20.15 11.75 22.95 11.35 32.75 11.15 34.85 11.35 37.95 12.25 37.95 14.55 37.05 15.25 34.7 14.45 Q31.4 13.3 23.95 13.75 L13.65 15.65 13.55 15.7 Q11.15 16.25 9.5 15.65 8.25 15.25 7.4 14.3 M15.9 5.4 L20.35 4.25 Q24.3 3.1 27.2 3.1 L28.95 3.1 Q29.55 3.25 29.55 4.25 L29.55 4.4 27.25 4.1 Q24.05 4.55 22.0 5.7 L21.65 5.9 16.3 5.7 15.9 5.4" fill="#173384" fill-rule="evenodd" stroke="none"/>
      <path d="M27.1 26.05 Q27.75 25.6 28.4 24.25 L29.15 22.05 29.3 21.55 29.4 20.5 29.45 19.7 29.5 18.8 29.5 18.4 29.75 18.4 29.95 18.75 30.55 19.35 30.6 19.4 31.05 20.15 31.75 21.5 30.5 20.75 29.15 25.15 27.1 26.05 M18.05 30.2 Q17.3 29.35 16.9 28.25 L16.9 28.4 16.7 27.8 Q16.1 26.1 17.15 23.6 L17.2 23.4 17.85 22.05 17.85 21.85 19.0 19.65 Q19.65 18.5 19.9 18.9 L20.1 19.55 20.2 19.95 19.05 21.45 19.0 21.7 18.15 23.2 18.1 23.3 Q17.0 25.65 17.8 27.8 18.1 29.2 19.05 29.8 L18.05 30.2 M14.1 35.9 L13.0 34.4 Q15.65 35.95 16.1 38.15 16.7 41.2 17.05 41.95 18.05 43.85 19.65 44.35 L18.75 44.15 Q17.45 43.85 16.8 42.7 L16.55 42.4 16.2 41.95 Q15.65 40.7 15.65 39.25 15.65 38.05 14.1 35.9 M15.65 34.4 L16.2 34.4 Q18.7 34.2 23.55 32.85 L24.55 32.55 28.8 31.65 Q31.35 31.4 32.45 32.35 L33.85 33.8 Q35.6 35.15 36.75 35.5 36.0 35.5 35.15 35.9 33.7 36.7 33.0 38.15 32.6 39.4 32.15 41.7 31.45 43.55 29.05 43.15 L28.1 43.15 Q29.5 42.35 30.35 42.35 31.5 42.35 32.15 38.05 32.6 36.65 34.65 35.5 33.65 35.5 32.95 34.05 L31.75 32.85 30.35 32.35 25.85 32.85 Q22.7 33.55 18.05 35.15 L15.65 34.4 M25.0 44.8 L32.95 43.7 33.0 43.7 34.2 43.65 35.6 43.7 36.1 43.85 Q36.35 43.85 36.6 44.15 L36.75 44.15 36.95 44.35 39.35 46.0 39.65 46.35 Q42.75 49.1 46.1 49.9 L43.95 50.3 43.0 50.55 42.7 50.75 42.5 50.75 42.15 50.8 39.7 52.15 39.65 52.2 Q38.45 53.0 37.45 54.15 L37.2 54.4 37.0 54.85 36.75 55.1 36.65 55.3 34.55 57.7 34.35 57.75 31.95 59.9 30.7 60.4 30.35 60.4 Q29.85 58.7 28.8 56.95 26.85 53.4 24.7 52.5 L25.0 52.55 25.25 52.55 Q26.85 53.25 29.05 55.65 L31.45 58.1 Q35.0 56.3 36.4 53.7 L36.95 52.9 Q37.85 51.95 39.65 51.05 L40.25 50.75 43.2 49.65 Q41.8 49.65 39.65 47.85 L39.15 47.25 36.95 45.25 35.65 44.35 Q34.0 43.85 24.2 45.5 L25.0 44.8 M25.25 48.75 L25.25 48.7 26.45 48.45 27.35 48.2 Q27.55 47.95 27.35 47.65 27.35 46.95 27.55 46.95 L29.75 47.15 Q31.1 47.65 31.95 48.6 33.7 50.85 32.15 51.5 31.2 52.15 29.05 51.9 L28.65 51.25 Q30.6 50.75 31.35 50.05 32.45 49.55 28.7 47.95 L20.9 51.5 19.4 51.0 19.5 49.9 20.4 49.8 21.5 49.55 22.35 50.4 25.25 48.75 M21.65 49.15 L21.6 48.6 21.6 47.65 22.35 46.85 22.35 50.05 21.65 49.5 21.65 49.15 M19.25 57.55 L17.1 57.25 Q15.1 56.6 14.4 55.15 13.05 53.05 11.85 50.0 L12.6 48.6 14.25 52.2 Q16.55 56.3 19.25 57.55 M1.95 46.85 L5.05 46.75 6.3 46.5 19.9 45.25 21.5 45.75 7.55 48.6 0.65 46.8 1.95 46.85 M21.6 45.1 L21.6 44.15 22.35 43.65 22.35 45.7 21.6 45.1 M21.6 35.85 L22.6 34.4 22.35 38.8 21.65 38.05 21.6 35.85 M21.65 40.15 L22.4 39.4 22.4 43.15 21.6 42.15 21.6 42.1 21.65 40.15" fill="#490000" fill-rule="evenodd" stroke="none"/>
      <path d="M31.75 21.5 L31.95 22.25 Q32.45 23.85 33.75 25.05 L34.65 26.05 Q32.6 25.75 31.35 26.75 L29.95 27.4 29.5 27.8 30.75 27.8 Q36.0 27.5 35.6 28.95 L35.15 29.8 Q33.75 31.1 30.85 30.8 L29.95 30.8 Q28.1 30.55 25.25 31.6 L24.75 31.8 Q21.65 32.8 19.4 32.8 L16.85 32.5 16.1 32.3 Q14.45 31.85 14.7 31.3 15.1 30.55 18.05 30.2 L19.05 29.8 Q18.1 29.2 17.8 27.8 17.0 25.65 18.1 23.3 L18.15 23.2 19.0 21.7 19.05 21.45 20.2 19.95 20.4 21.05 20.3 22.6 20.3 22.65 20.15 23.5 Q20.05 25.35 20.65 26.25 L21.5 26.85 23.6 27.05 Q25.65 27.0 26.7 26.35 L26.75 26.25 26.85 26.25 Q26.9 26.05 27.1 26.05 L29.15 25.15 30.5 20.75 31.75 21.5 M13.0 34.4 L14.1 35.9 12.6 34.35 13.0 34.4 13.95 34.4 15.65 34.4 18.05 35.15 Q22.7 33.55 25.85 32.85 L30.35 32.35 31.75 32.85 32.95 34.05 Q33.65 35.5 34.65 35.5 32.6 36.65 32.15 38.05 31.5 42.35 30.35 42.35 29.5 42.35 28.1 43.15 L25.0 43.7 25.0 44.8 24.2 45.5 Q34.0 43.85 35.65 44.35 L36.95 45.25 39.15 47.25 39.65 47.85 Q41.8 49.65 43.2 49.65 L40.25 50.75 39.65 51.05 Q37.85 51.95 36.95 52.9 L36.4 53.7 Q35.0 56.3 31.45 58.1 L29.05 55.65 Q26.85 53.25 25.25 52.55 L27.1 53.25 31.5 55.1 Q32.8 54.4 33.7 53.05 35.9 50.85 35.9 48.95 35.9 47.65 35.15 46.75 34.2 45.95 33.0 45.95 29.05 45.95 24.95 46.85 L24.55 48.75 25.25 48.75 22.35 50.4 21.5 49.55 21.65 49.15 21.65 49.5 22.35 50.05 22.35 46.85 21.6 47.65 15.0 49.35 16.65 52.0 19.25 57.55 Q16.55 56.3 14.25 52.2 L12.6 48.6 11.85 50.0 Q7.5 50.6 3.2 48.7 L0.0 46.5 1.75 46.75 1.95 46.85 0.65 46.8 7.55 48.6 21.5 45.75 19.9 45.25 21.6 45.1 22.35 45.7 22.35 43.65 21.6 44.15 18.75 44.35 Q17.45 43.9 16.8 42.7 17.45 43.85 18.75 44.15 L19.65 44.35 Q18.05 43.85 17.05 41.95 16.7 41.2 16.1 38.15 15.65 35.95 13.0 34.4 M35.6 43.7 L36.35 43.85 36.6 44.15 Q36.35 43.85 36.1 43.85 L35.6 43.7 M43.95 50.3 L43.05 50.55 42.7 50.75 43.0 50.55 43.95 50.3 M39.65 52.2 L37.55 54.15 37.25 54.4 37.0 54.85 37.2 54.4 37.45 54.15 Q38.45 53.0 39.65 52.2 M28.65 51.25 L28.65 50.6 Q29.85 50.4 28.7 49.55 28.1 48.95 22.9 51.6 L21.35 52.55 20.05 52.95 Q18.3 52.45 18.05 50.75 18.05 50.05 19.45 49.9 L19.5 49.9 19.4 51.0 20.9 51.5 28.7 47.95 Q32.45 49.55 31.35 50.05 30.6 50.75 28.65 51.25 M21.6 35.85 L21.6 35.6 Q19.9 36.4 17.55 36.4 17.3 36.4 17.5 37.1 L18.05 38.15 18.95 38.15 20.05 38.15 21.65 38.05 22.35 38.8 22.6 34.4 21.6 35.85 M21.65 40.15 L20.95 40.25 18.5 40.15 Q18.95 42.35 19.25 42.35 L21.6 42.1 21.6 42.15 22.4 43.15 22.4 39.4 21.65 40.15 M30.15 38.05 L29.85 38.05 Q29.05 37.75 25.25 38.85 L25.25 41.4 25.95 41.25 Q26.45 41.2 27.55 40.5 28.1 40.3 28.8 40.5 L29.05 40.65 Q29.4 40.7 29.4 40.5 L30.15 38.05 M26.4 28.45 L26.75 27.8 24.3 27.8 22.6 27.95 Q21.6 28.4 21.5 28.8 21.5 29.35 21.85 29.65 L26.4 28.45 M30.85 35.1 L30.75 34.95 Q29.95 33.3 25.55 34.4 L25.45 36.65 Q27.35 35.6 28.3 35.9 29.5 36.4 30.35 37.5 31.0 35.5 30.85 35.1" fill="#b20000" fill-rule="evenodd" stroke="none"/>
    </g>
  </defs>
</svg>
