<?xml version="1.0" encoding="UTF-8" standalone="no"?>
<svg xmlns:xlink="http://www.w3.org/1999/xlink" height="39.39px" width="30.18px" xmlns="http://www.w3.org/2000/svg">
  <g transform="matrix(0.6, 0.0, 0.0, 0.6, 0.15, 3.6)">
    <use height="60.85" transform="matrix(1.0, 0.0, 0.0, 1.0, 0.0, -4.05)" width="46.1" xlink:href="#shape0"/>
  </g>
  <defs>
    <g id="shape0" transform="matrix(1.0, 0.0, 0.0, 1.0, 0.0, 0.0)">
      <path d="M6.65 14.4 L6.6 14.3 6.5 14.1 7.45 14.15 13.85 14.0 22.55 12.9 Q28.15 11.8 34.45 11.6 37.5 11.95 40.05 14.0 42.55 16.0 42.0 17.05 L41.6 17.45 40.6 17.65 36.35 16.95 Q37.9 16.45 38.15 15.45 L38.15 14.35 35.85 13.9 31.2 13.45 27.2 13.6 24.05 13.75 Q21.7 13.75 18.95 14.7 16.25 15.65 12.6 15.65 L12.1 15.65 10.6 15.7 8.05 15.15 6.65 14.4 M31.9 3.9 L32.05 3.65 30.1 2.7 Q29.1 2.25 27.95 2.25 L27.45 2.35 25.2 2.95 22.6 3.7 17.4 5.05 Q16.25 4.55 15.6 3.5 15.7 2.65 17.2 2.75 19.95 2.65 22.35 1.6 L24.3 0.55 Q26.4 -0.35 28.5 0.2 L29.6 0.75 Q31.1 1.6 32.1 2.95 33.1 3.75 31.9 3.9 M17.4 10.0 L17.05 9.5 Q17.1 9.1 17.45 8.95 L18.05 8.85 18.3 8.85 19.65 8.7 21.75 8.15 24.05 6.95 24.05 6.9 Q25.7 6.1 27.35 6.65 L27.95 6.95 Q28.2 7.05 28.45 7.25 L30.2 8.85 29.85 8.7 27.75 8.65 27.65 8.55 27.6 8.6 26.3 8.55 23.15 8.95 Q22.35 9.15 21.25 9.7 L19.45 10.15 18.05 10.15 17.7 10.1 17.4 10.0" fill="#0b173c" fill-rule="evenodd" stroke="none"/>
      <path d="M6.65 14.4 L8.05 15.15 10.6 15.7 12.1 15.65 12.6 15.65 Q16.25 15.65 18.95 14.7 21.7 13.75 24.05 13.75 L27.2 13.6 31.2 13.45 35.85 13.9 38.15 14.35 38.15 15.45 Q37.9 16.45 36.35 16.95 L35.35 16.65 24.6 16.05 14.3 17.65 Q11.9 18.15 10.15 17.65 7.7 17.0 6.65 14.4 M17.4 5.05 L22.6 3.7 25.2 2.95 27.45 2.35 27.95 2.25 Q29.1 2.25 30.1 2.7 L32.05 3.65 31.9 3.9 31.6 3.9 27.9 3.5 26.6 3.7 25.45 3.9 Q23.6 4.35 22.3 5.05 19.25 5.85 17.4 5.05 M17.4 10.0 L17.7 10.1 18.05 10.15 19.45 10.15 21.25 9.7 Q22.35 9.15 23.15 8.95 L26.3 8.55 27.6 8.6 27.65 8.55 27.75 8.65 29.85 8.7 30.2 8.85 30.3 9.0 30.55 9.25 Q30.95 9.8 29.85 9.8 L26.9 9.45 Q24.1 9.85 22.4 10.8 19.3 11.7 17.75 10.4 L17.4 10.0" fill="#173384" fill-rule="evenodd" stroke="none"/>
      <path d="M20.2 20.4 L20.4 21.5 20.4 22.2 20.15 23.95 20.15 24.55 Q20.15 25.95 20.65 26.7 L21.5 27.3 23.6 27.5 Q25.65 27.45 26.7 26.8 L26.75 26.7 26.85 26.7 Q26.9 26.5 27.1 26.5 L29.15 25.6 30.0 23.1 30.5 21.2 31.75 21.95 31.95 22.7 32.0 22.8 Q32.5 24.35 33.75 25.5 L34.65 26.5 Q32.6 26.2 31.35 27.2 L29.95 27.85 29.5 28.25 30.75 28.25 Q36.0 27.95 35.6 29.4 L35.15 30.25 Q33.75 31.55 30.85 31.25 L29.95 31.25 Q28.1 31.0 25.25 32.05 21.85 33.25 19.4 33.25 L16.1 32.75 Q14.45 32.3 14.7 31.75 15.1 31.0 18.05 30.65 L19.05 30.25 Q18.1 29.65 17.8 28.25 17.2 26.65 17.65 24.95 17.95 23.7 18.85 22.4 L19.0 22.15 19.05 21.9 20.2 20.4 M13.0 34.85 L14.1 36.35 12.6 34.8 13.0 34.85 13.95 34.85 15.65 34.85 18.05 35.6 Q22.7 34.0 25.85 33.3 L30.35 32.8 31.75 33.3 32.95 34.5 Q33.65 35.95 34.65 35.95 32.6 37.1 32.15 38.5 31.5 42.8 30.35 42.8 29.5 42.8 28.1 43.6 L25.0 44.15 25.0 45.25 24.2 45.95 Q34.0 44.3 35.65 44.8 L36.95 45.7 39.15 47.7 39.65 48.3 Q41.8 50.1 43.2 50.1 L40.25 51.2 39.65 51.5 Q37.85 52.4 36.95 53.35 L36.4 54.15 Q35.0 56.75 31.45 58.55 L29.05 56.1 Q26.85 53.7 25.25 53.0 L27.1 53.7 31.5 55.55 Q32.8 54.85 33.7 53.5 35.9 51.3 35.9 49.4 35.9 48.1 35.15 47.2 34.2 46.4 33.0 46.4 29.05 46.4 24.95 47.3 L24.55 49.2 25.25 49.2 22.35 50.85 21.5 50.0 21.65 49.6 21.65 49.95 22.35 50.5 22.35 47.3 21.6 48.1 15.0 49.8 16.65 52.45 19.25 58.0 Q16.55 56.75 14.25 52.65 L12.6 49.05 11.85 50.45 Q7.5 51.05 3.2 49.15 L0.0 46.95 1.75 47.2 1.95 47.3 0.65 47.25 7.55 49.05 21.5 46.2 19.9 45.7 21.6 45.55 22.35 46.15 22.35 44.1 21.6 44.6 18.75 44.8 Q17.45 44.35 16.8 43.15 17.45 44.3 18.75 44.6 L19.65 44.8 Q18.05 44.3 17.05 42.4 16.7 41.65 16.1 38.6 15.65 36.4 13.0 34.85 M35.6 44.15 L36.35 44.3 36.6 44.6 Q36.35 44.3 36.1 44.3 L35.6 44.15 M43.95 50.75 L43.05 51.0 42.7 51.2 43.0 51.0 43.95 50.75 M39.65 52.65 L37.55 54.6 37.25 54.85 37.0 55.3 37.2 54.85 37.45 54.6 Q38.45 53.45 39.65 52.65 M28.65 51.7 L28.65 51.05 Q29.85 50.85 28.7 50.0 28.1 49.4 22.9 52.05 L21.35 53.0 20.05 53.4 Q18.3 52.9 18.05 51.2 18.05 50.5 19.45 50.35 L19.5 50.35 19.4 51.45 20.9 51.95 28.7 48.4 Q32.45 50.0 31.35 50.5 30.6 51.2 28.65 51.7 M21.65 40.6 L20.95 40.7 18.5 40.6 Q18.95 42.8 19.25 42.8 L21.6 42.55 21.6 42.6 22.4 43.6 22.4 39.85 21.65 40.6 M21.6 36.3 L21.6 36.05 Q19.9 36.85 17.55 36.85 17.3 36.85 17.5 37.55 L18.05 38.6 18.95 38.6 20.05 38.6 21.65 38.5 22.35 39.25 22.6 34.85 21.6 36.3 M27.55 40.95 Q28.1 40.75 28.8 40.95 L29.05 41.1 Q29.4 41.15 29.4 40.95 L30.15 38.5 29.85 38.5 Q29.05 38.2 25.25 39.3 L25.25 41.85 25.95 41.7 Q26.45 41.65 27.55 40.95 M26.4 28.9 L26.75 28.25 24.3 28.25 22.6 28.4 Q21.6 28.85 21.5 29.25 21.5 29.8 21.85 30.1 L26.4 28.9 M30.85 35.55 L30.75 35.4 Q29.95 33.75 25.55 34.85 L25.45 37.1 Q27.35 36.05 28.3 36.35 29.5 36.85 30.35 37.95 31.0 35.95 30.85 35.55" fill="#b20000" fill-rule="evenodd" stroke="none"/>
      <path d="M27.1 26.5 Q27.75 26.05 28.4 24.7 L28.95 23.25 29.15 22.5 29.3 22.0 29.45 20.25 29.45 20.15 29.5 18.85 29.75 18.85 Q29.85 19.25 30.6 19.85 L30.65 19.9 30.8 20.15 31.75 21.95 30.5 21.2 30.0 23.1 29.15 25.6 27.1 26.5 M18.05 30.65 Q17.3 29.8 16.9 28.7 L16.9 28.85 16.7 28.25 Q16.25 26.9 16.8 25.05 17.1 23.9 17.85 22.55 L17.85 22.5 17.85 22.3 Q18.65 20.6 19.15 19.85 19.7 19.0 19.9 19.35 L20.05 19.85 20.2 20.4 19.05 21.9 19.0 22.15 18.85 22.4 Q17.95 23.7 17.65 24.95 17.2 26.65 17.8 28.25 18.1 29.65 19.05 30.25 L18.05 30.65 M14.1 36.35 L13.0 34.85 Q15.65 36.4 16.1 38.6 16.7 41.65 17.05 42.4 18.05 44.3 19.65 44.8 L18.75 44.6 Q17.45 44.3 16.8 43.15 L16.55 42.85 16.2 42.4 Q15.65 41.15 15.65 39.7 15.65 38.5 14.1 36.35 M15.65 34.85 L16.2 34.85 Q18.7 34.65 23.55 33.3 L24.55 33.0 28.8 32.1 Q31.35 31.85 32.45 32.8 L33.85 34.25 Q35.6 35.6 36.75 35.95 36.0 35.95 35.15 36.35 33.7 37.15 33.0 38.6 32.6 39.85 32.15 42.15 31.45 44.0 29.05 43.6 L28.1 43.6 Q29.5 42.8 30.35 42.8 31.5 42.8 32.15 38.5 32.6 37.1 34.65 35.95 33.65 35.95 32.95 34.5 L31.75 33.3 30.35 32.8 25.85 33.3 Q22.7 34.0 18.05 35.6 L15.65 34.85 M25.0 45.25 L32.95 44.15 33.0 44.15 34.2 44.1 35.6 44.15 36.1 44.3 Q36.35 44.3 36.6 44.6 L36.75 44.6 36.95 44.8 39.35 46.45 39.65 46.8 Q42.75 49.55 46.1 50.35 L43.95 50.75 43.0 51.0 42.7 51.2 42.5 51.2 42.15 51.25 39.7 52.6 39.65 52.65 Q38.45 53.45 37.45 54.6 L37.2 54.85 37.0 55.3 36.75 55.55 36.65 55.75 34.55 58.15 34.35 58.2 31.95 60.35 30.7 60.85 30.35 60.85 Q29.85 59.15 28.8 57.4 26.85 53.85 24.7 52.95 L25.0 53.0 25.25 53.0 Q26.85 53.7 29.05 56.1 L31.45 58.55 Q35.0 56.75 36.4 54.15 L36.95 53.35 Q37.85 52.4 39.65 51.5 L40.25 51.2 43.2 50.1 Q41.8 50.1 39.65 48.3 L39.15 47.7 36.95 45.7 35.65 44.8 Q34.0 44.3 24.2 45.95 L25.0 45.25 M25.25 49.2 L25.25 49.15 26.45 48.9 27.35 48.65 Q27.55 48.4 27.35 48.1 27.35 47.4 27.55 47.4 L29.75 47.6 Q31.1 48.1 31.95 49.05 33.7 51.3 32.15 51.95 31.2 52.6 29.05 52.35 L28.65 51.7 Q30.6 51.2 31.35 50.5 32.45 50.0 28.7 48.4 L20.9 51.95 19.4 51.45 19.5 50.35 20.4 50.25 21.5 50.0 22.35 50.85 25.25 49.2 M21.65 49.6 L21.6 49.05 21.6 48.1 22.35 47.3 22.35 50.5 21.65 49.95 21.65 49.6 M19.25 58.0 L17.1 57.7 Q15.1 57.05 14.4 55.6 13.05 53.5 11.85 50.45 L12.6 49.05 14.25 52.65 Q16.55 56.75 19.25 58.0 M1.95 47.3 L5.05 47.2 6.3 46.95 19.9 45.7 21.5 46.2 7.55 49.05 0.65 47.25 1.95 47.3 M21.6 45.55 L21.6 44.6 22.35 44.1 22.35 46.15 21.6 45.55 M21.65 40.6 L22.4 39.85 22.4 43.6 21.6 42.6 21.6 42.55 21.65 40.6 M21.6 36.3 L22.6 34.85 22.35 39.25 21.65 38.5 21.6 36.3" fill="#490000" fill-rule="evenodd" stroke="none"/>
    </g>
  </defs>
</svg>
