<?xml version="1.0" encoding="UTF-8" standalone="no"?>
<svg xmlns:xlink="http://www.w3.org/1999/xlink" height="39.39px" width="30.18px" xmlns="http://www.w3.org/2000/svg">
  <g transform="matrix(0.6, 0.0, 0.0, 0.6, 0.15, 3.6)">
    <use height="60.25" transform="matrix(1.0, 0.0, 0.0, 1.0, -0.25, -3.6)" width="46.1" xlink:href="#shape0"/>
  </g>
  <defs>
    <g id="shape0" transform="matrix(1.0, 0.0, 0.0, 1.0, 0.0, 0.0)">
      <path d="M12.05 12.2 L10.55 10.15 10.45 10.0 10.3 9.7 Q9.4 8.25 9.4 7.25 9.4 6.15 9.95 5.2 L10.0 5.15 10.15 4.9 Q10.7 4.1 11.75 4.1 12.45 4.1 13.0 4.45 L13.55 4.75 16.35 3.8 20.7 2.35 22.8 1.65 24.4 1.0 29.75 0.0 29.85 0.05 29.85 0.0 33.55 0.05 Q34.55 0.15 36.15 0.85 L36.9 1.2 40.7 3.85 41.2 4.3 41.95 5.2 Q42.5 5.9 42.5 6.5 42.5 7.35 42.3 7.45 L41.25 7.45 40.95 7.5 Q39.95 7.65 39.55 8.1 38.2 10.9 36.15 13.2 L35.9 13.45 36.0 13.15 36.75 10.7 Q37.35 8.85 38.45 8.05 39.25 7.4 39.25 6.55 L38.95 5.1 38.45 4.3 37.35 3.3 Q36.25 2.55 34.8 2.25 L32.5 2.0 Q30.1 2.0 28.2 2.65 L20.45 4.1 19.25 4.55 19.05 4.7 Q18.65 4.95 18.3 5.35 L17.5 6.1 16.35 6.45 16.3 6.45 15.75 6.8 Q12.6 7.55 12.0 9.55 L11.9 9.9 11.85 10.55 12.05 12.2 M17.05 5.8 L16.0 6.4 16.9 5.9 17.3 5.7 17.05 5.8" fill="#0b173c" fill-rule="evenodd" stroke="none"/>
      <path d="M12.05 12.2 L11.85 10.55 11.9 9.9 12.0 9.55 Q12.6 7.55 15.75 6.8 L15.3 7.05 15.05 7.4 14.8 7.85 15.15 8.6 16.2 10.3 16.3 10.45 17.1 12.3 Q17.35 12.65 18.2 12.65 L18.9 12.65 19.55 12.3 19.55 11.75 19.55 10.85 19.55 8.25 19.55 7.3 Q19.4 6.0 18.85 5.65 L17.5 6.1 18.3 5.35 Q18.65 4.95 19.05 4.7 L19.25 4.55 20.45 4.1 28.2 2.65 Q30.1 2.0 32.5 2.0 L34.8 2.25 Q36.25 2.55 37.35 3.3 L38.45 4.3 38.95 5.1 39.25 6.55 Q39.25 7.4 38.45 8.05 37.35 8.85 36.75 10.7 L36.0 13.15 35.9 13.45 32.95 16.05 32.3 16.75 Q32.0 17.1 31.55 17.1 L29.95 16.85 Q29.35 16.45 29.1 15.65 L28.05 13.45 Q27.45 12.35 26.7 12.35 L24.0 13.05 21.4 13.75 Q19.65 14.05 19.0 14.9 L18.45 16.1 18.1 17.2 17.6 17.2 Q16.35 17.2 14.75 15.6 L14.05 14.85 12.8 13.2 12.05 12.2 M31.4 2.75 Q30.3 2.95 30.9 2.95 L31.4 2.95 31.2 3.0 30.5 3.2 30.4 4.05 30.4 4.3 30.35 4.6 30.3 4.9 30.05 5.4 28.85 7.0 27.9 8.45 27.7 9.4 Q27.7 10.1 28.0 10.4 L29.15 11.45 30.0 12.2 30.1 12.3 Q30.5 12.6 31.1 12.6 L31.45 12.5 31.95 11.95 32.75 10.75 33.55 9.4 34.15 8.55 35.2 6.4 35.3 5.0 35.3 4.7 35.3 4.3 35.25 3.8 Q35.15 3.3 34.8 3.15 L33.8 2.8 32.75 2.5 31.4 2.75 M26.0 5.5 L26.05 5.35 26.1 4.9 26.1 4.85 25.95 4.3 Q25.55 3.75 24.25 3.75 L23.4 3.9 22.75 4.3 22.6 4.3 22.6 4.4 22.55 4.4 22.2 4.75 Q21.85 5.2 21.75 5.95 L21.7 6.65 21.7 7.85 21.75 9.1 21.95 9.85 22.95 10.15 23.6 10.15 23.9 10.15 24.4 10.05 24.8 9.45 25.1 8.7 25.35 7.75 25.65 7.05 25.85 6.15 26.0 5.5" fill="#173384" fill-rule="evenodd" stroke="none"/>
      <path d="M27.1 25.9 Q27.75 25.45 28.4 24.1 L29.15 21.9 29.3 21.4 29.45 19.1 29.5 18.7 29.5 18.25 29.75 18.25 30.0 18.7 30.6 19.25 30.7 19.4 31.75 21.35 30.5 20.6 29.15 25.0 27.1 25.9 M18.05 30.05 Q17.3 29.2 16.9 28.1 L16.9 28.25 16.7 27.65 Q15.95 25.45 17.85 21.9 L17.85 21.7 19.15 19.2 Q19.7 18.4 19.9 18.75 L20.0 19.2 20.2 19.8 19.05 21.3 19.0 21.55 Q16.7 24.75 17.8 27.65 18.1 29.05 19.05 29.65 L18.05 30.05 M14.1 35.75 L13.0 34.25 Q15.65 35.8 16.1 38.0 16.7 41.05 17.05 41.8 18.05 43.7 19.65 44.2 L18.75 44.0 Q17.45 43.7 16.8 42.55 L16.55 42.25 16.2 41.8 Q15.65 40.55 15.65 39.1 15.65 37.9 14.1 35.75 M15.65 34.25 L16.2 34.25 21.5 33.25 24.55 32.4 28.8 31.5 Q31.35 31.25 32.45 32.2 L33.85 33.65 Q35.6 35.0 36.75 35.35 36.0 35.35 35.15 35.75 33.7 36.55 33.0 38.0 L32.9 38.35 32.15 41.55 Q31.45 43.4 29.05 43.0 L28.1 43.0 Q29.5 42.2 30.35 42.2 31.5 42.2 32.15 38.0 L32.15 37.9 Q32.6 36.5 34.65 35.35 33.65 35.35 32.95 33.9 32.15 32.55 30.35 32.2 27.85 32.0 22.3 33.65 L18.05 35.0 15.65 34.25 M25.0 44.65 L32.95 43.55 33.0 43.55 34.2 43.5 35.6 43.55 36.1 43.7 Q36.35 43.7 36.6 44.0 L36.75 44.0 36.95 44.2 39.35 45.85 39.65 46.2 Q42.75 48.95 46.1 49.75 L43.95 50.15 43.0 50.4 42.7 50.6 42.5 50.6 42.15 50.65 39.7 52.0 39.65 52.05 Q38.45 52.85 37.45 54.0 L37.2 54.25 37.0 54.7 36.75 54.95 36.65 55.15 34.55 57.55 34.35 57.6 31.95 59.75 30.7 60.25 30.35 60.25 Q29.85 58.55 28.8 56.8 26.85 53.25 24.7 52.35 L25.0 52.4 25.25 52.4 Q26.85 53.1 29.05 55.5 L31.45 57.95 Q35.0 56.15 36.4 53.55 L36.95 52.75 Q37.85 51.8 39.65 50.9 L40.25 50.6 43.2 49.5 Q41.8 49.5 39.65 47.7 L39.15 47.1 36.95 45.1 35.65 44.2 Q34.0 43.7 24.2 45.35 L25.0 44.65 M25.25 48.6 L25.25 48.55 26.45 48.3 27.35 48.05 Q27.55 47.8 27.35 47.5 27.35 46.8 27.55 46.8 L29.75 47.0 Q31.1 47.5 31.95 48.45 33.7 50.7 32.15 51.35 31.2 52.0 29.05 51.75 L28.65 51.1 Q30.6 50.6 31.35 49.9 32.45 49.4 28.7 47.8 L20.9 51.35 19.4 50.85 19.5 49.75 20.4 49.65 21.5 49.4 22.35 50.25 25.25 48.6 M21.65 49.0 L21.6 48.45 21.6 47.5 22.35 46.7 22.35 49.9 21.65 49.35 21.65 49.0 M19.25 57.4 L17.1 57.1 Q15.1 56.45 14.4 55.0 13.05 52.9 11.85 49.85 L12.6 48.45 14.25 52.05 Q16.55 56.15 19.25 57.4 M1.95 46.7 L5.05 46.6 6.3 46.35 19.9 45.1 21.5 45.6 7.55 48.45 0.65 46.65 1.95 46.7 M21.6 44.95 L21.6 44.0 22.35 43.5 22.35 45.55 21.6 44.95 M21.6 35.7 L22.6 34.25 22.35 38.65 21.65 37.9 21.6 35.7 M21.65 40.0 L22.4 39.25 22.4 43.0 21.6 42.0 21.6 41.95 21.65 40.0" fill="#490000" fill-rule="evenodd" stroke="none"/>
      <path d="M31.75 21.35 L31.95 22.1 Q32.45 23.7 33.75 24.9 L34.65 25.9 Q32.6 25.6 31.35 26.6 L29.95 27.25 29.5 27.65 30.75 27.65 Q34.4 27.45 35.35 28.1 L35.6 28.8 35.15 29.65 Q33.75 30.95 30.85 30.65 L29.95 30.65 Q28.1 30.4 25.25 31.45 22.4 32.45 20.25 32.65 L19.4 32.65 16.1 32.15 Q14.45 31.7 14.7 31.15 L15.9 30.45 16.35 30.35 18.05 30.05 19.05 29.65 Q18.1 29.05 17.8 27.65 16.7 24.75 19.0 21.55 L19.05 21.3 20.2 19.8 20.4 20.9 20.15 23.35 Q20.05 25.2 20.65 26.1 L21.5 26.7 23.6 26.9 Q25.65 26.85 26.7 26.2 L26.75 26.1 26.85 26.1 Q26.9 25.9 27.1 25.9 L29.15 25.0 30.5 20.6 31.75 21.35 M13.0 34.25 L14.1 35.75 12.6 34.2 13.0 34.25 13.95 34.25 15.65 34.25 18.05 35.0 22.3 33.65 Q27.85 32.0 30.35 32.2 32.15 32.55 32.95 33.9 33.65 35.35 34.65 35.35 32.6 36.5 32.15 37.9 L32.15 38.0 Q31.5 42.2 30.35 42.2 29.5 42.2 28.1 43.0 L25.0 43.55 25.0 44.65 24.2 45.35 Q34.0 43.7 35.65 44.2 L36.95 45.1 39.15 47.1 39.65 47.7 Q41.8 49.5 43.2 49.5 L40.25 50.6 39.65 50.9 Q37.85 51.8 36.95 52.75 L36.4 53.55 Q35.0 56.15 31.45 57.95 L29.05 55.5 Q26.85 53.1 25.25 52.4 L27.1 53.1 31.5 54.95 Q32.8 54.25 33.7 52.9 35.9 50.7 35.9 48.8 35.9 47.5 35.15 46.6 34.2 45.8 33.0 45.8 29.05 45.8 24.95 46.7 L24.55 48.6 25.25 48.6 22.35 50.25 21.5 49.4 21.65 49.0 21.65 49.35 22.35 49.9 22.35 46.7 21.6 47.5 15.0 49.2 16.65 51.85 19.25 57.4 Q16.55 56.15 14.25 52.05 L12.6 48.45 11.85 49.85 Q7.5 50.45 3.2 48.55 L0.0 46.35 1.75 46.6 1.95 46.7 0.65 46.65 7.55 48.45 21.5 45.6 19.9 45.1 21.6 44.95 22.35 45.55 22.35 43.5 21.6 44.0 18.75 44.2 Q17.45 43.75 16.8 42.55 17.45 43.7 18.75 44.0 L19.65 44.2 Q18.05 43.7 17.05 41.8 16.7 41.05 16.1 38.0 15.65 35.8 13.0 34.25 M35.6 43.55 L36.35 43.7 36.6 44.0 Q36.35 43.7 36.1 43.7 L35.6 43.55 M43.95 50.15 L43.05 50.4 42.7 50.6 43.0 50.4 43.95 50.15 M39.65 52.05 L37.55 54.0 37.25 54.25 37.0 54.7 37.2 54.25 37.45 54.0 Q38.45 52.85 39.65 52.05 M28.65 51.1 L28.65 50.45 Q29.85 50.25 28.7 49.4 28.1 48.8 22.9 51.45 L21.35 52.4 20.05 52.8 Q18.3 52.3 18.05 50.6 18.05 49.9 19.45 49.75 L19.5 49.75 19.4 50.85 20.9 51.35 28.7 47.8 Q32.45 49.4 31.35 49.9 30.6 50.6 28.65 51.1 M21.6 35.7 L21.6 35.45 Q19.9 36.25 17.55 36.25 17.3 36.25 17.5 36.95 L18.05 38.0 18.95 38.0 20.05 38.0 21.65 37.9 22.35 38.65 22.6 34.25 21.6 35.7 M21.65 40.0 L20.95 40.1 18.5 40.0 Q18.95 42.2 19.25 42.2 L21.6 41.95 21.6 42.0 22.4 43.0 22.4 39.25 21.65 40.0 M30.15 37.9 L29.85 37.9 Q29.05 37.6 25.25 38.7 L25.25 41.25 25.95 41.1 Q26.45 41.05 27.55 40.35 28.1 40.15 28.8 40.35 L29.05 40.5 Q29.4 40.55 29.4 40.35 L30.15 37.9 M26.4 28.3 L26.75 27.65 24.3 27.65 22.6 27.8 Q21.6 28.25 21.5 28.65 21.5 29.2 21.85 29.5 L26.4 28.3 M30.85 34.95 L30.75 34.8 Q29.95 33.15 25.55 34.25 L25.45 36.5 Q26.35 36.0 27.05 35.85 L28.3 35.75 Q29.45 36.2 30.25 37.25 L30.35 37.35 30.4 37.3 Q31.0 35.35 30.85 34.95" fill="#b20000" fill-rule="evenodd" stroke="none"/>
    </g>
  </defs>
</svg>
