<?xml version="1.0" encoding="UTF-8" standalone="no"?>
<svg xmlns:xlink="http://www.w3.org/1999/xlink" height="39.39px" width="30.18px" xmlns="http://www.w3.org/2000/svg">
  <g transform="matrix(0.6, 0.0, 0.0, 0.6, 0.15, 3.6)">
    <use height="61.9" transform="matrix(1.0, 0.0, 0.0, 1.0, 0.25, -4.7)" width="46.1" xlink:href="#shape0"/>
  </g>
  <defs>
    <g id="shape0" transform="matrix(1.0, 0.0, 0.0, 1.0, 0.0, 0.0)">
      <path d="M30.85 12.4 L31.5 12.45 32.1 12.35 33.4 12.05 35.95 11.65 36.0 11.65 36.75 11.75 38.35 12.65 39.9 14.3 40.65 15.5 40.95 16.15 40.95 16.35 40.65 16.35 Q39.75 16.05 37.7 14.65 36.2 13.65 34.75 13.65 L33.25 13.85 31.75 14.05 Q30.9 14.05 30.85 13.75 L30.85 12.4 M8.05 14.4 L6.75 14.7 Q6.35 14.7 6.35 14.35 6.35 14.1 7.9 12.8 L8.45 12.35 9.35 11.55 9.6 11.25 11.8 8.3 12.0 8.0 12.5 7.35 13.55 5.95 13.85 5.55 14.8 3.85 14.8 1.3 Q14.65 1.25 14.65 0.85 L14.85 0.2 Q14.95 0.0 15.4 0.0 16.45 0.0 18.25 2.4 L18.5 3.75 18.7 5.05 18.45 5.95 17.45 7.05 17.0 7.55 16.65 5.95 16.55 5.35 16.25 5.35 15.55 5.95 14.1 7.15 12.65 8.35 12.45 8.5 11.65 9.25 9.9 12.4 9.35 13.1 9.25 13.25 8.05 14.4 M19.2 10.1 Q18.5 9.5 18.5 9.0 18.5 7.95 19.55 8.0 L21.4 8.0 23.6 7.25 23.65 7.6 Q23.65 8.7 22.85 9.35 21.9 10.15 20.1 10.15 L19.2 10.1 M23.4 5.0 L22.35 4.65 21.3 4.5 Q20.8 4.35 20.8 3.85 20.8 3.55 22.4 2.85 L23.9 2.25 24.3 2.1 24.8 1.8 26.35 1.0 Q28.2 0.15 28.55 0.15 29.25 0.15 31.25 1.8 L32.6 2.95 34.2 3.7 34.25 3.8 Q34.25 4.2 31.6 4.2 L29.25 4.15 29.0 4.15 27.5 3.85 25.55 4.0 25.4 4.05 25.05 4.15 23.4 5.0 M27.85 6.4 L28.3 6.5 28.8 6.5 30.85 6.55 31.95 7.35 32.8 8.1 Q33.7 8.75 33.7 9.1 L33.05 9.6 32.4 9.15 30.35 8.05 28.65 7.9 28.5 7.9 Q27.65 7.7 27.65 7.0 L27.7 6.85 Q27.7 6.65 27.85 6.4" fill="#0b173c" fill-rule="evenodd" stroke="none"/>
      <path d="M40.95 16.15 L41.1 16.75 40.75 17.2 40.15 17.25 Q39.55 17.25 38.05 16.55 36.45 15.8 35.25 15.65 L31.0 15.45 29.1 15.6 27.0 15.85 22.3 16.45 19.05 16.8 17.1 16.95 Q16.1 17.25 16.1 19.45 16.1 20.1 15.8 20.2 L15.65 20.2 14.9 19.65 14.1 18.95 13.35 18.4 13.3 17.8 13.35 17.7 14.1 12.95 14.1 12.9 14.1 11.65 Q14.0 11.1 13.35 11.1 12.45 11.1 11.95 11.6 L10.3 13.1 9.55 13.6 9.35 13.7 8.05 14.4 9.25 13.25 9.35 13.1 9.9 12.4 11.65 9.25 12.45 8.5 12.65 8.35 14.1 7.15 15.55 5.95 16.25 5.35 16.55 5.35 16.65 5.95 17.0 7.55 Q16.5 8.1 16.45 8.65 L16.45 9.1 16.5 11.5 16.45 11.85 16.35 13.4 16.3 14.0 Q16.3 14.8 16.45 15.0 16.6 15.3 17.4 15.3 L17.85 15.3 Q19.0 15.1 19.95 14.15 21.0 13.15 21.0 12.2 21.0 11.4 19.75 10.5 L19.2 10.1 20.1 10.15 Q21.9 10.15 22.85 9.35 23.65 8.7 23.65 7.6 L23.6 7.25 Q23.95 7.05 23.95 6.15 L23.95 5.95 Q23.85 5.3 23.4 5.0 L25.05 4.15 25.4 4.05 25.55 4.0 27.5 3.85 29.0 4.15 28.2 4.15 27.75 4.2 27.3 4.35 27.3 6.1 27.85 6.4 Q27.7 6.65 27.7 6.85 L27.65 7.0 Q27.65 7.7 28.5 7.9 L28.65 7.9 30.35 8.05 32.4 9.15 33.05 9.6 32.1 9.95 Q31.15 10.2 30.75 10.7 30.45 11.0 30.45 11.5 30.45 12.15 30.7 12.3 L30.85 12.4 30.85 13.75 Q30.9 14.05 31.75 14.05 L33.25 13.85 34.75 13.65 Q36.2 13.65 37.7 14.65 39.75 16.05 40.65 16.35 L40.95 16.35 40.95 16.15 M24.3 9.4 Q22.75 11.65 22.75 12.35 22.75 13.05 24.3 13.45 L26.2 13.8 Q26.8 13.8 27.05 13.4 L27.75 12.15 Q27.85 11.8 28.1 11.35 L28.4 10.75 28.65 9.9 Q28.65 9.05 28.15 8.75 L27.1 8.4 26.45 8.35 25.25 8.4 Q24.7 8.6 24.3 9.4" fill="#173384" fill-rule="evenodd" stroke="none"/>
      <path d="M20.2 21.45 L20.4 22.55 20.25 24.45 20.15 25.0 Q20.05 26.85 20.65 27.75 L21.5 28.35 23.6 28.55 24.85 28.45 Q26.0 28.3 26.7 27.85 L26.75 27.75 26.85 27.75 Q26.9 27.55 27.1 27.55 L29.15 26.65 30.5 22.25 31.75 23.0 31.95 23.75 Q32.4 25.15 33.45 26.3 L33.75 26.55 34.65 27.55 33.95 27.5 Q32.35 27.45 31.35 28.25 L29.95 28.9 29.5 29.3 30.75 29.3 34.65 29.45 Q35.8 29.75 35.6 30.45 L35.15 31.3 35.1 31.35 Q33.9 32.45 31.6 32.35 L30.85 32.3 29.95 32.3 29.6 32.3 28.3 32.3 25.25 33.1 Q21.85 34.3 19.4 34.3 L16.1 33.8 Q14.45 33.35 14.7 32.8 15.1 32.05 18.05 31.7 L19.05 31.3 18.8 31.15 Q18.05 30.5 17.8 29.3 16.7 26.4 18.95 23.25 L19.0 23.2 19.05 22.95 20.2 21.45 M14.1 37.4 L12.6 35.85 13.0 35.9 13.95 35.9 15.65 35.9 18.05 36.65 Q27.0 33.55 30.35 33.85 32.15 34.2 32.95 35.55 33.55 36.8 34.4 37.0 L34.65 37.0 34.1 37.35 Q32.55 38.35 32.15 39.55 L32.15 39.6 Q31.5 43.85 30.35 43.85 29.5 43.85 28.15 44.65 L28.1 44.65 25.0 45.2 25.0 46.3 24.2 47.0 26.85 46.6 35.65 45.85 36.05 46.05 36.95 46.75 39.15 48.75 39.65 49.35 Q41.8 51.15 43.2 51.15 L40.25 52.25 39.65 52.55 Q37.85 53.45 36.95 54.4 L36.4 55.2 Q35.0 57.8 31.45 59.6 L29.05 57.15 Q27.25 55.15 25.85 54.35 L25.4 54.1 27.1 54.75 31.5 56.6 Q32.8 55.9 33.7 54.55 35.9 52.35 35.9 50.45 35.9 49.15 35.15 48.25 34.2 47.45 33.0 47.45 L32.5 47.45 26.05 48.15 24.95 48.35 24.55 50.25 25.25 50.25 22.35 51.9 21.5 51.05 21.65 50.65 21.65 51.0 22.35 51.55 22.35 48.35 21.6 49.15 15.0 50.85 16.65 53.5 16.8 53.75 19.25 59.05 Q16.55 57.8 14.25 53.7 L14.0 53.15 12.6 50.1 11.85 51.5 Q7.5 52.1 3.2 50.2 L0.0 48.0 1.75 48.25 1.95 48.35 0.65 48.3 7.55 50.1 21.5 47.25 19.9 46.75 21.6 46.6 22.35 47.2 22.35 45.15 21.6 45.65 21.15 45.7 19.65 45.85 18.75 45.85 Q17.45 45.4 16.8 44.2 17.45 45.35 18.75 45.65 L19.65 45.85 Q18.05 45.35 17.05 43.45 16.75 42.85 16.35 40.75 L16.1 39.65 Q15.65 37.45 13.0 35.9 L14.1 37.4 M35.6 45.2 L36.35 45.35 36.6 45.65 Q36.35 45.35 36.1 45.35 L35.6 45.2 M43.95 51.8 L43.05 52.05 42.7 52.25 43.0 52.05 43.95 51.8 M39.65 53.7 L37.55 55.65 37.25 55.9 37.0 56.35 37.2 55.9 37.45 55.65 Q38.45 54.5 39.65 53.7 M28.65 52.75 L28.65 52.1 Q29.85 51.9 28.7 51.05 28.25 50.6 25.35 51.95 L22.9 53.1 21.35 54.05 20.6 54.35 20.05 54.45 19.45 54.25 Q18.25 53.65 18.05 52.25 18.05 51.55 19.45 51.4 L19.5 51.4 19.4 52.5 20.9 53.0 28.7 49.45 Q32.45 51.05 31.35 51.55 30.6 52.25 28.65 52.75 M21.65 41.65 L20.95 41.75 18.5 41.65 18.9 43.3 19.25 43.85 21.6 43.6 21.6 43.65 22.4 44.65 22.4 40.9 21.65 41.65 M21.6 37.35 L21.6 37.1 Q19.9 37.9 17.55 37.9 17.3 37.9 17.5 38.6 L18.05 39.65 18.95 39.65 20.05 39.65 21.65 39.55 22.35 40.3 22.6 35.9 21.6 37.35 M25.95 42.75 Q26.45 42.7 27.55 42.0 28.1 41.8 28.8 42.0 L29.05 42.15 Q29.4 42.2 29.4 42.0 L30.15 39.55 29.85 39.55 Q29.05 39.25 25.25 40.35 L25.25 42.9 25.95 42.75 M26.4 29.95 L26.75 29.3 25.85 29.3 24.3 29.3 22.6 29.45 Q21.6 29.9 21.5 30.3 21.5 30.85 21.85 31.15 L26.4 29.95 M30.85 36.6 L30.75 36.45 Q29.95 34.8 25.55 35.9 L25.45 38.15 Q27.35 37.1 28.3 37.4 29.5 37.9 30.35 39.0 31.0 37.0 30.85 36.6" fill="#b20000" fill-rule="evenodd" stroke="none"/>
      <path d="M27.1 27.55 L27.45 27.25 28.4 25.75 29.15 23.55 29.3 23.05 29.5 19.9 29.75 19.9 Q29.85 20.3 30.6 20.9 L31.75 23.0 30.5 22.25 29.15 26.65 27.1 27.55 M18.05 31.7 L17.5 30.95 16.9 29.75 16.9 29.9 16.7 29.3 Q15.95 27.1 17.85 23.55 L17.85 23.35 18.25 22.55 Q19.55 19.8 19.9 20.4 L20.2 21.45 19.05 22.95 19.0 23.2 18.95 23.25 Q16.7 26.4 17.8 29.3 18.05 30.5 18.8 31.15 L19.05 31.3 18.05 31.7 M15.65 35.9 L16.2 35.9 Q18.95 35.7 24.55 34.05 L28.8 33.15 30.8 33.2 Q31.85 33.35 32.45 33.85 L33.85 35.3 33.95 35.4 35.1 36.2 36.25 36.8 36.75 37.0 36.6 37.0 Q35.9 37.05 35.15 37.4 33.7 38.2 33.0 39.65 32.6 40.9 32.15 43.2 31.45 45.05 29.05 44.65 L28.15 44.65 Q29.5 43.85 30.35 43.85 31.5 43.85 32.15 39.6 L32.15 39.55 Q32.55 38.35 34.1 37.35 L34.65 37.0 34.4 37.0 Q33.55 36.8 32.95 35.55 32.15 34.2 30.35 33.85 27.0 33.55 18.05 36.65 L15.65 35.9 M25.0 46.3 L32.95 45.2 33.0 45.2 34.2 45.15 35.6 45.2 36.1 45.35 Q36.35 45.35 36.6 45.65 L36.75 45.65 36.8 45.7 36.95 45.85 39.35 47.5 39.65 47.85 Q42.75 50.6 46.1 51.4 L43.95 51.8 43.0 52.05 42.7 52.25 42.5 52.25 42.15 52.3 39.7 53.65 39.65 53.7 Q38.45 54.5 37.45 55.65 L37.2 55.9 37.0 56.35 36.75 56.6 36.65 56.8 34.55 59.2 34.35 59.25 31.95 61.4 30.7 61.9 30.35 61.9 Q29.85 60.2 28.8 58.45 27.15 55.45 25.4 54.35 L24.7 54.0 25.0 54.05 25.25 54.05 25.4 54.1 25.85 54.35 Q27.25 55.15 29.05 57.15 L31.45 59.6 Q35.0 57.8 36.4 55.2 L36.95 54.4 Q37.85 53.45 39.65 52.55 L40.25 52.25 43.2 51.15 Q41.8 51.15 39.65 49.35 L39.15 48.75 36.95 46.75 36.05 46.05 35.65 45.85 26.85 46.6 24.2 47.0 25.0 46.3 M25.25 50.25 L25.25 50.2 26.45 49.95 27.35 49.7 Q27.55 49.45 27.35 49.15 27.35 48.45 27.55 48.45 L29.45 48.6 29.75 48.65 Q31.1 49.15 31.95 50.1 33.7 52.35 32.15 53.0 31.2 53.65 29.05 53.4 L28.65 52.75 Q30.6 52.25 31.35 51.55 32.45 51.05 28.7 49.45 L20.9 53.0 19.4 52.5 19.5 51.4 20.4 51.3 21.5 51.05 22.35 51.9 25.25 50.25 M21.65 50.65 L21.6 50.1 21.6 49.15 22.35 48.35 22.35 51.55 21.65 51.0 21.65 50.65 M19.25 59.05 L17.1 58.75 Q15.1 58.1 14.4 56.65 13.35 55.05 12.4 52.85 L11.85 51.5 12.6 50.1 14.0 53.15 14.25 53.7 Q16.55 57.8 19.25 59.05 M1.95 48.35 L5.05 48.25 6.3 48.0 19.9 46.75 21.5 47.25 7.55 50.1 0.65 48.3 1.95 48.35 M21.6 46.6 L21.6 45.65 22.35 45.15 22.35 47.2 21.6 46.6 M16.8 44.2 L16.55 43.9 16.2 43.45 Q15.65 42.2 15.65 40.75 L15.55 40.0 Q15.2 38.95 14.1 37.4 L13.0 35.9 Q15.65 37.45 16.1 39.65 L16.35 40.75 Q16.75 42.85 17.05 43.45 18.05 45.35 19.65 45.85 L18.75 45.65 Q17.45 45.35 16.8 44.2 M21.65 41.65 L22.4 40.9 22.4 44.65 21.6 43.65 21.6 43.6 21.65 41.65 M21.65 39.55 L21.6 37.35 22.6 35.9 22.35 40.3 21.65 39.55" fill="#490000" fill-rule="evenodd" stroke="none"/>
    </g>
  </defs>
</svg>
