<?xml version="1.0" encoding="UTF-8" standalone="no"?>
<svg xmlns:xlink="http://www.w3.org/1999/xlink" height="39.39px" width="30.18px" xmlns="http://www.w3.org/2000/svg">
  <g transform="matrix(0.6, 0.0, 0.0, 0.6, 0.15, 3.6)">
    <use height="63.0" transform="matrix(1.0, 0.0, 0.0, 1.0, 0.0, -6.0)" width="46.1" xlink:href="#shape0"/>
  </g>
  <defs>
    <g id="shape0" transform="matrix(1.0, 0.0, 0.0, 1.0, 0.0, 0.0)">
      <path d="M26.65 6.45 L26.5 7.15 26.45 7.45 28.85 7.55 31.15 7.35 34.5 7.35 Q37.35 7.35 39.6 8.6 L41.25 9.4 41.8 9.65 41.6 9.8 40.9 9.8 40.4 9.8 38.45 9.6 35.75 9.35 32.1 9.05 28.95 8.95 26.4 9.05 26.35 9.05 24.7 9.25 23.85 9.35 22.8 9.55 21.55 9.7 20.3 9.95 19.3 10.3 18.2 10.55 17.55 10.65 16.95 10.75 16.5 10.85 15.85 10.95 14.75 11.25 13.95 11.45 13.0 11.85 12.1 12.0 11.65 11.85 11.15 11.7 9.75 11.0 9.25 10.65 9.05 10.5 8.85 10.35 8.55 9.95 8.15 9.6 7.8 9.3 8.25 9.35 10.2 9.35 10.4 9.35 13.05 9.05 15.95 8.75 16.1 8.75 19.25 8.45 21.8 8.6 Q23.05 8.6 23.05 7.3 L22.9 6.6 22.75 6.5 22.75 5.5 22.5 5.1 22.0 4.6 21.5 4.05 21.25 3.7 21.15 3.6 21.35 3.6 22.9 3.8 24.65 4.05 26.8 5.0 26.7 5.05 26.45 5.4 26.4 5.9 26.4 6.1 26.4 6.25 26.6 6.45 26.65 6.45 M34.6 14.05 L36.0 14.9 36.35 15.15 37.05 16.25 Q37.35 16.95 37.15 17.55 L36.75 18.65 Q36.25 20.25 35.2 20.25 34.2 20.25 33.65 19.85 L32.95 19.15 32.9 19.1 Q32.45 18.6 31.0 17.6 L28.6 16.05 26.9 14.9 25.85 14.05 25.1 13.55 24.8 13.15 Q26.4 13.75 28.85 13.85 L33.95 13.95 34.6 14.05 M21.65 13.3 L22.65 13.85 23.6 14.55 23.75 15.15 Q23.75 15.6 22.95 16.2 L21.35 17.4 Q20.1 18.15 19.9 18.4 L18.5 19.3 15.05 20.95 12.8 21.8 11.35 22.15 10.95 22.05 10.7 21.85 Q10.7 21.4 12.15 20.4 L14.3 18.95 15.95 17.55 16.1 17.4 18.35 16.35 20.3 14.5 21.65 13.3" fill="#173384" fill-rule="evenodd" stroke="none"/>
      <path d="M41.8 9.65 L41.25 9.4 39.6 8.6 Q37.35 7.35 34.5 7.35 L31.15 7.35 28.85 7.55 26.45 7.45 26.5 7.15 26.65 6.45 27.45 6.35 28.35 6.15 28.8 6.05 30.5 5.65 Q33.15 4.75 34.45 4.75 L35.9 4.8 36.85 5.0 Q37.65 5.25 37.95 5.45 L38.05 5.55 38.55 5.9 38.85 6.15 41.0 7.9 41.75 8.85 41.9 9.25 41.8 9.65 M26.8 5.0 L24.65 4.05 22.9 3.8 21.35 3.6 21.15 3.6 21.05 3.4 21.15 3.15 21.45 2.95 20.2 2.9 20.2 2.55 20.25 2.5 20.45 2.25 21.0 1.95 21.85 1.5 23.35 0.6 23.9 0.15 Q24.05 0.0 24.35 0.0 L24.85 0.2 24.9 0.3 25.35 0.95 25.7 1.55 26.05 2.25 26.75 2.95 Q27.35 3.35 27.9 3.45 L30.05 4.05 30.05 4.2 29.8 4.35 28.95 4.6 27.85 4.8 27.25 4.85 26.8 5.0 M22.75 6.5 L22.9 6.6 23.05 7.3 Q23.05 8.6 21.8 8.6 L19.25 8.45 16.1 8.75 15.95 8.75 13.05 9.05 10.4 9.35 10.2 9.35 8.25 9.35 7.8 9.3 7.45 8.75 7.8 8.5 8.35 8.15 8.8 8.1 9.0 8.05 9.8 8.0 11.6 7.95 11.8 7.95 14.5 7.8 16.6 7.75 17.1 7.75 18.85 7.6 20.1 7.4 21.15 7.25 22.75 6.9 22.75 6.5 M34.6 14.05 L33.95 13.95 28.85 13.85 Q26.4 13.75 24.8 13.15 L24.8 13.05 24.85 12.8 25.45 12.55 25.85 12.55 26.2 12.55 27.25 12.55 31.3 12.8 32.9 13.3 34.6 14.05 M16.1 17.4 L16.95 16.3 18.85 13.6 18.85 13.55 19.25 12.45 19.25 12.3 19.6 11.8 19.95 12.05 21.15 13.0 21.6 13.3 21.65 13.3 20.3 14.5 18.35 16.35 16.1 17.4" fill="#0b173c" fill-rule="evenodd" stroke="none"/>
      <path d="M27.1 28.65 L28.1 27.45 28.4 26.85 28.6 26.4 29.15 24.65 29.3 24.15 29.35 23.35 29.5 21.0 29.75 21.0 30.55 21.95 30.6 22.0 31.75 24.1 30.5 23.35 29.7 26.35 29.4 27.15 29.3 27.45 29.15 27.75 27.1 28.65 M18.05 32.8 Q17.3 31.95 16.9 30.85 L16.9 31.0 16.7 30.4 Q16.25 29.15 16.7 27.45 L16.95 26.65 17.85 24.65 17.85 24.45 Q19.5 20.8 19.9 21.5 L20.2 22.55 19.05 24.05 19.0 24.3 Q18.15 25.5 17.8 26.6 L17.55 27.45 Q17.25 28.95 17.8 30.4 18.1 31.8 19.05 32.4 L18.05 32.8 M15.65 37.0 L16.2 37.0 17.3 36.9 18.15 36.75 24.55 35.15 28.8 34.25 Q31.35 34.0 32.45 34.95 L33.85 36.4 Q35.6 37.75 36.75 38.1 36.0 38.1 35.15 38.5 33.75 39.25 33.1 40.65 L33.0 40.75 32.55 42.45 32.15 44.3 Q31.45 46.15 29.05 45.75 L28.1 45.75 Q29.5 44.95 30.35 44.95 31.25 44.95 31.85 42.35 L32.1 41.0 32.15 40.65 Q32.6 39.25 34.65 38.1 33.65 38.1 32.95 36.65 32.15 35.3 30.35 34.95 27.0 34.65 18.05 37.75 L15.65 37.0 M25.0 47.4 L32.95 46.3 33.0 46.3 34.2 46.25 35.6 46.3 36.1 46.45 Q36.35 46.45 36.6 46.75 L36.75 46.75 36.95 46.95 39.35 48.6 39.65 48.95 40.8 49.9 Q43.35 51.85 46.1 52.5 L43.95 52.9 43.0 53.15 42.7 53.35 42.5 53.35 42.15 53.4 39.7 54.75 39.65 54.8 Q38.45 55.6 37.45 56.75 L37.2 57.0 37.0 57.45 36.75 57.7 36.65 57.9 34.55 60.3 34.35 60.35 31.95 62.5 30.7 63.0 30.35 63.0 Q29.85 61.3 28.8 59.55 L28.15 58.45 Q26.5 55.85 24.7 55.1 L25.0 55.15 25.25 55.15 Q26.75 55.8 28.85 58.05 L29.05 58.25 31.45 60.7 Q35.0 58.9 36.4 56.3 L36.95 55.5 Q37.85 54.55 39.65 53.65 L40.25 53.35 43.2 52.25 Q41.85 52.25 39.85 50.6 L39.65 50.45 39.15 49.85 36.95 47.85 35.65 46.95 Q34.0 46.45 24.2 48.1 L25.0 47.4 M25.25 51.35 L25.25 51.3 26.45 51.05 27.35 50.8 Q27.55 50.55 27.35 50.25 27.35 49.55 27.55 49.55 L29.75 49.75 Q31.1 50.25 31.95 51.2 33.7 53.45 32.15 54.1 31.2 54.75 29.05 54.5 L28.65 53.85 Q30.6 53.35 31.35 52.65 32.45 52.15 28.7 50.55 L20.9 54.1 19.4 53.6 19.5 52.5 20.4 52.4 21.5 52.15 22.35 53.0 25.25 51.35 M21.65 51.75 L21.6 51.2 21.6 50.25 22.35 49.45 22.35 52.65 21.65 52.1 21.65 51.75 M19.25 60.15 L17.1 59.85 Q15.1 59.2 14.4 57.75 13.05 55.65 11.85 52.6 L12.6 51.2 14.25 54.8 Q16.55 58.9 19.25 60.15 M1.95 49.45 L5.05 49.35 6.3 49.1 19.9 47.85 21.5 48.35 7.55 51.2 0.65 49.4 1.95 49.45 M21.6 47.7 L21.6 46.75 22.35 46.25 22.35 48.3 21.6 47.7 M16.8 45.3 L16.55 45.0 16.2 44.55 15.85 43.45 15.65 41.85 15.3 40.45 15.05 40.0 14.45 39.0 14.1 38.5 13.0 37.0 Q14.25 37.75 15.0 38.6 L15.8 39.75 15.95 40.1 16.1 40.75 16.7 43.45 17.05 44.55 Q18.05 46.45 19.65 46.95 L18.75 46.75 Q17.45 46.45 16.8 45.3 M21.65 40.65 L21.6 38.45 22.6 37.0 22.35 41.4 21.65 40.65 M21.65 42.75 L22.4 42.0 22.4 45.75 21.6 44.75 21.6 44.7 21.65 42.75" fill="#490000" fill-rule="evenodd" stroke="none"/>
      <path d="M31.75 24.1 L31.9 24.75 31.95 24.85 32.6 26.25 33.35 27.25 33.75 27.65 34.65 28.65 Q32.6 28.35 31.35 29.35 L29.95 30.0 29.5 30.4 30.75 30.4 Q36.0 30.1 35.6 31.55 L35.15 32.4 Q33.75 33.7 30.85 33.4 L29.95 33.4 Q28.1 33.15 25.25 34.2 21.85 35.4 19.4 35.4 L19.3 35.4 19.2 35.4 16.1 34.9 Q14.45 34.45 14.7 33.9 15.1 33.15 18.05 32.8 L19.05 32.4 Q18.1 31.8 17.8 30.4 17.25 28.95 17.55 27.45 L17.8 26.6 Q18.15 25.5 19.0 24.3 L19.05 24.05 20.2 22.55 20.4 23.65 20.15 26.1 20.15 26.6 20.2 27.45 Q20.3 28.3 20.65 28.85 L21.5 29.45 23.6 29.65 24.0 29.65 Q25.75 29.55 26.7 28.95 L26.75 28.85 26.85 28.85 Q26.9 28.65 27.1 28.65 L29.15 27.75 29.3 27.45 29.4 27.15 29.7 26.35 30.5 23.35 31.75 24.1 M14.1 38.5 L12.6 36.95 13.0 37.0 13.95 37.0 15.65 37.0 18.05 37.75 Q27.0 34.65 30.35 34.95 32.15 35.3 32.95 36.65 33.65 38.1 34.65 38.1 32.6 39.25 32.15 40.65 L32.1 41.0 31.85 42.35 Q31.25 44.95 30.35 44.95 29.5 44.95 28.1 45.75 L25.0 46.3 25.0 47.4 24.2 48.1 Q34.0 46.45 35.65 46.95 L36.95 47.85 39.15 49.85 39.65 50.45 39.85 50.6 Q41.85 52.25 43.2 52.25 L40.25 53.35 39.65 53.65 Q37.85 54.55 36.95 55.5 L36.4 56.3 Q35.0 58.9 31.45 60.7 L29.05 58.25 28.85 58.05 Q26.75 55.8 25.25 55.15 L27.1 55.85 30.25 57.15 31.5 57.7 Q32.8 57.0 33.7 55.65 L35.15 53.95 Q35.9 52.7 35.9 51.55 35.9 50.25 35.15 49.35 34.2 48.55 33.0 48.55 29.05 48.55 24.95 49.45 L24.55 51.35 25.25 51.35 22.35 53.0 21.5 52.15 21.65 51.75 21.65 52.1 22.35 52.65 22.35 49.45 21.6 50.25 15.0 51.95 16.65 54.6 19.25 60.15 Q16.55 58.9 14.25 54.8 L12.6 51.2 11.85 52.6 Q9.75 52.9 7.7 52.6 5.45 52.3 3.2 51.3 L0.0 49.1 1.75 49.35 1.95 49.45 0.65 49.4 7.55 51.2 21.5 48.35 19.9 47.85 21.6 47.7 22.35 48.3 22.35 46.25 21.6 46.75 18.75 46.95 Q17.45 46.5 16.8 45.3 17.45 46.45 18.75 46.75 L19.65 46.95 Q18.05 46.45 17.05 44.55 L16.7 43.45 16.1 40.75 15.95 40.1 15.8 39.75 15.0 38.6 Q14.25 37.75 13.0 37.0 L14.1 38.5 M35.6 46.3 L36.35 46.45 36.6 46.75 Q36.35 46.45 36.1 46.45 L35.6 46.3 M43.95 52.9 L43.05 53.15 42.7 53.35 43.0 53.15 43.95 52.9 M39.65 54.8 L37.55 56.75 37.25 57.0 37.0 57.45 37.2 57.0 37.45 56.75 Q38.45 55.6 39.65 54.8 M28.65 53.85 L28.65 53.2 Q29.85 53.0 28.7 52.15 28.1 51.55 22.9 54.2 L21.35 55.15 20.05 55.55 Q18.3 55.05 18.05 53.35 18.05 52.65 19.45 52.5 L19.5 52.5 19.4 53.6 20.9 54.1 28.7 50.55 Q32.45 52.15 31.35 52.65 30.6 53.35 28.65 53.85 M21.6 38.45 L21.6 38.2 Q19.9 39.0 17.55 39.0 17.3 39.0 17.5 39.7 L18.05 40.75 18.95 40.75 20.05 40.75 20.55 40.75 21.65 40.65 22.35 41.4 22.6 37.0 21.6 38.45 M21.65 42.75 L20.95 42.85 18.5 42.75 18.65 43.45 Q19.0 44.95 19.25 44.95 L21.6 44.7 21.6 44.75 22.4 45.75 22.4 42.0 21.65 42.75 M30.15 40.65 L29.85 40.65 Q29.05 40.35 25.35 41.45 L25.25 41.45 25.25 44.0 25.95 43.85 Q26.45 43.8 27.55 43.1 28.1 42.9 28.8 43.1 L29.05 43.25 Q29.4 43.3 29.4 43.1 L30.15 40.65 M25.45 39.25 Q27.35 38.2 28.3 38.5 29.5 39.0 30.35 40.1 31.0 38.1 30.85 37.7 L30.75 37.55 Q29.95 35.9 25.55 37.0 L25.45 39.25 M26.75 30.4 L25.9 30.4 24.3 30.4 23.35 30.4 22.6 30.55 Q21.6 31.0 21.5 31.4 21.5 31.9 21.8 32.2 L21.85 32.25 24.35 31.65 26.4 31.05 26.75 30.4" fill="#b20000" fill-rule="evenodd" stroke="none"/>
    </g>
  </defs>
</svg>
