<?xml version="1.0" encoding="UTF-8" standalone="no"?>
<svg xmlns:xlink="http://www.w3.org/1999/xlink" height="39.39px" width="30.18px" xmlns="http://www.w3.org/2000/svg">
  <g transform="matrix(0.6, 0.0, 0.0, 0.6, 0.15, 3.6)">
    <use height="62.6" transform="matrix(1.0, 0.0, 0.0, 1.0, 0.05, -5.55)" width="46.1" xlink:href="#shape0"/>
  </g>
  <defs>
    <g id="shape0" transform="matrix(1.0, 0.0, 0.0, 1.0, 0.0, 0.0)">
      <path d="M23.55 9.65 L23.75 9.6 24.15 9.5 30.4 5.3 30.45 5.25 31.05 4.8 Q32.3 4.0 34.7 4.1 L35.25 4.2 37.25 4.9 38.0 5.45 38.4 5.9 Q38.95 6.5 38.8 7.05 L38.35 6.75 Q37.75 6.15 35.85 6.2 L34.95 6.25 Q32.75 6.3 29.95 7.15 26.55 8.15 25.15 9.65 L23.55 9.65 M23.15 14.0 Q23.55 15.1 25.9 14.9 L26.1 14.9 26.3 14.9 29.6 14.3 31.1 13.8 31.65 13.95 32.15 14.1 32.75 14.4 34.2 15.4 34.3 15.5 34.85 16.15 33.5 15.95 32.65 15.85 30.25 15.9 27.2 15.9 25.4 15.7 24.9 15.55 Q23.3 15.0 23.15 14.0 M10.7 18.6 Q7.75 18.4 9.95 17.65 L17.45 13.75 Q18.4 13.5 18.8 12.95 L18.95 13.4 Q18.95 14.05 15.15 16.35 12.25 18.1 10.7 18.6 M19.05 7.55 L19.0 4.5 Q18.9 3.35 17.85 3.3 16.95 3.1 18.0 2.15 19.85 1.45 20.65 0.65 L20.85 0.35 Q21.6 -0.55 22.25 0.8 L22.5 1.4 26.3 4.4 Q27.25 5.1 26.25 5.4 24.7 5.15 23.55 4.55 21.7 3.55 21.25 3.55 20.8 3.55 19.9 5.45 L19.05 7.55" fill="#0b173c" fill-rule="evenodd" stroke="none"/>
      <path d="M38.8 7.05 L38.65 7.3 Q38.1 8.5 35.85 8.35 L32.9 7.45 30.95 7.7 23.55 12.45 Q22.85 13.15 23.15 13.95 L23.15 14.0 Q23.3 15.0 24.9 15.55 L25.4 15.7 27.2 15.9 30.25 15.9 32.65 15.85 33.5 15.95 34.85 16.15 Q35.25 16.7 35.25 17.15 35.25 18.2 33.6 18.05 L30.1 18.2 29.3 18.2 27.75 18.15 27.1 18.1 25.9 17.95 25.2 18.05 25.0 18.1 23.2 17.7 21.9 16.75 21.45 16.1 Q20.7 14.7 19.35 15.35 L16.35 17.75 Q15.9 18.6 14.35 18.6 L10.95 18.6 10.7 18.6 Q12.25 18.1 15.15 16.35 18.95 14.05 18.95 13.4 L18.8 12.95 19.05 12.15 19.05 7.55 19.9 5.45 Q20.8 3.55 21.25 3.55 21.7 3.55 23.55 4.55 24.7 5.15 26.25 5.4 L26.05 5.45 25.3 5.55 Q23.15 5.7 22.95 6.85 L22.9 9.2 Q22.95 9.65 23.55 9.65 L25.15 9.65 Q26.55 8.15 29.95 7.15 32.75 6.3 34.95 6.25 L35.85 6.2 Q37.75 6.15 38.35 6.75 L38.8 7.05" fill="#173384" fill-rule="evenodd" stroke="none"/>
      <path d="M20.2 22.15 L20.4 23.05 20.4 23.25 20.4 23.6 20.3 24.7 20.15 25.7 Q20.05 27.55 20.65 28.45 L21.5 29.05 23.6 29.25 Q25.65 29.2 26.7 28.55 L26.75 28.45 26.85 28.45 Q26.9 28.25 27.1 28.25 L29.15 27.35 30.5 23.0 30.5 22.95 30.55 23.0 31.75 23.7 31.95 24.45 Q32.45 26.05 33.75 27.25 L34.3 27.85 34.65 28.25 33.7 28.2 Q32.3 28.2 31.35 28.95 L29.95 29.6 29.5 30.0 30.75 30.0 Q36.0 29.7 35.6 31.15 L35.15 32.0 Q33.75 33.3 30.85 33.0 L29.95 33.0 Q28.1 32.75 25.25 33.8 L21.65 34.8 19.4 35.0 16.1 34.5 Q14.45 34.05 14.7 33.5 15.1 32.75 18.05 32.4 L19.05 32.0 Q18.1 31.4 17.8 30.0 17.25 28.55 17.55 27.05 17.85 25.5 19.0 23.9 L19.05 23.8 19.05 23.65 20.2 22.15 M14.05 38.05 L12.6 36.55 13.0 36.6 13.85 37.8 14.05 38.05 M13.0 36.6 L13.95 36.6 15.65 36.6 18.05 37.35 Q27.0 34.25 30.35 34.55 32.15 34.9 32.95 36.25 33.65 37.7 34.65 37.7 32.6 38.85 32.15 40.25 31.5 44.55 30.35 44.55 29.5 44.55 28.1 45.35 L25.0 45.9 25.0 47.0 24.2 47.7 Q34.0 46.05 35.65 46.55 L36.95 47.45 39.15 49.45 39.65 50.05 Q41.8 51.85 43.2 51.85 41.95 52.2 40.5 52.85 L40.25 52.95 39.65 53.25 Q37.85 54.15 36.95 55.1 L36.4 55.9 34.75 58.1 32.45 59.8 31.45 60.3 31.15 59.95 30.25 59.0 29.05 57.85 Q26.85 55.45 25.25 54.75 L27.1 55.45 31.5 57.3 Q32.8 56.6 33.7 55.25 35.25 53.7 35.7 52.3 L35.9 51.15 Q35.9 49.85 35.15 48.95 34.2 48.15 33.0 48.15 29.05 48.15 24.95 49.05 L24.55 50.95 25.25 50.95 22.35 52.6 21.5 51.75 21.65 51.35 21.65 51.7 22.35 52.25 22.35 49.05 21.6 49.85 15.0 51.55 16.65 54.2 19.25 59.75 Q16.55 58.5 14.25 54.4 L12.6 50.8 11.85 52.2 Q7.5 52.8 3.2 50.9 L0.0 48.7 1.75 48.95 1.95 49.05 0.65 49.0 7.55 50.8 21.5 47.95 19.9 47.45 21.6 47.3 22.35 47.9 22.35 45.85 21.6 46.35 18.75 46.55 Q17.45 46.1 16.8 44.9 17.45 46.05 18.75 46.35 L19.65 46.55 Q18.05 46.05 17.05 44.15 16.7 43.4 16.1 40.35 15.8 38.95 14.7 37.85 L13.0 36.6 M35.6 45.9 L36.35 46.05 36.6 46.35 Q36.35 46.05 36.1 46.05 L35.6 45.9 M43.95 52.5 L43.05 52.75 42.7 52.95 43.0 52.75 43.95 52.5 M39.65 54.4 L37.55 56.35 37.25 56.6 37.0 57.05 37.2 56.6 37.45 56.35 Q38.45 55.2 39.65 54.4 M28.65 53.45 L28.65 52.8 Q29.85 52.6 28.7 51.75 28.1 51.15 22.9 53.8 L21.35 54.75 20.05 55.15 Q18.3 54.65 18.05 52.95 18.05 52.25 19.45 52.1 L19.5 52.1 19.4 53.2 20.9 53.7 28.7 50.15 Q31.25 51.25 31.6 51.85 L31.35 52.25 Q30.6 52.95 28.65 53.45 M21.6 38.05 L21.6 37.8 Q19.9 38.6 17.55 38.6 17.3 38.6 17.5 39.3 L18.05 40.35 18.95 40.35 20.05 40.35 21.65 40.25 22.35 41.0 22.6 36.6 21.6 38.05 M21.65 42.35 L20.95 42.45 18.5 42.35 Q18.95 44.55 19.25 44.55 L21.6 44.3 21.6 44.35 22.4 45.35 22.4 41.6 21.65 42.35 M30.15 40.25 L29.85 40.25 Q29.05 39.95 25.25 41.05 L25.25 43.6 25.95 43.45 Q26.45 43.4 27.55 42.7 28.1 42.5 28.8 42.7 L29.05 42.85 Q29.4 42.9 29.4 42.7 L30.15 40.25 M25.45 38.85 Q27.35 37.8 28.3 38.1 29.5 38.6 30.35 39.7 31.0 37.7 30.85 37.3 L30.75 37.15 Q29.95 35.5 25.55 36.6 L25.45 38.85 M26.4 30.65 L26.75 30.0 24.3 30.0 22.6 30.15 Q21.6 30.6 21.5 31.0 21.5 31.55 21.85 31.85 L26.4 30.65" fill="#b20000" fill-rule="evenodd" stroke="none"/>
      <path d="M27.1 28.25 Q27.75 27.8 28.4 26.45 L29.15 24.25 29.3 23.75 29.35 23.05 29.5 20.6 29.75 20.6 Q29.85 21.0 30.6 21.6 L31.35 22.95 31.75 23.7 30.55 23.0 30.5 22.95 30.5 23.0 29.15 27.35 27.1 28.25 M18.05 32.4 Q17.3 31.55 16.9 30.45 L16.9 30.6 16.7 30.0 Q16.4 29.05 16.55 27.85 16.75 26.35 17.75 24.5 L17.85 24.25 17.85 24.05 18.0 23.75 18.6 22.55 Q19.55 20.65 19.9 21.1 L20.2 22.15 19.05 23.65 19.05 23.8 19.0 23.9 Q17.85 25.5 17.55 27.05 17.25 28.55 17.8 30.0 18.1 31.4 19.05 32.0 L18.05 32.4 M14.05 38.05 L13.85 37.8 13.0 36.6 14.7 37.85 Q15.8 38.95 16.1 40.35 16.7 43.4 17.05 44.15 18.05 46.05 19.65 46.55 L18.75 46.35 Q17.45 46.05 16.8 44.9 L16.55 44.6 16.2 44.15 Q15.65 42.9 15.65 41.45 15.65 40.25 14.1 38.1 L14.05 38.05 M15.65 36.6 L16.2 36.6 18.75 36.25 24.55 34.75 28.8 33.85 Q31.35 33.6 32.45 34.55 L33.85 36.0 Q35.6 37.35 36.75 37.7 36.0 37.7 35.15 38.1 33.7 38.9 33.0 40.35 32.6 41.6 32.15 43.9 31.45 45.75 29.05 45.35 L28.1 45.35 Q29.5 44.55 30.35 44.55 31.5 44.55 32.15 40.25 32.6 38.85 34.65 37.7 33.65 37.7 32.95 36.25 32.15 34.9 30.35 34.55 27.0 34.25 18.05 37.35 L15.65 36.6 M25.0 47.0 L32.95 45.9 33.0 45.9 34.2 45.85 35.6 45.9 36.1 46.05 Q36.35 46.05 36.6 46.35 L36.75 46.35 36.95 46.55 39.35 48.2 39.65 48.55 Q42.75 51.3 46.1 52.1 L43.95 52.5 43.0 52.75 42.7 52.95 42.5 52.95 42.15 53.0 39.7 54.35 39.65 54.4 Q38.45 55.2 37.45 56.35 L37.2 56.6 37.0 57.05 36.75 57.3 36.65 57.5 34.55 59.9 34.35 59.95 31.95 62.1 30.7 62.6 30.35 62.6 29.4 60.2 28.85 59.25 28.8 59.15 Q26.85 55.6 24.7 54.7 L25.0 54.75 25.25 54.75 Q26.85 55.45 29.05 57.85 L30.25 59.0 31.15 59.95 31.45 60.3 32.45 59.8 34.75 58.1 36.4 55.9 36.95 55.1 Q37.85 54.15 39.65 53.25 L40.25 52.95 40.5 52.85 Q41.95 52.2 43.2 51.85 41.8 51.85 39.65 50.05 L39.15 49.45 36.95 47.45 35.65 46.55 Q34.0 46.05 24.2 47.7 L25.0 47.0 M25.25 50.95 L25.25 50.9 26.45 50.65 27.35 50.4 Q27.55 50.15 27.35 49.85 27.35 49.15 27.55 49.15 L29.75 49.35 Q31.1 49.85 31.95 50.8 L32.7 51.95 Q33.25 53.25 32.15 53.7 31.2 54.35 29.05 54.1 L28.65 53.45 Q30.6 52.95 31.35 52.25 L31.6 51.85 Q31.25 51.25 28.7 50.15 L20.9 53.7 19.4 53.2 19.5 52.1 20.4 52.0 21.5 51.75 22.35 52.6 25.25 50.95 M21.65 51.35 L21.6 50.8 21.6 50.4 21.6 49.85 22.35 49.05 22.35 52.25 21.65 51.7 21.65 51.35 M19.25 59.75 L17.1 59.45 Q15.1 58.8 14.4 57.35 13.05 55.25 11.85 52.2 L12.6 50.8 14.25 54.4 Q16.55 58.5 19.25 59.75 M1.95 49.05 L5.05 48.95 6.3 48.7 19.9 47.45 21.5 47.95 7.55 50.8 0.65 49.0 1.95 49.05 M21.6 47.3 L21.6 46.35 22.35 45.85 22.35 47.9 21.6 47.3 M21.65 40.25 L21.6 38.05 22.6 36.6 22.35 41.0 21.65 40.25 M21.65 42.35 L22.4 41.6 22.4 45.35 21.6 44.35 21.6 44.3 21.65 42.35" fill="#490000" fill-rule="evenodd" stroke="none"/>
    </g>
  </defs>
</svg>
