<?xml version="1.0" encoding="UTF-8" standalone="no"?>
<svg xmlns:xlink="http://www.w3.org/1999/xlink" height="39.39px" width="30.18px" xmlns="http://www.w3.org/2000/svg">
  <g transform="matrix(0.6, 0.0, 0.0, 0.6, 0.15, 3.6)">
    <use height="61.05" transform="matrix(1.0, 0.0, 0.0, 1.0, 0.05, -4.0)" width="46.1" xlink:href="#shape0"/>
  </g>
  <defs>
    <g id="shape0" transform="matrix(1.0, 0.0, 0.0, 1.0, 0.0, 0.0)">
      <path d="M41.9 14.55 L40.8 14.7 Q36.8 14.7 31.7 12.35 L27.25 9.9 Q26.2 9.1 25.45 7.65 L25.05 6.85 24.25 5.4 23.4 3.9 22.95 2.8 21.45 2.6 19.8 3.0 19.7 3.05 19.35 2.9 18.55 2.8 18.3 2.65 18.6 2.35 18.95 1.95 18.95 1.85 18.35 1.85 17.6 2.8 17.6 2.35 18.2 1.4 18.95 0.6 19.25 0.3 19.9 0.05 20.35 0.0 20.85 0.0 21.6 0.2 22.3 0.5 22.95 0.95 23.85 1.9 24.9 3.5 25.2 3.9 27.3 6.2 28.45 7.3 29.65 8.55 30.8 9.6 31.25 9.95 Q31.4 10.0 32.8 11.0 L36.2 12.9 39.45 13.95 40.65 14.25 41.7 14.45 41.9 14.55 M11.55 14.35 L12.0 14.0 12.85 13.25 13.45 12.6 14.2 11.55 14.7 10.35 Q14.85 9.35 15.15 8.6 L15.2 6.25 15.2 5.85 15.2 5.55 15.25 5.05 Q15.4 4.7 15.95 4.7 16.3 4.7 16.7 5.1 L17.1 5.8 17.3 6.1 18.3 7.65 Q17.4 8.4 16.8 9.65 15.85 11.7 14.65 12.4 L11.55 14.35" fill="#0b173c" fill-rule="evenodd" stroke="none"/>
      <path d="M19.7 3.05 L19.8 3.0 21.45 2.6 22.95 2.8 23.4 3.9 24.25 5.4 25.05 6.85 25.45 7.65 Q26.2 9.1 27.25 9.9 L31.7 12.35 Q36.8 14.7 40.8 14.7 L41.9 14.55 42.15 14.75 42.5 15.1 Q42.5 15.45 41.1 15.7 L38.9 16.3 36.1 16.8 34.55 16.95 33.3 16.95 Q31.2 16.95 29.7 15.65 L26.0 11.1 23.8 8.3 22.7 6.55 22.05 5.45 21.2 4.65 20.55 3.9 20.25 3.6 19.75 3.1 19.7 3.05 M18.3 7.65 L18.7 8.25 20.05 10.25 20.8 11.45 20.35 11.75 19.65 11.95 Q19.1 12.2 18.95 12.4 L18.55 12.9 17.9 13.7 17.15 14.45 15.45 15.7 Q14.1 16.5 11.4 17.2 L10.6 17.4 9.7 17.65 8.6 17.75 7.75 17.7 7.45 17.6 8.05 16.95 8.8 16.4 9.7 15.7 Q10.1 15.35 10.25 15.35 L10.45 15.25 10.6 15.1 11.55 14.35 14.65 12.4 Q15.85 11.7 16.8 9.65 17.4 8.4 18.3 7.65" fill="#173384" fill-rule="evenodd" stroke="none"/>
      <path d="M27.1 26.7 Q27.75 26.25 28.4 24.9 L29.15 22.7 29.3 22.2 29.5 19.05 29.75 19.05 Q29.85 19.45 30.6 20.05 L31.75 22.15 30.5 21.4 29.15 25.8 27.1 26.7 M18.05 30.85 Q17.3 30.0 16.9 28.9 L16.9 29.05 16.7 28.45 Q15.95 26.25 17.85 22.7 L17.85 22.5 Q19.5 18.85 19.9 19.55 L20.2 20.6 19.05 22.1 19.0 22.35 Q16.7 25.55 17.8 28.45 18.1 29.85 19.05 30.45 L18.05 30.85 M14.1 36.55 L13.0 35.05 Q15.65 36.6 16.1 38.8 16.7 41.85 17.05 42.6 18.05 44.5 19.65 45.0 L18.75 44.8 Q17.45 44.5 16.8 43.35 L16.55 43.05 16.2 42.6 Q15.65 41.35 15.65 39.9 15.65 38.7 14.1 36.55 M15.65 35.05 L16.2 35.05 Q18.95 34.85 24.55 33.2 L28.8 32.3 Q31.35 32.05 32.45 33.0 L33.85 34.45 Q35.6 35.8 36.75 36.15 36.0 36.15 35.15 36.55 33.7 37.35 33.0 38.8 32.6 40.05 32.15 42.35 31.45 44.2 29.05 43.8 L28.1 43.8 Q29.5 43.0 30.35 43.0 31.5 43.0 32.15 38.7 32.6 37.3 34.65 36.15 33.65 36.15 32.95 34.7 32.15 33.35 30.35 33.0 27.0 32.7 18.05 35.8 L15.65 35.05 M25.0 45.45 L32.95 44.35 33.0 44.35 34.2 44.3 35.6 44.35 36.1 44.5 Q36.35 44.5 36.6 44.8 L36.75 44.8 36.95 45.0 39.35 46.65 39.65 47.0 40.05 47.35 Q42.95 49.8 46.1 50.55 L43.95 50.95 43.0 51.2 42.7 51.4 42.5 51.4 42.15 51.45 39.7 52.8 39.65 52.85 Q38.45 53.65 37.45 54.8 L37.2 55.05 37.0 55.5 36.75 55.75 36.65 55.95 34.55 58.35 34.35 58.4 31.95 60.55 30.7 61.05 30.35 61.05 Q29.85 59.35 28.8 57.6 L28.1 56.45 Q26.45 53.9 24.7 53.15 L25.0 53.2 25.25 53.2 Q26.85 53.9 29.05 56.3 L29.3 56.55 31.45 58.75 Q33.05 57.95 34.2 57.0 35.65 55.8 36.4 54.35 L36.95 53.55 Q37.85 52.6 39.65 51.7 L40.25 51.4 43.2 50.3 Q41.8 50.3 39.65 48.5 L39.15 47.9 38.75 47.55 36.95 45.9 35.65 45.0 29.55 45.35 24.2 46.15 25.0 45.45 M25.25 49.4 L25.25 49.35 26.45 49.1 27.35 48.85 Q27.55 48.6 27.35 48.3 27.35 47.6 27.55 47.6 L29.75 47.8 Q30.6 48.1 31.3 48.65 L31.95 49.25 Q33.7 51.5 32.15 52.15 31.2 52.8 29.05 52.55 L28.65 51.9 Q30.6 51.4 31.35 50.7 32.35 50.25 29.4 48.9 L28.7 48.6 20.9 52.15 19.4 51.65 19.5 50.55 20.4 50.45 21.5 50.2 22.35 51.05 25.25 49.4 M21.65 49.8 L21.6 49.25 21.6 48.3 22.35 47.5 22.35 50.7 21.65 50.15 21.65 49.8 M19.25 58.2 L17.1 57.9 Q15.1 57.25 14.4 55.8 L14.0 55.15 Q13.05 53.55 12.2 51.55 L11.85 50.65 12.6 49.25 13.5 51.35 14.25 52.85 15.85 55.3 Q17.45 57.35 19.25 58.2 M1.95 47.5 L5.05 47.4 6.3 47.15 19.9 45.9 21.5 46.4 7.55 49.25 0.65 47.45 1.95 47.5 M21.6 45.75 L21.6 44.8 22.35 44.3 22.35 46.35 21.6 45.75 M21.65 40.8 L22.4 40.05 22.4 43.8 21.6 42.8 21.6 42.75 21.65 40.8 M21.65 38.7 L21.6 36.5 22.6 35.05 22.35 39.45 21.65 38.7" fill="#490000" fill-rule="evenodd" stroke="none"/>
      <path d="M31.75 22.15 L31.95 22.9 Q32.45 24.5 33.75 25.7 L34.65 26.7 Q32.6 26.4 31.35 27.4 L29.95 28.05 29.5 28.45 30.75 28.45 Q36.0 28.15 35.6 29.6 L35.15 30.45 Q33.75 31.75 30.85 31.45 L29.95 31.45 Q28.1 31.2 25.25 32.25 21.85 33.45 19.4 33.45 L16.1 32.95 Q14.45 32.5 14.7 31.95 15.1 31.2 18.05 30.85 L19.05 30.45 Q18.1 29.85 17.8 28.45 16.7 25.55 19.0 22.35 L19.05 22.1 20.2 20.6 20.4 21.7 20.15 24.15 Q20.05 26.0 20.65 26.9 L21.5 27.5 23.6 27.7 Q25.65 27.65 26.7 27.0 L26.75 26.9 26.85 26.9 Q26.9 26.7 27.1 26.7 L29.15 25.8 30.5 21.4 31.75 22.15 M13.0 35.05 L14.1 36.55 12.6 35.0 13.0 35.05 13.95 35.05 15.65 35.05 18.05 35.8 Q27.0 32.7 30.35 33.0 32.15 33.35 32.95 34.7 33.65 36.15 34.65 36.15 32.6 37.3 32.15 38.7 31.5 43.0 30.35 43.0 29.5 43.0 28.1 43.8 L25.0 44.35 25.0 45.45 24.2 46.15 29.55 45.35 35.65 45.0 36.95 45.9 38.75 47.55 39.15 47.9 39.65 48.5 Q41.8 50.3 43.2 50.3 L40.25 51.4 39.65 51.7 Q37.85 52.6 36.95 53.55 L36.4 54.35 Q35.65 55.8 34.2 57.0 33.05 57.95 31.45 58.75 L29.3 56.55 29.05 56.3 Q26.85 53.9 25.25 53.2 L27.1 53.9 31.5 55.75 Q32.8 55.05 33.7 53.7 35.9 51.5 35.9 49.6 35.9 48.7 35.55 48.0 L35.15 47.4 Q34.2 46.6 33.0 46.6 29.05 46.6 24.95 47.5 L24.55 49.4 25.25 49.4 22.35 51.05 21.5 50.2 21.6 50.1 21.65 49.8 21.65 50.15 22.35 50.7 22.35 47.5 21.6 48.3 15.0 50.0 15.7 51.0 16.65 52.65 18.1 55.5 19.25 58.2 Q17.45 57.35 15.85 55.3 L14.25 52.85 13.5 51.35 12.6 49.25 11.85 50.65 Q8.5 51.1 5.2 50.1 L3.2 49.35 0.0 47.15 1.75 47.4 1.95 47.5 0.65 47.45 7.55 49.25 21.5 46.4 19.9 45.9 21.6 45.75 22.35 46.35 22.35 44.3 21.6 44.8 18.75 45.0 Q17.45 44.55 16.8 43.35 17.45 44.5 18.75 44.8 L19.65 45.0 Q18.05 44.5 17.05 42.6 16.7 41.85 16.1 38.8 15.65 36.6 13.0 35.05 M35.6 44.35 L36.35 44.5 36.6 44.8 Q36.35 44.5 36.1 44.5 L35.6 44.35 M43.95 50.95 L43.05 51.2 42.7 51.4 43.0 51.2 43.95 50.95 M39.65 52.85 L37.55 54.8 37.25 55.05 37.0 55.5 37.2 55.05 37.45 54.8 Q38.45 53.65 39.65 52.85 M28.65 51.9 L28.65 51.25 Q29.85 51.05 28.7 50.2 28.1 49.6 22.9 52.25 L21.35 53.2 20.05 53.6 Q18.3 53.1 18.05 51.4 18.05 50.7 19.45 50.55 L19.5 50.55 19.4 51.65 20.9 52.15 28.7 48.6 29.4 48.9 Q32.35 50.25 31.35 50.7 30.6 51.4 28.65 51.9 M21.65 40.8 L20.95 40.9 18.5 40.8 Q18.95 43.0 19.25 43.0 L21.6 42.75 21.6 42.8 22.4 43.8 22.4 40.05 21.65 40.8 M21.6 36.5 L21.6 36.25 Q19.9 37.05 17.55 37.05 17.3 37.05 17.5 37.75 L18.05 38.8 18.95 38.8 20.05 38.8 21.65 38.7 22.35 39.45 22.6 35.05 21.6 36.5 M30.15 38.7 L29.85 38.7 Q29.05 38.4 25.25 39.5 L25.25 42.05 25.95 41.9 Q26.45 41.85 27.55 41.15 28.1 40.95 28.8 41.15 L29.05 41.3 Q29.4 41.35 29.4 41.15 L30.15 38.7 M26.4 29.1 L26.75 28.45 24.3 28.45 22.6 28.6 Q21.6 29.05 21.5 29.45 21.5 30.0 21.85 30.3 L26.4 29.1 M30.85 35.75 L30.75 35.6 Q29.95 33.95 25.55 35.05 L25.45 37.3 Q27.35 36.25 28.3 36.55 29.5 37.05 30.35 38.15 31.0 36.15 30.85 35.75" fill="#b20000" fill-rule="evenodd" stroke="none"/>
    </g>
  </defs>
</svg>
