<?xml version="1.0" encoding="UTF-8" standalone="no"?>
<svg xmlns:xlink="http://www.w3.org/1999/xlink" height="39.39px" width="30.18px" xmlns="http://www.w3.org/2000/svg">
  <g transform="matrix(0.6, 0.0, 0.0, 0.6, 0.15, 3.6)">
    <use height="62.35" transform="matrix(1.0, 0.0, 0.0, 1.0, 0.05, -5.15)" width="46.1" xlink:href="#shape0"/>
  </g>
  <defs>
    <g id="shape0" transform="matrix(1.0, 0.0, 0.0, 1.0, 0.0, 0.0)">
      <path d="M24.55 5.4 L24.9 5.2 25.2 4.9 26.6 3.2 Q27.55 1.95 27.85 1.95 L28.15 2.1 28.75 2.6 29.8 3.4 30.65 4.2 31.45 4.9 31.85 5.2 31.95 5.3 32.05 5.35 32.3 5.5 32.6 5.9 32.05 6.55 31.0 7.15 29.9 8.0 29.25 8.7 29.35 6.95 29.2 5.2 29.15 5.0 27.65 5.0 27.15 5.2 26.85 5.2 26.8 5.2 26.15 5.4 24.55 5.4 M27.75 15.55 L27.9 15.55 29.4 15.7 30.9 15.75 33.6 15.55 Q34.35 15.2 34.65 14.0 L34.9 13.1 35.45 10.95 Q35.85 9.15 36.4 8.8 L36.7 8.8 36.8 11.15 37.1 14.35 37.15 15.0 37.45 15.6 38.15 16.3 37.65 17.4 36.05 17.4 33.5 17.2 29.65 16.8 Q28.4 16.6 27.75 15.55 M11.2 8.05 L11.05 7.85 10.55 7.05 10.4 6.5 10.6 6.15 11.1 6.15 12.3 6.25 14.0 6.5 14.75 6.75 16.3 6.95 18.45 6.55 19.55 7.5 19.45 7.8 17.85 8.4 15.25 8.8 12.25 8.55 11.2 8.05 M18.1 4.05 L18.0 3.65 17.35 2.75 16.55 1.95 15.5 1.0 15.0 0.3 15.0 0.0 16.1 0.0 Q18.2 0.1 18.75 0.65 L19.7 1.45 20.7 2.85 21.7 4.5 21.05 4.5 Q19.85 3.3 19.05 3.3 18.25 3.3 18.15 3.9 L18.1 4.05" fill="#0b173c" fill-rule="evenodd" stroke="none"/>
      <path d="M24.55 5.4 L26.15 5.4 26.8 5.2 26.85 5.2 27.15 5.2 27.65 5.0 29.15 5.0 29.2 5.2 29.35 6.95 29.25 8.7 28.95 9.05 Q27.85 10.5 27.45 11.65 L27.2 12.9 27.15 13.0 26.9 14.5 Q26.9 15.2 27.05 15.3 L27.75 15.55 Q28.4 16.6 29.65 16.8 L33.5 17.2 36.05 17.4 37.65 17.4 38.15 16.3 38.4 16.55 39.25 17.4 39.65 18.05 39.65 18.4 39.55 18.65 38.8 19.15 34.2 19.15 32.35 19.25 29.7 19.55 29.55 19.55 28.7 19.55 Q28.05 19.55 26.65 18.6 L26.35 18.4 Q24.8 17.35 24.45 16.55 24.3 16.15 24.3 14.6 L24.3 13.0 Q24.3 12.15 24.55 11.4 L25.25 9.8 25.65 9.0 25.3 7.9 Q24.9 7.25 24.35 7.25 L22.35 7.4 Q22.0 7.55 21.75 8.25 L21.55 9.5 19.45 14.6 18.7 15.7 17.7 16.85 17.25 17.5 16.5 18.2 16.2 18.4 15.85 18.65 15.35 19.05 13.55 20.2 12.85 20.5 Q11.55 21.05 10.5 21.05 L10.05 21.0 10.1 21.0 10.95 20.5 11.8 19.7 12.3 19.25 13.2 18.4 14.35 17.0 16.9 13.55 Q18.15 11.65 18.15 10.8 18.15 9.9 17.65 9.65 L16.2 9.45 15.8 9.55 15.5 10.05 15.0 10.45 14.6 10.65 13.65 10.3 Q12.9 9.9 12.6 9.5 L11.85 8.75 11.2 8.05 12.25 8.55 15.25 8.8 17.85 8.4 19.45 7.8 19.55 7.5 18.45 6.55 18.45 6.5 18.55 6.15 18.35 5.2 18.3 4.95 18.1 4.05 18.15 3.9 Q18.25 3.3 19.05 3.3 19.85 3.3 21.05 4.5 L21.7 4.5 22.05 5.15 22.1 5.2 22.25 5.65 22.55 6.0 23.05 6.1 23.8 6.15 24.1 6.15 23.65 5.95 22.95 5.75 23.0 5.7 24.05 5.55 24.1 5.55 24.55 5.4" fill="#173384" fill-rule="evenodd" stroke="none"/>
      <path d="M20.2 21.9 L20.25 22.05 20.4 23.0 20.15 25.45 Q20.05 27.3 20.65 28.2 L21.5 28.8 23.6 29.0 Q25.65 28.95 26.7 28.3 L26.75 28.2 26.85 28.2 Q26.9 28.0 27.1 28.0 L29.15 27.1 30.0 24.75 30.5 22.7 31.75 23.45 31.95 24.2 32.5 25.45 33.75 27.0 34.65 28.0 Q32.6 27.7 31.35 28.7 L29.95 29.35 29.5 29.75 30.75 29.75 Q34.95 29.5 35.55 30.4 L35.6 30.9 35.15 31.75 Q33.75 33.05 30.85 32.75 L29.95 32.75 27.95 32.8 Q26.75 33.0 25.25 33.55 21.85 34.75 19.4 34.75 L16.1 34.25 Q14.45 33.8 14.7 33.25 15.1 32.5 18.05 32.15 L19.05 31.75 Q18.1 31.15 17.8 29.75 16.7 26.85 19.0 23.65 L19.05 23.4 20.2 21.9 M14.1 37.85 L12.6 36.3 13.0 36.35 13.95 36.35 15.65 36.35 18.05 37.1 Q27.0 34.0 30.35 34.3 32.15 34.65 32.95 36.0 33.65 37.45 34.65 37.45 32.6 38.6 32.15 40.0 L32.15 40.2 Q31.45 44.3 30.35 44.3 29.5 44.3 28.1 45.1 L25.0 45.65 25.0 46.75 24.2 47.45 Q34.0 45.8 35.65 46.3 L36.95 47.2 39.15 49.2 39.65 49.8 Q41.8 51.6 43.2 51.6 L40.25 52.7 39.65 53.0 Q37.85 53.9 36.95 54.85 L36.4 55.65 Q35.0 58.25 31.45 60.05 L29.05 57.6 Q26.85 55.2 25.25 54.5 L27.1 55.2 31.5 57.05 Q32.8 56.35 33.7 55.0 35.9 52.8 35.9 50.9 35.9 49.6 35.15 48.7 34.2 47.9 33.0 47.9 29.05 47.9 24.95 48.8 L24.55 50.7 25.25 50.7 22.35 52.35 21.5 51.5 21.65 51.1 21.65 51.45 22.35 52.0 22.35 48.8 21.6 49.6 15.0 51.3 16.65 53.95 19.25 59.5 Q16.55 58.25 14.25 54.15 L12.6 50.55 11.85 51.95 Q7.5 52.55 3.2 50.65 L0.0 48.45 1.75 48.7 1.95 48.8 0.65 48.75 7.55 50.55 21.5 47.7 19.9 47.2 21.6 47.05 22.35 47.65 22.35 45.6 21.6 46.1 18.75 46.3 Q17.45 45.85 16.8 44.65 17.45 45.8 18.75 46.1 L19.65 46.3 Q18.05 45.8 17.05 43.9 L16.65 42.65 16.1 40.1 Q15.8 38.5 14.35 37.3 L13.0 36.35 13.8 37.45 14.1 37.85 M35.6 45.65 L36.35 45.8 36.6 46.1 Q36.35 45.8 36.1 45.8 L35.6 45.65 M43.95 52.25 L43.05 52.5 42.7 52.7 43.0 52.5 43.95 52.25 M39.65 54.15 L37.55 56.1 37.25 56.35 37.0 56.8 37.2 56.35 37.45 56.1 Q38.45 54.95 39.65 54.15 M28.65 53.2 L28.65 52.55 Q29.85 52.35 28.7 51.5 28.1 50.9 22.9 53.55 L21.35 54.5 20.05 54.9 Q18.3 54.4 18.05 52.7 18.05 52.0 19.45 51.85 L19.5 51.85 19.4 52.95 20.9 53.45 28.7 49.9 Q32.45 51.5 31.35 52.0 30.6 52.7 28.65 53.2 M21.65 42.1 L20.95 42.2 19.55 42.2 18.5 42.1 18.55 42.35 Q18.95 44.3 19.25 44.3 L21.6 44.05 21.6 44.1 22.4 45.1 22.4 41.35 21.65 42.1 M21.6 37.8 L21.6 37.55 Q19.9 38.35 17.55 38.35 17.3 38.35 17.5 39.05 L18.05 40.1 18.95 40.1 20.05 40.1 21.65 40.0 22.35 40.75 22.6 36.35 21.6 37.8 M30.15 40.0 L29.85 40.0 Q29.05 39.7 25.25 40.8 L25.25 43.35 25.95 43.2 Q26.45 43.15 27.55 42.45 28.1 42.25 28.8 42.45 L29.05 42.6 Q29.4 42.65 29.4 42.45 L30.15 40.0 M26.4 30.4 L26.75 29.75 24.3 29.75 22.6 29.9 Q21.6 30.35 21.5 30.75 21.5 31.3 21.85 31.6 L26.4 30.4 M30.85 37.05 L30.75 36.9 Q29.95 35.25 25.55 36.35 L25.45 38.6 Q27.35 37.55 28.3 37.85 29.5 38.35 30.35 39.45 31.0 37.45 30.85 37.05" fill="#b20000" fill-rule="evenodd" stroke="none"/>
      <path d="M27.1 28.0 Q27.75 27.55 28.4 26.2 L29.05 24.45 29.15 24.0 29.3 23.5 29.5 20.35 29.75 20.35 Q29.85 20.75 30.6 21.35 L31.75 23.45 30.5 22.7 30.0 24.75 29.15 27.1 27.1 28.0 M18.05 32.15 Q17.3 31.3 16.9 30.2 L16.9 30.35 16.7 29.75 Q15.95 27.55 17.85 24.0 L17.85 23.8 18.95 21.65 Q19.65 20.4 19.9 20.85 L20.2 21.9 19.05 23.4 19.0 23.65 Q16.7 26.85 17.8 29.75 18.1 31.15 19.05 31.75 L18.05 32.15 M15.65 36.35 L16.2 36.35 17.55 36.2 Q20.2 35.8 24.55 34.5 L28.8 33.6 Q31.35 33.35 32.45 34.3 L33.85 35.75 Q35.6 37.1 36.75 37.45 36.0 37.45 35.15 37.85 33.75 38.65 33.05 40.05 L33.0 40.1 Q32.6 41.35 32.15 43.65 31.45 45.5 29.05 45.1 L28.1 45.1 Q29.5 44.3 30.35 44.3 31.45 44.3 32.15 40.2 L32.15 40.0 Q32.6 38.6 34.65 37.45 33.65 37.45 32.95 36.0 32.15 34.65 30.35 34.3 27.0 34.0 18.05 37.1 L15.65 36.35 M25.0 46.75 L32.95 45.65 33.0 45.65 34.2 45.6 35.6 45.65 36.1 45.8 Q36.35 45.8 36.6 46.1 L36.75 46.1 36.95 46.3 39.35 47.95 39.65 48.3 Q42.75 51.05 46.1 51.85 L43.95 52.25 43.0 52.5 42.7 52.7 42.5 52.7 42.15 52.75 39.7 54.1 39.65 54.15 Q38.45 54.95 37.45 56.1 L37.2 56.35 37.0 56.8 36.75 57.05 36.65 57.25 34.55 59.65 34.35 59.7 31.95 61.85 30.7 62.35 30.35 62.35 Q29.85 60.65 28.8 58.9 26.85 55.35 24.7 54.45 L25.0 54.5 25.25 54.5 Q26.85 55.2 29.05 57.6 L31.45 60.05 Q35.0 58.25 36.4 55.65 L36.95 54.85 Q37.85 53.9 39.65 53.0 L40.25 52.7 43.2 51.6 Q41.8 51.6 39.65 49.8 L39.15 49.2 36.95 47.2 35.65 46.3 Q34.0 45.8 24.2 47.45 L25.0 46.75 M25.25 50.7 L25.25 50.65 26.45 50.4 27.35 50.15 Q27.55 49.9 27.35 49.6 27.35 48.9 27.55 48.9 L29.75 49.1 Q31.1 49.6 31.95 50.55 33.7 52.8 32.15 53.45 31.2 54.1 29.05 53.85 L28.65 53.2 Q30.6 52.7 31.35 52.0 32.45 51.5 28.7 49.9 L20.9 53.45 19.4 52.95 19.5 51.85 20.4 51.75 21.5 51.5 22.35 52.35 25.25 50.7 M21.65 51.1 L21.6 50.55 21.6 49.6 22.35 48.8 22.35 52.0 21.65 51.45 21.65 51.1 M19.25 59.5 L17.1 59.2 Q15.1 58.55 14.4 57.1 13.05 55.0 11.85 51.95 L12.6 50.55 14.25 54.15 Q16.55 58.25 19.25 59.5 M1.95 48.8 L5.05 48.7 6.3 48.45 19.9 47.2 21.5 47.7 7.55 50.55 0.65 48.75 1.95 48.8 M21.6 47.05 L21.6 46.1 22.35 45.6 22.35 47.65 21.6 47.05 M16.8 44.65 L16.55 44.35 16.2 43.9 15.85 42.8 15.65 41.2 Q15.65 40.0 14.1 37.85 L13.8 37.45 13.0 36.35 14.35 37.3 Q15.8 38.5 16.1 40.1 L16.65 42.65 17.05 43.9 Q18.05 45.8 19.65 46.3 L18.75 46.1 Q17.45 45.8 16.8 44.65 M21.65 42.1 L22.4 41.35 22.4 45.1 21.6 44.1 21.6 44.05 21.65 42.1 M21.65 40.0 L21.6 37.8 22.6 36.35 22.35 40.75 21.65 40.0" fill="#490000" fill-rule="evenodd" stroke="none"/>
    </g>
  </defs>
</svg>
